<?xml version="1.0" encoding="utf-8"?>
<!-- Generator: Adobe Illustrator 22.0.1, SVG Export Plug-In . SVG Version: 6.00 Build 0)  -->
<svg version="1.1" id="Calque_1" xmlns="http://www.w3.org/2000/svg" xmlns:xlink="http://www.w3.org/1999/xlink" x="0px" y="0px"
	 viewBox="0 0 432 432" style="enable-background:new 0 0 432 432;" xml:space="preserve">
<style type="text/css">
	.st0{fill:#B78D5C;}
	.st1{fill:#EBCEC6;}
	.st2{fill:#D4B67E;}
	.st3{fill:#EF798A;}
	.st4{fill:#FBD8E3;}
	.st5{fill:#660A1E;}
	.st6{fill:#990033;}
	.st7{fill:#07512C;}
	.st8{fill:#8CC63F;}
	.st9{fill:#006837;}
	.st10{fill:#CCCCCC;}
	.st11{fill:#FFFFFF;}
	.st12{fill:#8A1A31;}
	.st13{fill:#A7A6AA;}
	.st14{fill:#D3A9B2;}
	.st15{fill:#2A2A2B;}
	.st16{fill:#DDC090;}
	.st17{fill:#AF434B;}
	.st18{fill:#62A581;}
	.st19{fill:#94C16C;}
	.st20{fill:#B9011B;}
	.st21{fill:#BABABA;}
	.st22{fill:#754C24;}
	.st23{fill:#A67C52;}
	.st24{fill:#8C6239;}
	.st25{fill:#C69C6D;}
	.st26{fill:#9E1E28;}
	.st27{fill:#D6C188;}
	.st28{fill:#BF364A;}
	.st29{fill:#A1272D;}
	.st30{fill:#BFA76B;}
	.st31{fill:#DCDEDD;}
	.st32{fill:#D89A5D;}
	.st33{fill:#F5EDDB;}
	.st34{fill:#603813;}
	.st35{fill:#4A7575;}
	.st36{fill:#7F3244;}
	.st37{fill:#9E7E5E;}
	.st38{fill:#C1272D;}
	.st39{fill:#561217;}
	.st40{fill:#C49F7A;}
	.st41{fill:#534741;}
	.st42{fill:#999999;}
	.st43{fill:#A80031;}
	.st44{fill:#1A1A1A;}
	.st45{fill:#333333;}
	.st46{fill:#B3B3B3;}
	.st47{fill:#B3A6AD;}
	.st48{fill:#B6B155;}
	.st49{fill:#679CBA;}
	.st50{fill:#0071BC;}
	.st51{fill:#F7931E;}
	.st52{fill:#821119;}
	.st53{fill:#39B54A;}
	.st54{fill:#1B1464;}
	.st55{fill:#FAF3E3;}
	.st56{fill:#DCD2BD;}
	.st57{fill:#F5EDDA;}
	.st58{fill:#815D3C;}
	.st59{fill:#F69331;}
	.st60{fill:#BCA791;}
	.st61{fill:#F9D51D;}
	.st62{fill:#704638;}
	.st63{fill:#A7DBD7;}
	.st64{fill:#DED7CD;}
	.st65{fill:#E89024;}
	.st66{fill:#EACAAC;}
	.st67{fill:#D8B195;}
	.st68{fill:#A50423;}
	.st69{fill:#CC7312;}
	.st70{fill:#9EC5FF;}
	.st71{fill:#6D86B4;}
	.st72{fill:#2E363A;}
	.st73{fill:#FFCC00;}
	.st74{fill:#B58847;}
	.st75{fill:#563315;}
	.st76{fill:#ED0A3A;}
	.st77{fill:#A62714;}
	.st78{fill:#247E5B;}
	.st79{fill:#176041;}
	.st80{fill:#61B756;}
	.st81{fill:#EDDBAE;}
	.st82{fill:#3F3F3F;}
	.st83{fill:#595959;}
	.st84{fill:#484849;}
	.st85{fill:#EFD1B4;}
	.st86{fill:#E0E0E2;}
	.st87{fill:#CCCCCE;}
	.st88{fill:#CEC76B;}
	.st89{fill:#42210B;}
	.st90{fill:#FCACBC;}
	.st91{fill:#D6B994;}
	.st92{fill:#F8C2C2;}
	.st93{fill:#E4D48E;}
	.st94{fill:#A57C53;}
	.st95{fill:#96704B;}
	.st96{fill:#9D6D47;}
	.st97{fill:#591427;}
	.st98{fill:#7CCC71;}
	.st99{fill:#C7B299;}
	.st100{fill:#998675;}
	.st101{fill:#7DC34D;}
	.st102{fill:#80694F;}
	.st103{fill:#FF1C2E;}
	.st104{fill:#A51B29;}
	.st105{fill:#00673B;}
	.st106{fill:#B88464;}
	.st107{fill:#CA986F;}
	.st108{fill:#3F2316;}
	.st109{fill:#F1F1F2;}
	.st110{fill:#00924A;}
	.st111{fill:#C7202F;}
	.st112{fill:#BBBDBF;}
	.st113{fill:#58595B;}
	.st114{fill:#D0D2D3;}
	.st115{fill:#6C6E70;}
	.st116{fill:#663818;}
	.st117{fill:#FF9134;}
	.st118{fill:#AC8D6B;}
	.st119{fill:#CE1F32;}
	.st120{fill:#00B252;}
	.st121{fill:#804D34;}
	.st122{fill:#61A6AF;}
	.st123{fill:#4C838D;}
	.st124{fill:#E6E6E6;}
	.st125{fill:#E6E7E7;}
	.st126{fill:#55396B;}
	.st127{fill:#6F4696;}
	.st128{fill:#9C2D8C;}
	.st129{fill:#915D3F;}
	.st130{fill:none;}
	.st131{fill:#00BCB9;}
	.st132{fill:#00BBB8;}
	.st133{fill:#6C328D;}
	.st134{fill:#5D4A42;}
	.st135{fill:#746559;}
	.st136{fill:#009245;}
	.st137{fill:#808184;}
	.st138{fill:#00A69C;}
	.st139{fill:#0078B8;}
	.st140{fill:#9F847A;}
	.st141{fill:#EECCB3;}
	.st142{fill:#241F20;}
	.st143{fill:#0D5408;}
	.st144{fill:#C9800A;}
	.st145{fill:#083A04;}
	.st146{fill:#BF001A;}
	.st147{fill:#AA0012;}
	.st148{fill:#9E620B;}
	.st149{fill:#A80E28;}
	.st150{fill:#0C3A1F;}
	.st151{fill:#C10A0A;}
	.st152{fill:#0A3D06;}
	.st153{fill:#A30738;}
	.st154{fill:#7F0A2E;}
	.st155{fill:#D8712B;}
	.st156{fill:#C15105;}
	.st157{fill:#F4A00B;}
	.st158{fill:#10440A;}
	.st159{fill:#A00E0E;}
	.st160{fill:#0F230D;}
	.st161{fill:#B20B33;}
	.st162{fill:#E5E5E5;}
	.st163{fill:#11722D;}
	.st164{fill:#0B281A;}
	.st165{fill:#E59D1F;}
	.st166{fill:#C60924;}
	.st167{fill:#960820;}
	.st168{fill:#AD1431;}
	.st169{fill:#E24756;}
	.st170{fill:#CE364C;}
	.st171{fill:#A50707;}
	.st172{fill:#4A9B29;}
	.st173{fill:#468E24;}
	.st174{fill:#AF0E22;}
	.st175{fill:#EDECE6;}
	.st176{fill:#54220E;}
	.st177{fill:#592C1C;}
	.st178{fill:#EFEAC7;}
	.st179{fill:#042111;}
	.st180{fill:#A80C0C;}
</style>
<g>
	<g>
		<path class="st99" d="M322,197.7c-6.7-6.7-29.1,5.1-50.2,26.2c-2.5,2.5-4.8,4.9-7,7.4c-1-1.7-2.1-3.4-3.3-5
			c19.5-14.3,32.2-37.4,32.2-63.5c0-18.8-6.6-36.1-17.7-49.7c27.1-8.4,26.6-26.7,9.2-41c-16.7-13.7-27.6,6.1-31,22.5
			c-11.5-6.7-24.9-10.5-39.2-10.5c-14.6,0-28.2,4-39.9,10.9c-3.3-16.5-14.2-36.8-31.1-23c-17.5,14.4-17.8,32.9,9.9,41.2
			c-11,13.5-17.5,30.7-17.5,49.5c0,25.7,12.3,48.5,31.3,62.8c-1.1,1.5-2.2,3.2-3.2,4.8c-1.4-1.5-2.8-2.9-4.2-4.4
			c-21.1-21.1-43.6-32.8-50.2-26.2c-6.7,6.7,5.1,29.1,26.2,50.2c5.6,5.6,11.2,10.5,16.7,14.6c-0.4,3.5-0.6,7.1-0.6,10.8
			c0,17.7,5,34,13.4,46.8c-3.5,1.6-7.1,3.6-10.6,6c-14.9,10.3-23,24.3-18.1,31.3c4.9,7,20.9,4.4,35.7-5.9c5.1-3.6,9.5-7.6,12.7-11.6
			c8.7,5.6,18.5,8.7,29,8.7c10.7,0,20.7-3.3,29.5-9c3.3,4.1,7.7,8.2,13,11.9c14.9,10.3,30.8,12.9,35.7,5.9c4.9-7-3.2-21.1-18.1-31.3
			c-3.7-2.6-7.5-4.7-11.2-6.3c8.3-12.8,13.3-29,13.3-46.6c0-3.6-0.2-7.1-0.6-10.5c6.4-4.5,13.2-10.3,19.9-16.9
			C316.9,226.8,328.6,204.3,322,197.7z"/>
		<g>
			<g>
				<circle class="st100" cx="215.1" cy="177.1" r="50.2"/>
				<ellipse class="st100" cx="214.7" cy="279.6" rx="39.1" ry="45.2"/>
				<g>
					
						<ellipse transform="matrix(0.66 -0.7513 0.7513 0.66 -52.6771 304.5068)" class="st100" cx="310.1" cy="210.4" rx="11" ry="6.4"/>
					
						<ellipse transform="matrix(0.7513 -0.66 0.66 0.7513 -109.6801 133.2073)" class="st100" cx="121.9" cy="212.1" rx="6.4" ry="11"/>
				</g>
				<g>
					
						<ellipse transform="matrix(0.7513 -0.66 0.66 0.7513 -161.2862 269.6032)" class="st100" cx="277.1" cy="348.8" rx="6.4" ry="11"/>
					
						<ellipse transform="matrix(0.66 -0.7513 0.7513 0.66 -210.6662 232.1508)" class="st100" cx="151.1" cy="348.8" rx="11" ry="6.4"/>
				</g>
				<g>
					<path class="st100" d="M156.1,106.4c-3.8,1.2-24.2-9.9-10.5-23.3s22.7,9.2,20.7,15.6C164.6,104.5,156.1,106.4,156.1,106.4z"/>
					<path class="st100" d="M272,106.4c3.8,1.2,24.2-9.9,10.5-23.3c-13.7-13.4-22.7,9.2-20.7,15.6C263.6,104.5,272,106.4,272,106.4z
						"/>
				</g>
			</g>
			<g>
				<circle cx="184.9" cy="122.9" r="4.6"/>
				<circle cx="244.6" cy="122.9" r="4.6"/>
				<path d="M251.1,169.2c-5.2,6.5-17.1,10.9-31.8,11.6c-0.8,0-1.6,0.1-2.4,0.1v-41.4c5.4-0.6,9.5-3.6,9.5-7.3
					c0-4.1-5.1-7.5-11.3-7.5s-11.3,3.3-11.3,7.5c0,3.7,4.1,6.8,9.5,7.3v41.4c-14.8-0.2-28.1-4.2-34.3-10.5l-2.5,2.5
					c7.1,7.2,21.8,11.6,38.2,11.6c1.6,0,3.2,0,4.9-0.1c16-0.8,28.5-5.6,34.4-13L251.1,169.2z"/>
			</g>
		</g>
	</g>
	<g>
		<g>
			<path class="st20" d="M321.5,262.7v101.7c0,1.5-1.3,2.8-2.8,2.8H113.8c-1.5,0-2.8-1.3-2.8-2.8V262.7c0-1.5,1.3-2.8,2.8-2.8h204.9
				C320.3,259.9,321.5,261.2,321.5,262.7z"/>
			<polygon class="st78" points="321,296.8 321,330.4 230.7,330.4 230.7,367.2 197.2,367.2 197.2,330.4 110.5,330.4 110.5,296.8 
				197.2,296.8 197.2,259.9 230.7,259.9 230.7,296.8 			"/>
		</g>
		<g>
			<path class="st20" d="M316.3,121.9c-0.1,0.3-0.1,0.7-0.2,0.9c-0.5,1.7-1.6,2.5-2.9,1.7c-0.4-0.3-0.9-0.6-1.2-1.1
				c-0.9-1.1-1.8-2.3-2.6-3.5c-1.7-2.5-3.4-5-5.1-7.4c-1-1.4-2.1-2.7-3.4-3.7c-1.1-0.9-2.4-1.6-3.7-1.9c-1-0.2-2.1-0.1-3.1,0.3
				c-1.5,0.6-2.8,1.6-4,3.1c-0.9,1.2-1.7,2.3-2.3,3.8c-0.4,1.1-1.2,1.5-2,1.4c-0.9-0.1-1.7-0.4-2.6-0.7c-3.9-1.4-7.5-3.6-10.8-6.5
				c-2.9-2.6-5.9-4.9-9-7.1c-0.3-0.2-0.6-0.4-0.9-0.5c-5.9-2.8-11.8-5.9-17.6-9.1c-3.2-1.8-6.5-3.3-9.8-4.9
				c-1.2-0.6-2.4-0.8-3.7-1.2c-0.7-0.2-1.4-0.5-2-1.1c-0.6-0.5-0.7-1.1-0.4-2c0.2-0.7,0.6-1.2,1.1-1.7c1.4-1.6,3-2.7,4.8-3.5
				c1.2-0.5,2.4-1.2,3.6-1.9c3.9-2.4,7.9-4.1,12-5.5c6.8-2.2,13.6-3.8,20.5-4.6c2.7-0.3,5.4-0.4,8.2-0.4c2.2,0,4.3,0,6.5,0.2
				c4.5,0.3,8.8,1.5,12.8,4.2c2.6,1.8,4.8,4.2,6.4,7.3c0.9,1.7,1.7,3.4,2.4,5.2c4,10.9,6.9,22.4,8.6,34.5c0.2,1.5,0.3,3.1,0.4,4.6
				C316.4,121.1,316.3,121.5,316.3,121.9z"/>
			<g>
				<path class="st55" d="M288.1,127.4c-1.9-0.2-3.4-0.6-4.9-1.4c-3.8-2.1-7.7-3.7-11.7-5.4c-6.7-2.9-13.3-6.3-19.8-10
					c-5.2-3-10.4-5.7-15.7-8.5c-4.1-2.2-8.1-4.6-12-7.4c-0.9-0.7-1.8-1.5-2.7-2.3c-0.5-0.5-1-1.1-1.4-1.8c-1.9-3-1.5-7,1-9.6
					c1.5-1.5,3.3-2.4,5.1-2.7c2-0.4,3.9,0.1,5.7,1c4.1,2.1,8.1,4.3,12.2,6.4c3.4,1.8,6.9,3.5,10.3,5.3c9.2,4.8,18.1,10.1,26.9,16
					c2.8,1.9,5.5,3.8,8.3,5.5c0.9,0.5,1.7,1.2,2.5,1.9c1.1,1,2,2.3,2.6,3.9c0.5,1.4,0.5,2.8,0.1,4.3c-0.8,3-2.7,4.7-5.1,4.9
					C289,127.5,288.4,127.4,288.1,127.4z"/>
				<path class="st55" d="M316.7,121.2c2.8,0.3,4.7,2.8,4.8,6.2c0.1,4.6-2.2,7.4-5.6,8.1c-2.9,0.6-5.6-2.3-5.9-6.3
					c-0.1-0.7,0-1.4,0-2.1c0.1-1.8,0.9-3.2,2.1-4.2C313.6,121.6,315.3,121.1,316.7,121.2z"/>
			</g>
		</g>
	</g>
</g>
</svg>
