<?xml version="1.0" encoding="utf-8"?>
<!-- Generator: Adobe Illustrator 22.0.1, SVG Export Plug-In . SVG Version: 6.00 Build 0)  -->
<svg version="1.1" id="Calque_1" xmlns="http://www.w3.org/2000/svg" xmlns:xlink="http://www.w3.org/1999/xlink" x="0px" y="0px"
	 viewBox="0 0 432 432" style="enable-background:new 0 0 432 432;" xml:space="preserve">
<style type="text/css">
	.st0{fill:#B78D5C;}
	.st1{fill:#EBCEC6;}
	.st2{fill:#D4B67E;}
	.st3{fill:#EF798A;}
	.st4{fill:#FBD8E3;}
	.st5{fill:#660A1E;}
	.st6{fill:#990033;}
	.st7{fill:#07512C;}
	.st8{fill:#8CC63F;}
	.st9{fill:#006837;}
	.st10{fill:#CCCCCC;}
	.st11{fill:#FFFFFF;}
	.st12{fill:#8A1A31;}
	.st13{fill:#A7A6AA;}
	.st14{fill:#D3A9B2;}
	.st15{fill:#2A2A2B;}
	.st16{fill:#DDC090;}
	.st17{fill:#AF434B;}
	.st18{fill:#62A581;}
	.st19{fill:#94C16C;}
	.st20{fill:#B9011B;}
	.st21{fill:#BABABA;}
	.st22{fill:#754C24;}
	.st23{fill:#A67C52;}
	.st24{fill:#8C6239;}
	.st25{fill:#C69C6D;}
	.st26{fill:#9E1E28;}
	.st27{fill:#D6C188;}
	.st28{fill:#BF364A;}
	.st29{fill:#A1272D;}
	.st30{fill:#BFA76B;}
	.st31{fill:#DCDEDD;}
	.st32{fill:#D89A5D;}
	.st33{fill:#F5EDDB;}
	.st34{fill:#603813;}
	.st35{fill:#4A7575;}
	.st36{fill:#7F3244;}
	.st37{fill:#9E7E5E;}
	.st38{fill:#C1272D;}
	.st39{fill:#561217;}
	.st40{fill:#C49F7A;}
	.st41{fill:#534741;}
	.st42{fill:#999999;}
	.st43{fill:#A80031;}
	.st44{fill:#1A1A1A;}
	.st45{fill:#333333;}
	.st46{fill:#B3B3B3;}
	.st47{fill:#B3A6AD;}
	.st48{fill:#B6B155;}
	.st49{fill:#679CBA;}
	.st50{fill:#0071BC;}
	.st51{fill:#F7931E;}
	.st52{fill:#821119;}
	.st53{fill:#39B54A;}
	.st54{fill:#1B1464;}
	.st55{fill:#FAF3E3;}
	.st56{fill:#DCD2BD;}
	.st57{fill:#F5EDDA;}
	.st58{fill:#815D3C;}
	.st59{fill:#F69331;}
	.st60{fill:#BCA791;}
	.st61{fill:#F9D51D;}
	.st62{fill:#704638;}
	.st63{fill:#A7DBD7;}
	.st64{fill:#DED7CD;}
	.st65{fill:#E89024;}
	.st66{fill:#EACAAC;}
	.st67{fill:#D8B195;}
	.st68{fill:#A50423;}
	.st69{fill:#CC7312;}
	.st70{fill:#9EC5FF;}
	.st71{fill:#6D86B4;}
	.st72{fill:#2E363A;}
	.st73{fill:#FFCC00;}
	.st74{fill:#B58847;}
	.st75{fill:#563315;}
	.st76{fill:#ED0A3A;}
	.st77{fill:#A62714;}
	.st78{fill:#247E5B;}
	.st79{fill:#176041;}
	.st80{fill:#61B756;}
	.st81{fill:#EDDBAE;}
	.st82{fill:#3F3F3F;}
	.st83{fill:#595959;}
	.st84{fill:#484849;}
	.st85{fill:#EFD1B4;}
	.st86{fill:#E0E0E2;}
	.st87{fill:#CCCCCE;}
	.st88{fill:#CEC76B;}
	.st89{fill:#42210B;}
	.st90{fill:#FCACBC;}
	.st91{fill:#D6B994;}
	.st92{fill:#F8C2C2;}
	.st93{fill:#E4D48E;}
	.st94{fill:#A57C53;}
	.st95{fill:#96704B;}
	.st96{fill:#9D6D47;}
	.st97{fill:#591427;}
	.st98{fill:#7CCC71;}
	.st99{fill:#C7B299;}
	.st100{fill:#998675;}
	.st101{fill:#7DC34D;}
	.st102{fill:#80694F;}
	.st103{fill:#FF1C2E;}
	.st104{fill:#A51B29;}
	.st105{fill:#00673B;}
	.st106{fill:#B88464;}
	.st107{fill:#CA986F;}
	.st108{fill:#3F2316;}
	.st109{fill:#F1F1F2;}
	.st110{fill:#00924A;}
	.st111{fill:#C7202F;}
	.st112{fill:#BBBDBF;}
	.st113{fill:#58595B;}
	.st114{fill:#D0D2D3;}
	.st115{fill:#6C6E70;}
	.st116{fill:#663818;}
	.st117{fill:#FF9134;}
	.st118{fill:#AC8D6B;}
	.st119{fill:#CE1F32;}
	.st120{fill:#00B252;}
	.st121{fill:#804D34;}
	.st122{fill:#61A6AF;}
	.st123{fill:#4C838D;}
	.st124{fill:#E6E6E6;}
	.st125{fill:#E6E7E7;}
	.st126{fill:#55396B;}
	.st127{fill:#6F4696;}
	.st128{fill:#9C2D8C;}
	.st129{fill:#915D3F;}
	.st130{fill:none;}
	.st131{fill:#00BCB9;}
	.st132{fill:#00BBB8;}
	.st133{fill:#6C328D;}
	.st134{fill:#5D4A42;}
	.st135{fill:#746559;}
	.st136{fill:#009245;}
	.st137{fill:#808184;}
	.st138{fill:#00A69C;}
	.st139{fill:#0078B8;}
	.st140{fill:#9F847A;}
	.st141{fill:#EECCB3;}
	.st142{fill:#241F20;}
	.st143{fill:#0D5408;}
	.st144{fill:#C9800A;}
	.st145{fill:#083A04;}
	.st146{fill:#BF001A;}
	.st147{fill:#AA0012;}
	.st148{fill:#9E620B;}
	.st149{fill:#A80E28;}
	.st150{fill:#0C3A1F;}
	.st151{fill:#C10A0A;}
	.st152{fill:#0A3D06;}
	.st153{fill:#A30738;}
	.st154{fill:#7F0A2E;}
	.st155{fill:#D8712B;}
	.st156{fill:#C15105;}
	.st157{fill:#F4A00B;}
	.st158{fill:#10440A;}
	.st159{fill:#A00E0E;}
	.st160{fill:#0F230D;}
	.st161{fill:#B20B33;}
	.st162{fill:#E5E5E5;}
	.st163{fill:#11722D;}
	.st164{fill:#0B281A;}
	.st165{fill:#E59D1F;}
	.st166{fill:#C60924;}
	.st167{fill:#960820;}
	.st168{fill:#AD1431;}
	.st169{fill:#E24756;}
	.st170{fill:#CE364C;}
	.st171{fill:#A50707;}
	.st172{fill:#4A9B29;}
	.st173{fill:#468E24;}
	.st174{fill:#AF0E22;}
	.st175{fill:#EDECE6;}
	.st176{fill:#54220E;}
	.st177{fill:#592C1C;}
	.st178{fill:#EFEAC7;}
	.st179{fill:#042111;}
	.st180{fill:#A80C0C;}
</style>
<g>
	<path class="st22" d="M338.8,331.4h-1.2v-6.3c0-3.8-3.1-7-7-7h-16.5V206.7c0-3.4,0.1-5,0.1-7.3h13.4c3.8,0,7-3.1,7-7v-21.9
		c0-3.8-3.1-7-7-7h-6.8c-3.1-55.1-48.7-98.8-104.5-98.8s-101.4,43.7-104.5,98.8h-5.8c-3.8,0-7,3.1-7,7v21.9c0,3.8,3.1,7,7,7h12.6
		c0,2.7-0.1,4.4-0.1,7.3v111.5h-17c-3.8,0-7,3.1-7,7v6.3h-1.2c-3.8,0-7,3.1-7,7v21.9c0,3.8,3.1,7,7,7h245.6c3.8,0,7-3.1,7-7v-21.9
		C345.8,334.5,342.7,331.4,338.8,331.4z"/>
	<g>
		<path class="st27" d="M131.4,225.3v92.9h169.2v-92.9c0,0-10.4,43.9-84.6,43.9C146.6,269.3,131.4,225.3,131.4,225.3z"/>
		<circle class="st27" cx="216" cy="169.5" r="85.5"/>
	</g>
	<g>
		<circle class="st81" cx="216" cy="169.5" r="62.1"/>
		<path class="st81" d="M246.5,308.6h-61c-2.4,0-4.4-2-4.4-4.4v-20.7c0-2.4,2-4.4,4.4-4.4h61c2.4,0,4.4,2,4.4,4.4v20.7
			C250.9,306.6,248.9,308.6,246.5,308.6z"/>
	</g>
	<g>
		<g>
			<path d="M211,121.7c0.1-0.2,0.2-0.4,0.2-0.5c0.7-1.5,1.3-3.1,2-4.6c0.1-0.3,0-0.5-0.1-0.7c-0.1-0.1-0.2-0.3-0.2-0.3
				c0.1-0.1,0.2-0.2,0.3-0.2c0.5,0,1,0,1.5,0c0.2,0,0.3,0.1,0.3,0.2c0,0.2-0.1,0.3-0.3,0.3c-0.3,0.1-0.4,0.2-0.5,0.4
				c-0.8,1.9-1.6,3.9-2.4,5.8c-0.3,0.6-0.3,1.2-0.1,1.8c0.6,1.5,1.1,3,1.7,4.5c0.2,0.5,0.4,0.9,0.6,1.4c0.1,0.3,0.3,0.4,0.5,0.5
				c0.4,0.1,0.5,0.2,0.4,0.4c-0.1,0.3-0.3,0.2-0.5,0.2c-0.6,0-1.3,0-1.9,0.1c-0.2,0-0.3,0-0.5-0.1c-0.1,0-0.3-0.1-0.2-0.3
				c0-0.1,0.1-0.2,0.2-0.2c0.1-0.1,0.3-0.1,0.5-0.1c-0.6-1.7-1.3-3.4-1.9-5.2c-0.1,0.1-0.1,0.2-0.2,0.3c-0.6,1.4-1.2,2.9-1.8,4.3
				c-0.2,0.4-0.1,0.5,0.2,0.7c0.1,0.1,0.3,0.2,0.2,0.4c0,0.2-0.2,0.2-0.4,0.3c-0.1,0-0.2,0-0.3,0c-0.5,0-1.1-0.1-1.6-0.1
				c-0.1,0-0.2-0.1-0.3-0.1c-0.2-0.1-0.2-0.4,0-0.5c0,0,0.1-0.1,0.2-0.1c0.5,0,0.8-0.4,0.9-0.8c0.8-1.8,1.5-3.7,2.3-5.5
				c0.1-0.3,0.1-0.5,0-0.8c-0.6-1.6-1.1-3.2-1.7-4.8c-0.2-0.7-0.5-1.3-0.8-1.9c-0.1-0.3-0.3-0.5-0.6-0.6c-0.1,0-0.2-0.1-0.3-0.2
				c-0.1-0.1-0.2-0.2-0.2-0.3c0-0.1,0.1-0.2,0.3-0.2c0.1,0,0.2,0,0.3,0c0.7,0,1.4,0,2.1,0c0.1,0,0.1,0,0.2,0c0.1,0,0.2,0.2,0.1,0.3
				c0,0-0.1,0.1-0.1,0.1c-0.4,0.3-0.4,0.5-0.3,0.9c0.1,0.3,0.3,0.6,0.4,1c0.5,1.2,0.9,2.3,1.4,3.5
				C210.9,121.4,210.9,121.5,211,121.7z"/>
			<path d="M260.4,201.1c0.3-1.4,0.6-2.7,0.9-4.1c0.5-2.1,1-4.3,1.5-6.4c0-0.1,0.1-0.2,0.1-0.3c0.1-0.5-0.1-0.7-0.6-0.9
				c-0.1,0-0.1,0-0.2-0.1c-0.1-0.1-0.1-0.3,0-0.3c0.1-0.1,0.2-0.1,0.4-0.1c0.8,0,1.6,0,2.3,0c0,0,0.1,0,0.1,0c0.1,0,0.3,0.1,0.3,0.2
				c0,0.1-0.1,0.2-0.2,0.3c-0.1,0.1-0.2,0.1-0.4,0.1c-0.6,0.1-0.8,0.5-1,1c-0.6,2.8-1.2,5.7-1.9,8.5c-0.3,1.5-0.7,2.9-1.1,4.4
				c-0.1,0.3-0.2,0.6-0.3,0.8c-0.2,0.4-0.6,0.3-0.7,0c-0.1-0.2-0.1-0.3-0.2-0.5c-1.1-3.4-2.1-6.8-2.9-10.2c-0.3-1.1-0.5-2.2-0.7-3.3
				c0-0.2-0.1-0.4-0.3-0.5c-0.1-0.1-0.2-0.1-0.4-0.2c-0.2-0.1-0.3-0.1-0.3-0.3c0-0.2,0.2-0.2,0.4-0.2c0.1,0,0.2,0,0.3,0
				c0.6,0,1.2,0,1.7,0c0.2,0,0.4,0.1,0.6,0.2c0.1,0.1,0.1,0.3,0,0.4c-0.1,0.1-0.3,0.1-0.4,0.2c-0.1,0.2,0,0.4,0,0.6
				c0.3,1.4,0.6,2.8,0.9,4.2c0.5,2.1,1.1,4.2,1.8,6.2C260.2,200.9,260.2,201,260.4,201.1C260.3,201.1,260.3,201.1,260.4,201.1z"/>
			<path d="M240.7,218.2c0.3-1.4,0.6-2.7,0.9-4.1c0.5-2.1,1-4.3,1.5-6.4c0-0.1,0.1-0.2,0.1-0.3c0.1-0.5-0.1-0.7-0.6-0.9
				c-0.1,0-0.1,0-0.2-0.1c-0.1-0.1-0.1-0.3,0-0.3c0.1-0.1,0.2-0.1,0.4-0.1c0.8,0,1.6,0,2.3,0c0,0,0.1,0,0.1,0c0.1,0,0.3,0.1,0.3,0.2
				c0,0.1-0.1,0.2-0.2,0.3c-0.1,0.1-0.2,0.1-0.4,0.1c-0.6,0.1-0.8,0.5-1,1c-0.6,2.8-1.2,5.7-1.9,8.5c-0.3,1.5-0.7,2.9-1.1,4.4
				c-0.1,0.3-0.2,0.6-0.3,0.8c-0.2,0.4-0.6,0.3-0.7,0c-0.1-0.2-0.1-0.3-0.2-0.5c-1.1-3.4-2.1-6.8-2.9-10.2c-0.3-1.1-0.5-2.2-0.7-3.3
				c0-0.2-0.1-0.4-0.3-0.5c-0.1-0.1-0.2-0.1-0.4-0.2c-0.2-0.1-0.3-0.1-0.3-0.3c0-0.2,0.2-0.2,0.4-0.2c0.1,0,0.2,0,0.3,0
				c0.6,0,1.2,0,1.7,0c0.2,0,0.4,0.1,0.6,0.2c0.1,0.1,0.1,0.3,0,0.4c-0.1,0.1-0.3,0.1-0.4,0.2c-0.1,0.2,0,0.4,0,0.6
				c0.3,1.4,0.6,2.8,0.9,4.2c0.5,2.1,1.1,4.2,1.8,6.2C240.5,217.9,240.6,218.1,240.7,218.2C240.7,218.2,240.7,218.2,240.7,218.2z"/>
			<path d="M217.5,115.5c0.3,0,0.5,0,0.8,0c0.1,0,0.2,0,0.3,0.1c0.1,0.1,0.2,0.2,0.2,0.3c0,0.1-0.1,0.3-0.2,0.3
				c-0.5,0.1-0.6,0.5-0.6,0.9c0,0.8,0,1.5,0,2.3c0,1.1,0.1,2.1,0.1,3.2c0,1.5,0.1,2.9,0.1,4.4c0,0.8,0.1,1.6,0.1,2.3
				c0,0.5,0.3,0.9,0.7,1.2c0.1,0,0.1,0,0.2,0.1c0.1,0.1,0.2,0.2,0.2,0.3c0,0.2-0.1,0.2-0.3,0.2c-0.9,0-1.9,0.1-2.8,0.1
				c-0.2,0-0.3-0.1-0.3-0.2c0-0.1,0.1-0.2,0.2-0.3c0.1-0.1,0.2-0.1,0.3-0.2c0.3-0.2,0.5-0.5,0.5-0.9c-0.1-2.4-0.1-4.7-0.2-7.1
				c0-1.5,0-3,0-4.4c0-0.3,0-0.7-0.1-1c0-0.3-0.2-0.6-0.5-0.8c-0.1-0.1-0.3-0.2-0.2-0.4c0.1-0.2,0.3-0.2,0.4-0.2
				C216.9,115.5,217.2,115.5,217.5,115.5C217.5,115.5,217.5,115.5,217.5,115.5z"/>
			<path d="M189.3,125.8c0.1-0.2,0.2-0.4,0.2-0.5c0.7-1.5,1.3-3.1,2-4.6c0.1-0.3,0-0.5-0.1-0.7c-0.1-0.1-0.2-0.3-0.2-0.3
				c0.1-0.1,0.2-0.2,0.3-0.2c0.5,0,1,0,1.5,0c0.2,0,0.3,0.1,0.3,0.2c0,0.2-0.1,0.3-0.3,0.3c-0.3,0.1-0.4,0.2-0.5,0.4
				c-0.8,1.9-1.6,3.9-2.4,5.8c-0.3,0.6-0.3,1.2-0.1,1.8c0.6,1.5,1.1,3,1.7,4.5c0.2,0.5,0.4,0.9,0.6,1.4c0.1,0.3,0.3,0.4,0.5,0.5
				c0.4,0.1,0.5,0.2,0.4,0.4c-0.1,0.3-0.3,0.2-0.5,0.2c-0.6,0-1.3,0-1.9,0.1c-0.2,0-0.3,0-0.5-0.1c-0.1,0-0.3-0.1-0.2-0.3
				c0-0.1,0.1-0.2,0.2-0.2c0.1-0.1,0.3-0.1,0.5-0.1c-0.6-1.7-1.3-3.4-1.9-5.2c-0.1,0.1-0.1,0.2-0.2,0.3c-0.6,1.4-1.2,2.9-1.8,4.3
				c-0.2,0.4-0.1,0.5,0.2,0.7c0.1,0.1,0.3,0.2,0.2,0.4c0,0.2-0.2,0.2-0.4,0.3c-0.1,0-0.2,0-0.3,0c-0.5,0-1.1-0.1-1.6-0.1
				c-0.1,0-0.2-0.1-0.3-0.1c-0.2-0.1-0.2-0.4,0-0.5c0,0,0.1-0.1,0.2-0.1c0.5,0,0.8-0.4,0.9-0.8c0.8-1.8,1.5-3.7,2.3-5.5
				c0.1-0.3,0.1-0.5,0-0.8c-0.6-1.6-1.1-3.2-1.7-4.8c-0.2-0.7-0.5-1.3-0.8-1.9c-0.1-0.3-0.3-0.5-0.6-0.6c-0.1,0-0.2-0.1-0.3-0.2
				c-0.1-0.1-0.2-0.2-0.2-0.3c0-0.1,0.1-0.2,0.3-0.2c0.1,0,0.2,0,0.3,0c0.7,0,1.4,0,2.1,0c0.1,0,0.1,0,0.2,0c0.1,0,0.2,0.2,0.1,0.3
				c0,0-0.1,0.1-0.1,0.1c-0.4,0.3-0.4,0.5-0.3,0.9c0.1,0.3,0.3,0.6,0.4,1c0.5,1.2,0.9,2.3,1.4,3.5
				C189.1,125.5,189.2,125.6,189.3,125.8z"/>
			<path d="M195.8,119.6c0.3,0,0.5,0,0.8,0c0.1,0,0.2,0,0.3,0.1c0.1,0.1,0.2,0.2,0.2,0.3c0,0.1-0.1,0.3-0.2,0.3
				c-0.5,0.1-0.6,0.5-0.6,0.9c0,0.8,0,1.5,0,2.3c0,1.1,0.1,2.1,0.1,3.2c0,1.5,0.1,2.9,0.1,4.4c0,0.8,0.1,1.6,0.1,2.3
				c0,0.5,0.3,0.9,0.7,1.2c0.1,0,0.1,0,0.2,0.1c0.1,0.1,0.2,0.2,0.2,0.3c0,0.2-0.1,0.2-0.3,0.2c-0.9,0-1.9,0.1-2.8,0.1
				c-0.2,0-0.3-0.1-0.3-0.2c0-0.1,0.1-0.2,0.2-0.3c0.1-0.1,0.2-0.1,0.3-0.2c0.3-0.2,0.5-0.5,0.5-0.9c-0.1-2.4-0.1-4.7-0.2-7.1
				c0-1.5,0-3,0-4.4c0-0.3,0-0.7-0.1-1c0-0.3-0.2-0.6-0.5-0.8c-0.1-0.1-0.3-0.2-0.2-0.4c0.1-0.2,0.3-0.2,0.4-0.2
				C195.2,119.6,195.5,119.6,195.8,119.6C195.8,119.6,195.8,119.6,195.8,119.6z"/>
			<path d="M167,166.5c0.1-0.2,0.2-0.4,0.2-0.5c0.7-1.5,1.3-3.1,2-4.6c0.1-0.3,0-0.5-0.1-0.7c-0.1-0.1-0.2-0.3-0.2-0.3
				c0.1-0.1,0.2-0.2,0.3-0.2c0.5,0,1,0,1.5,0c0.2,0,0.3,0.1,0.3,0.2c0,0.2-0.1,0.3-0.3,0.3c-0.3,0.1-0.4,0.2-0.5,0.4
				c-0.8,1.9-1.6,3.9-2.4,5.8c-0.3,0.6-0.3,1.2-0.1,1.8c0.6,1.5,1.1,3,1.7,4.5c0.2,0.5,0.4,0.9,0.6,1.4c0.1,0.3,0.3,0.4,0.5,0.5
				c0.4,0.1,0.5,0.2,0.4,0.4c-0.1,0.3-0.3,0.2-0.5,0.2c-0.6,0-1.3,0-1.9,0.1c-0.2,0-0.3,0-0.5-0.1c-0.1,0-0.3-0.1-0.2-0.3
				c0-0.1,0.1-0.2,0.2-0.2c0.1-0.1,0.3-0.1,0.5-0.1c-0.6-1.7-1.3-3.4-1.9-5.2c-0.1,0.1-0.1,0.2-0.2,0.3c-0.6,1.4-1.2,2.9-1.8,4.3
				c-0.2,0.4-0.1,0.5,0.2,0.7c0.1,0.1,0.3,0.2,0.2,0.4c0,0.2-0.2,0.2-0.4,0.3c-0.1,0-0.2,0-0.3,0c-0.5,0-1.1-0.1-1.6-0.1
				c-0.1,0-0.2-0.1-0.3-0.1c-0.2-0.1-0.2-0.4,0-0.5c0,0,0.1-0.1,0.2-0.1c0.5,0,0.8-0.4,0.9-0.8c0.8-1.8,1.5-3.7,2.3-5.5
				c0.1-0.3,0.1-0.5,0-0.8c-0.6-1.6-1.1-3.2-1.7-4.8c-0.2-0.7-0.5-1.3-0.8-1.9c-0.1-0.3-0.3-0.5-0.6-0.6c-0.1,0-0.2-0.1-0.3-0.2
				c-0.1-0.1-0.2-0.2-0.2-0.3c0-0.1,0.1-0.2,0.3-0.2c0.1,0,0.2,0,0.3,0c0.7,0,1.4,0,2.1,0c0.1,0,0.1,0,0.2,0c0.1,0,0.2,0.2,0.1,0.3
				c0,0-0.1,0.1-0.1,0.1c-0.4,0.3-0.4,0.5-0.3,0.9c0.1,0.3,0.3,0.6,0.4,1c0.5,1.2,0.9,2.3,1.4,3.5
				C166.9,166.2,166.9,166.3,167,166.5z"/>
			<path d="M172,140.6c0.1-0.2,0.2-0.4,0.2-0.5c0.7-1.5,1.3-3.1,2-4.6c0.1-0.3,0-0.5-0.1-0.7c-0.1-0.1-0.2-0.3-0.2-0.3
				c0.1-0.1,0.2-0.2,0.3-0.2c0.5,0,1,0,1.5,0c0.2,0,0.3,0.1,0.3,0.2c0,0.2-0.1,0.3-0.3,0.3c-0.3,0.1-0.4,0.2-0.5,0.4
				c-0.8,1.9-1.6,3.9-2.4,5.8c-0.3,0.6-0.3,1.2-0.1,1.8c0.6,1.5,1.1,3,1.7,4.5c0.2,0.5,0.4,0.9,0.6,1.4c0.1,0.3,0.3,0.4,0.5,0.5
				c0.4,0.1,0.5,0.2,0.4,0.4c-0.1,0.3-0.3,0.2-0.5,0.2c-0.6,0-1.3,0-1.9,0.1c-0.2,0-0.3,0-0.5-0.1c-0.1,0-0.3-0.1-0.2-0.3
				c0-0.1,0.1-0.2,0.2-0.2c0.1-0.1,0.3-0.1,0.5-0.1c-0.6-1.7-1.3-3.4-1.9-5.2c-0.1,0.1-0.1,0.2-0.2,0.3c-0.6,1.4-1.2,2.9-1.8,4.3
				c-0.2,0.4-0.1,0.5,0.2,0.7c0.1,0.1,0.3,0.2,0.2,0.4c0,0.2-0.2,0.2-0.4,0.3c-0.1,0-0.2,0-0.3,0c-0.5,0-1.1-0.1-1.6-0.1
				c-0.1,0-0.2-0.1-0.3-0.1c-0.2-0.1-0.2-0.4,0-0.5c0,0,0.1-0.1,0.2-0.1c0.5,0,0.8-0.4,0.9-0.8c0.8-1.8,1.5-3.7,2.3-5.5
				c0.1-0.3,0.1-0.5,0-0.8c-0.6-1.6-1.1-3.2-1.7-4.8c-0.2-0.7-0.5-1.3-0.8-1.9c-0.1-0.3-0.3-0.5-0.6-0.6c-0.1,0-0.2-0.1-0.3-0.2
				c-0.1-0.1-0.2-0.2-0.2-0.3c0-0.1,0.1-0.2,0.3-0.2c0.1,0,0.2,0,0.3,0c0.7,0,1.4,0,2.1,0c0.1,0,0.1,0,0.2,0c0.1,0,0.2,0.2,0.1,0.3
				c0,0-0.1,0.1-0.1,0.1c-0.4,0.3-0.4,0.5-0.3,0.9c0.1,0.3,0.3,0.6,0.4,1c0.5,1.2,0.9,2.3,1.4,3.5
				C171.8,140.3,171.9,140.4,172,140.6z"/>
			<path d="M159.8,160.3c0.3,0,0.5,0,0.8,0c0.1,0,0.2,0,0.3,0.1c0.1,0.1,0.2,0.2,0.2,0.3c0,0.1-0.1,0.3-0.2,0.3
				c-0.5,0.1-0.6,0.5-0.6,0.9c0,0.8,0,1.5,0,2.3c0,1.1,0.1,2.1,0.1,3.2c0,1.5,0.1,2.9,0.1,4.4c0,0.8,0.1,1.6,0.1,2.3
				c0,0.5,0.3,0.9,0.7,1.2c0.1,0,0.1,0,0.2,0.1c0.1,0.1,0.2,0.2,0.2,0.3c0,0.2-0.1,0.2-0.3,0.2c-0.9,0-1.9,0.1-2.8,0.1
				c-0.2,0-0.3-0.1-0.3-0.2c0-0.1,0.1-0.2,0.2-0.3c0.1-0.1,0.2-0.1,0.3-0.2c0.3-0.2,0.5-0.5,0.5-0.9c-0.1-2.4-0.1-4.7-0.2-7.1
				c0-1.5,0-3,0-4.4c0-0.3,0-0.7-0.1-1c0-0.3-0.2-0.6-0.5-0.8c-0.1-0.1-0.3-0.2-0.2-0.4c0.1-0.2,0.3-0.2,0.4-0.2
				C159.2,160.3,159.5,160.3,159.8,160.3L159.8,160.3z"/>
			<path d="M222,115.5c0.3,0,0.5,0,0.8,0c0.1,0,0.2,0,0.3,0.1c0.1,0.1,0.2,0.2,0.2,0.3c0,0.1-0.1,0.3-0.2,0.3
				c-0.5,0.1-0.6,0.5-0.6,0.9c0,0.8,0,1.5,0,2.3c0,1.1,0.1,2.1,0.1,3.2c0,1.5,0.1,2.9,0.1,4.4c0,0.8,0.1,1.6,0.1,2.3
				c0,0.5,0.3,0.9,0.7,1.2c0.1,0,0.1,0,0.2,0.1c0.1,0.1,0.2,0.2,0.2,0.3c0,0.2-0.1,0.2-0.3,0.2c-0.9,0-1.9,0.1-2.8,0.1
				c-0.2,0-0.3-0.1-0.3-0.2c0-0.1,0.1-0.2,0.2-0.3c0.1-0.1,0.2-0.1,0.3-0.2c0.3-0.2,0.5-0.5,0.5-0.9c-0.1-2.4-0.1-4.7-0.2-7.1
				c0-1.5,0-3,0-4.4c0-0.3,0-0.7-0.1-1c0-0.3-0.2-0.6-0.5-0.8c-0.1-0.1-0.3-0.2-0.2-0.4c0.1-0.2,0.3-0.2,0.4-0.2
				C221.4,115.5,221.7,115.5,222,115.5C222,115.5,222,115.5,222,115.5z"/>
			<path d="M256.1,136.3c0.3,0,0.5,0,0.8,0c0.1,0,0.2,0,0.3,0.1c0.1,0.1,0.2,0.2,0.2,0.3c0,0.1-0.1,0.3-0.2,0.3
				c-0.5,0.1-0.6,0.5-0.6,0.9c0,0.8,0,1.5,0,2.3c0,1.1,0.1,2.1,0.1,3.2c0,1.5,0.1,2.9,0.1,4.4c0,0.8,0.1,1.6,0.1,2.3
				c0,0.5,0.3,0.9,0.7,1.2c0.1,0,0.1,0,0.2,0.1c0.1,0.1,0.2,0.2,0.2,0.3c0,0.2-0.1,0.2-0.3,0.2c-0.9,0-1.9,0.1-2.8,0.1
				c-0.2,0-0.3-0.1-0.3-0.2c0-0.1,0.1-0.2,0.2-0.3c0.1-0.1,0.2-0.1,0.3-0.2c0.3-0.2,0.5-0.5,0.5-0.9c-0.1-2.4-0.1-4.7-0.2-7.1
				c0-1.5,0-3,0-4.4c0-0.3,0-0.7-0.1-1c0-0.3-0.2-0.6-0.5-0.8c-0.1-0.1-0.3-0.2-0.2-0.4c0.1-0.2,0.3-0.2,0.4-0.2
				C255.5,136.3,255.8,136.3,256.1,136.3C256.1,136.3,256.1,136.3,256.1,136.3z"/>
			<path d="M260.6,136.3c0.3,0,0.5,0,0.8,0c0.1,0,0.2,0,0.3,0.1c0.1,0.1,0.2,0.2,0.2,0.3c0,0.1-0.1,0.3-0.2,0.3
				c-0.5,0.1-0.6,0.5-0.6,0.9c0,0.8,0,1.5,0,2.3c0,1.1,0.1,2.1,0.1,3.2c0,1.5,0.1,2.9,0.1,4.4c0,0.8,0.1,1.6,0.1,2.3
				c0,0.5,0.3,0.9,0.7,1.2c0.1,0,0.1,0,0.2,0.1c0.1,0.1,0.2,0.2,0.2,0.3c0,0.2-0.1,0.2-0.3,0.2c-0.9,0-1.9,0.1-2.8,0.1
				c-0.2,0-0.3-0.1-0.3-0.2c0-0.1,0.1-0.2,0.2-0.3c0.1-0.1,0.2-0.1,0.3-0.2c0.3-0.2,0.5-0.5,0.5-0.9c-0.1-2.4-0.1-4.7-0.2-7.1
				c0-1.5,0-3,0-4.4c0-0.3,0-0.7-0.1-1c0-0.3-0.2-0.6-0.5-0.8c-0.1-0.1-0.3-0.2-0.2-0.4c0.1-0.2,0.3-0.2,0.4-0.2
				C259.9,136.3,260.2,136.3,260.6,136.3C260.6,136.3,260.6,136.3,260.6,136.3z"/>
			<path d="M262.4,161.7c0.3,0,0.5,0,0.8,0c0.1,0,0.2,0,0.3,0.1c0.1,0.1,0.2,0.2,0.2,0.3c0,0.1-0.1,0.3-0.2,0.3
				c-0.5,0.1-0.6,0.5-0.6,0.9c0,0.8,0,1.5,0,2.3c0,1.1,0.1,2.1,0.1,3.2c0,1.5,0.1,2.9,0.1,4.4c0,0.8,0.1,1.6,0.1,2.3
				c0,0.5,0.3,0.9,0.7,1.2c0.1,0,0.1,0,0.2,0.1c0.1,0.1,0.2,0.2,0.2,0.3c0,0.2-0.1,0.2-0.3,0.2c-0.9,0-1.9,0.1-2.8,0.1
				c-0.2,0-0.3-0.1-0.3-0.2c0-0.1,0.1-0.2,0.2-0.3c0.1-0.1,0.2-0.1,0.3-0.2c0.3-0.2,0.5-0.5,0.5-0.9c-0.1-2.4-0.1-4.7-0.2-7.1
				c0-1.5,0-3,0-4.4c0-0.3,0-0.7-0.1-1c0-0.3-0.2-0.6-0.5-0.8c-0.1-0.1-0.3-0.2-0.2-0.4c0.1-0.2,0.3-0.2,0.4-0.2
				C261.8,161.7,262.1,161.7,262.4,161.7L262.4,161.7z"/>
			<path d="M266.9,161.7c0.3,0,0.5,0,0.8,0c0.1,0,0.2,0,0.3,0.1c0.1,0.1,0.2,0.2,0.2,0.3c0,0.1-0.1,0.3-0.2,0.3
				c-0.5,0.1-0.6,0.5-0.6,0.9c0,0.8,0,1.5,0,2.3c0,1.1,0.1,2.1,0.1,3.2c0,1.5,0.1,2.9,0.1,4.4c0,0.8,0.1,1.6,0.1,2.3
				c0,0.5,0.3,0.9,0.7,1.2c0.1,0,0.1,0,0.2,0.1c0.1,0.1,0.2,0.2,0.2,0.3c0,0.2-0.1,0.2-0.3,0.2c-0.9,0-1.9,0.1-2.8,0.1
				c-0.2,0-0.3-0.1-0.3-0.2c0-0.1,0.1-0.2,0.2-0.3c0.1-0.1,0.2-0.1,0.3-0.2c0.3-0.2,0.5-0.5,0.5-0.9c-0.1-2.4-0.1-4.7-0.2-7.1
				c0-1.5,0-3,0-4.4c0-0.3,0-0.7-0.1-1c0-0.3-0.2-0.6-0.5-0.8c-0.1-0.1-0.3-0.2-0.2-0.4c0.1-0.2,0.3-0.2,0.4-0.2
				C266.3,161.7,266.6,161.7,266.9,161.7L266.9,161.7z"/>
			<path d="M271.4,161.7c0.3,0,0.5,0,0.8,0c0.1,0,0.2,0,0.3,0.1c0.1,0.1,0.2,0.2,0.2,0.3c0,0.1-0.1,0.3-0.2,0.3
				c-0.5,0.1-0.6,0.5-0.6,0.9c0,0.8,0,1.5,0,2.3c0,1.1,0.1,2.1,0.1,3.2c0,1.5,0.1,2.9,0.1,4.4c0,0.8,0.1,1.6,0.1,2.3
				c0,0.5,0.3,0.9,0.7,1.2c0.1,0,0.1,0,0.2,0.1c0.1,0.1,0.2,0.2,0.2,0.3c0,0.2-0.1,0.2-0.3,0.2c-0.9,0-1.9,0.1-2.8,0.1
				c-0.2,0-0.3-0.1-0.3-0.2c0-0.1,0.1-0.2,0.2-0.3c0.1-0.1,0.2-0.1,0.3-0.2c0.3-0.2,0.5-0.5,0.5-0.9c-0.1-2.4-0.1-4.7-0.2-7.1
				c0-1.5,0-3,0-4.4c0-0.3,0-0.7-0.1-1c0-0.3-0.2-0.6-0.5-0.8c-0.1-0.1-0.3-0.2-0.2-0.4c0.1-0.2,0.3-0.2,0.4-0.2
				C270.8,161.7,271.1,161.7,271.4,161.7L271.4,161.7z"/>
			<path d="M241.8,119.6c0.3,0,0.5,0,0.8,0c0.1,0,0.2,0,0.3,0.1c0.1,0.1,0.2,0.2,0.2,0.3c0,0.1-0.1,0.3-0.2,0.3
				c-0.5,0.1-0.6,0.5-0.6,0.9c0,0.8,0,1.5,0,2.3c0,1.1,0.1,2.1,0.1,3.2c0,1.5,0.1,2.9,0.1,4.4c0,0.8,0.1,1.6,0.1,2.3
				c0,0.5,0.3,0.9,0.7,1.2c0.1,0,0.1,0,0.2,0.1c0.1,0.1,0.2,0.2,0.2,0.3c0,0.2-0.1,0.2-0.3,0.2c-0.9,0-1.9,0.1-2.8,0.1
				c-0.2,0-0.3-0.1-0.3-0.2c0-0.1,0.1-0.2,0.2-0.3c0.1-0.1,0.2-0.1,0.3-0.2c0.3-0.2,0.5-0.5,0.5-0.9c-0.1-2.4-0.1-4.7-0.2-7.1
				c0-1.5,0-3,0-4.4c0-0.3,0-0.7-0.1-1c0-0.3-0.2-0.6-0.5-0.8c-0.1-0.1-0.3-0.2-0.2-0.4c0.1-0.2,0.3-0.2,0.4-0.2
				C241.2,119.6,241.5,119.6,241.8,119.6C241.8,119.6,241.8,119.6,241.8,119.6z"/>
			<path d="M252.4,188.9c0.3,0,0.5,0,0.8,0c0.1,0,0.2,0,0.3,0.1c0.1,0.1,0.2,0.2,0.2,0.3c0,0.1-0.1,0.3-0.2,0.3
				c-0.5,0.1-0.6,0.5-0.6,0.9c0,0.8,0,1.5,0,2.3c0,1.1,0.1,2.1,0.1,3.2c0,1.5,0.1,2.9,0.1,4.4c0,0.8,0.1,1.6,0.1,2.3
				c0,0.5,0.3,0.9,0.7,1.2c0.1,0,0.1,0,0.2,0.1c0.1,0.1,0.2,0.2,0.2,0.3c0,0.2-0.1,0.2-0.3,0.2c-0.9,0-1.9,0.1-2.8,0.1
				c-0.2,0-0.3-0.1-0.3-0.2c0-0.1,0.1-0.2,0.2-0.3c0.1-0.1,0.2-0.1,0.3-0.2c0.3-0.2,0.5-0.5,0.5-0.9c-0.1-2.4-0.1-4.7-0.2-7.1
				c0-1.5,0-3,0-4.4c0-0.3,0-0.7-0.1-1c0-0.3-0.2-0.6-0.5-0.8c-0.1-0.1-0.3-0.2-0.2-0.4c0.1-0.2,0.3-0.2,0.4-0.2
				C251.7,188.9,252.1,188.9,252.4,188.9C252.4,188.9,252.4,188.9,252.4,188.9z"/>
			<path d="M213.5,221.9c0.3-1.4,0.6-2.7,0.9-4.1c0.5-2.1,1-4.3,1.5-6.4c0-0.1,0.1-0.2,0.1-0.3c0.1-0.5-0.1-0.7-0.6-0.9
				c-0.1,0-0.1,0-0.2-0.1c-0.1-0.1-0.1-0.3,0-0.3c0.1-0.1,0.2-0.1,0.4-0.1c0.8,0,1.6,0,2.3,0c0,0,0.1,0,0.1,0c0.1,0,0.3,0.1,0.3,0.2
				c0,0.1-0.1,0.2-0.2,0.3c-0.1,0.1-0.2,0.1-0.4,0.1c-0.6,0.1-0.8,0.5-1,1c-0.6,2.8-1.2,5.7-1.9,8.5c-0.3,1.5-0.7,2.9-1.1,4.4
				c-0.1,0.3-0.2,0.6-0.3,0.8c-0.2,0.4-0.6,0.3-0.7,0c-0.1-0.2-0.1-0.3-0.2-0.5c-1.1-3.4-2.1-6.8-2.9-10.2c-0.3-1.1-0.5-2.2-0.7-3.3
				c0-0.2-0.1-0.4-0.3-0.5c-0.1-0.1-0.2-0.1-0.4-0.2c-0.2-0.1-0.3-0.1-0.3-0.3c0-0.2,0.2-0.2,0.4-0.2c0.1,0,0.2,0,0.3,0
				c0.6,0,1.2,0,1.7,0c0.2,0,0.4,0.1,0.6,0.2c0.1,0.1,0.1,0.3,0,0.4c-0.1,0.1-0.3,0.1-0.4,0.2c-0.1,0.2,0,0.4,0,0.6
				c0.3,1.4,0.6,2.8,0.9,4.2c0.5,2.1,1.1,4.2,1.8,6.2C213.3,221.6,213.4,221.8,213.5,221.9C213.5,221.9,213.5,221.9,213.5,221.9z"/>
			<path d="M220.3,209.7c0.3,0,0.5,0,0.8,0c0.1,0,0.2,0,0.3,0.1c0.1,0.1,0.2,0.2,0.2,0.3c0,0.1-0.1,0.3-0.2,0.3
				c-0.5,0.1-0.6,0.5-0.6,0.9c0,0.8,0,1.5,0,2.3c0,1.1,0.1,2.1,0.1,3.2c0,1.5,0.1,2.9,0.1,4.4c0,0.8,0.1,1.6,0.1,2.3
				c0,0.5,0.3,0.9,0.7,1.2c0.1,0,0.1,0,0.2,0.1c0.1,0.1,0.2,0.2,0.2,0.3c0,0.2-0.1,0.2-0.3,0.2c-0.9,0-1.9,0.1-2.8,0.1
				c-0.2,0-0.3-0.1-0.3-0.2c0-0.1,0.1-0.2,0.2-0.3c0.1-0.1,0.2-0.1,0.3-0.2c0.3-0.2,0.5-0.5,0.5-0.9c-0.1-2.4-0.1-4.7-0.2-7.1
				c0-1.5,0-3,0-4.4c0-0.3,0-0.7-0.1-1c0-0.3-0.2-0.6-0.5-0.8c-0.1-0.1-0.3-0.2-0.2-0.4c0.1-0.2,0.3-0.2,0.4-0.2
				C219.7,209.7,220,209.7,220.3,209.7L220.3,209.7z"/>
			<path d="M184.3,215.3c0.3-1.4,0.6-2.7,0.9-4.1c0.5-2.1,1-4.3,1.5-6.4c0-0.1,0.1-0.2,0.1-0.3c0.1-0.5-0.1-0.7-0.6-0.9
				c-0.1,0-0.1,0-0.2-0.1c-0.1-0.1-0.1-0.3,0-0.3c0.1-0.1,0.2-0.1,0.4-0.1c0.8,0,1.6,0,2.3,0c0,0,0.1,0,0.1,0c0.1,0,0.3,0.1,0.3,0.2
				c0,0.1-0.1,0.2-0.2,0.3c-0.1,0.1-0.2,0.1-0.4,0.1c-0.6,0.1-0.8,0.5-1,1c-0.6,2.8-1.2,5.7-1.9,8.5c-0.3,1.5-0.7,2.9-1.1,4.4
				c-0.1,0.3-0.2,0.6-0.3,0.8c-0.2,0.4-0.6,0.3-0.7,0c-0.1-0.2-0.1-0.3-0.2-0.5c-1.1-3.4-2.1-6.8-2.9-10.2c-0.3-1.1-0.5-2.2-0.7-3.3
				c0-0.2-0.1-0.4-0.3-0.5c-0.1-0.1-0.2-0.1-0.4-0.2c-0.2-0.1-0.3-0.1-0.3-0.3c0-0.2,0.2-0.2,0.4-0.2c0.1,0,0.2,0,0.3,0
				c0.6,0,1.2,0,1.7,0c0.2,0,0.4,0.1,0.6,0.2c0.1,0.1,0.1,0.3,0,0.4c-0.1,0.1-0.3,0.1-0.4,0.2c-0.1,0.2,0,0.4,0,0.6
				c0.3,1.4,0.6,2.8,0.9,4.2c0.5,2.1,1.1,4.2,1.8,6.2C184.1,215.1,184.2,215.2,184.3,215.3C184.3,215.3,184.3,215.3,184.3,215.3z"/>
			<path d="M191.1,203.2c0.3,0,0.5,0,0.8,0c0.1,0,0.2,0,0.3,0.1c0.1,0.1,0.2,0.2,0.2,0.3c0,0.1-0.1,0.3-0.2,0.3
				c-0.5,0.1-0.6,0.5-0.6,0.9c0,0.8,0,1.5,0,2.3c0,1.1,0.1,2.1,0.1,3.2c0,1.5,0.1,2.9,0.1,4.4c0,0.8,0.1,1.6,0.1,2.3
				c0,0.5,0.3,0.9,0.7,1.2c0.1,0,0.1,0,0.2,0.1c0.1,0.1,0.2,0.2,0.2,0.3c0,0.2-0.1,0.2-0.3,0.2c-0.9,0-1.9,0.1-2.8,0.1
				c-0.2,0-0.3-0.1-0.3-0.2c0-0.1,0.1-0.2,0.2-0.3c0.1-0.1,0.2-0.1,0.3-0.2c0.3-0.2,0.5-0.5,0.5-0.9c-0.1-2.4-0.1-4.7-0.2-7.1
				c0-1.5,0-3,0-4.4c0-0.3,0-0.7-0.1-1c0-0.3-0.2-0.6-0.5-0.8c-0.1-0.1-0.3-0.2-0.2-0.4c0.1-0.2,0.3-0.2,0.4-0.2
				C190.5,203.2,190.8,203.2,191.1,203.2L191.1,203.2z"/>
			<path d="M195.6,203.2c0.3,0,0.5,0,0.8,0c0.1,0,0.2,0,0.3,0.1c0.1,0.1,0.2,0.2,0.2,0.3c0,0.1-0.1,0.3-0.2,0.3
				c-0.5,0.1-0.6,0.5-0.6,0.9c0,0.8,0,1.5,0,2.3c0,1.1,0.1,2.1,0.1,3.2c0,1.5,0.1,2.9,0.1,4.4c0,0.8,0.1,1.6,0.1,2.3
				c0,0.5,0.3,0.9,0.7,1.2c0.1,0,0.1,0,0.2,0.1c0.1,0.1,0.2,0.2,0.2,0.3c0,0.2-0.1,0.2-0.3,0.2c-0.9,0-1.9,0.1-2.8,0.1
				c-0.2,0-0.3-0.1-0.3-0.2c0-0.1,0.1-0.2,0.2-0.3c0.1-0.1,0.2-0.1,0.3-0.2c0.3-0.2,0.5-0.5,0.5-0.9c-0.1-2.4-0.1-4.7-0.2-7.1
				c0-1.5,0-3,0-4.4c0-0.3,0-0.7-0.1-1c0-0.3-0.2-0.6-0.5-0.8c-0.1-0.1-0.3-0.2-0.2-0.4c0.1-0.2,0.3-0.2,0.4-0.2
				C195,203.2,195.3,203.2,195.6,203.2L195.6,203.2z"/>
			<path d="M166.3,193.3c0.3-1.4,0.6-2.7,0.9-4.1c0.5-2.1,1-4.3,1.5-6.4c0-0.1,0.1-0.2,0.1-0.3c0.1-0.5-0.1-0.7-0.6-0.9
				c-0.1,0-0.1,0-0.2-0.1c-0.1-0.1-0.1-0.3,0-0.3c0.1-0.1,0.2-0.1,0.4-0.1c0.8,0,1.6,0,2.3,0c0,0,0.1,0,0.1,0c0.1,0,0.3,0.1,0.3,0.2
				c0,0.1-0.1,0.2-0.2,0.3c-0.1,0.1-0.2,0.1-0.4,0.1c-0.6,0.1-0.8,0.5-1,1c-0.6,2.8-1.2,5.7-1.9,8.5c-0.3,1.5-0.7,2.9-1.1,4.4
				c-0.1,0.3-0.2,0.6-0.3,0.8c-0.2,0.4-0.6,0.3-0.7,0c-0.1-0.2-0.1-0.3-0.2-0.5c-1.1-3.4-2.1-6.8-2.9-10.2c-0.3-1.1-0.5-2.2-0.7-3.3
				c0-0.2-0.1-0.4-0.3-0.5c-0.1-0.1-0.2-0.1-0.4-0.2c-0.2-0.1-0.3-0.1-0.3-0.3c0-0.2,0.2-0.2,0.4-0.2c0.1,0,0.2,0,0.3,0
				c0.6,0,1.2,0,1.7,0c0.2,0,0.4,0.1,0.6,0.2c0.1,0.1,0.1,0.3,0,0.4c-0.1,0.1-0.3,0.1-0.4,0.2c-0.1,0.2,0,0.4,0,0.6
				c0.3,1.4,0.6,2.8,0.9,4.2c0.5,2.1,1.1,4.2,1.8,6.2C166.1,193.1,166.2,193.2,166.3,193.3C166.2,193.3,166.3,193.3,166.3,193.3z"/>
			<path d="M173.1,181.1c0.3,0,0.5,0,0.8,0c0.1,0,0.2,0,0.3,0.1c0.1,0.1,0.2,0.2,0.2,0.3c0,0.1-0.1,0.3-0.2,0.3
				c-0.5,0.1-0.6,0.5-0.6,0.9c0,0.8,0,1.5,0,2.3c0,1.1,0.1,2.1,0.1,3.2c0,1.5,0.1,2.9,0.1,4.4c0,0.8,0.1,1.6,0.1,2.3
				c0,0.5,0.3,0.9,0.7,1.2c0.1,0,0.1,0,0.2,0.1c0.1,0.1,0.2,0.2,0.2,0.3c0,0.2-0.1,0.2-0.3,0.2c-0.9,0-1.9,0.1-2.8,0.1
				c-0.2,0-0.3-0.1-0.3-0.2c0-0.1,0.1-0.2,0.2-0.3c0.1-0.1,0.2-0.1,0.3-0.2c0.3-0.2,0.5-0.5,0.5-0.9c-0.1-2.4-0.1-4.7-0.2-7.1
				c0-1.5,0-3,0-4.4c0-0.3,0-0.7-0.1-1c0-0.3-0.2-0.6-0.5-0.8c-0.1-0.1-0.3-0.2-0.2-0.4c0.1-0.2,0.3-0.2,0.4-0.2
				C172.5,181.1,172.8,181.1,173.1,181.1L173.1,181.1z"/>
			<path d="M177.6,181.1c0.3,0,0.5,0,0.8,0c0.1,0,0.2,0,0.3,0.1c0.1,0.1,0.2,0.2,0.2,0.3c0,0.1-0.1,0.3-0.2,0.3
				c-0.5,0.1-0.6,0.5-0.6,0.9c0,0.8,0,1.5,0,2.3c0,1.1,0.1,2.1,0.1,3.2c0,1.5,0.1,2.9,0.1,4.4c0,0.8,0.1,1.6,0.1,2.3
				c0,0.5,0.3,0.9,0.7,1.2c0.1,0,0.1,0,0.2,0.1c0.1,0.1,0.2,0.2,0.2,0.3c0,0.2-0.1,0.2-0.3,0.2c-0.9,0-1.9,0.1-2.8,0.1
				c-0.2,0-0.3-0.1-0.3-0.2c0-0.1,0.1-0.2,0.2-0.3c0.1-0.1,0.2-0.1,0.3-0.2c0.3-0.2,0.5-0.5,0.5-0.9c-0.1-2.4-0.1-4.7-0.2-7.1
				c0-1.5,0-3,0-4.4c0-0.3,0-0.7-0.1-1c0-0.3-0.2-0.6-0.5-0.8c-0.1-0.1-0.3-0.2-0.2-0.4c0.1-0.2,0.3-0.2,0.4-0.2
				C177,181.1,177.3,181.1,177.6,181.1L177.6,181.1z"/>
			<path d="M182,181.1c0.3,0,0.5,0,0.8,0c0.1,0,0.2,0,0.3,0.1c0.1,0.1,0.2,0.2,0.2,0.3c0,0.1-0.1,0.3-0.2,0.3
				c-0.5,0.1-0.6,0.5-0.6,0.9c0,0.8,0,1.5,0,2.3c0,1.1,0.1,2.1,0.1,3.2c0,1.5,0.1,2.9,0.1,4.4c0,0.8,0.1,1.6,0.1,2.3
				c0,0.5,0.3,0.9,0.7,1.2c0.1,0,0.1,0,0.2,0.1c0.1,0.1,0.2,0.2,0.2,0.3c0,0.2-0.1,0.2-0.3,0.2c-0.9,0-1.9,0.1-2.8,0.1
				c-0.2,0-0.3-0.1-0.3-0.2c0-0.1,0.1-0.2,0.2-0.3c0.1-0.1,0.2-0.1,0.3-0.2c0.3-0.2,0.5-0.5,0.5-0.9c-0.1-2.4-0.1-4.7-0.2-7.1
				c0-1.5,0-3,0-4.4c0-0.3,0-0.7-0.1-1c0-0.3-0.2-0.6-0.5-0.8c-0.1-0.1-0.3-0.2-0.2-0.4c0.1-0.2,0.3-0.2,0.4-0.2
				C181.4,181.1,181.7,181.1,182,181.1L182,181.1z"/>
		</g>
		<path class="st22" d="M214.4,147.9c0,0.1-0.1,0.2-0.1,0.3c-0.3,0.6-0.6,1.2-1,1.7c-0.2,0.2-0.4,0.4-0.6,0.6
			c-0.1,0.1-0.2,0.2-0.3,0.2c-0.3,0.1-0.6,0-0.7-0.3c-0.1-0.2-0.1-0.3-0.1-0.5c0-0.8,0-1.5,0-2.3c0-0.4,0-0.8,0.1-1.2
			c0-1.6,0.2-3.2,0.4-4.8c0-0.4,0.1-0.8,0.2-1.2c0.1-0.8,0.4-1.5,0.7-2.1c0.6-1.1,1.1-2.3,1.6-3.4c0.1-0.2,0.2-0.4,0.3-0.5
			c0.3-0.3,0.6-0.4,0.9,0c0.2,0.2,0.3,0.4,0.4,0.6c0.2,0.4,0.5,0.9,0.7,1.4c0.3,0.6,0.6,1.2,0.9,1.9c0.5,0.9,0.9,1.8,1,2.8
			c0.1,0.6,0.1,1.2,0.2,1.9c0.1,1.3,0.2,2.5,0.2,3.8c0.1,1.1,0.1,2.3,0,3.4c0,0.2-0.1,0.5-0.1,0.7c-0.1,0.4-0.4,0.5-0.8,0.2
			c-0.2-0.1-0.3-0.3-0.4-0.4c-0.5-0.6-1-1.2-1.5-1.9c-0.2-0.2-0.3-0.4-0.5-0.6c0,0.5-0.1,0.9,0.2,1.3c1.1,1.6,2.1,3.2,3.2,4.8
			c0.1,0.2,0.2,0.3,0.3,0.5c0.1,0.2,0.1,0.4-0.1,0.5c-0.1,0.2-0.3,0.2-0.5,0.1c-0.2-0.1-0.3-0.2-0.4-0.3c-0.9-1.1-1.8-2.2-2.5-3.4
			c0-0.1-0.1-0.2-0.2-0.2c0,0.1,0,0.2,0,0.3c0,1.4,0,2.7,0,4.1c0,2.3,0,4.5,0,6.8c0,2-0.1,3.9-0.1,5.9c0,1.1,0,2.2-0.1,3.3
			c0,0.2,0,0.3,0.2,0.4c0.2,0.2,0.4,0.4,0.5,0.6c0.6,0.7,1.1,1.5,1.7,2.2c0.2,0.3,0.4,0.6,0.6,0.9c0.2,0.4,0.2,0.7-0.1,0.9
			c-0.4,0.3-0.7,0.3-1,0.1c-0.5-0.4-0.8-0.8-1.1-1.3c-0.2-0.3-0.5-0.6-0.7-0.9c0,0,0,0-0.1,0c0,0.5,0,1,0,1.5c0,0.1,0.1,0.2,0.2,0.3
			c1.1,1.3,2.2,2.7,3.2,4c0.2,0.2,0.3,0.4,0.5,0.7c0.2,0.3,0.2,0.5,0,0.6c-0.2,0.2-0.4,0.2-0.6,0c-0.3-0.2-0.6-0.5-0.8-0.7
			c-0.7-0.9-1.5-1.8-2.2-2.7c-0.1-0.1-0.1-0.2-0.3-0.3c-0.1,0.4-0.1,0.8,0,1.2c0.7,1.7,1.4,3.3,2,5c0.1,0.3,0.2,0.7,0.3,1
			c0,0.2,0.1,0.4,0,0.6c0,0.5-0.4,0.9-0.9,0.9c-0.4,0-0.7-0.1-1-0.3c-0.4-0.3-0.7-0.6-1-1.1c-0.1-0.2-0.2-0.3-0.3-0.5
			c-0.1,0.1-0.1,0.2-0.1,0.2c-0.2,0.3-0.3,0.5-0.5,0.8c-0.2,0.3-0.4,0.4-0.8,0.5c-0.5,0.2-1-0.1-1.1-0.7c0-0.2,0-0.5,0-0.8
			c0.2-1,0.5-1.8,0.8-2.7c0.3-0.9,0.6-1.9,1-2.8c0.2-0.5,0.1-1.1,0.2-1.7c-0.1,0.1-0.1,0.1-0.2,0.2c-0.3,0.4-0.7,0.9-1,1.3
			c-0.5,0.6-1,1.2-1.5,1.8c-0.1,0.1-0.2,0.2-0.3,0.2c-0.1,0.1-0.3,0.1-0.4,0c-0.1-0.1-0.2-0.3-0.1-0.4c0-0.1,0.1-0.2,0.1-0.3
			c0.9-1.5,2-2.9,3.2-4.1c0.1-0.1,0.1-0.1,0.1-0.2c0-0.4,0-0.7,0-1.1c0,0-0.1,0-0.1,0c-0.2,0.3-0.4,0.6-0.6,0.9
			c-0.2,0.4-0.4,0.8-0.6,1.1c-0.2,0.3-0.4,0.5-0.8,0.4c-0.4,0-0.7-0.4-0.6-0.8c0-0.1,0.1-0.3,0.2-0.4c0.4-0.8,0.9-1.5,1.3-2.3
			c0.2-0.4,0.5-0.9,0.7-1.3c0.1-0.1,0.1-0.2,0.2-0.3c0.2-0.2,0.2-0.5,0.2-0.8c0-2.8,0.1-5.5,0.1-8.3c0-2.3,0.1-4.6,0.1-7
			c0-1.7,0.1-3.3,0.1-5c0-0.1,0-0.1,0-0.3c-0.1,0.1-0.1,0.1-0.1,0.2c-0.5,1-1.1,1.9-1.6,2.9c-0.3,0.5-0.5,0.9-0.8,1.4
			c0,0.1-0.1,0.1-0.1,0.1c-0.1,0.1-0.3,0.1-0.5,0.1c-0.1-0.1-0.2-0.3-0.1-0.4c0.1-0.4,0.3-0.7,0.5-1c0.7-1.5,1.5-2.9,2.4-4.3
			c0-0.1,0.1-0.1,0.1-0.2C214.6,148.9,214.5,148.4,214.4,147.9z"/>
		<g>
			<circle class="st27" cx="189.7" cy="169.5" r="2"/>
			<circle class="st27" cx="238.4" cy="169.5" r="2"/>
		</g>
		<g>
			<path d="M218,293.1c0,0.1,0,0.2,0,0.3c0,1.8,0,3.7,0.1,5.5c0,0.6,0.1,1.1,0.5,1.6c0.1,0.2,0.3,0.4,0.6,0.4c0.1,0,0.1,0,0.2,0.1
				c0.3,0.1,0.5,0.4,0.5,0.7c0,0.3-0.3,0.5-0.6,0.6c-0.2,0-0.4,0.1-0.7,0.1c-0.7,0.1-1.4,0.1-2.1,0.2c-0.3,0-0.5,0-0.8-0.1
				c-0.3-0.1-0.5-0.3-0.6-0.6c-0.1-0.3,0.1-0.6,0.4-0.7c0.5-0.3,0.7-0.6,0.8-1.2c0-0.5,0.1-1,0.1-1.5c-0.1-3.6-0.2-7.2-0.3-10.8
				c0-0.3,0-0.6,0-1c0-0.1,0-0.2,0-0.3c0.1-0.3,0.1-0.7,0.5-0.8c0.4-0.1,0.9-0.1,1.2,0.2c0.2,0.2,0.5,0.5,0.6,0.8
				c0.6,1,1.2,1.9,1.7,2.9c1.2,2.4,2.4,4.8,3.6,7.2c0.1,0.1,0.1,0.3,0.2,0.4c0-0.7,0-1.5,0-2.2c0-1.1,0-2.2-0.1-3.3
				c-0.1-1.4-0.2-2.8-0.3-4.2c0-0.2-0.1-0.4-0.4-0.4c-0.1,0-0.3-0.1-0.4-0.2c-0.2-0.1-0.3-0.3-0.3-0.6c0-0.2,0.2-0.5,0.5-0.5
				c0.4,0,0.7,0,1.1,0c0.6,0.1,1.3,0.1,1.9,0.2c0.1,0,0.2,0,0.3,0.1c0.4,0.2,0.5,0.7,0.1,0.9c-0.1,0.1-0.2,0.1-0.3,0.1
				c-0.2,0.1-0.3,0.2-0.3,0.4c0,0.1,0,0.2,0,0.3c0,0.7-0.1,1.4-0.1,2.1c0,2.8,0,5.5,0,8.3c0,1,0.1,1.9,0.1,2.9c0,0.2,0,0.4,0,0.6
				c0,0.4-0.3,0.8-0.7,0.8c-0.5,0-1-0.1-1.4-0.2c-0.2,0-0.4-0.2-0.5-0.4c-0.1-0.1-0.2-0.2-0.2-0.3c-0.8-1.7-1.9-3.2-2.8-4.9
				c-0.6-1.1-1.3-2.3-1.9-3.4C218.2,293.2,218.1,293.1,218,293.1C218.1,293.1,218,293.1,218,293.1z"/>
			<path d="M207.6,297.1c-1.7,0.1-3.3,0.1-4.9,0.2c0,0.1-0.1,0.3-0.1,0.5c-0.2,0.9-0.4,1.7-0.6,2.6c-0.1,0.5,0,0.8,0.6,0.9
				c0.1,0,0.2,0,0.3,0.1c0.3,0.1,0.5,0.4,0.5,0.7c0,0.3-0.2,0.6-0.5,0.6c-0.9,0-1.8,0.1-2.7,0c-0.2,0-0.4-0.1-0.6-0.3
				c-0.3-0.3-0.2-0.7,0-0.9c0.1-0.1,0.2-0.2,0.3-0.2c0.4-0.2,0.5-0.5,0.6-0.8c0.3-1.1,0.5-2.2,0.7-3.3c0.2-1.6,0.5-3.2,0.8-4.7
				c0.4-2,0.9-4.1,1.3-6.1c0-0.1,0-0.3,0.1-0.4c0.1-0.9,1.1-1.4,1.9-1c0.3,0.2,0.6,0.4,0.8,0.7c0.3,0.5,0.7,1.1,1,1.6
				c1.1,2,2,4.2,2.8,6.3c0.8,2,1.5,4,2.3,6.1c0,0,0,0.1,0,0.1c0.1,0.7,0.5,1,1,1.4c0.1,0.1,0.3,0.2,0.4,0.3c0.2,0.2,0.4,0.4,0.4,0.7
				c-0.1,0.3-0.3,0.5-0.6,0.5c-0.3,0.1-0.6,0.1-0.9,0.1c-1,0.1-2,0.1-3.1,0c-0.2,0-0.4-0.1-0.5-0.2c-0.4-0.2-0.4-0.7-0.1-1
				c0.1-0.1,0.3-0.2,0.3-0.3c0-0.2,0-0.5-0.1-0.7c-0.3-0.7-0.6-1.4-0.8-2.1C207.9,298,207.8,297.6,207.6,297.1z M206.8,295.1
				c-0.7-2-1.5-4.1-2.4-6c0,0-0.1,0-0.1,0c-0.4,2-0.8,4-1.2,6C204.4,295.1,205.6,295.1,206.8,295.1z"/>
			<path d="M192.1,297.2c-0.2,1-0.2,2,0.2,3c0.1,0.3,0.3,0.6,0.6,0.7c0.4,0.2,0.7,0.2,0.9-0.2c0.2-0.3,0.4-0.7,0.5-1.1
				c0.2-0.6,0.3-1.2,0.3-1.8c0.1-1.4,0.1-2.8,0.1-4.2c0-1.4-0.2-2.7-0.2-4.1c0-0.7-0.1-1.4-0.3-2c-0.1-0.2-0.1-0.3-0.2-0.5
				c-0.1-0.2-0.2-0.4-0.5-0.4c-0.1,0-0.2,0-0.2-0.1c-0.3-0.1-0.4-0.3-0.4-0.6c0-0.3,0.1-0.5,0.4-0.7c0.2-0.1,0.4-0.1,0.6-0.1
				c1-0.1,2-0.2,3-0.2c0.4,0,0.8,0,1.2,0c0.3,0,0.6,0.2,0.7,0.6c0.1,0.3,0,0.6-0.3,0.8c-1,0.6-1.2,1.6-1.1,2.6
				c0,0.8,0.1,1.6,0.2,2.4c0.1,1.2,0.2,2.4,0.2,3.6c0.1,1.1,0.1,2.3,0.1,3.4c0,0.6-0.1,1.2-0.2,1.8c-0.1,0.7-0.5,1.3-1,1.9
				c-0.5,0.6-1.2,0.9-2,0.9c-0.6,0-1.2,0-1.7-0.1c-1.4-0.4-2.3-1.3-2.6-2.7c-0.2-1.1-0.3-2.2,0-3.3c0.1-0.4,0.2-0.8,0.5-1.2
				c0.6-0.7,1.7-0.6,2.1,0.2c0.2,0.3,0.2,0.6,0,0.9C192.7,297.3,192.5,297.3,192.1,297.2z"/>
			<path d="M236.4,287.3c-0.3,0.3-0.6,0.5-0.9,0.7c-0.2,0.1-0.4,0.3-0.6,0.4c-0.3,0.1-0.5,0.1-0.7-0.1c-0.2-0.2-0.2-0.5,0-0.7
				c0.3-0.3,0.5-0.6,0.8-1c0.4-0.5,0.7-0.9,1-1.4c0.2-0.3,0.4-0.5,0.8-0.5c0.5-0.1,1-0.1,1.5-0.1c0.4,0,0.6,0.2,0.7,0.5
				c0.1,0.3,0.2,0.5,0.2,0.8c0.1,0.8,0.1,1.6,0.1,2.4c0,2.4-0.1,4.8-0.1,7.3c0,1.4-0.1,2.7-0.2,4.1c0,0.1,0,0.1,0,0.2
				c0,0.6,0,0.6,0.6,0.9c0.1,0,0.1,0,0.2,0.1c0.3,0.1,0.5,0.3,0.5,0.6c0,0.3-0.2,0.5-0.4,0.6c-0.2,0.1-0.4,0.1-0.6,0.1
				c-0.3,0-0.5,0-0.8,0.1c-0.8,0.1-1.7,0.1-2.5,0.2c-0.2,0-0.4,0-0.7,0c-0.4-0.1-0.6-0.3-0.6-0.6c0-0.3,0.1-0.5,0.5-0.7
				c0.3-0.1,0.6-0.2,0.8-0.4c0.2-0.1,0.3-0.3,0.3-0.5c0.2-3.5,0.2-6.9,0.1-10.4C236.4,289,236.4,288.2,236.4,287.3z"/>
		</g>
	</g>
</g>
</svg>
