<?xml version="1.0" encoding="utf-8"?>
<!-- Generator: Adobe Illustrator 22.0.1, SVG Export Plug-In . SVG Version: 6.00 Build 0)  -->
<svg version="1.1" id="Calque_1" xmlns="http://www.w3.org/2000/svg" xmlns:xlink="http://www.w3.org/1999/xlink" x="0px" y="0px"
	 viewBox="0 0 432 432" style="enable-background:new 0 0 432 432;" xml:space="preserve">
<style type="text/css">
	.st0{fill:#B78D5C;}
	.st1{fill:#EBCEC6;}
	.st2{fill:#D4B67E;}
	.st3{fill:#EF798A;}
	.st4{fill:#FBD8E3;}
	.st5{fill:#660A1E;}
	.st6{fill:#990033;}
	.st7{fill:#07512C;}
	.st8{fill:#8CC63F;}
	.st9{fill:#006837;}
	.st10{fill:#CCCCCC;}
	.st11{fill:#FFFFFF;}
	.st12{fill:#8A1A31;}
	.st13{fill:#A7A6AA;}
	.st14{fill:#D3A9B2;}
	.st15{fill:#2A2A2B;}
	.st16{fill:#DDC090;}
	.st17{fill:#AF434B;}
	.st18{fill:#62A581;}
	.st19{fill:#94C16C;}
	.st20{fill:#B9011B;}
	.st21{fill:#BABABA;}
	.st22{fill:#754C24;}
	.st23{fill:#A67C52;}
	.st24{fill:#8C6239;}
	.st25{fill:#C69C6D;}
	.st26{fill:#9E1E28;}
	.st27{fill:#D6C188;}
	.st28{fill:#BF364A;}
	.st29{fill:#A1272D;}
	.st30{fill:#BFA76B;}
	.st31{fill:#DCDEDD;}
	.st32{fill:#D89A5D;}
	.st33{fill:#F5EDDB;}
	.st34{fill:#603813;}
	.st35{fill:#4A7575;}
	.st36{fill:#7F3244;}
	.st37{fill:#9E7E5E;}
	.st38{fill:#C1272D;}
	.st39{fill:#561217;}
	.st40{fill:#C49F7A;}
	.st41{fill:#534741;}
	.st42{fill:#999999;}
	.st43{fill:#A80031;}
	.st44{fill:#1A1A1A;}
	.st45{fill:#333333;}
	.st46{fill:#B3B3B3;}
	.st47{fill:#B3A6AD;}
	.st48{fill:#B6B155;}
	.st49{fill:#679CBA;}
	.st50{fill:#0071BC;}
	.st51{fill:#F7931E;}
	.st52{fill:#821119;}
	.st53{fill:#39B54A;}
	.st54{fill:#1B1464;}
	.st55{fill:#FAF3E3;}
	.st56{fill:#DCD2BD;}
	.st57{fill:#F5EDDA;}
	.st58{fill:#815D3C;}
	.st59{fill:#F69331;}
	.st60{fill:#BCA791;}
	.st61{fill:#F9D51D;}
	.st62{fill:#704638;}
	.st63{fill:#A7DBD7;}
	.st64{fill:#DED7CD;}
	.st65{fill:#E89024;}
	.st66{fill:#EACAAC;}
	.st67{fill:#D8B195;}
	.st68{fill:#A50423;}
	.st69{fill:#CC7312;}
	.st70{fill:#9EC5FF;}
	.st71{fill:#6D86B4;}
	.st72{fill:#2E363A;}
	.st73{fill:#FFCC00;}
	.st74{fill:#B58847;}
	.st75{fill:#563315;}
	.st76{fill:#ED0A3A;}
	.st77{fill:#A62714;}
	.st78{fill:#247E5B;}
	.st79{fill:#176041;}
	.st80{fill:#61B756;}
	.st81{fill:#EDDBAE;}
	.st82{fill:#3F3F3F;}
	.st83{fill:#595959;}
	.st84{fill:#484849;}
	.st85{fill:#EFD1B4;}
	.st86{fill:#E0E0E2;}
	.st87{fill:#CCCCCE;}
	.st88{fill:#CEC76B;}
	.st89{fill:#42210B;}
	.st90{fill:#FCACBC;}
	.st91{fill:#D6B994;}
	.st92{fill:#F8C2C2;}
	.st93{fill:#E4D48E;}
	.st94{fill:#A57C53;}
	.st95{fill:#96704B;}
	.st96{fill:#9D6D47;}
	.st97{fill:#591427;}
	.st98{fill:#7CCC71;}
	.st99{fill:#C7B299;}
	.st100{fill:#998675;}
	.st101{fill:#7DC34D;}
	.st102{fill:#80694F;}
	.st103{fill:#FF1C2E;}
	.st104{fill:#A51B29;}
	.st105{fill:#00673B;}
	.st106{fill:#B88464;}
	.st107{fill:#CA986F;}
	.st108{fill:#3F2316;}
	.st109{fill:#F1F1F2;}
	.st110{fill:#00924A;}
	.st111{fill:#C7202F;}
	.st112{fill:#BBBDBF;}
	.st113{fill:#58595B;}
	.st114{fill:#D0D2D3;}
	.st115{fill:#6C6E70;}
	.st116{fill:#663818;}
	.st117{fill:#FF9134;}
	.st118{fill:#AC8D6B;}
	.st119{fill:#CE1F32;}
	.st120{fill:#00B252;}
	.st121{fill:#804D34;}
	.st122{fill:#61A6AF;}
	.st123{fill:#4C838D;}
	.st124{fill:#E6E6E6;}
	.st125{fill:#E6E7E7;}
	.st126{fill:#55396B;}
	.st127{fill:#6F4696;}
	.st128{fill:#9C2D8C;}
	.st129{fill:#915D3F;}
	.st130{fill:none;}
	.st131{fill:#00BCB9;}
	.st132{fill:#00BBB8;}
	.st133{fill:#6C328D;}
	.st134{fill:#5D4A42;}
	.st135{fill:#746559;}
	.st136{fill:#009245;}
	.st137{fill:#808184;}
	.st138{fill:#00A69C;}
	.st139{fill:#0078B8;}
	.st140{fill:#9F847A;}
	.st141{fill:#EECCB3;}
	.st142{fill:#241F20;}
	.st143{fill:#0D5408;}
	.st144{fill:#C9800A;}
	.st145{fill:#083A04;}
	.st146{fill:#BF001A;}
	.st147{fill:#AA0012;}
	.st148{fill:#9E620B;}
	.st149{fill:#A80E28;}
	.st150{fill:#0C3A1F;}
	.st151{fill:#C10A0A;}
	.st152{fill:#0A3D06;}
	.st153{fill:#A30738;}
	.st154{fill:#7F0A2E;}
	.st155{fill:#D8712B;}
	.st156{fill:#C15105;}
	.st157{fill:#F4A00B;}
	.st158{fill:#10440A;}
	.st159{fill:#A00E0E;}
	.st160{fill:#0F230D;}
	.st161{fill:#B20B33;}
	.st162{fill:#E5E5E5;}
	.st163{fill:#11722D;}
	.st164{fill:#0B281A;}
	.st165{fill:#E59D1F;}
	.st166{fill:#C60924;}
	.st167{fill:#960820;}
	.st168{fill:#AD1431;}
	.st169{fill:#E24756;}
	.st170{fill:#CE364C;}
	.st171{fill:#A50707;}
	.st172{fill:#4A9B29;}
	.st173{fill:#468E24;}
	.st174{fill:#AF0E22;}
	.st175{fill:#EDECE6;}
	.st176{fill:#54220E;}
	.st177{fill:#592C1C;}
	.st178{fill:#EFEAC7;}
	.st179{fill:#042111;}
	.st180{fill:#A80C0C;}
</style>
<g>
	<path class="st118" d="M178.3,126.8c-2.1,2.7-4,5.6-5.7,8.5c-3,5.1-7.2,10-11.5,14.1c-2.2,2.1-4.9,3.8-7.9,4.1
		c-3.1,0.3-6.9-3.4-8.1,1.3c-0.4,1.5-0.1,3,0.1,4.5c0.5,3.9,0.6,7.9-0.1,11.8c-0.9,5-3.3,10-7.7,12.8c-1.3,0.8-3.3,0.5-4.6,1.5
		c-0.8,0.6-1.3,1.5-1.2,2.4c0.1,0.6,0.4,1.1,0.8,1.6c2.6,3.4,6.6,5.3,9.4,8.5c-1.1-1.3-7,5-7.5,5.9c-1.7,2.9-1.7,6.5-1.6,9.8
		c-2.5-0.1-16.3-5.8-16.2-0.9c0,0.9,0.4,1.7,0.9,2.5c0.6,0.9,1.4,2,0.9,3c-0.2,0.4-0.5,0.6-0.9,0.9c-5.2,3.3-12.2,0.1-17.5-1.3
		c-1.6-0.4-5.1-1.9-6.3-0.3c-1.2,1.5,0.8,4.5,1.6,5.7c1.4,2.3,2.7,3.6,0.7,6.3c-3.2,4.4-9.2,4.7-14.1,5.9c-2.5,0.6-19,2.8-13.4,7.6
		c3.3,2.8,9.9,1.4,13.9,1.6c5.7,0.2,13.3-0.2,18.5,2.4c1.4,0.7,2.6,1.5,3.4,2.9c2,3.4-0.6,6.8,3.4,9.4c2.6,1.7,5.2,0.2,6.5-2.4
		c0.7-1.4,1-3,1.5-4.6c1.4-4.5,5.8-10.6,11.3-9.2c2.7,0.7,3.1,3.9,5.4,5.6c1.1,0.8,2.6,1.3,4,0.8c1.5-0.5,2.4-1.9,3.1-3.3
		c2.2-4.4,3.2-10.2,7.7-13.1c-0.5,0.3,4.8,3.9,5.3,4.1c2.1,0.8,4.2,0.7,6.4,0.8c0.6,3-0.4,6.5-1.8,9.1c-1,1.9-2.4,4-1.7,6
		c0.6,1.9,2.8,2.8,4.7,3.2c6.4,1.2,13.9,5.1,11.3,12.9c-0.9,2.8-2.3,7.2,1.6,8.8c1.3,0.5,2.7,0.1,4.1-0.3c8.7-2.3,15.9,0.6,23.5,4.7
		c2,1.1,9.1,5.6,10.7,1.9c0.4-0.9,0.3-2,0-3c-1.2-4.9-4.7-7.9-7.1-12c-2-3.6-3.8-7.4-4.8-11.4c-0.9-3.7-1.2-7.6,0.1-11.2
		c1.1-3.1,6.5-7.1,4.3-10.5c-1.6-2.4-5.9-2.4-8.3-3c-9.3-2.2-18.7-8.4-14.1-19.1c0.4-1,0.9-2.2,0.4-3.2c-0.4-0.9-1.4-1.4-2.3-1.4
		c-0.3,0-4.6,0.6-4.6,1.1c-0.2-1.3-0.5-2.5-1-3.6c-0.1-0.2,6.1-4.3,6.9-4.9c1.4-1,3.5-2.5,3.3-4.6c-0.2-1.8-2.3-2.7-4-3.2
		c-3.6-1-5.8-3.3-4.8-7.1c2.2-8,10.4-13.9,17.2-18.1c2-1.3,4-2.6,4.9-5c0.7-2,0.6-4.4-2.1-4.1c-0.4,0-0.8,0.2-1.2,0.4
		c-7.3,3.1-13.5-4.3-13.8-11c-0.2-4.7,1.7-8.9,3-13.3c0.6-2.2,1.1-4.4,1.9-6.5c0.7-1.9,3.6-6.4-0.7-6.7c-1.4-0.1-3.1,0.4-4,1.5
		C179.5,125.2,178.9,126,178.3,126.8z"/>
	<g>
		<g>
			<path class="st105" d="M137.2,217.4c-6.6,0.8-10.9-1.4-16.8-3.5c2.2,2.9,3,5.2,1,7.3c-2,2.1-5.2,2.5-8.1,2.5
				c-5.7-0.1-11.3-1.6-16.3-4.2c3.7,4.1,4.7,4.9,4,8.1c-0.7,3.2-3.2,5.8-6.1,7.4c-2.9,1.6-6.2,2.3-9.4,3c-4.6,1-9.2,2-13.8,3
				c9.5-0.3,16.3-1.4,24.1-0.2c4.1,0.6,7.6,0.7,10.7,3.5c3.1,2.8,2.9,6.8,2.6,11.3c2.1-6.5,4.8-13.7,11.1-16.4
				c2.3-1,4.8-1.2,7.2-1.2c2.1,0,3.6-0.1,5.2,1.2c1.6,1.3,1,3.6,1.6,5.9c1.2-5.6,5.1-11.9,8.7-16.4c2.8-3.5,5.7-4,8.4-7.2
				c1.6-1.9,1.7-4.8,1.9-7.5c0-0.5,0.1-1.1,0.2-1.6c0.1-0.7,0.2-1.4,0.4-2C148.8,214,143.4,216.6,137.2,217.4z"/>
			<g>
				<path class="st110" d="M102.7,235.6c-0.4,0.1-0.6,1.7-0.2,1.6c15.6-2.7,37.2-12.7,50.7-23.3c0-0.5,0.1-1.1,0.2-1.6
					C139.9,222.9,118.2,232.8,102.7,235.6z"/>
			</g>
		</g>
		<g>
			<path class="st105" d="M162.8,152.9c-2,1.7-4.2,3.4-6.7,4.2c-2.5,0.8-5.5,0.6-7.6-1.1c0.7,6.2,1.2,12.7-0.4,18.7
				c-1.6,6.1-5.8,11.8-11.9,13.5c4.4,3.7,10.2,6.9,12.1,12.3c4.5,12.6-1.3,10.6,1.5,22c0.9-1.6,5-1.8,8.6-5.5
				c0.4-0.4,0.7-0.8,1.1-1.3c0.2-0.2,0.3-0.4,0.5-0.7c0,0,0.1-0.1,0.1-0.1c0-0.1,0.1-0.1,0.1-0.2c4.8-7,12.2-11.9,19.3-16.5
				c-4.8,0.3-8.7-4.8-8.6-9.6c0-4.8,2.9-9.2,6.2-12.7c4.5-4.8,10-8.7,16.1-11.4c-5.4,1.3-11.2-1.6-14.3-6.3c-3-4.6-4-9.1-2.1-14.2
				c2.1-5.6,3.1-12.3,5.7-17.2C175.4,137.8,171.1,145.8,162.8,152.9z"/>
			<path class="st110" d="M170.9,151.1c-10.4,17.2-20.2,45.2-12.4,66.1c0.4-0.4,0.7-0.8,1.1-1.3c0.2-0.2,0.3-0.4,0.5-0.7
				c-0.2-0.6-0.5-1.2-0.7-1.8c-6.3-19.1,2.7-44.3,12-59.8C171.9,152.8,171.8,149.6,170.9,151.1z"/>
		</g>
		<g>
			<path class="st105" d="M169.5,214.6c-0.6,0-1.2,0-1.8,0c-2.2-0.1-4.4-0.4-6.5-1c-2.3-0.6-3.8-1.6-6-0.6c-1.5,0.7-4.8,4.6-6.8,3.7
				c6.5,2.8,11.7,8.5,13.9,15.3c2.2,6.7,1.4,14.4-2.3,20.5c5.3-1.5,11.2,1.5,14,6.2c2.8,4.8,2.6,10.9,0.3,15.9
				c5.1-2.9,11.4-3.2,17-1.7c5.6,1.6,10.7,4.9,14.9,8.9c-3.5-5.4-7-11-9.4-17c-2.4-6-3.7-12.6-2.6-19c0.6-3.5,2.6-7.5,6.1-7.7
				c-4.5-0.8-9.1-1.6-13.2-3.5s-8-4.9-9.9-9c-1.9-4.2-1.5-9.5,1.7-12.8C175.9,213.9,172.8,214.5,169.5,214.6z"/>
			<g>
				<path class="st110" d="M171.5,236.7c4.2,10.4,12.1,18.5,17.4,28.3c0.7,1.4,2.2-0.4,1.6-1.5c-4.9-9-12-16.5-16.3-25.8
					c-3.4-7.2-4.8-15.2-4.7-23.2c-0.6,0-1.2,0-1.8,0C167.5,222.1,168.6,229.7,171.5,236.7z"/>
			</g>
		</g>
		<g>
			<circle class="st103" cx="158.4" cy="223.7" r="10.7"/>
			<circle class="st111" cx="146.2" cy="211" r="10.7"/>
			<circle class="st104" cx="160.7" cy="211.8" r="10.7"/>
		</g>
	</g>
</g>
<g>
	<path class="st118" d="M364.2,333.9c-0.9-2.5-2.5-4.3-4.1-5.9c-0.3-0.3-0.5-0.5-0.8-0.8c-4.4-4.3-8.8-8.8-13.2-13.2
		c-2.7-2.7-5.5-5.5-7.4-8.7c-0.2-0.3-0.3-0.6-0.5-0.9c2.5-1,4.9-2.2,7.2-3.4c1.5-0.8,5.4-2.8,5.8-7c0.3-2.9-1.2-5.1-1.7-5.9
		c-2.3-3.5-5.7-6.3-10.5-8.8c-2.4-1.2-4.9-2.3-7.2-3.2l-0.4-0.2c-1.7-0.7-3.3-1.4-4.8-2.1c-2.8-1.3-5.4-2.8-7.9-4.5
		c1.6-0.2,4.8-0.6,7-3.2c2.4-2.9,2.4-7.3,0.1-11.2c-2.4-4-6.1-6.6-9.5-8.5c-0.9-0.5-1.8-1-2.7-1.5c-0.8-0.5-1.6-0.9-2.4-1.4
		c-0.3-0.2-0.6-0.4-1-0.6c-7.9-4.9-13.9-12.6-18.3-18.8l-0.1-0.2c-1.2-1.6-2.5-3.5-4.3-5l0.9-1.1c1-1.3,1.3-3,0.6-4.5
		c-0.7-1.5-2.1-2.5-3.8-2.5l-3.9-0.1l-2.1-3.3c-0.9-1.4-2.5-2.1-4.1-2c-1.6,0.2-3,1.3-3.6,2.8l-1.3,3.7l-3.8,1
		c-1.6,0.4-2.8,1.7-3.1,3.3c-0.3,1.6,0.3,3.3,1.6,4.3l1.7,1.3c-1.1,1.1-2.1,2.4-2.8,3.6c-1.1,1.8-1.7,3.6-2.3,5.3
		c-0.3,0.8-0.6,1.6-0.9,2.3c-0.1,0.2-0.2,0.5-0.3,0.7l-0.2,0.5c-0.5,1.2-1,2.4-1.5,3.5l-1.2,2.7c-0.8,1.8-1.6,3.6-2.4,5.4
		c-2.1,4.9-4.3,9.9-6.4,14.9c-3,7.2-1.1,11,1.1,13c1.5,1.3,3.2,1.9,4.7,2.1c-0.3,0.6-0.6,1.2-0.9,1.8c-1.3,2.6-2.8,5.1-4.3,7.4
		c-0.6,0.8-1.1,1.7-1.7,2.5c-1.6,2.3-3.3,4.8-4.7,7.5c-2.4,4.8-3.3,9.3-2.6,13.6c0.3,2.1,1.1,3.7,2.2,5c1.3,1.4,2.8,2.1,4,2.6
		c2.2,0.8,4.6,1.4,7.1,1.6c-0.6,1.7-1.5,3.5-2.7,5.6c-0.8,1.5-1.7,3-2.6,4.4c-0.8,1.4-1.7,2.9-2.5,4.3c-5.8,10.4-6.9,19.7-3.2,26.9
		c1.1,2.1,2.4,3.6,4,4.5c3.6,2.1,7.5,1.1,9.9,0.5c4.7-1.2,10.1-2.4,15.4-2.5c6.3-0.1,12.5,1.3,19,2.9l2.1,0.5
		c5.8,1.3,12,2.6,18.5,2.3c0.7,0,1.4-0.1,2.1-0.2c6.7-0.7,12.5-3.3,16.6-7.4c1.5-1.6,2.8-3.3,4-4.9c1.6-2.2,3.1-4.3,5-5.4
		c1.9-1.1,4.6-1.3,7.2-1.6l9-0.8c1.7-0.2,4.2-0.4,6.4-2.1c2.2-1.7,3.4-4.4,3.3-7.5C364.9,336.1,364.6,334.9,364.2,333.9z"/>
	<g>
		<g>
			<path class="st110" d="M360.2,335.4c-0.7-1.7-1.9-3.1-3.2-4.5c-0.2-0.3-0.5-0.5-0.7-0.7c-4.4-4.4-8.8-8.8-13.2-13.2
				c-2.9-3-5.9-6-8-9.6c-1.4-2.4-2.4-5.1-4-7.5c-2-3.2-6-7.5-9.9-7.9c-5.4-0.6-12.7,2.3-18,3.4c-12.8,2.5-25.6,5-38.4,7.5
				c-0.8,0.2-1.6,0.3-2.3,0.7c-2.9,1.6-2.9,5.6-3.2,8.9c-0.2,1.6-0.5,3.1-0.9,4.6c-0.9,2.9-2.2,5.7-3.7,8.4c-1.6,3-3.5,5.8-5.1,8.8
				c-3.9,7-6.8,15.7-3.1,22.8c0.6,1.1,1.3,2.2,2.4,2.8c1.9,1.2,4.4,0.6,6.6,0.1c5.4-1.4,10.8-2.6,16.4-2.7
				c7.5-0.1,14.9,1.8,22.2,3.5c5.7,1.3,11.5,2.5,17.3,2.2c5.8-0.3,11.8-2.2,15.9-6.4c3.5-3.5,5.6-8.5,9.9-11
				c2.7-1.5,5.8-1.8,8.9-2.1c3-0.3,6-0.6,9-0.8c1.4-0.1,3-0.3,4.1-1.2c1.2-0.9,1.7-2.4,1.6-3.9C360.6,336.8,360.5,336,360.2,335.4z"
				/>
			<g>
				<path class="st119" d="M360.2,335.4c-0.7-1.7-1.9-3.1-3.2-4.5c-1.2,0.2-2.4,0.3-3.8,0.4c-3.9,0.3-7.9,0.4-11.9,0.1
					c-9.4-0.6-17.6-4.4-27.2-6.4c-11-2.3-21.8-0.1-32.8-0.6c-7.8-0.4-16-3.8-23.1-7.3c-0.9,2.9-2.2,5.7-3.7,8.4
					c5.2,2.2,10.5,4.1,15.8,5.2c11.5,2.4,23.1-0.8,34.5,0.7c10.4,1.3,19.9,6.3,30.4,7.1c8.2,0.6,17.1,0.8,25.4-0.9
					C360.6,336.8,360.5,336,360.2,335.4z"/>
			</g>
		</g>
		<g>
			<path class="st120" d="M346,290.4c-2.2-3.3-5.3-5.5-8.9-7.3c-2.2-1.1-4.5-2.1-6.9-3.1c-1.8-0.7-3.6-1.5-5.4-2.3
				c-7.3-3.3-13.8-8.2-19.1-14.2c-0.8-0.9-1.6-1.9-2.8-2.2c-0.8-0.2-1.6-0.2-2.4-0.1c-8.5,0.6-16.9,1.7-25.2,3.1
				c-2.1,0.4-4.1,0.8-6.2,1.2c-1.6,0.3-4.9,0.4-6.2,1.4c-1.5,1-2.3,4.1-3,6.5c-0.3,0.9-0.5,1.7-0.8,2.3c-0.6,1.3-1.2,2.6-1.9,3.9
				c-1.4,2.7-2.9,5.3-4.6,7.8c-2.1,3.1-4.4,6.2-6.1,9.5c-1.7,3.4-2.8,7.2-2.2,10.9c0.2,1,0.5,2,1.2,2.8c0.6,0.7,1.5,1.1,2.4,1.5
				c4.6,1.8,9.7,1.6,14.6,0.9c4.9-0.7,9.7-2,14.6-2.5c6.9-0.6,13.9,0.4,20.9,0.1c2.8-0.1,5.7-0.5,8.2-1.8c1.6-0.8,3-1.9,4.5-2.7
				c6.8-3.8,15.2-2.5,22.7-4.6c3.5-1,6.8-2.7,10-4.4c1.6-0.8,3.4-1.9,3.6-3.7C347.2,292.3,346.7,291.3,346,290.4z"/>
			<g>
				<path class="st119" d="M284.6,284c5.4-0.7,10.4-1.5,15.9-0.4c4.6,0.9,9,2.5,13.6,2.8c7.6,0.5,16-0.3,23.1-3.3
					c-2.2-1.1-4.5-2.1-6.9-3.1c-4.6,1.4-10.5,1.5-14.8,0.9c-4.4-0.6-8.6-2.2-13-2.9c-4.9-0.8-9.8-0.4-14.7,0.2
					c-4.4,0.6-9,1.7-13.4,0.6c-3.6-0.9-7.2-2.2-10.6-3.6c-1.3-0.5-2.6-1.2-3.9-1.8c-0.3,0.9-0.5,1.7-0.8,2.3
					c-0.6,1.3-1.2,2.6-1.9,3.9c3.6,1.5,7.2,2.8,11,3.9C273.6,285,279.1,284.7,284.6,284z"/>
			</g>
		</g>
		<g>
			<path class="st101" d="M322.2,257.1c-1.9-3.1-4.8-5.2-8-7.1c-1.7-1-3.4-1.9-5.1-2.9c-0.3-0.2-0.7-0.4-1-0.6
				c-8-5-14.1-12.3-19.5-19.9c-1.3-1.8-2.5-3.6-4.4-4.8c-5.9-3.9-13.5,0.5-16.8,5.9c-1.3,2.2-2,4.7-2.9,7.1
				c-0.2,0.4-0.3,0.8-0.5,1.2c-0.5,1.2-1,2.4-1.6,3.6c-1.2,2.7-2.4,5.4-3.6,8.1c-2.2,4.9-4.3,9.9-6.4,14.8c-1.1,2.7-2.1,6.2,0.1,8.1
				c1,0.9,2.4,1.1,3.8,1.2c4.6,0.3,9.2-0.9,13.8-1c4.8-0.1,9.4,0.9,14.2,1.4c4.7,0.5,9.7,0.5,14-1.6c1.7-0.8,3.3-2,5-2.8
				c4.6-2.3,9.9-2.2,15-2.7c1.6-0.2,3.4-0.5,4.4-1.7C323.9,261.6,323.4,259,322.2,257.1z"/>
			<g>
				<path class="st119" d="M279.1,242.5c4.2,1.8,8.2,4.4,12.5,5.7c6.8,2.1,15.4,3.3,22.6,1.8c-1.7-1-3.4-1.9-5.1-2.9
					c-5.2,0.1-11-1-15.4-2.7c-4-1.6-7.7-4-11.8-5.5c-4.3-1.7-8.8-2.3-13.4-2.6c-1.5-0.1-3.1-0.2-4.7-0.3c-0.5,1.2-1,2.4-1.6,3.6
					c0.6,0.1,1.2,0.1,1.8,0.1C269.4,240,274.3,240.4,279.1,242.5z"/>
			</g>
		</g>
		
			<ellipse transform="matrix(0.9484 -0.317 0.317 0.9484 -74.7653 120.3585)" class="st119" cx="332.5" cy="289.9" rx="4.1" ry="3.2"/>
		
			<ellipse transform="matrix(5.657080e-02 -0.9984 0.9984 5.657080e-02 -94.9476 588.8456)" class="st117" cx="264.1" cy="344.7" rx="3.2" ry="4.1"/>
		
			<ellipse transform="matrix(0.2314 -0.9729 0.9729 0.2314 -40.1189 454.4603)" class="st117" cx="267.6" cy="252.6" rx="3.2" ry="4.1"/>
		
			<ellipse transform="matrix(0.9512 -0.3084 0.3084 0.9512 -65.9142 103.7652)" class="st119" cx="295.3" cy="260.4" rx="4.1" ry="3.2"/>
		<polygon class="st117" points="285.2,215.1 279,214.9 275.7,209.7 273.5,215.5 267.6,217.1 272.4,220.9 272.1,227.1 277.2,223.6 
			283,225.9 281.3,219.9 		"/>
		
			<ellipse transform="matrix(0.9484 -0.317 0.317 0.9484 -93.8751 114.5185)" class="st119" cx="305" cy="345.7" rx="4.1" ry="3.2"/>
		
			<ellipse transform="matrix(5.657080e-02 -0.9984 0.9984 5.657080e-02 -5.121 641.9172)" class="st117" cx="337.1" cy="323.7" rx="3.2" ry="4.1"/>
		
			<ellipse transform="matrix(0.2314 -0.9729 0.9729 0.2314 -62.0698 515.0879)" class="st117" cx="294.9" cy="296.8" rx="3.2" ry="4.1"/>
		
			<ellipse transform="matrix(0.9512 -0.3084 0.3084 0.9512 -81.5916 110.7239)" class="st119" cx="309.4" cy="313.4" rx="4.1" ry="3.2"/>
		<ellipse transform="matrix(0.9484 -0.317 0.317 0.9484 -81.6529 98.1359)" class="st119" cx="260.7" cy="300" rx="4.1" ry="3.2"/>
		
			<ellipse transform="matrix(0.2314 -0.9729 0.9729 0.2314 -31.3484 506.7012)" class="st117" cx="305" cy="273.2" rx="3.2" ry="4.1"/>
		
			<ellipse transform="matrix(0.2395 -0.9709 0.9709 0.2395 -10.2192 451.7096)" class="st119" cx="283.2" cy="232.4" rx="3.2" ry="4.1"/>
	</g>
</g>
<g>
	<path class="st118" d="M341.3,104.4c0.6-2.7,0.9-5.4,0.9-8.1c0-0.6,0-1.2-0.1-1.9c-0.1-1.2-0.2-2.4-0.4-3.5c-0.2-1.5-0.6-2.9-1-4.4
		c-0.3-1-0.7-2-1-3c-0.2-0.6-0.5-1.1-0.7-1.6c-2.2-4.9-4.8-7.8-4.9-7.9c-0.1-0.1-0.1-0.1-0.2-0.2c-2.1-2-4.4-3.8-6.7-5.1
		c-0.6-0.3-1.1-0.6-1.6-0.9c-1.1-0.6-2.2-1-3.3-1.5c-1.5-0.5-3-0.9-4.5-1.2c-1.1-0.2-2.3-0.3-3.4-0.3c-0.6,0-1.3,0-2,0.1
		c-4.9,0.3-9.8,2.2-14.6,5.4c-0.5,0.3-1,0.7-1.5,1.1c-0.9,0.7-1.9,1.4-2.7,2.2c-1.1,1-2.3,2.1-3.4,3.2c-0.8,0.8-1.5,1.6-2.3,2.5
		c-0.4,0.5-0.8,1-1.2,1.5c-3,3.7-4.6,6.6-4.7,6.7l-60.2,87.1c-2.3,3.3-1.9,7.8,1,10.6c0.5,0.5,1,0.9,1.5,1.2
		c0.7,0.5,1.5,0.9,2.4,1.3c3.6,1.4,7.7,0.2,9.9-3l63.8-92.4c0.8-1.1,1.5-2.1,2.4-3.1c0.7-0.8,1.4-1.5,2.1-2.2c0.4-0.4,0.8-0.7,1.1-1
		c1.5-1.2,3.1-2.1,4.6-2.6c0.4-0.1,0.9-0.3,1.3-0.3c0.7-0.1,1.5-0.2,2.2-0.1c1.2,0.1,2.2,0.4,2.8,0.6c0.8,0.3,1.2,0.6,1.2,0.6
		c0.1,0.1,0.3,0.2,0.4,0.3c0.2,0.1,0.4,0.2,0.6,0.4c0.4,0.2,0.7,0.5,1.1,0.7c1.2,1,2.2,2.2,3,3.6c0.2,0.4,0.4,0.7,0.6,1.1
		c0.3,0.7,0.6,1.4,0.8,2.2c0.3,1.1,0.5,2.2,0.5,3.3c0,1.2-0.1,2-0.2,2.5c0,0.2-0.1,0.3-0.1,0.5c-0.2,0.6-0.3,1.2-0.4,1.9
		c-0.2,2,0.2,3.9,1.3,5.5c0.6,0.9,1.3,1.8,2.1,2.5c2.2,2.1,5.2,2.8,8.1,1.9C338.5,109.7,340.7,107.4,341.3,104.4z"/>
	<g>
		<path class="st103" d="M337.8,103.6c0.6-2.5,0.8-5,0.8-7.2c0-0.6,0-1.2-0.1-1.7c-0.1-1.1-0.2-2.1-0.4-3.1c-0.2-1.4-0.6-2.7-0.9-4
			c-0.3-1-0.6-1.9-0.9-2.7c-0.2-0.5-0.4-1-0.6-1.5c-2-4.4-4.3-7-4.3-7c-2-1.9-4-3.5-6-4.6c-0.5-0.3-1-0.6-1.4-0.8
			c-1-0.5-1.9-0.9-2.9-1.3c-1.3-0.5-2.6-0.8-3.9-1c-1-0.2-1.9-0.2-2.9-0.3c-0.6,0-1.1,0-1.7,0c-4.7,0.3-9,2.2-12.8,4.8
			c-0.5,0.3-0.9,0.6-1.3,1c-0.9,0.7-1.7,1.3-2.5,2.1c-1.1,1-2.2,2-3.1,3c-0.8,0.8-1.5,1.6-2.1,2.4c-0.4,0.5-0.8,1-1.2,1.4
			c-2.5,3.1-4,5.6-4.4,6.2c-0.1,0.1-0.1,0.2-0.2,0.3l-3,4.3l-1,1.4l-1.9,2.8l-2.5,3.6l-1.8,2.5l-1,1.4l-6.9,10l-1,1.4l-1.9,2.8
			l-2.5,3.6l-1.8,2.5l-1,1.4l-7.1,10.3l-1,1.4l-1.9,2.8l-2.5,3.6l-1.8,2.5l-1,1.4l-6.9,10l-1,1.4l-1.9,2.8l-2.5,3.6l-1.8,2.5l-1,1.4
			l-3.8,5.4c-1.3,1.9-1.1,4.4,0.5,6c0.8,0.8,1.8,1.4,2.7,1.7c2,0.8,4.4,0.1,5.6-1.7l1.2-1.7l1-1.4l0.1-0.2l1.6-2.4l2.5-3.6l1.9-2.8
			l1-1.4l6.9-10l1-1.4l1.8-2.5l2.5-3.6l1.9-2.8l1-1.4l7.1-10.3l1-1.4l1.8-2.5l2.5-3.6l1.9-2.8l1-1.4l6.9-10l1-1.4l1.8-2.5l2.5-3.6
			l1.9-2.8l1-1.4l6-8.7l1.1-1.6l2-2.8l0.3-0.4c0.9-1.3,1.7-2.4,2.6-3.4c0.8-0.9,1.6-1.8,2.4-2.5c0.4-0.4,0.9-0.8,1.3-1.1
			c2-1.7,4-2.7,5.8-3.3c0.6-0.2,1.2-0.3,1.8-0.4c1.1-0.2,2.1-0.2,3-0.2c1.6,0.1,2.9,0.5,3.9,0.9c1.3,0.5,2,1.1,2,1.1
			c0.3,0.2,0.5,0.3,0.8,0.5c0.5,0.3,1,0.6,1.4,1c1.7,1.3,3,3,4,4.7c0.3,0.5,0.5,1,0.7,1.4c0.4,0.9,0.7,1.8,0.9,2.7
			c0.4,1.4,0.6,2.8,0.6,4.1c0,1.3-0.1,2.4-0.3,3.4c-0.1,0.3-0.1,0.6-0.2,0.8c-0.1,0.4-0.2,0.7-0.3,1.1c-0.1,1.1,0.1,2.2,0.7,3.1
			c0.5,0.8,1,1.4,1.6,1.9C332.6,108.5,337,107.2,337.8,103.6z"/>
		<g>
			<polygon class="st105" points="231.2,167.3 237.5,177 239.9,173.5 233.7,163.7 			"/>
			<polygon class="st101" points="235.6,160.9 241.8,170.7 242.8,169.3 236.6,159.5 			"/>
			<polygon class="st101" points="228.5,171.2 234.7,181 235.7,179.6 229.5,169.8 			"/>
			<polygon class="st105" points="246.3,145.5 252.5,155.3 254.9,151.7 248.7,142 			"/>
			<polygon class="st101" points="250.6,139.2 256.9,149 257.8,147.5 251.6,137.8 			"/>
			<polygon class="st101" points="243.5,149.5 249.7,159.3 250.7,157.9 244.5,148.1 			"/>
			<polygon class="st105" points="276.5,101.7 282.7,111.5 285.2,107.9 279,98.1 			"/>
			<polygon class="st101" points="280.9,95.4 287.1,105.1 288.1,103.7 281.9,94 			"/>
			<polygon class="st101" points="258.8,127.4 265,137.2 266,135.8 259.7,126 			"/>
			<polygon class="st105" points="261.5,123.5 267.7,133.2 270.2,129.7 264,119.9 			"/>
			<polygon class="st101" points="265.9,117.1 272.1,126.9 273.1,125.5 266.9,115.7 			"/>
			<polygon class="st101" points="273.8,105.7 280,115.5 281,114 274.8,104.3 			"/>
			<path class="st105" d="M292.8,79.3l4.4,11.3l0.3-0.4c0.9-1.3,1.7-2.4,2.6-3.4l-4.1-10.6C294.8,77.3,293.7,78.3,292.8,79.3z"/>
			<path class="st101" d="M298.4,74.2l3.9,10.2c0.4-0.4,0.9-0.8,1.3-1.1l-3.9-10C299.3,73.6,298.9,73.9,298.4,74.2z"/>
			<path class="st101" d="M289.5,83.1l4.6,12l1.1-1.6l-4.5-11.8C290.2,82.1,289.8,82.6,289.5,83.1z"/>
			<path class="st105" d="M317.1,68.7l-2.9,10.7c1.6,0.1,2.9,0.5,3.9,0.9l2.8-10.6C319.7,69.2,318.4,68.9,317.1,68.7z"/>
			<path class="st101" d="M323.8,70.9l-2.9,10.8c0.5,0.3,1,0.6,1.4,1l3-11C324.8,71.5,324.3,71.2,323.8,70.9z"/>
			<path class="st101" d="M312.5,68.5L309.4,80c0.6-0.2,1.2-0.3,1.8-0.4l3-11.2C313.6,68.4,313.1,68.4,312.5,68.5z"/>
			<path class="st105" d="M337.2,87.6l-9.3,4c0.4,1.4,0.6,2.8,0.6,4.1l9.7-4.2C337.9,90.1,337.6,88.8,337.2,87.6z"/>
			<path class="st101" d="M328.2,99.1c-0.1,0.3-0.1,0.6-0.2,0.8c-0.1,0.4-0.2,0.7-0.3,1.1l10.9-4.7c0-0.6,0-1.2-0.1-1.7L328.2,99.1z
				"/>
			<path class="st101" d="M335.6,83.4l-9.4,4.1c0.3,0.5,0.5,1,0.7,1.4l9.3-4C336.1,84.3,335.9,83.9,335.6,83.4z"/>
		</g>
	</g>
</g>
</svg>
