<?xml version="1.0" encoding="utf-8"?>
<!-- Generator: Adobe Illustrator 22.0.1, SVG Export Plug-In . SVG Version: 6.00 Build 0)  -->
<svg version="1.1" id="Calque_1" xmlns="http://www.w3.org/2000/svg" xmlns:xlink="http://www.w3.org/1999/xlink" x="0px" y="0px"
	 viewBox="0 0 432 432" style="enable-background:new 0 0 432 432;" xml:space="preserve">
<style type="text/css">
	.st0{fill:#B78D5C;}
	.st1{fill:#EBCEC6;}
	.st2{fill:#D4B67E;}
	.st3{fill:#EF798A;}
	.st4{fill:#FBD8E3;}
	.st5{fill:#660A1E;}
	.st6{fill:#990033;}
	.st7{fill:#07512C;}
	.st8{fill:#8CC63F;}
	.st9{fill:#006837;}
	.st10{fill:#CCCCCC;}
	.st11{fill:#FFFFFF;}
	.st12{fill:#8A1A31;}
	.st13{fill:#A7A6AA;}
	.st14{fill:#D3A9B2;}
	.st15{fill:#2A2A2B;}
	.st16{fill:#DDC090;}
	.st17{fill:#AF434B;}
	.st18{fill:#62A581;}
	.st19{fill:#94C16C;}
	.st20{fill:#B9011B;}
	.st21{fill:#BABABA;}
	.st22{fill:#754C24;}
	.st23{fill:#A67C52;}
	.st24{fill:#8C6239;}
	.st25{fill:#C69C6D;}
	.st26{fill:#9E1E28;}
	.st27{fill:#D6C188;}
	.st28{fill:#BF364A;}
	.st29{fill:#A1272D;}
	.st30{fill:#BFA76B;}
	.st31{fill:#DCDEDD;}
	.st32{fill:#D89A5D;}
	.st33{fill:#F5EDDB;}
	.st34{fill:#603813;}
	.st35{fill:#4A7575;}
	.st36{fill:#7F3244;}
	.st37{fill:#9E7E5E;}
	.st38{fill:#C1272D;}
	.st39{fill:#561217;}
	.st40{fill:#C49F7A;}
	.st41{fill:#534741;}
	.st42{fill:#999999;}
	.st43{fill:#A80031;}
	.st44{fill:#1A1A1A;}
	.st45{fill:#333333;}
	.st46{fill:#B3B3B3;}
	.st47{fill:#B3A6AD;}
	.st48{fill:#B6B155;}
	.st49{fill:#679CBA;}
	.st50{fill:#0071BC;}
	.st51{fill:#F7931E;}
	.st52{fill:#821119;}
	.st53{fill:#39B54A;}
	.st54{fill:#1B1464;}
	.st55{fill:#FAF3E3;}
	.st56{fill:#DCD2BD;}
	.st57{fill:#F5EDDA;}
	.st58{fill:#815D3C;}
	.st59{fill:#F69331;}
	.st60{fill:#BCA791;}
	.st61{fill:#F9D51D;}
	.st62{fill:#704638;}
	.st63{fill:#A7DBD7;}
	.st64{fill:#DED7CD;}
	.st65{fill:#E89024;}
	.st66{fill:#EACAAC;}
	.st67{fill:#D8B195;}
	.st68{fill:#A50423;}
	.st69{fill:#CC7312;}
	.st70{fill:#9EC5FF;}
	.st71{fill:#6D86B4;}
	.st72{fill:#2E363A;}
	.st73{fill:#FFCC00;}
	.st74{fill:#B58847;}
	.st75{fill:#563315;}
	.st76{fill:#ED0A3A;}
	.st77{fill:#A62714;}
	.st78{fill:#247E5B;}
	.st79{fill:#176041;}
	.st80{fill:#61B756;}
	.st81{fill:#EDDBAE;}
	.st82{fill:#3F3F3F;}
	.st83{fill:#595959;}
	.st84{fill:#484849;}
	.st85{fill:#EFD1B4;}
	.st86{fill:#E0E0E2;}
	.st87{fill:#CCCCCE;}
	.st88{fill:#CEC76B;}
	.st89{fill:#42210B;}
	.st90{fill:#FCACBC;}
	.st91{fill:#D6B994;}
	.st92{fill:#F8C2C2;}
	.st93{fill:#E4D48E;}
	.st94{fill:#A57C53;}
	.st95{fill:#96704B;}
	.st96{fill:#9D6D47;}
	.st97{fill:#591427;}
	.st98{fill:#7CCC71;}
	.st99{fill:#C7B299;}
	.st100{fill:#998675;}
	.st101{fill:#7DC34D;}
	.st102{fill:#80694F;}
	.st103{fill:#FF1C2E;}
	.st104{fill:#A51B29;}
	.st105{fill:#00673B;}
	.st106{fill:#B88464;}
	.st107{fill:#CA986F;}
	.st108{fill:#3F2316;}
	.st109{fill:#F1F1F2;}
	.st110{fill:#00924A;}
	.st111{fill:#C7202F;}
	.st112{fill:#BBBDBF;}
	.st113{fill:#58595B;}
	.st114{fill:#D0D2D3;}
	.st115{fill:#6C6E70;}
	.st116{fill:#663818;}
	.st117{fill:#FF9134;}
	.st118{fill:#AC8D6B;}
	.st119{fill:#CE1F32;}
	.st120{fill:#00B252;}
	.st121{fill:#804D34;}
	.st122{fill:#61A6AF;}
	.st123{fill:#4C838D;}
	.st124{fill:#E6E6E6;}
	.st125{fill:#E6E7E7;}
	.st126{fill:#55396B;}
	.st127{fill:#6F4696;}
	.st128{fill:#9C2D8C;}
	.st129{fill:#915D3F;}
	.st130{fill:none;}
	.st131{fill:#00BCB9;}
	.st132{fill:#00BBB8;}
	.st133{fill:#6C328D;}
	.st134{fill:#5D4A42;}
	.st135{fill:#746559;}
	.st136{fill:#009245;}
	.st137{fill:#808184;}
	.st138{fill:#00A69C;}
	.st139{fill:#0078B8;}
	.st140{fill:#9F847A;}
	.st141{fill:#EECCB3;}
	.st142{fill:#241F20;}
	.st143{fill:#0D5408;}
	.st144{fill:#C9800A;}
	.st145{fill:#083A04;}
	.st146{fill:#BF001A;}
	.st147{fill:#AA0012;}
	.st148{fill:#9E620B;}
	.st149{fill:#A80E28;}
	.st150{fill:#0C3A1F;}
	.st151{fill:#C10A0A;}
	.st152{fill:#0A3D06;}
	.st153{fill:#A30738;}
	.st154{fill:#7F0A2E;}
	.st155{fill:#D8712B;}
	.st156{fill:#C15105;}
	.st157{fill:#F4A00B;}
	.st158{fill:#10440A;}
	.st159{fill:#A00E0E;}
	.st160{fill:#0F230D;}
	.st161{fill:#B20B33;}
	.st162{fill:#E5E5E5;}
	.st163{fill:#11722D;}
	.st164{fill:#0B281A;}
	.st165{fill:#E59D1F;}
	.st166{fill:#C60924;}
	.st167{fill:#960820;}
	.st168{fill:#AD1431;}
	.st169{fill:#E24756;}
	.st170{fill:#CE364C;}
	.st171{fill:#A50707;}
	.st172{fill:#4A9B29;}
	.st173{fill:#468E24;}
	.st174{fill:#AF0E22;}
	.st175{fill:#EDECE6;}
	.st176{fill:#54220E;}
	.st177{fill:#592C1C;}
	.st178{fill:#EFEAC7;}
	.st179{fill:#042111;}
	.st180{fill:#A80C0C;}
</style>
<path class="st38" d="M171.9,316c0.2-0.9,0.2-1.9,0.1-2.9c-0.2-3.4-1.9-6.3-4.7-8.1c-1.6-1.1-3-1.9-4.6-2.7c0.4-2.6-0.3-5.5-2-7.5
	c-1-1.2-2.1-2-3.4-2.3c-2.4-0.6-4.8,0.4-7.2,3.1c-0.5,0.5-0.9,1-1.4,1.6c-0.1-1.4-0.4-2.8-1.1-4.1c-1.4-2.9-4.4-5-7.6-5.4
	c-1.5-0.2-2.9,0.1-4,0.8c-2.1,1.3-3.1,3.7-2.9,7.2c0,0.1,0,0.1,0,0.2c-0.1-0.1-0.1-0.1-0.2-0.2c-2.4-2.6-4.8-3.7-7.2-3.1
	c-1.2,0.3-2.4,1.1-3.4,2.3c-0.1,0.1-0.2,0.2-0.2,0.3c-0.1-0.1-0.1-0.2-0.2-0.3c-1-1.2-2.1-2-3.4-2.3c-2.4-0.6-4.8,0.4-7.2,3.1
	c-0.1,0.1-0.1,0.1-0.2,0.2c0-0.1,0-0.1,0-0.2c0.2-3.5-0.8-6-2.9-7.2c-1.1-0.7-2.5-0.9-4-0.8c-3.2,0.4-6.2,2.5-7.6,5.4
	c-0.6,1.3-0.9,2.6-1,3.9c-0.1,0-0.1,0-0.2,0c-0.4-0.5-0.8-0.9-1.2-1.4c-2.4-2.6-4.8-3.7-7.2-3.1c-1.2,0.3-2.4,1.1-3.4,2.3
	c-1.9,2.4-2.6,5.8-1.7,8.7c-1.4,0.9-2.7,1.7-3.9,2.6c-3.3,2.2-5.3,6.1-5.3,10.3c0,3.8,1.8,7,4.8,9c7.3,4.7,17.8,8,27.4,8.6
	c5.5,0.3,11-1.2,15.5-4.4l0.3-0.2c0.7-0.5,1.5-1,2-1c0.4,0,0.9,0.3,1.4,0.6c5.1,2.7,11.1,5.4,17.6,5.5c0.1,0,0.2,0,0.3,0
	c4.3,0,8.8-1.2,13.7-3.6c3.8-1.8,8.5-4.4,12.1-7.6C170,321.4,171.5,318.8,171.9,316z M161.4,306c1.3,0.7,2.5,1.4,3.8,2.3h0
	c1.5,1,2.5,2.5,2.8,4.2c0,0.1,0,0.2,0,0.3v2.6c-3.7-0.9-7.1-3.1-9.4-6.1C159.5,308.5,160.6,307.3,161.4,306z M154.8,327
	c-3.4-1.4-6.5-3.4-9.1-5.9c2.8-0.6,5.2-1.6,6.9-2.6c2.7,1.4,4.9,3.7,6.1,6.5C157.4,325.7,156.1,326.4,154.8,327z M142.7,330.5
	c-0.8-1.4-1.6-2.8-2.5-4.2c2.5,0.1,5.2,0.3,7.5,0.8c1.6,0.4,2.9,0.7,4.1,1.3C148.6,329.7,145.6,330.4,142.7,330.5z M122.9,324.4
	c-0.1,0-0.1,0-0.1,0c-0.3,0-0.7,0-1,0.1c-0.8,0-1.8-0.3-2.8-0.8c0.1-0.1,0.1-0.3,0.2-0.4c0,0,0,0,0,0c1.7-1.7,5.6-2.7,8.8-0.4
	c-1.4,0.9-3,1.7-4.3,1.6C123.5,324.5,123.2,324.4,122.9,324.4z M93.9,328.1c1-0.4,2.1-0.8,3.4-1.1c2.4-0.6,4.9-0.7,7.3-0.8
	c-0.8,1.2-1.5,2.3-2.1,3.5C99.7,329.4,96.8,328.9,93.9,328.1z M85.5,325.1c1.2-2.9,3.5-5.3,6.3-6.7c1.9,1.1,4.7,2.3,7.9,2.8
	c-2.7,2.5-5.8,4.5-9.2,5.9C88.8,326.5,87.1,325.9,85.5,325.1z M87.1,310.4c0.7,0.6,1.5,1.3,2.4,1.8c-0.8,0.5-1.2,1.3-1.3,2.1
	c-0.1,0.9,0.3,1.8,1.1,2.4c0.3,0.2,0.6,0.4,0.9,0.7c-2.1,1.3-3.9,3-5.2,5.1c0-1-0.1-2-0.3-3c-0.4-2-1.1-3.7-2.1-5
	C84.4,313.4,85.9,312,87.1,310.4z M105.5,294.3C105.5,294.3,105.5,294.3,105.5,294.3c0.5-0.5,1.1-0.9,1.7-1.2
	c0.2,0.8,0.2,1.7,0.2,2.3c0,0.3,0,0.6-0.1,0.9c-0.1,1.3-0.3,2.6-0.6,3.9c-0.6,2.7-1.6,5.4-2.9,7.9c0.2-0.6,0.4-1.3,0.6-1.9
	c0.2-0.5,0.3-1,0.5-1.5C106,301.3,106.2,297.7,105.5,294.3z M120.2,301.1c0,0.5-0.1,1.1-0.3,1.6c-0.3,0.7-0.7,1.4-1.2,2.1
	c-0.6,0.8-1.3,1.5-2,2.2c-0.8,0.8-1.8,1.6-3,2.3c-0.2,0.1-0.3,0.2-0.5,0.3c2.2-2.7,3.8-5.9,4.6-9.3c0,0,0,0,0,0
	c0.7-0.2,1.5-0.4,2.2-0.5C120.2,300.2,120.2,300.7,120.2,301.1z M124.4,299.7c0.7,0.1,1.5,0.2,2.2,0.5c0,0,0,0,0,0
	c0.8,3.4,2.4,6.6,4.6,9.3c0,0,0,0,0,0c-0.2-0.1-0.3-0.2-0.5-0.3c-1.1-0.6-2.1-1.5-3-2.3c-0.7-0.7-1.5-1.4-2.1-2.3
	c-0.4-0.6-0.8-1.2-1.1-1.9c-0.2-0.6-0.3-1.3-0.3-1.9C124.3,300.5,124.4,300.1,124.4,299.7z M139,294.3
	C139,294.3,139,294.3,139,294.3c-0.6,3.4-0.4,7,0.6,10.4c0.1,0.5,0.3,1,0.5,1.5c0.2,0.7,0.4,1.3,0.6,1.9c-1.3-2.5-2.3-5.1-2.9-7.8
	c-0.3-1.3-0.5-2.6-0.6-3.9c0-0.3,0-0.6-0.1-1c0-0.6,0-1.5,0.2-2.3C137.9,293.4,138.5,293.8,139,294.3z M148.9,325.7
	c-0.3-0.1-0.6-0.1-0.8-0.2c-2.8-0.6-6.1-0.8-8.9-0.9l-0.1,0c-0.1-0.1-0.2-0.3-0.3-0.4c-1.1-1.4-2.2-2.5-3.4-3.5
	c2.1,0.6,4.1,0.8,6,0.8c0.9,0,1.7-0.1,2.5-0.1C145.3,323,147,324.4,148.9,325.7z M128.6,316.3c0.1,1,0.6,1.8,1.5,2.3
	c0.4,0.2,0.7,0.4,1.1,0.6c-0.4,1-1,2-1.8,2.7c-2-1.6-5.5-2.5-8.6-1.4c1.3-1.7,2.9-2.9,4.8-3.5c0.2,0,0.3-0.1,0.4-0.2
	c0.9-0.2,1.8-0.5,2.7-0.8C128.5,316,128.5,316.2,128.6,316.3z M133.6,315.9c7.2-4.4,13.9-2.8,17.7-1.2
	C147.8,316.8,141.4,319.3,133.6,315.9z M150.5,310.1c0,0-0.1,0-0.1,0l-0.2,0c0,0-0.1,0-0.1,0c-0.7-0.2-1.4-0.4-2.2-0.5
	c0.4-0.6,0.7-1.2,1-1.8c0.2-0.4,0.5-0.9,0.8-1.3c1.5-2.4,3.5-4.5,5.8-6.2c-0.2,1.1-0.5,2.3-0.9,3.5
	C153.6,305.8,152.3,307.8,150.5,310.1z M142.2,307.8c-0.2-0.7-0.4-1.4-0.7-2.1c-0.2-0.5-0.3-1-0.5-1.5c-0.8-2.7-1-5.6-0.7-8.4
	c0.7,0.9,1.4,1.9,1.9,3c0.8,1.7,1.4,3.6,1.8,5.9C143.7,305.7,143.1,306.7,142.2,307.8z M136.8,310.2c-0.7,0.2-1.3,0.5-2,0.7
	c-0.1,0-0.1,0-0.2,0c-0.4-0.4-0.7-0.9-1.1-1.3c-0.3-0.4-0.7-0.8-1-1.2c-1.8-2.2-3.2-4.8-4-7.5c1,0.5,2,1.2,3,2
	c1.8,1.6,3.4,3.7,5.1,6.6C136.7,309.8,136.8,310,136.8,310.2z M129,313.9c-4,1.9-9.7,2.4-13.2-0.2c1.4-1,2.8-1.9,4.9-2.2
	c1.9-0.3,4,0.3,6,1C127.6,312.7,128.4,313.3,129,313.9z M93.3,314.7c3.8-1.6,10.4-3.2,17.7,1.2C103.2,319.3,96.8,316.9,93.3,314.7z
	 M112,308.5c-0.3,0.4-0.7,0.8-1,1.2c-0.3,0.3-0.6,0.7-0.9,1c-0.3,0-0.5,0.1-0.8,0.1c-0.5-0.2-1.1-0.4-1.6-0.6
	c0.1-0.2,0.1-0.4,0.2-0.5c1.7-2.9,3.3-5,5.1-6.6c0.9-0.8,1.9-1.5,3-2C115.2,303.7,113.8,306.3,112,308.5z M103.4,304.2
	c-0.1,0.5-0.3,1-0.5,1.5c-0.2,0.7-0.5,1.4-0.7,2.1c-0.8-1.1-1.5-2.1-1.9-3.1c0.4-2.3,1-4.2,1.8-5.9c0.5-1.1,1.2-2.1,1.9-3
	C104.4,298.6,104.2,301.5,103.4,304.2z M94.2,310.2c-2-2.3-3.3-4.4-4.1-6.4c-0.5-1.2-0.8-2.3-0.9-3.5c2.3,1.7,4.3,3.8,5.8,6.2
	c0.3,0.4,0.5,0.9,0.8,1.3c0.3,0.6,0.7,1.2,1,1.8C95.8,309.8,95,310,94.2,310.2z M97.1,325.4c1.7-1.2,3.3-2.5,4.7-4
	c0.5,0,1,0.1,1.5,0.1c2,0,4.2-0.3,6.5-1c-1.3,1-2.5,2.2-3.6,3.6c-0.1,0.1-0.2,0.3-0.3,0.4c-0.1,0-0.1,0-0.2,0
	C102.9,324.7,100,324.8,97.1,325.4z M114.7,318.5c0.8-0.4,1.4-1.3,1.4-2.2c0-0.2,0-0.3,0-0.5c1.6,0.8,3.5,1.3,5.6,1.3
	c-1.8,1.4-3.2,3.3-4.1,5.7c-0.3-0.2-0.6-0.4-0.9-0.6c-1.2-0.9-2-2.2-2.4-3.6C114.4,318.6,114.5,318.6,114.7,318.5z M129.9,323.5
	c1-0.8,1.8-1.8,2.4-2.9c1.8,1,3.5,2.6,5.1,4.6c1.3,1.6,2.4,3.5,3.4,5.3c-5.1-0.3-9.9-2.5-14.5-4.9
	C127.9,325,129.2,324.1,129.9,323.5z M159.4,322.5c-1.3-2.1-3-3.8-5.1-5.1c0.3-0.2,0.6-0.4,0.9-0.6c0,0,0,0,0,0
	c0.8-0.6,1.2-1.5,1.1-2.5c-0.1-0.9-0.5-1.7-1.2-2.1c0.9-0.5,1.6-1.2,2.3-1.7c1.2,1.6,2.7,2.9,4.4,4c-1,1.3-1.7,3-2.1,5
	C159.5,320.6,159.4,321.5,159.4,322.5z M157.7,297.2c0.8,1,1.2,2.2,1.2,3.5c0,0.7-0.1,1.4-0.3,2c-0.2,0.6-0.5,1.2-0.9,1.7
	c-0.7,0.9-1.5,1.8-2.3,2.5c-0.5,0.4-1,0.9-1.6,1.4c0.9-1.3,1.6-2.6,2.1-3.9c1.1-2.6,1.4-5.4,1-7.8
	C157.2,296.7,157.5,297,157.7,297.2z M150.2,302c0.8-1.2,1.6-2.3,2.6-3.4c0.1-0.1,0.3-0.3,0.4-0.4c0.5-0.6,1.4-1.4,2.2-1.8
	c0.1,0.6,0.2,1.2,0.2,1.9c0,0,0,0,0,0c-2.9,1.9-5.5,4.4-7.3,7.4c-0.2,0.3-0.3,0.6-0.5,0.9C148.4,304.9,149.2,303.4,150.2,302z
	 M139.2,291.4c0.2,0,0.3,0,0.5,0c1.9,0.2,3.7,1.5,4.5,3.2c0.3,0.7,0.5,1.4,0.6,2.2c0.1,1,0.1,2.1,0.1,3c0,0.3,0,0.6,0,1
	c0,0,0,0,0,0.1c-0.3-1-0.7-2-1.1-2.9c-1.3-2.8-3.3-5.1-5.7-6.4C138.4,291.5,138.8,291.4,139.2,291.4z M126.8,296.3
	c1-0.2,2.2,0.8,3,1.6c0.1,0.1,0.2,0.2,0.3,0.3c0.9,0.9,1.6,1.9,2.4,2.9c0.3,0.5,0.6,0.9,0.9,1.4c-0.3-0.3-0.6-0.5-0.8-0.8
	c-2.3-2-5-3.3-7.6-3.6c0.2-0.3,0.4-0.6,0.6-0.9C126,296.7,126.4,296.4,126.8,296.3z M122.3,306.6c0.9,1.2,1.9,2.3,2.9,3.2
	c0.2,0.2,0.5,0.4,0.8,0.7c-1.8-0.5-3.6-0.9-5.4-0.6c-0.6,0.1-1.1,0.2-1.6,0.4c0.2-0.2,0.3-0.3,0.5-0.4
	C120.4,308.9,121.4,307.9,122.3,306.6z M111.7,301.6c0.8-1.1,1.6-2.2,2.5-3.2c0-0.1,0.1-0.1,0.1-0.2c0.8-0.8,2.2-2.2,3.3-1.9
	c0.4,0.1,0.8,0.4,1.3,1c0.2,0.3,0.4,0.6,0.6,0.9c-2.7,0.3-5.3,1.6-7.6,3.6c-0.3,0.3-0.6,0.5-0.9,0.8
	C111.3,302.2,111.5,301.9,111.7,301.6z M99.8,296.1c0.1-0.5,0.3-1,0.5-1.4c0.8-1.7,2.6-3,4.5-3.2c0.2,0,0.3,0,0.5,0
	c0.4,0,0.8,0.1,1.1,0.2c-2.3,1.4-4.3,3.6-5.7,6.4c-0.4,0.9-0.8,1.8-1.1,2.9c0-0.3,0-0.6,0-0.9c0,0,0-0.1,0-0.1
	C99.5,298.7,99.5,297.3,99.8,296.1z M91.4,298.2c0,0,0.1,0.1,0.1,0.1c0.9,1,1.8,2.1,2.5,3.2c1.1,1.6,2,3.2,2.7,5
	c-0.2-0.3-0.3-0.6-0.5-0.8c-1.8-3-4.3-5.5-7.3-7.4c0,0,0,0,0,0c0-0.6,0.1-1.3,0.2-1.9C90.1,296.8,90.9,297.6,91.4,298.2z
	 M86.8,297.2c0.2-0.3,0.5-0.5,0.7-0.7c-0.4,2.5,0,5.2,1,7.8c0.5,1.3,1.2,2.6,2.1,3.9c-0.6-0.4-1.1-0.9-1.6-1.4
	c-0.6-0.6-1.3-1.3-1.9-2c-0.5-0.7-1-1.4-1.3-2.2c-0.2-0.5-0.3-0.9-0.3-1.4C85.5,299.9,85.9,298.4,86.8,297.2z M80.3,309.3
	c1.2-0.8,2.3-1.6,3.5-2.3c0.6,0.9,1.4,1.6,2.1,2.3c-2.2,2.9-5.5,5.1-9.1,6C77.1,312.9,78.4,310.7,80.3,309.3z M76.8,317.1
	c1.5-0.4,3-0.9,4.4-1.7c0.9,1.1,1.6,2.7,1.9,4.5c0.2,1.4,0.3,2.8,0.3,4.3c-1.3-0.6-2.5-1.3-3.6-2.1C77.6,320.6,77,318.5,76.8,317.1z
	 M118.3,326.3c-3.8,2.7-8.4,4-13,3.7c-0.3,0-0.6,0-1-0.1c0.9-1.6,2-3.3,3.1-4.8c1.7-2.2,3.7-3.8,5.7-4.9c0.6,1.3,1.4,2.4,2.5,3.2
	c0.7,0.5,2.1,1.5,3.6,2.1c-0.3,0.2-0.5,0.3-0.7,0.5L118.3,326.3z M165.4,320.3c-1.3,1.2-2.8,2.3-4.4,3.3c0-1.3,0.1-2.5,0.3-3.7
	c0.3-1.8,1-3.3,1.9-4.5c1.4,0.7,2.9,1.3,4.4,1.7C167.1,318.3,166.4,319.4,165.4,320.3z"/>
<g>
	<g>
		<path class="st101" d="M128.3,170.4c-0.4-0.2-0.8-0.4-1.2-0.5c-4.3-1.6-8.8-2.1-12.9-1.3c0.4-9.8,2.8-19.6,6.8-28.5
			C119,150,121.9,161.6,128.3,170.4z"/>
		<path class="st101" d="M102.7,129.5c0.7,0.9,1.4,1.8,2.2,2.5l-6.3-0.1c0.1-2.4,0.7-4.8,1.5-7.1
			C100.7,126.6,101.7,128.2,102.7,129.5"/>
		<path class="st101" d="M122,117.1c0.1-0.2,0.1-0.4,0.1-0.6c0.5-0.5,0.9-1,1.3-1.6c5.7,4.3,10.1,10.6,12.3,17.4l-1.7,0c0,0,0,0,0,0
			"/>
		<path class="st101" d="M133.9,132.3c-0.8,0-1.5,0.4-1.9,1c-0.9-0.6-1.8-1.3-2.6-2c-0.1-0.2-0.3-0.4-0.5-0.4
			c-2.8-2.4-5.2-5.2-7.2-8.2c-0.1-0.1-0.2-0.2-0.2-0.3c0.3-1.7,0.5-3.5,0.6-5.3c0,0,0,0,0,0"/>
		<path class="st101" d="M165.6,177.9c-1.7-4.8-3.8-9.5-6.3-13.9l13.6,14L165.6,177.9z"/>
		<path class="st101" d="M142.9,122.4c-2.6-4.6-3.3-10-3.6-15.2l12.4,12.7c-0.3,1.7-0.8,3.5-1.7,5.3c-2.4-0.5-4.8-1.2-7-2.3
			C143.1,122.7,143,122.5,142.9,122.4"/>
		<path class="st101" d="M159.6,132.6c-0.7-2.6-1.7-5.2-2.9-7.7l7.5,7.7L159.6,132.6z"/>
		<path class="st101" d="M127.8,95.3l2,2.1c-2.3,7.9-6.3,14.7-11.6,19.8c1.9-5,3-10.3,3.3-15.7L127.8,95.3z"/>
		<path class="st101" d="M155.2,177.8c-0.1-0.1-0.3-0.1-0.4-0.1c-4.4-4.5-9.4-8.4-14.9-11.5c-0.1-0.1-0.3-0.1-0.4-0.1
			c-0.7-2.5-1.5-5-2.4-7.5c0,0,0.1-0.1,0.1-0.1c1.8-2.3,3.1-5,3.9-7.8c0.9,4.3,2.6,8.8,5.1,13.3c2.8,5,6.3,9.5,9.8,13.9L155.2,177.8
			z"/>
		<path class="st101" d="M111.7,172.5c-1.7-1.2-3.4-2.3-5.2-3.3c-1.9-4.2-2.6-9-1.8-13.6C107.9,160.9,110.3,166.6,111.7,172.5z"/>
		<path class="st101" d="M92.1,172.1c-1.3-1.1-2.9-1.8-4.6-2.1l6-5.9C92.7,166.7,92.2,169.4,92.1,172.1z"/>
		<path class="st101" d="M145.2,201.8C145.2,201.8,145.1,201.8,145.2,201.8c-1.4-3.3-2.4-6.7-3-10.3l13.3,13.6
			C152.1,203.7,148.7,202.5,145.2,201.8z"/>
		<path class="st101" d="M117.6,184.3c2.7,1.6,5.9,2.4,9,2.4c1.2,0,2.4-0.1,3.6-0.4c-0.3,2.8-0.8,5.5-1.7,8.1
			c-0.4,0.1-0.8,0.2-1.1,0.3c-0.6,0.1-1.2,0.2-1.7,0.6c-2.7,1.6-5.1,3.7-7.1,6.2c-0.1-5.5-0.8-10.9-1.9-16.3L117.6,184.3z"/>
		<path class="st101" d="M78.5,228.2c-4.5,3.2-9.3,6-14.3,8.2l23.5-23C84.6,218,81.5,223.1,78.5,228.2z"/>
		<path class="st101" d="M178,235.7c1.6,1.7,3.4,3.1,5.4,4.2l-5.2-0.1C178.2,238.5,178.1,237.1,178,235.7z"/>
		<path class="st101" d="M113.4,239.1c-1.3-3.3-1.3-7.2,0.2-10.4c1.4-3,3.9-5.6,7-6.9c0.5,6.2,2.7,12.3,6.3,17.4L113.4,239.1z"/>
		<path class="st101" d="M96.3,238.9l-3.5-0.8c-1-0.3-2.1-0.5-3.2-0.8c0-0.1,0-0.2,0-0.3c-0.1-1.1,0.3-2.3,0.7-3.4
			c1.9-5.1,4.5-9.9,7.8-14.3c0,0.7,0,1.4,0.1,2.1c0.5,6.3,2.8,12.5,6.5,17.6L96.3,238.9z"/>
		<path class="st101" d="M150.2,215.5c2.8,3.6,6,6.9,9.6,9.7c0.2,0.2,0.4,0.3,0.6,0.4c-1.8,4.9-4.8,9.3-8.7,12.8
			c-0.5-4.2-2.1-8.3-4.6-11.7c-0.1-0.2-0.3-0.3-0.5-0.4C147.5,222.5,148.7,218.9,150.2,215.5z"/>
		<path class="st101" d="M101.3,212c0.7-3.2,2-6.4,3.9-9.6c0.1-0.2,0.1-0.3,0.2-0.5c0.5-0.8,0.9-1.7,1.3-2.5
			c1.1,1.1,2.3,2.3,3.5,3.5c0,0-0.1,0.1-0.1,0.1"/>
		<path class="st101" d="M110.1,203c-1.9,3.8-4.9,6.9-8.6,8.9l-0.2,0.1"/>
		<path class="st101" d="M125.1,214.6c1.4,0.5,2.8,0.8,4.3,1c0.1,0.2,0.3,0.3,0.6,0.4c0.5,0.2,0.9,0.6,1.3,1.1
			c3.8,4.7,6.4,10.5,7.5,16.4C133.3,228,128.7,221.6,125.1,214.6z"/>
	</g>
	<path class="st105" d="M196.9,240.8l-57.1-58.5l38.8,0.5c0.9,0,1.8-0.6,2.2-1.4c0.4-0.9,0.2-1.9-0.5-2.6l-40.7-41.7l30.3,0.4
		c0.9,0,1.8-0.6,2.2-1.4c0.4-0.9,0.2-1.9-0.5-2.6l-42.2-43.2c-0.9-0.9-2.4-1-3.3,0L83,132.4c-0.7,0.7-0.9,1.7-0.5,2.6
		c0.4,0.9,1.2,1.5,2.2,1.5l30.1,0.4L73,177.5c-0.7,0.7-0.9,1.7-0.5,2.6c0.4,0.9,1.2,1.5,2.2,1.5l38.5,0.5l-58.5,57.1
		c-0.7,0.7-0.9,1.7-0.5,2.6c0.4,0.9,1.2,1.5,2.2,1.5l138.8,1.6c0,0,0,0,0,0c1,0,1.8-0.6,2.2-1.4
		C197.8,242.5,197.6,241.5,196.9,240.8z M189.5,240c-5-1.4-9.4-4.7-12.3-9.1c-0.4-1.7-0.9-3.5-1.6-5.1L189.5,240L189.5,240z
		 M129.8,239.3c-0.5-0.6-1-1.3-1.4-1.9c0,0,0,0,0,0c1.2-3,2-6,2.5-9.2c3.1,4.1,6.6,7.9,10.4,11.3L129.8,239.3z M113.4,239.1
		c-1.3-3.3-1.3-7.2,0.2-10.4c1.4-3,3.9-5.6,7-6.9c0.5,6.2,2.7,12.3,6.3,17.4L113.4,239.1z M107.7,239.1c-2.8-3.5-4.8-7.5-6-11.8
		c2.2,3,5,5.7,8.1,7.8c0.1,0.1,0.2,0.1,0.2,0.1c0.1,1.3,0.3,2.7,0.8,3.9L107.7,239.1z M96.3,238.9l-3.5-0.8c-1-0.3-2.1-0.5-3.2-0.8
		c0-0.1,0-0.2,0-0.3c-0.1-1.1,0.3-2.3,0.7-3.4c1.9-5.1,4.5-9.9,7.8-14.3c0,0.7,0,1.4,0.1,2.1c0.5,6.3,2.8,12.5,6.5,17.6L96.3,238.9z
		 M95.1,177.1c-0.3-0.5-0.4-1.3-0.5-1.9c-0.3-2.6-0.1-5.2,0.4-7.8c6.3,1.6,12.2,4.6,17.2,8.7c0.1,0.4,0.1,0.9,0.2,1.3L95.1,177.1z
		 M108.6,132c-1.4-1-2.8-2.3-4-4c-0.1-0.2-0.2-0.3-0.4-0.5c1.5-0.2,2.8-0.6,4-1.1c4.1-1.6,8-4.1,11.3-7.3c-0.5,4.5-1.9,9-4.2,12.9
		L108.6,132z M118.9,103.9c-0.6,5.7-2.2,11.4-4.8,16.5c0,0,0,0.1,0,0.1c-2.2,1.5-4.5,2.8-6.9,3.7c-1.3,0.5-2.9,1-4.5,1
		c-0.6-1.3-1.1-2.8-1.2-4.4L118.9,103.9z M102.7,129.5c0.7,0.9,1.4,1.8,2.2,2.5l-6.3-0.1c0.1-2.4,0.7-4.8,1.5-7.1
		C100.7,126.6,101.7,128.2,102.7,129.5z M123.4,114.9c5.7,4.3,10.1,10.6,12.3,17.4l-1.7,0c0,0,0,0,0,0c-0.8,0-1.5,0.4-1.9,1
		c-0.9-0.6-1.8-1.3-2.6-2c-0.1-0.2-0.3-0.4-0.5-0.4c-2.8-2.4-5.2-5.2-7.2-8.2c-0.1-0.1-0.2-0.2-0.2-0.3c0.3-1.7,0.5-3.5,0.6-5.3
		c0,0,0,0,0,0c0.1-0.2,0.1-0.4,0.1-0.6C122.5,116,123,115.5,123.4,114.9z M159,177.8c-2.8-3.4-5.6-7-8.1-10.7c0-0.1,0-0.1,0-0.2
		c0.5-3.5,0.7-7,0.6-10.5c4.9,6.6,8.8,13.7,11.6,21.4L159,177.8z M155.2,177.8c-0.1-0.1-0.3-0.1-0.4-0.1c-4.4-4.5-9.4-8.4-14.9-11.5
		c-0.1-0.1-0.3-0.1-0.4-0.1c-0.7-2.5-1.5-5-2.4-7.5c0,0,0.1-0.1,0.1-0.1c1.8-2.3,3.1-5,3.9-7.8c0.9,4.3,2.6,8.8,5.1,13.3
		c2.8,5,6.3,9.5,9.8,13.9L155.2,177.8z M141.6,177.6c-0.3-2.9-0.8-5.7-1.5-8.6c4.1,2.5,7.9,5.4,11.3,8.7L141.6,177.6z M169.6,219.6
		c0.9,1.3,1.7,2.6,2.4,4c-4.1,2.5-8.1,5.3-11.9,8.3c3-5.2,4.7-11.2,4.6-17.2L169.6,219.6z M143.4,238.1c-0.7-0.6-1.3-1.2-1.9-1.8
		c-0.7-7.5-3.6-14.8-8.3-20.6c0.1,0,0.3,0,0.4,0c0.1,0,0.1,0,0.2,0c4.4,0.7,8.6,3.1,11.5,6.5c0,0,0,0,0.1,0
		C143.8,227.5,143.2,232.8,143.4,238.1z M123,215.6c1.7,3.4,3.7,6.8,6,9.9c-0.1,0.1-0.1,0.3-0.1,0.4c-0.3,3-1,6-2,8.9
		C123.6,229,122.2,222.2,123,215.6z M111.4,227.8c-0.6,1.5-1.1,3-1.2,4.6c-2.7-2-5.1-4.4-7-7.2c-0.6-0.9-1.3-2-1.2-3
		c0-0.1,0-0.1,0-0.2c7.1-2.4,13.3-4.7,18.8-7.8c-0.3,1.7-0.4,3.5-0.3,5.2C116.4,220.8,113.1,223.9,111.4,227.8z M98.1,215.6
		c-4.3,5.1-7.6,10.9-9.9,17.1c-0.4,1.1-0.8,2.5-0.9,3.9c-1.1-0.3-2.2-0.7-3.3-1.2c-2.3-1-4.3-2.2-6.2-3.8c0.6-0.4,1.2-0.8,1.8-1.3
		c0.3-0.1,0.5-0.2,0.7-0.5c7.1-5.1,13.3-11.3,18.6-18.2c-0.3,1.2-0.5,2.5-0.6,3.8C98.2,215.5,98.2,215.5,98.1,215.6z M126.9,197.3
		c0.1-0.1,0.4-0.2,0.7-0.2c-2.1,5.2-5.2,9.9-9.1,13.8c0-0.2,0-0.4-0.1-0.6c0,0,0,0,0,0c0.1-1.6,0.2-3.2,0.2-4.9
		C120.8,202.2,123.6,199.3,126.9,197.3z M123.6,138.6c2.8,3.8,5.3,7.8,7.4,11.9c-2.3,4.1-3.6,8.8-3.9,13.5
		C123.1,155.9,121.6,146.4,123.6,138.6z M135.6,161.7c-1.4,2.3-3.6,4-6.2,4.9c-0.1-4.6,0.8-9.3,2.8-13.4
		C133.6,155.9,134.7,158.8,135.6,161.7z M130.1,168.9c2.5-0.9,4.7-2.4,6.4-4.4c1.2,4.2,2.1,8.4,2.6,12.7c-1.6-1.2-3.3-2.4-5.1-3.5
		C132.6,172.2,131.3,170.6,130.1,168.9z M146,219.7c-2.1-2.2-4.8-4-7.6-5.1c3-1.1,5.7-2.9,7.8-5.3c0.8,1.4,1.6,2.7,2.5,4
		C147.6,215.4,146.7,217.5,146,219.7z M144.9,207.1c-2.5,3.1-6,5.3-9.9,6c-3.5,0.7-7.2,0.2-10.5-1.3c0.5-0.4,1.1-0.7,1.6-1.1
		c6.6-4.7,11.5-10.7,14-17.1C141.2,198.3,142.8,202.8,144.9,207.1z M135.7,177.6l-1.6,0c0,0,0,0,0,0c-0.8,0-1.5,0.4-1.9,1
		c-3.9-3-8-5.7-12.4-7.9c2.1,0.2,4.3,0.7,6.4,1.4C129.3,173.3,132.6,175.4,135.7,177.6z M120.6,181.4c0.6-0.6,0.8-1.4,0.7-2.2
		c0-0.3,0-0.4-0.1-0.8c-0.5-1.3-0.3-2.2,0.5-4.1l0,0c4.3,2.4,8.3,5.2,12,8.5c-4.4,2.2-9.8,2.2-14.1-0.2L120.6,181.4z M135.3,184.5
		l4,4.1c-1.7,7.6-6.8,14.8-14.5,20.3c-0.9,0.7-1.8,1.3-2.8,1.9c6.1-6.8,9.9-15.6,10.7-24.7c0-0.1,0-0.2,0-0.3
		C133.6,185.4,134.4,185,135.3,184.5z M125.1,214.6c1.4,0.5,2.8,0.8,4.3,1c0.1,0.2,0.3,0.3,0.6,0.4c0.5,0.2,0.9,0.6,1.3,1.1
		c3.8,4.7,6.4,10.5,7.5,16.4C133.3,228,128.7,221.6,125.1,214.6z M150.2,215.5c2.8,3.6,6,6.9,9.6,9.7c0.2,0.2,0.4,0.3,0.6,0.4
		c-1.8,4.9-4.8,9.3-8.7,12.8c-0.5-4.2-2.1-8.3-4.6-11.7c-0.1-0.2-0.3-0.3-0.5-0.4C147.5,222.5,148.7,218.9,150.2,215.5z
		 M161.3,222.8c-0.2,0-0.4,0-0.5,0.1c0,0,0,0,0,0c-6.2-4.9-11.1-11.3-14.5-18.4c5.1,1.3,10,3.3,14.5,6.1l1.6,1.7
		c-0.1,0.2-0.1,0.3-0.1,0.5C162.5,216.1,162.2,219.5,161.3,222.8z M145.2,201.8C145.2,201.8,145.1,201.8,145.2,201.8
		c-1.4-3.3-2.4-6.7-3-10.3l13.3,13.6C152.1,203.7,148.7,202.5,145.2,201.8z M148.9,153.4c0.3,3.5,0.3,7.1,0,10.6
		c-0.2-0.4-0.5-0.8-0.7-1.3c-3-5.3-4.8-10.5-5.3-15.5L148.9,153.4z M138.9,149.2c-0.6,2.3-1.6,4.6-2.9,6.7
		c-1.5-3.7-3.3-7.4-5.3-10.9c-0.9-3.5-1.3-7-1.2-10.6c0.8,0.6,1.7,1.2,2.5,1.8c0,0,0.1,0,0.1,0.1c0,0,0.1,0.1,0.1,0.1l6.8,6.9
		C139.5,144.9,139.5,146.8,138.9,149.2z M120.7,125.4c1.9,2.6,4.1,5,6.5,7.1c-0.1,2.5-0.1,4.8,0.2,7.2c-1.5-2.2-3.2-4.4-4.9-6.5
		c-0.1-0.1-0.1-0.1-0.2-0.2c-0.4-0.6-1.1-0.9-1.9-0.9l-2.5,0C119.1,130,120,127.8,120.7,125.4z M128.3,170.4
		c-0.4-0.2-0.8-0.4-1.2-0.5c-4.3-1.6-8.8-2.1-12.9-1.3c0.4-9.8,2.8-19.6,6.8-28.5C119,150,121.9,161.6,128.3,170.4z M111.7,172.5
		c-1.7-1.2-3.4-2.3-5.2-3.3c-1.9-4.2-2.6-9-1.8-13.6C107.9,160.9,110.3,166.6,111.7,172.5z M102.3,155.6c-0.6,4.1-0.3,8.3,1,12.1
		c-2.5-1.1-5-2-7.6-2.7c0.6-1.9,1.4-3.7,2.4-5.4L102.3,155.6z M92.1,172.1c-1.3-1.1-2.9-1.8-4.6-2.1l6-5.9
		C92.7,166.7,92.2,169.4,92.1,172.1z M113.7,171.1c0.3-0.1,0.6-0.1,0.9-0.2c0,0,0.1,0,0.1,0.1c1.6,0.7,3.2,1.4,4.7,2.2
		c0,0,0,0,0,0.1l-0.1,0.2c-0.5,1.3-1,2.5-0.9,3.9l-3.6,0C114.6,175.2,114.2,173.1,113.7,171.1z M117.6,184.3c2.7,1.6,5.9,2.4,9,2.4
		c1.2,0,2.4-0.1,3.6-0.4c-0.3,2.8-0.8,5.5-1.7,8.1c-0.4,0.1-0.8,0.2-1.1,0.3c-0.6,0.1-1.2,0.2-1.7,0.6c-2.7,1.6-5.1,3.7-7.1,6.2
		c-0.1-5.5-0.8-10.9-1.9-16.3L117.6,184.3z M115.8,214.1c-4.5,2.2-9.5,4-15.1,5.8c0,0,0,0,0,0c-0.1-1.6,0-3.3,0.2-4.9
		c0.2,0,0.4-0.1,0.5-0.3c0.3-0.3,0.7-0.5,1.1-0.7l0.2-0.1c3.9-2.1,7.1-5.3,9.2-9.2c1.6,2,3.1,4.1,4.1,6.4c0,0.1,0.1,0.2,0.1,0.2
		c-0.1,0.8-0.1,1.5-0.2,2.3C115.7,213.8,115.7,214,115.8,214.1z M110.1,203c-1.9,3.8-4.9,6.9-8.6,8.9l-0.2,0.1
		c0.7-3.2,2-6.4,3.9-9.6c0.1-0.2,0.1-0.3,0.2-0.5c0.5-0.8,0.9-1.7,1.3-2.5c1.1,1.1,2.3,2.3,3.5,3.5C110.1,202.9,110.1,203,110.1,203
		z M83.5,224.4c4.8-8,10-15.3,15-21.1c0.2-0.2,0.2-0.4,0.3-0.6l7.1-6.9C100.6,206.8,92.9,216.6,83.5,224.4z M78.5,228.2
		c-4.5,3.2-9.3,6-14.3,8.2l23.5-23C84.6,218,81.5,223.1,78.5,228.2z M75.7,233c2.2,1.9,4.7,3.5,7.4,4.6c1.1,0.5,2.2,0.9,3.3,1.2
		l-21.2-0.3C68.9,236.9,72.4,235.1,75.7,233z M146.2,229.2c1.9,3,3,6.6,3.4,10.1c0,0-0.1,0-0.1,0.1c-0.1,0.1-0.1,0.1-0.1,0.2l-3.5,0
		C145.6,236.1,145.7,232.6,146.2,229.2z M173.1,225.7c0.7,1.7,1.3,3.5,1.8,5.3c0,0.3,0,0.6,0.2,0.8c0,0,0,0,0,0.1
		c0.6,2.6,0.8,5.3,0.8,8l-21.1-0.2C160.3,234.4,166.5,229.7,173.1,225.7z M178,235.7c1.6,1.7,3.4,3.1,5.4,4.2l-5.2-0.1
		C178.2,238.5,178.1,237.1,178,235.7z M165.6,177.9c-1.7-4.8-3.8-9.5-6.3-13.9l13.6,14L165.6,177.9z M138.2,132.4
		C138.2,132.4,138.2,132.4,138.2,132.4c-2.3-7.7-7-14.5-13.4-19.4c0.7-1,1.4-2.1,2.1-3.2c4.1,8.8,12.4,15.5,22,17.5
		c-0.3,0.5-0.6,1-1,1.6c-0.8,1.3-1.8,2.6-3.1,3.2c-0.2,0.1-0.4,0.2-0.5,0.4L138.2,132.4z M136.9,104.6c0.2,5.3,0.5,11,2.7,16.2
		c-5-3.3-9-8.1-11.1-13.7c1.3-2.5,2.4-5.1,3.2-7.9L136.9,104.6z M153.3,123.5c1.6,2.9,2.9,6,3.9,9.1l-9-0.1c0.7-0.7,1.3-1.5,1.8-2.3
		C151.4,127.9,152.6,125.6,153.3,123.5z M150.1,125.1c-2.4-0.5-4.8-1.2-7-2.3c0-0.2-0.1-0.3-0.1-0.5c-2.6-4.6-3.3-10-3.6-15.2
		l12.4,12.7C151.5,121.5,150.9,123.3,150.1,125.1z M159.6,132.6c-0.7-2.6-1.7-5.2-2.9-7.7l7.5,7.7L159.6,132.6z M127.8,95.3l2,2.1
		c-2.3,7.9-6.3,14.7-11.6,19.8c1.9-5,3-10.3,3.3-15.7L127.8,95.3z M97.6,124.8c-0.8,2.3-1.3,4.7-1.4,7.1l-5.8-0.1L97.6,124.8z
		 M118.4,139.8c-3.5,8-5.7,16.6-6.4,25.3c-1.6-4.5-3.8-8.7-6.6-12.6L118.4,139.8z M85.1,172.3c2.1-0.3,4.5,0.4,6,2
		c0.1,0.1,0.1,0.1,0.2,0.2c0.2,0.2,0.3,0.3,0.5,0.5c0.2,0.1,0.3,0.2,0.5,0.3c0,0,0,0,0,0.1c0.1,0.5,0.1,1.1,0.3,1.7l-12.1-0.1
		L85.1,172.3z M114.7,187.1c1.2,5.9,1.7,11.8,1.6,17.7c-0.1,0.2-0.1,0.4,0,0.6c0,0.5,0,1,0,1.4c-2.3-3.7-5.5-6.8-8.5-9.7
		c0.9-1.9,1.8-3.8,2.5-5.8L114.7,187.1z"/>
</g>
<path class="st0" d="M299.7,269.3c-11.5-1.7-23-3.3-34.5-5c-1.1-0.2-2.3-0.3-3.4-0.5c-5-10.2-10.1-20.4-15.1-30.6
	c-0.7-1.5-1.5-3-2.2-4.5c-0.7-1.3-2.2-1.3-3.5-0.6c-1.2,0.5-2.1,1.5-2.7,2.6c-5.1,10.4-10.3,20.8-15.4,31.3c-0.3,0.7-0.7,1.3-1,2
	c-10.8,1.6-21.5,3.1-32.3,4.7c-1.7,0.2-3.3,0.5-5,0.7c-2.4,0.4-4.8,3.5-2.7,5.5c8.3,8.1,16.6,16.2,25,24.3c0.9,0.8,1.7,1.7,2.6,2.5
	c-1.9,11.1-3.8,22.3-5.7,33.4c-0.3,1.7-0.6,3.3-0.9,5c-0.4,2.2,2.6,2.7,4,2c10.3-5.4,20.6-10.8,30.8-16.2c1-0.5,2-1,2.9-1.6
	c9.7,5.1,19.5,10.2,29.2,15.4c1.5,0.8,3,1.6,4.5,2.3c2.5,1.3,6.3-1.1,5.8-4c-2-11.5-3.9-22.9-5.9-34.4c-0.2-1.1-0.4-2.2-0.6-3.3
	c7.9-7.7,15.7-15.3,23.6-23c1.2-1.2,2.4-2.3,3.6-3.5C302.6,272.1,302.2,269.7,299.7,269.3z M276.4,282.7c-2.2-3.6-4.1-7.4-5.5-11.3
	c3.3,0.5,6.7,1,10,1.5C279.5,276.2,278,279.5,276.4,282.7z M268.6,271.1c1.6,4.9,3.9,9.5,6.7,13.8c0,0,0,0,0,0.1
	c-1.7,3.2-3.5,6.3-5.5,9.3c-1-8.3-2.5-16.4-5.9-23.8C265.4,270.6,267,270.8,268.6,271.1z M212.5,321.6c1-5.9,2-11.8,3-17.6
	c0-0.1,0-0.1,0-0.2c4.2,4,7.7,8.8,10.3,14C221.2,318.5,216.7,319.8,212.5,321.6z M216.1,301c0.1-0.5,0.1-1,0.2-1.5
	c0-0.2,0-0.4-0.1-0.6c0-0.1,0-0.2,0-0.3c-2.4-7-4.6-12.8-6.9-18.1c4,1.8,7.9,3.7,11.7,5.8c0,0,0,0,0,0c1.4,8.8,5.1,17.3,10.6,24.3
	C225.9,308.2,220.7,305,216.1,301z M228.9,288.1c-2.1-3.6-3.6-7.5-4.8-11.4c6.8,1.8,13.2,5,18.7,9.4c0,0,0.1,0.1,0.1,0.1
	c0.2,3.8,0.2,7.6,0.2,11.4c-4.6-3.2-9.3-6.3-14.1-9.2C229,288.3,229,288.2,228.9,288.1z M223.6,269.5c3.7,0.5,7.5,2.4,10.8,5.4
	c2.2,2,4,4.3,5.7,6.7c-5.1-3.3-10.8-5.8-16.7-7.2c-0.4-1.6-0.8-3.1-1.2-4.7C222.7,269.6,223.1,269.6,223.6,269.5z M237.8,244.9
	c0.6,2,1.6,4,2.9,5.7c-4.1,3.6-7.6,6.9-10.7,10.2c2.4-4.9,4.9-9.9,7.3-14.8C237.4,245.6,237.6,245.2,237.8,244.9z M248.6,253.3
	c-0.2,4.3-0.1,8.7,0.5,13c-2.8-4.3-6-8.3-9.7-11.8c2.1-1.9,4.4-3.9,6.8-6C247,250.1,247.8,251.7,248.6,253.3z M262.1,309.8l3.1,5.7
	l-5.8-0.9c-0.1,0-0.2,0-0.3-0.1c-0.2,0-0.5-0.1-0.8-0.1c-0.7-0.1-1.1,0.4-1.4,0.7l-4.9,5.1l-1-6.6c0-0.1,0-0.2,0-0.3
	c0-0.3-0.1-0.6-0.1-0.8c-0.2-0.5-0.6-0.7-1-0.8c-0.1,0-0.1-0.1-0.2-0.1l-6-2.9l5.4-2.7c0.1-0.1,0.2-0.1,0.3-0.1
	c0.2-0.1,0.4-0.2,0.7-0.3c0.7-0.4,0.8-1.1,0.8-1.7l0.9-6.4l4.5,4.5c0.1,0.1,0.1,0.2,0.2,0.2c0.2,0.2,0.4,0.4,0.6,0.6
	c0.4,0.3,0.9,0.1,1.3,0.1c0.1,0,0.1,0,0.2,0l6.9-1.2l-2.9,5.8c-0.1,0.1-0.1,0.2-0.2,0.3c-0.1,0.2-0.2,0.4-0.3,0.7
	C261.6,308.9,261.9,309.4,262.1,309.8z M257.4,299.4l-5.7-5.7c-0.2-0.2-0.4-0.3-0.6-0.3h0c-0.3,0-0.6,0.1-0.8,0.4
	c-0.3,0.3-0.5,0.6-0.5,1.1l-0.9,6.8c-1.2-0.9-2.4-1.8-3.6-2.7c0.1-12.6-0.7-25.3-2.4-37.8c6,7.2,10.3,15.9,12.5,25
	C256.3,290.6,256.9,295,257.4,299.4z M237.8,255.9c0.9,0.8,1.7,1.6,2.5,2.5c1.1,7.7,2,15.5,2.4,23.2c-2-2.9-4.2-5.8-6.9-8.3
	c-2.9-2.7-6.2-4.5-9.5-5.5C229.6,264,233.4,260.1,237.8,255.9z M248.1,303.9l-4.6,2.3c0,0-0.1-0.1-0.1-0.1
	c-6.9-4.6-12.7-10.2-17.7-17.2C233.6,293.4,241,298.4,248.1,303.9z M235.1,312c0-0.2-0.1-0.4-0.2-0.5c-5.4-6.2-9.3-13.8-11.2-21.8
	c5,7.1,10.8,12.9,17.8,17.6l-0.9,0.5c-0.5,0.2-0.8,0.8-0.8,1.3c0,0.4,0.2,0.8,0.6,0.9l8.3,4l0.2,1.3
	C244.4,314.5,239.7,313.5,235.1,312z M258.1,316.9l3.2,0.5c-0.3,3.4-0.1,6.8,0.4,10.2c-3.1-1.6-6.1-3.2-9.2-4.8L258.1,316.9z
	 M263.3,317.8l3.7,0.6c0.5,0.1,1-0.2,1.3-0.6c0.3-0.4,0.4-0.9,0.1-1.4l-4.3-8l2.8-5.4c0.1,0.4,0.2,0.8,0.2,1.3
	c1.1,6.4,2.2,12.8,3.3,19.2c-2.5-1.4-4.9-3.1-7.1-5c0,0-0.1-0.1-0.1-0.1C263.3,318.1,263.3,317.9,263.3,317.8z M261.4,270
	c4.1,8.1,5.5,17.3,6.6,26.8c-0.5,0.7-0.9,1.3-1.4,2l-7,1.3c-0.2-1.4-0.3-2.7-0.5-4.1c0-0.1,0-0.1,0-0.2c0-0.6,0.1-1.2,0.1-1.9
	c0.5-7.4,1.3-17.1-0.8-24.3c0.8,0.1,1.7,0.2,2.3,0.3C261,270,261.2,270,261.4,270z M255.2,267.1c0,0.1,0,0.2,0.1,0.2
	c2.5,5.1,2.6,12.7,2.3,19.7c-0.1-0.4-0.2-0.9-0.3-1.3c-1.1-4.6-2.7-9.1-4.8-13.3c0-0.3-0.1-0.5-0.3-0.8c-0.2-0.2-0.3-0.6-0.4-1.1
	c-0.9-4.4-1.3-8.8-1.3-13.3c1.2,2.4,2.4,4.8,3.5,7.2C254.5,265.3,254.8,266.2,255.2,267.1z M241.1,238.1c1.4,2.8,2.8,5.6,4.1,8.4
	c-1,0.9-2.1,1.8-3,2.6c-1.5-2.1-2.6-4.6-3-7.2C239.8,240.7,240.5,239.4,241.1,238.1z M220.2,270c1.3,5.5,2.9,11.2,5.5,16.5
	c-5.6-3.2-11.3-6-17.2-8.7c-0.2-0.1-0.4-0.1-0.5-0.1c-0.9-1.9-1.8-3.8-2.8-5.7c4.7-0.7,9.4-1.4,14.1-2
	C219.6,270,219.9,270,220.2,270z M203,272.5c1.6,3.1,3.2,6.3,4.6,9.7c-3.8-3-8.5-4.8-13.3-5.1c-1-1-2-1.9-3-2.9
	C195.3,273.6,199.2,273,203,272.5z M198.8,281.3c-0.6-0.6-1.3-1.2-1.9-1.9c4.6,0.9,8.9,3.3,12.1,6.8c0.1,0.2,0.3,0.3,0.5,0.3
	c1,2.6,2.1,5.3,3.1,8.3C208,290.3,203.4,285.8,198.8,281.3z M212.1,323.9C212.1,323.9,212.1,324,212.1,323.9c0.2,0,0.3,0,0.5-0.1
	c2.6-1.2,5.3-2.1,8-2.8c-0.2,0.3-0.4,0.5-0.5,0.8c-1.9,3-3.1,6.3-4,9.4c-1.9,1-3.9,2-5.8,3C210.9,330.8,211.5,327.4,212.1,323.9z
	 M220.3,329.1c-0.5,0.3-1.1,0.6-1.6,0.8c0.8-2.4,1.7-4.8,3.1-6.9c0.6-1,1.3-1.9,2.1-2.7c4.8-1,9.8-1.3,14.7-0.9
	c-0.1,0-0.2,0.1-0.3,0.1C232.4,322.7,226.3,325.9,220.3,329.1z M244,318.3c-0.1-0.1-0.3-0.1-0.4-0.2c-0.2-0.2-0.4-0.4-0.7-0.4
	c-4.9-0.8-9.9-0.8-14.9-0.3c-1.6-3.3-3.5-6.4-5.7-9.3c3.5,2.2,7.2,4,11,5.4c5.3,1.9,11,3.1,15.9,3.9l0.6,3.9
	c-0.6-0.3-1.2-0.6-1.8-0.9C246.7,319.7,245.4,318.9,244,318.3z M264.1,328.8c-0.5-2.6-0.8-5.2-0.8-7.9c2.4,2,5,3.7,7.7,5.1
	c0.4,2.3,0.8,4.7,1.2,7C269.5,331.7,266.8,330.3,264.1,328.8z M272.2,294.3c2.4-3.7,4.6-7.6,6.5-11.5c0.1,0,0.2-0.1,0.3-0.1
	c2.5-1.9,5.5-3,8.6-3.3C282.5,284.3,277.3,289.3,272.2,294.3z M289.9,277.1c-3.3-0.1-6.6,0.7-9.5,2.2c0.9-2,1.8-4.1,2.6-6.1
	c3.2,0.5,6.3,0.9,9.5,1.4C291.6,275.4,290.7,276.2,289.9,277.1z"/>
<path class="st136" d="M378,190.8c-0.2-1.8-1.6-3.3-3.3-3.7c-1.7-0.3-3.5,0.5-4.5,1.9c-1.2,1.7-0.9,3.7,0.1,5.4
	c0.7,1.2,3.6,0.2,2.7-1.2c-0.5-0.9-0.9-2-0.5-3c0.6-1.3,1.8-0.9,2.3,0.3c1,2.3-1.5,4.1-3.5,4.6c-4.6,1.2-9.8,0.7-14.4-0.1
	c-0.3-0.1-0.6-0.1-1-0.2c0.1-0.1,0.2-0.2,0.3-0.3c2.9-2.3,5.8-5.8,6.5-9.5c0.8-4-2.4-6.3-6.1-6.2c-6.1,0.1-10.9,3.7-14.6,8.3
	c0.3-1.6,0.6-3.1,0.8-4.7c0.3-2.7,1.3-10.7-3.5-10c-1.9,0.3-3.2,2.2-4.2,3.7c-1,1.7-1.7,3.7-2.1,5.7c0,0.1,0,0.1,0,0.2c0,0,0,0,0,0
	c-0.9-2.1-1.9-4.2-3.2-6.1c-1-1.4-2.6-2.7-4.3-1.8c-3.8,1.9-0.8,8.5,0.4,11.2c0.6,1.4,1.4,2.8,2.2,4.2c-2.9-2.1-6-3.8-9.5-4.8
	c-0.7-0.2-2.3,0.4-2,1.4c1.2,3.9,5,6.3,8.4,8.1c1.5,0.8,3,1.4,4.5,2.1h-16.1c-1,0-1.8,0.8-1.8,1.8v53.3c0,1,0.8,1.8,1.8,1.8h53.3
	c1,0,1.8-0.8,1.8-1.8v-53.3c0,0,0-0.1,0-0.1c2.7-0.2,5.3-0.9,7.3-2.5C377.1,194.3,378.2,192.6,378,190.8z M358.6,199.9
	c-1.1,2.2,1.5,4.8,2.7,6.5c0.1,0.2,0.2,0.3,0.3,0.5c-0.3-0.1-0.7-0.2-1-0.3c-2-0.5-4.2-1-5.5-2.8c-0.8-1.1-1.1-2.7-0.3-4
	c0,0,0,0,0,0H358.6z M345.2,206.8c0.1,0.2,0.2,0.4,0.3,0.6c-0.5,0.3-1.1,0.7-1.6,1v-8.6h1.2C343.7,201.9,344.4,204.7,345.2,206.8z
	 M346.2,208.8c0.9,1.7,2.1,3.3,3.6,4.7c-1.8-0.3-3.6-0.1-5.3,1.3c-0.2,0.1-0.3,0.3-0.5,0.4v-4.9
	C344.6,209.9,345.4,209.3,346.2,208.8z M345.7,202.3c0.1-0.9,0.9-1.8,1.8-2.4h3.4c0.1,0.1,0.2,0.2,0.2,0.3c1.4,1.9-0.8,4.2-2.3,5.2
	c-0.7,0.5-1.5,1-2.4,1.5C345.8,205.4,345.4,203.8,345.7,202.3z M348.8,196.3h-9.4c0.1-0.1,0.1-0.3,0.2-0.4c3.2-0.6,6.5-0.4,9.7,0.2
	C349.2,196.2,349,196.2,348.8,196.3z M343.9,217.4c0.9-1.3,2.5-2.4,3.9-2.6c0.8-0.1,1.6-0.1,2.3,0.1c-1.2,2.1-2.3,4.2-3.8,5.4
	c-0.4,0.3-0.9,0.5-1.3,0.5h-0.5c-0.2,0-0.5-0.1-0.6-0.2V217.4z M348.3,220.4c1.3-1.5,2.2-3.3,3.3-5c0.5,0.2,1,0.5,1.5,0.7
	c1.6,0.9,3.1,1.8,4.4,3.1c0.3,0.3,0.6,0.6,1,0.9c-0.3,0.2-0.6,0.5-0.9,0.7H348C348.1,220.7,348.2,220.6,348.3,220.4z M357.7,217.8
	c0.9,0.1,1.7,0.1,2.6-0.1c-0.2,0.5-0.5,1-0.9,1.5C358.8,218.8,358.2,218.3,357.7,217.8z M359.8,216.3c-2.6,0.6-5.2-0.5-7.4-2.1
	c0.1-0.2,0.2-0.3,0.3-0.5c1.2-1.6,2.7-3.1,4.9-2.5c2.1,0.6,3.1,2.8,3,4.8C360.3,216.2,360.1,216.3,359.8,216.3z M356.7,209.7
	c-2.5-0.2-4.2,1.4-5.5,3.5c-0.5-0.4-0.9-0.8-1.3-1.3c-0.9-1-1.9-2.3-2.7-3.7c0.4-0.2,0.7-0.4,1.1-0.7c2.4-1.5,5.2-3.7,4.4-6.9
	c-0.1-0.3-0.2-0.6-0.3-0.8h0.9c-0.9,2.4,0.9,5.2,3,6.5c2,1.3,4.5,1.4,6.6,2.3c0.6,1.1,1.1,2.3,1,3.6c-0.1,1.3-0.8,2.3-1.8,3.1
	c0,0,0-0.1,0-0.1C361.6,212.5,359.6,209.9,356.7,209.7z M346.5,186.1c2.6-2.6,6.4-5,10.3-4.8c5.6,0.2,2.3,6.6,0.3,9.1
	c-1.2,1.6-2.7,2.9-4.4,4c-3-0.6-6.1-1.1-9.2-1.1c-0.4,0-1.4,0-2.5,0.2C342.6,190.8,344.3,188.2,346.5,186.1z M336,184.4
	c0.1-1.6,0.3-3.1,0.8-4.6c0.4-1.3,1.2-3.6,2.4-4.4c0.8-0.6,0.9,0.7,1,1.4c0.2,1,0.2,2,0.1,3c-0.1,1.8-0.3,3.6-0.7,5.4
	c-0.5,3-1.3,5.9-2.3,8.7c-0.2-0.8-0.4-1.7-0.7-2.5C336.1,189.1,335.9,186.7,336,184.4z M336.1,206.8V217c-0.2-0.2-0.4-0.4-0.6-0.5
	c-1.4-1.2-3.1-2.1-4.7-3.1c0.2-0.4,0.3-0.7,0.5-1c0.3-0.5,0.6-1,0.8-1.5c0.7-1.2,1.4-2.2,2.4-3.2c0.4-0.4,0.8-0.9,1.2-1.3
	C335.8,206.5,336,206.6,336.1,206.8z M330.5,220.5c0.1,0.1,0.2,0.2,0.3,0.3h-5.3c-0.5-0.6-1-1.3-1.4-2c1.6-0.9,3.3-2.1,4.8-3.6
	C328.7,217.1,329.1,218.9,330.5,220.5z M326.7,207.1c0.8-2,2.9-2.9,4.9-2.8c0.1,0.2,0.1,0.4,0.2,0.7c0.5,2.6-0.7,5.3-2.4,7.5
	c-0.1,0-0.1-0.1-0.2-0.1C327.4,211.1,325.8,209.5,326.7,207.1z M330.1,217.3c-0.2-0.9-0.1-1.8,0.2-2.7c2,1.2,4.1,2.2,5.3,3.6
	c0.2,0.2,0.3,0.4,0.5,0.7v1.7c-0.1,0.1-0.1,0.2-0.2,0.3h-3.4C331.3,220,330.3,218.4,330.1,217.3z M332.9,204.5
	c0.6,0.2,1.2,0.5,1.6,0.8c-0.4,0.5-0.9,1-1.4,1.5C333.3,206.1,333.2,205.3,332.9,204.5z M327.8,192.7c-2.1-1.1-4.7-2.4-6.4-4.3
	c2.5,1.2,4.7,2.8,6.9,4.5C328.1,192.9,328,192.8,327.8,192.7z M327.9,182.1c-0.3-0.9-0.6-1.7-0.8-2.6c-0.1-0.6-0.2-1.2-0.2-1.9
	c0-0.2,0.1-0.5,0.2-0.8c0.3,0.3,0.4,0.7,0.6,1.1c0.4,0.8,0.9,1.5,1.3,2.3c0.9,1.6,1.6,3.3,2.4,5.1c0.9,2.2,1.7,4.5,2.3,6.8
	c0.1,0.3,0.1,0.7,0.2,1c-1.3-1.9-2.6-3.9-3.7-6C329.3,185.5,328.5,183.8,327.9,182.1z M325.7,199.9h9.2c0.5,0.8,0.8,1.8,0.6,3.1
	c0,0.5-0.2,0.9-0.3,1.3c-0.9-0.6-1.8-1.1-2.9-1.3c0-0.1-0.1-0.2-0.1-0.3c-1.5-2.6-4.2-3.2-6.7-2.5
	C325.5,200.1,325.6,200,325.7,199.9z M315.3,199.9h8.5c-0.3,0.4-0.6,0.8-0.8,1.3c-0.8,0.5-1.6,1.1-2.4,1.6c-1,0.7-2.1,1.7-3.2,2.2
	c-1,0.4-1.7,0.1-2.1-0.4V199.9z M315.3,206.2c2.2,1.4,4.7-1.1,6.6-2.4c0.1-0.1,0.2-0.1,0.3-0.2c0,0.1-0.1,0.3-0.1,0.4
	c-0.5,2-1,4-2.6,5.4c-0.9,0.8-2.1,1.3-3.4,1.1c-0.3-0.1-0.6-0.1-0.8-0.3V206.2z M315.3,211.7c2.6,1.1,5.5-0.8,6.7-3.1
	c1.1-2,1.3-4.3,2.1-6.2c0.9-0.5,1.8-0.9,2.8-1c1.7-0.2,3.1,0.4,4,1.6c-0.1,0-0.3,0-0.4,0c-2.7,0.2-5.1,2.1-5.3,4.9
	c-0.2,2.6,1.4,4.3,3.4,5.7c-0.5,0.6-1,1.1-1.5,1.5c-1,0.9-2.3,1.9-3.7,2.6c-0.2-0.3-0.4-0.6-0.6-0.9c-1.4-2.3-3.8-5.3-6.9-4.6
	c-0.3,0.1-0.5,0.1-0.7,0.2V211.7z M315.3,214.3c0.1-0.1,0.2-0.2,0.3-0.3c2-1.4,4.2,0.5,5.3,2c0.5,0.7,1,1.5,1.4,2.2
	c-1.4,0.6-2.8,1-4.3,1c-1.2,0-2.1-0.4-2.8-1.3V214.3z M315.3,219.6c2,1.6,5,0.9,7.3,0c0.2-0.1,0.3-0.1,0.5-0.2
	c0.3,0.5,0.6,1,0.9,1.4h-8.7V219.6z M320,248.5c-0.1,0.5-0.4,0.8-0.7,1.1h-4v-8.2c0.3,0.2,0.6,0.4,0.9,0.5c0.5,0.8,1,1.5,1.5,2.3
	C318.4,245.1,320.4,247.2,320,248.5z M315.3,240C315.3,240,315.3,240,315.3,240L315.3,240C315.3,240,315.3,240,315.3,240z
	 M315.3,234.7v-5.2c0.2-0.1,0.4-0.1,0.6-0.2c1.1-0.3,2.1-0.2,3.1,0.2c-0.6,0.8-0.9,1.8-1.1,2.7c-0.1,0-0.2,0.1-0.2,0.1
	C316.5,233,315.7,233.8,315.3,234.7z M324.9,249.6h-3.8c1.1-2.3-1.8-5.1-3-6.9c0,0,0,0,0,0c0.3,0.1,0.5,0.2,0.8,0.2
	c2,0.5,4.1,0.9,5.5,2.5C325.4,246.5,325.8,248.3,324.9,249.6z M326.5,249.6c0.8-2.4-0.9-5.2-3-6.4c-1.8-1.1-4.4-1.3-6.5-2.1
	c-0.7-1.2-1.2-2.6-1-4.1c0.2-1.2,0.8-2.1,1.7-2.8c0,0.3,0.1,0.7,0.2,1c0.6,2.7,3,5,5.9,4.6c2.1-0.2,3.5-1.8,4.6-3.6
	c0.6,0.5,1.2,1.1,1.7,1.7c0.8,0.9,1.7,2.1,2.4,3.4c-0.1,0.1-0.2,0.1-0.3,0.2c-2.4,1.4-5.6,3.5-5.2,6.7c0.1,0.5,0.2,1,0.4,1.4H326.5z
	 M322,231.7c-0.9-0.1-1.8-0.1-2.7,0.1c0.2-0.6,0.5-1.1,0.9-1.5c0.3,0.2,0.5,0.4,0.8,0.6C321.4,231.2,321.7,231.4,322,231.7z
	 M321.1,229.3c0.3-0.2,0.6-0.5,0.9-0.7h9.6c-1.5,1.6-2.6,3.6-3.7,5.5c-0.4-0.1-0.7-0.3-1-0.5c-0.4-0.2-0.7-0.4-1.1-0.6
	C324.1,231.9,322.6,230.6,321.1,229.3C321.1,229.4,321.1,229.4,321.1,229.3z M319.8,233.2c2.6-0.6,5.2,0.5,7.4,2.1
	c-0.9,1.4-2,2.8-3.7,3.1c-2.5,0.4-4.3-1.7-4.5-4c0-0.3,0-0.6,0-0.9C319.2,233.3,319.5,233.2,319.8,233.2z M333.8,247.8
	c-0.2,0.7-0.8,1.3-1.6,1.8h-3.5c-0.2-0.2-0.3-0.4-0.4-0.7c-0.8-2.1,1.4-4,2.8-5c0.6-0.4,1.3-0.9,2-1.3
	C333.9,244.3,334.3,246.2,333.8,247.8z M336.1,249.6h-1.6c1.2-1.8,0.7-4.4,0-6.5c-0.1-0.4-0.3-0.7-0.4-1c0.7-0.4,1.4-0.8,2-1.3
	V249.6z M336.1,238.6c-0.8,0.8-1.7,1.4-2.7,2c-0.9-1.7-2.1-3.3-3.5-4.6c1.3,0.3,2.6,0.2,3.9-0.5c0.8-0.4,1.6-1,2.3-1.7V238.6z
	 M336.1,231.3c-0.2,0.3-0.4,0.7-0.6,1c-1.3,1.6-3.2,2.8-5.3,2.5c-0.3,0-0.5-0.1-0.8-0.1c0.1-0.2,0.2-0.4,0.3-0.6
	c1.1-1.7,2.2-4.2,4.1-5.2c0.1,0,0.2-0.1,0.2-0.1h1.2c0.1,0,0.2,0.1,0.3,0.2c0.2,0.2,0.4,0.3,0.5,0.5V231.3z M340.4,249.6h-0.9v-24.4
	h-24.4v-0.9h24.4v-24.4h0.9v24.4h24.4v0.9h-24.4V249.6z M350.5,237.3c0.1,0,0.1,0.1,0.2,0.1c1.8,1.2,3.4,2.9,2.5,5.2
	c-0.8,2-2.9,2.9-4.9,2.8c-0.1-0.2-0.1-0.4-0.2-0.7C347.6,242.2,348.8,239.5,350.5,237.3z M349.6,235.2c-2-1.2-4.1-2.2-5.3-3.6
	c-0.1-0.2-0.3-0.3-0.4-0.5v-2c0.1-0.2,0.3-0.3,0.5-0.4h2.7c1.4,0.8,2.5,2.6,2.8,3.8C350,233.4,349.9,234.3,349.6,235.2z
	 M349.4,229.3c-0.2-0.2-0.4-0.4-0.6-0.6h5.3c0.6,0.7,1.1,1.4,1.7,2.3c-1.6,0.9-3.3,2.1-4.8,3.6C351.2,232.7,350.8,230.9,349.4,229.3
	z M343.9,243.1v-10.2c0.2,0.2,0.3,0.3,0.5,0.4c1.4,1.2,3.1,2.1,4.7,3.1c-0.2,0.4-0.3,0.7-0.5,1c-0.3,0.5-0.6,1-0.8,1.5
	c-0.7,1.2-1.4,2.2-2.4,3.2c-0.4,0.4-0.8,0.9-1.2,1.3C344.1,243.4,344,243.2,343.9,243.1z M347,245.3c-0.6-0.2-1.2-0.5-1.6-0.8
	c0.4-0.5,0.9-1,1.4-1.5C346.6,243.7,346.7,244.5,347,245.3z M344.7,249.6c-0.4-0.8-0.5-1.8-0.4-2.9c0.1-0.4,0.2-0.8,0.3-1.2
	c0.9,0.6,1.8,1.1,2.9,1.3c0,0.1,0.1,0.2,0.1,0.3c0.8,1.3,1.8,2.1,2.9,2.5H344.7z M364.9,249.5C364.9,249.5,364.9,249.5,364.9,249.5
	l-8.5,0c0.2-0.3,0.4-0.7,0.6-1.1c0.8-0.5,1.5-1,2.3-1.5c1-0.7,2.1-1.7,3.2-2.2c1.2-0.5,2,0,2.4,0.9V249.5z M364.9,242.8
	c0,0.1,0,0.2,0,0.3v0.7c-2.2-1.9-4.9,0.8-6.9,2.2c-0.1,0.1-0.2,0.1-0.3,0.2c0-0.1,0.1-0.3,0.1-0.4c0.5-2,1-4,2.6-5.4
	c0.9-0.8,2.1-1.3,3.4-1.1c0.4,0.1,0.8,0.2,1.1,0.4V242.8z M364.9,238.3c-2.7-1.4-5.7,0.6-7,3c-0.8,1.6-1.1,3.3-1.6,4.9
	c-0.1,0.4-0.3,0.8-0.4,1.2c-0.9,0.5-1.8,0.9-2.9,1.1c-1.7,0.2-3.1-0.4-4-1.6c0.1,0,0.3,0,0.4,0c2.7-0.2,5.1-2.1,5.3-4.9
	c0.2-2.6-1.4-4.3-3.4-5.7c0.5-0.6,1-1.1,1.5-1.5c1-0.9,2.3-1.9,3.7-2.6c0.2,0.3,0.4,0.6,0.6,0.9c1.4,2.3,3.8,5.3,6.9,4.6
	c0.4-0.1,0.7-0.2,1-0.4V238.3z M364.9,235.1c-0.1,0.3-0.4,0.5-0.6,0.7c-2,1.4-4.2-0.5-5.3-2c-0.5-0.7-1-1.5-1.4-2.2
	c1.4-0.6,2.8-1,4.3-1c1.3,0,2.3,0.4,2.9,1.6c0.1,0.1,0.1,0.2,0.2,0.3V235.1z M364.9,230.4c-2-1.9-5.2-1.2-7.6-0.3
	c-0.2,0.1-0.3,0.1-0.5,0.2c-0.4-0.6-0.7-1.2-1.1-1.7h9.2V230.4z M364.9,219.4c-0.8,0.5-1.7,0.8-2.9,0.8c-0.5,0-0.9-0.1-1.3-0.2
	c0.6-0.8,1-1.7,1.1-2.7c0.1,0,0.2-0.1,0.2-0.1c3-1.6,3.3-4.7,2.3-7.4c0.2,0.1,0.4,0.3,0.6,0.5V219.4z M364.9,208.6
	c-0.5-0.4-1-0.7-1.5-0.9c-0.5-0.8-1-1.6-1.6-2.3c-0.6-0.9-2.7-3.1-2.3-4.3c0.2-0.5,0.4-0.9,0.8-1.1h4.6V208.6z"/>
<path class="st38" d="M291.1,149.6c-3.7,5.3-9.6,7.8-15.7,9.2c0.6-0.2,1.3-0.4,1.9-0.6c3-1,6.5-2.2,8.4-4.8c0.9-1.2,1.3-2.7,0.4-4
	c-1-1.4-3.1-1.6-4.7-1.8c-3.2-0.3-6.4,0-9.6,0.3c0.3-1.3,0-2.6-1.3-3.8c-2.9-2.6-7.5-2.3-11-1.6c-3.6,0.8-6.9,2.1-10.1,3.9
	c-1.9,1-3.6,2.2-5.3,3.5c0,0,0,0,0,0c1.3-4.2,1.8-8.9-0.6-12.8c-1.1-1.7-2.6-3.3-4.7-3.5c-2-0.2-3.8,1-4.9,2.6
	c-2,2.8-2.9,6.4-3.2,9.9c-0.2-0.3-0.4-0.6-0.6-0.9c-1.7-2.4-3.5-4.6-5.6-6.8c-2-2.1-4.2-4.3-7.3-3.4c-0.6,0.2-1,0.7-1.1,1.3
	c-0.8,3.1,0.3,6.2,1.5,8.9c1.2,2.6,2.7,5.1,4.4,7.4c1,1.3,2.1,2.6,3.2,3.8c-1.2-0.5-2.3-1-3.5-1.6c-2.4-1.1-4.9-2.1-7.3-3.1
	c-2.4-1-4.9-2.2-7.4-2.9c-2-0.5-4.3,0.5-3.6,2.8c0.5,2,2.3,3.8,4,4.9c4,2.8,8.9,4,13.6,5.1c0.7,0.2,1.3,0.3,2,0.5h-17.3
	c-0.8,0-1.5,0.7-1.5,1.5v45.4c0,0.8,0.7,1.5,1.5,1.5h76.1c0.8,0,1.5-0.7,1.5-1.5V164c0-0.8-0.7-1.5-1.5-1.5h-8.1
	c7.9-1.4,15.8-4.2,20.5-10.9C295.4,149.8,292.3,147.9,291.1,149.6z M214.2,156.7c-2.2-0.8-4.5-1.8-6.1-3.6c0.9,0.4,1.9,0.7,2.8,1.1
	c2.8,1.1,5.6,2.3,8.4,3.5c1,0.4,1.9,0.8,2.9,1.3C219.4,158.3,216.7,157.6,214.2,156.7z M248.1,151.4c4.2-2.9,9.4-5.4,14.5-5.8
	c1.4-0.1,2.9-0.1,4.2,0.4c0.4,0.2,1.1,0.4,1.4,0.9c0.3,0.6-0.1,1.2-0.5,1.7c-2.9,0.4-5.8,1-8.7,1.6c-3.6,0.8-7.2,1.8-10.7,3
	c-1.5,0.5-3,1-4.5,1.6C245.1,153.6,246.6,152.5,248.1,151.4z M258.6,153.8c1.9-0.5,3.8-0.9,5.7-1.2c-0.5,0.5-1.1,1-1.7,1.5
	c-2.4,2-5.1,3.6-7.9,4.8c-0.5,0-1,0.1-1.4,0.1c-3.7,0.3-7.5,0.5-11.2,0.5C247.1,156.6,253.1,155.1,258.6,153.8z M247,165.5h9.1
	c1.1,0.9,2.1,1.8,3.1,2.7c-5.8,2.6-12.5,2.9-18.5,1L247,165.5z M262.4,171.5c0,0.1-0.1,0.2-0.1,0.3c0,1.9-0.4,3.8-0.8,5.6
	c-0.6,3.2-1.3,6.5-2.1,9.7c-1.5-2.7-3.1-5.4-4.6-8.1c-1.2-2.2-2.6-4.7-3.1-7.3c3-0.3,5.9-1.1,8.7-2.4
	C261.1,170,261.7,170.8,262.4,171.5z M256.7,198.8c3.4-6.7,5-14.3,6.3-21.1c0.3-1.5,0.6-3,0.7-4.6c2,2.5,3.7,5.3,5.1,8.2
	c-1.8,4.1-3.1,8.3-4,12.7L256.7,198.8z M251.6,200.9c-0.5-3.3-1.3-6.6-2.2-9.9c-0.8-2.8-1.8-5.7-3.6-8c2.1-2.4,4.1-5,5.4-8
	c0.7,1.7,1.6,3.3,2.4,4.7c0,0.1,0.1,0.1,0.1,0.2c-1.2,2.2-1.8,4.9-1.8,8.2c0,4.1,0.7,8.3,2.2,12.1l-2.3,1.4
	C251.7,201.4,251.7,201.2,251.6,200.9z M238.4,207.9c-1.3-5.5-1.2-11.3,0.4-16.8c0,0,0-0.1,0-0.1c2.1-2.2,4-4.5,6-6.8
	c1.1,1.5,1.9,3.2,2.5,5c-0.1,0-0.3,0.1-0.4,0.3c-4,5.4-6.7,11.8-7.9,18.4H238.4z M236.7,207.9c-1.9-1.5-3.9-3-5.9-4.4
	c0,0,0-0.1-0.1-0.1c-0.7-1-1.3-2.1-1.8-3.1c2.8-2.2,5.4-4.6,7.8-7.1c-1,4.9-1,9.9,0.1,14.8H236.7z M226.4,207.9
	c-3.7-3-6.6-6.5-8.9-10.6c5.9,3,11.5,6.5,16.8,10.6H226.4z M214.8,207.9l-0.6-2.8c-0.2-1.2-0.5-2.3-0.7-3.5c0,0,0,0,0,0
	c0.3-1.8,1-3.6,1.7-5.3c2.2,4.4,5.1,8.3,8.8,11.6H214.8z M207,179.5v-5.8c0,0,0.1-0.1,0.1-0.1c0.1-0.3,0.3-0.5,0.5-0.7
	c1.8-1.9,3.6-2.7,5.7-2.7c-1.9,2.4-3.4,5.2-4.6,8.3L207,179.5z M223.1,179.6c-3.4,4.3-5.9,9.2-8.2,14c-0.8,1.6-1.5,3.3-2.1,5
	c-0.3-1-0.6-1.9-0.9-2.9c-1.1-2.9-2.5-5.3-4.1-7.2L223.1,179.6z M239.1,170.2c3.1,1.2,6.4,1.8,9.7,1.8c0.5,0,1,0,1.5,0
	c0.1,0.4,0.2,0.7,0.3,1.1c-5.6,3.2-12.2,6.4-19.3,6.4c1.4-2,2.7-4.3,3.9-6.9L239.1,170.2z M244,182.8c-4.8,5.6-9.8,11.4-15.7,16.1
	c-1.8-4.5-2.2-9.5-1-14.5c0-0.1,0-0.2,0-0.3c0.5-0.5,1-1.1,1.5-1.6c0.4-0.5,0.8-1,1.3-1.6c0,0,0.1,0,0.1,0c0.3,0,0.5,0,0.8,0
	c6.7,0,13-2.7,18.4-5.6C248.1,178.1,246,180.5,244,182.8z M216.5,195.3c-0.1-0.3-0.3-0.5-0.4-0.8c0-0.1,0.1-0.2,0.1-0.3
	c0.7-1.4,1.3-2.8,2-4.2c0,0,0,0,0,0c0.1,0,0.2,0,0.3-0.1c2.5-1,4.8-2.4,7-4.3c-1,5.5-0.1,11,2.4,15.9c-3.6-2.3-7.3-4.4-11.1-6.3
	C216.7,195.3,216.6,195.3,216.5,195.3z M227.8,181.5c-2.5,2.9-5.4,5.2-8.4,6.6c2.1-3.9,4.6-7.7,7.8-10.9l5.6-3.3
	C231.2,176.8,229.6,179.3,227.8,181.5z M258.5,188.6c0.1,0.2,0.2,0.3,0.4,0.3c-1,3.4-2.2,6.7-3.9,9.8c-1.2-3.3-1.8-6.9-1.7-10.5
	c0-2.7,0.4-4.9,1.2-6.7C255.9,183.9,257.2,186.3,258.5,188.6z M234.1,148.4c0.1-2.3,0.4-4.7,1.2-6.9c0.4-1.2,1.5-4.5,3.1-4.5
	c1.6-0.1,2.7,3.2,2.9,4.4c0.4,2.2,0.1,4.5-0.5,6.6c-0.8,2.9-1.8,5.9-3.3,8.5c-0.3,0.4-0.6,0.7-0.8,1.1c-0.7-1.9-1.6-3.7-2.5-5.5
	C234,150.9,234,149.6,234.1,148.4z M221.3,145.3c-1-2.1-2-4.4-1.9-6.7c0.8,0.5,1.7,1.7,2.1,2.1c0.8,0.8,1.6,1.7,2.4,2.6
	c1.6,1.8,3,3.8,4.3,5.8c0.9,1.3,1.6,2.7,2.4,4.1c0.2,1.8,0.5,3.5,1.2,5.2c-2.3-2-4.5-4.2-6.4-6.6
	C223.8,149.7,222.4,147.5,221.3,145.3z M231.2,165.5l-20.4,11.8c2.3-5.2,5.7-9.2,9.7-11.7c0.1,0,0.1-0.1,0.2-0.1H231.2z
	 M218.1,165.5c-1.3,0.9-2.5,2.1-3.6,3.3c-2.7-0.4-5.2,0.4-7.5,2.6v-5.9H218.1z M207,190c1.4,1.7,2.5,3.8,3.5,6.2
	c1.1,2.9,1.7,6.1,2.3,9.2l0.5,2.5H207V190z M240.5,207.9c1.1-6.2,3.6-12.1,7.3-17.1c0.1,0.2,0.1,0.4,0.2,0.6
	c0.9,3.2,1.6,6.4,2.2,9.7c0.1,0.5,0.1,0.9,0.2,1.4l-9.2,5.4H240.5z M271.5,199.5c-1.4,2.6-2.4,5.5-3.4,8.5h-11.2L271.5,199.5z
	 M271.4,203.1c0.9,1.7,1.8,3.3,2.9,4.8h-4.6C270.3,206.3,270.8,204.7,271.4,203.1z M280.1,207.9h-3.9c-1.6-2-2.9-4.2-4-6.5
	c0.6-1.2,1.2-2.4,2-3.5l6-3.5V207.9z M266.6,193c2.1-9.8,6.9-19,13.6-26.4V185L266.6,193z M279.1,165.5c-3.8,4.2-7,9-9.5,14.1
	c-2.2-4.2-5-8.1-8.3-11.4c0,0,0-0.1,0-0.1c-0.1-0.2-0.3-0.3-0.5-0.4c-0.8-0.8-1.6-1.5-2.4-2.2H279.1z M263.5,157.8
	c2.3-1.6,4.3-3.6,6.1-5.7c0.1-0.2,0.3-0.3,0.4-0.5c2.3-0.3,4.6-0.5,7-0.7c1.4-0.1,2.9-0.1,4.3,0.1c0.4,0,0.7,0.1,1,0.2
	c0.1,0,0.4,0.2,0.5,0.2c-0.3,0.3-0.9,0.9-1.1,1.1c-2.1,1.7-5.1,2.5-7.7,3.2C270.5,156.7,267,157.3,263.5,157.8z"/>
</svg>
