<?xml version="1.0" encoding="utf-8"?>
<!-- Generator: Adobe Illustrator 21.1.0, SVG Export Plug-In . SVG Version: 6.00 Build 0)  -->
<svg version="1.1" id="Calque_1" xmlns="http://www.w3.org/2000/svg" xmlns:xlink="http://www.w3.org/1999/xlink" x="0px" y="0px"
	 viewBox="0 0 432 432" style="enable-background:new 0 0 432 432;" xml:space="preserve">
<style type="text/css">
	.st0{fill:#51383D;}
	.st1{fill:#9E7D83;}
	.st2{fill:#8E8587;}
	.st3{fill:#754556;}
	.st4{fill:#513640;}
	.st5{fill:#9B6A7E;}
	.st6{fill:#1A1A1A;}
	.st7{fill:#EE700E;}
	.st8{fill:#E4A60E;}
	.st9{fill:#AA220C;}
	.st10{fill:#AA4A3A;}
	.st11{fill:#A29E35;}
	.st12{fill:#E4B646;}
	.st13{fill:#EE9047;}
	.st14{fill:#534741;}
	.st15{fill:#A29C0B;}
	.st16{fill:#765E5A;}
	.st17{fill:#B3B3B3;}
	.st18{fill:#CE8C5F;}
	.st19{fill:#E6E6E6;}
	.st20{fill:#9B5D60;}
	.st21{fill:#7B6B6C;}
	.st22{fill:#C4C4C1;}
	.st23{fill:#7B916D;}
	.st24{fill:#474041;}
	.st25{fill:#998675;}
	.st26{fill:#997355;}
	.st27{fill:#D3CB6E;}
	.st28{fill:#DDBC71;}
	.st29{fill:#A57453;}
	.st30{fill:#7A3A3A;}
	.st31{fill:#8C6239;}
	.st32{fill:#333333;}
	.st33{fill:#C69C6D;}
	.st34{fill:#FBB03B;}
	.st35{fill:#494240;}
	.st36{fill:#A0BB85;}
	.st37{fill:#DE962D;}
	.st38{fill:#ED1E79;}
	.st39{fill:#29ABE2;}
	.st40{fill:#F7931E;}
	.st41{fill:#B2CBCC;}
	.st42{fill:#819899;}
	.st43{fill:#8CC63F;}
	.st44{fill:#65C8D0;}
	.st45{fill:#BA9BC9;}
	.st46{fill:#736357;}
	.st47{fill:#603813;}
	.st48{fill:#C1272D;}
	.st49{fill:#39B54A;}
	.st50{fill:#D1A7BA;}
	.st51{fill:#415E70;}
	.st52{fill:#808080;}
	.st53{fill:#C7B299;}
	.st54{fill:#DD5E9A;}
	.st55{fill:#65B5D1;}
	.st56{fill:#D376AB;}
	.st57{fill:#D39746;}
	.st58{fill:#CCCCCC;}
	.st59{fill:#22B573;}
	.st60{fill:#B29190;}
	.st61{fill:#808C6F;}
	.st62{fill:#A39D58;}
	.st63{fill:#AD665C;}
	.st64{fill:#D38D5E;}
	.st65{fill:#EC904F;}
	.st66{fill:#A67C52;}
	.st67{fill:#A29D3E;}
	.st68{fill:#A84B3D;}
	.st69{fill:#E3B550;}
	.st70{fill:#93A787;}
	.st71{fill:#C28474;}
	.st72{fill:#7E4F58;}
	.st73{fill:#B77A72;}
	.st74{fill:#CE95B0;}
	.st75{fill:#B69FC1;}
	.st76{fill:#CE6F77;}
	.st77{fill:#C68F9C;}
	.st78{fill:#B78B5E;}
	.st79{fill:#999999;}
	.st80{fill:#687258;}
	.st81{fill:#84ADA3;}
	.st82{fill:#DDB185;}
	.st83{fill:#97BC6C;}
	.st84{fill:#61C2E0;}
	.st85{fill:#B59468;}
	.st86{fill:#C6795D;}
	.st87{fill:#8C3F42;}
	.st88{fill:#40847A;}
	.st89{fill:#6BB2A6;}
	.st90{fill:#D88F5D;}
	.st91{fill:#667E70;}
	.st92{fill:#CE5B64;}
	.st93{fill:#EEC4C1;}
	.st94{fill:#DACCCB;}
	.st95{fill:#E4C8C6;}
	.st96{fill:#BC825B;}
	.st97{fill:#8BB191;}
</style>
<g>
	<g>
		<g>
			<g>
				<path class="st32" d="M155.8,88.1c0.5,0.1,0.8,0.2,0.9,0.3c0.2,0.2,0.2,0.4,0.2,0.9c0,0.4,0,0.7,0,1.1c0,0.4,0,0.8,0,1.1
					c0,0.4-0.1,0.6-0.2,0.8c-0.1,0.1-0.4,0.2-0.8,0.2c-1.2,0-2.4,0-3.5,0c-1.2,0-2.3,0-3.5,0c-0.4,0-0.6,0-0.8,0
					c-0.2,0-0.3-0.1-0.4-0.2c-0.1-0.1-0.2-0.2-0.2-0.4c0-0.2-0.1-0.4-0.1-0.8c-0.1-0.3-0.1-0.7-0.1-1c0-0.3,0-0.7,0-1
					c0-0.6,0.3-1,1-1c0.1,0,0.2,0,0.3,0c0.1,0,0.2,0,0.3,0h0.7c0.1-3.2,0.1-6.3,0-9.4c0-3.1,0-6.2,0-9.4c-0.7-0.2-1.4-0.2-2.1-0.2
					c-0.4,0-0.6,0-0.7-0.1c-0.1-0.1-0.2-0.3-0.2-0.7c0-0.4,0.1-0.8,0.1-1.3c0-0.4,0.1-0.8,0.1-1.3c0.1-0.3,0.2-0.5,0.5-0.5
					c0.5-0.1,0.9-0.1,1.3-0.1c0.4,0,0.7,0,1.1,0c0.4,0,0.8,0,1.1,0l5.8,0.1c0.4,0,0.6,0.1,0.8,0.2c0.2,0.1,0.3,0.4,0.3,0.7
					c0.1,0.7,0.1,1.3,0.1,2c0,0.4-0.2,0.7-0.6,0.7c-0.4,0.1-0.8,0.1-1.2,0.1c-0.4,0-0.8,0-1.2,0.1h-0.8c0.1,3.2,0.1,6.4,0.1,9.6
					c0,3.2,0.1,6.3,0.1,9.5c0.3,0,0.5,0,0.8,0C155.3,88,155.5,88.1,155.8,88.1z"/>
				<path class="st32" d="M164,65.5c0.4,0.2,0.6,0.5,0.6,1c0,0.4,0,0.9-0.1,1.3c-0.1,0.7-0.2,1.5-0.4,2.2c-0.2,0.7-0.4,1.4-0.6,2.1
					c-0.2,0.6-0.6,0.9-1.2,0.8c-0.3,0-0.6-0.1-0.9-0.1s-0.6-0.1-0.9-0.2c-0.7-0.2-0.9-0.7-0.8-1.4c0.1-0.5,0.2-1,0.3-1.6
					c0.1-0.5,0.2-1.2,0.4-1.8c0.1-0.2,0.1-0.5,0.2-0.9c0.1-0.4,0.2-0.7,0.3-1.1c0.1-0.4,0.2-0.6,0.4-0.7c0.2-0.1,0.5-0.2,0.8-0.1
					c0.3,0.1,0.6,0.1,1,0.2C163.4,65.3,163.7,65.4,164,65.5z"/>
				<path class="st32" d="M188.1,87.8c0.4,0,0.7,0.1,0.8,0.2c0.2,0.2,0.3,0.4,0.3,0.8c0.1,0.8,0.1,1.6,0.1,2.5
					c0,0.4-0.1,0.6-0.2,0.8c-0.2,0.2-0.4,0.2-0.8,0.3c-0.6,0-1.1,0-1.7,0c-0.5,0-1.1,0-1.7,0c-0.5,0-1,0-1.5,0c-0.5,0-1,0-1.4,0
					c-0.6,0-1-0.1-1.2-0.3c-0.2-0.2-0.4-0.6-0.4-1.2c-0.1-0.7-0.1-1.4-0.1-1.9c0.1-0.5,0.2-0.9,0.4-1c0.2-0.2,0.6-0.2,1-0.2h0.6
					c0.1-0.1,0.1-0.5,0.1-1.3c0-0.7,0-1.6,0-2.6c0-1,0-2.1,0-3.3c0-1.2,0-2.3-0.1-3.3c0-1-0.1-1.9-0.1-2.7c0-0.7-0.1-1.2-0.1-1.4
					c-0.1,0.1-0.2,0.2-0.2,0.3c-0.1,0.1-0.1,0.2-0.2,0.3l-3.2,5.3c-0.4,0.7-0.8,1-1.2,1c-0.4-0.1-0.8-0.3-1.2-0.8
					c-0.5-0.7-1.1-1.3-1.6-2c-0.5-0.7-1-1.4-1.5-2.1c-0.2-0.2-0.3-0.4-0.4-0.6c-0.1-0.2-0.3-0.4-0.5-0.6c-0.1,0.8-0.1,1.5,0,2.3
					c0,0.8,0,1.5,0,2.3c0,0.8,0,1.6,0,2.3c0,0.8,0,1.5,0,2.3c0,0.8,0,1.6,0,2.3c0,0.8,0,1.5,0,2.3c0.2,0.1,0.4,0.1,0.5,0.1
					c0.2,0,0.3,0.1,0.5,0.1c0.6,0.2,0.9,0.5,0.9,1.1c0,0.4,0,0.7,0,1c0,0.3,0,0.7,0,1c-0.1,0.4-0.2,0.7-0.3,0.8
					c-0.2,0.1-0.4,0.2-0.8,0.3c-0.4,0-0.7,0-1.1,0c-0.4,0-0.7,0-1.1,0c-0.6,0-1.1,0-1.7,0c-0.6,0-1.1,0-1.7,0h-0.6
					c-0.4-0.1-0.6-0.2-0.8-0.3c-0.2-0.2-0.3-0.4-0.3-0.8c-0.1-0.7-0.1-1.4-0.1-2.1c0-0.5,0.1-0.8,0.3-1c0.2-0.2,0.5-0.3,1-0.3
					c0.1,0,0.2,0,0.3,0c0.1,0,0.2,0,0.2,0c0-0.1,0-0.6,0.1-1.6c0-0.9,0-2,0-3.3c0-1.3,0-2.7,0-4.2c0-1.5,0-2.9,0-4.3
					c0-1.3,0-2.5-0.1-3.5c0-1-0.1-1.6-0.1-1.8h-0.7c-0.4-0.1-0.7-0.1-0.8-0.3c-0.2-0.1-0.3-0.4-0.3-0.7c-0.1-0.4-0.1-0.9-0.1-1.3
					c0-0.4,0-0.8,0.1-1.3c0-0.5,0.3-0.7,0.8-0.7h2.1c0.7,0,1.3,0.1,2,0.1c0.7,0,1.3,0,2,0c0.5,0,0.9,0.3,1.1,0.8c0.4,1,1,2,1.6,3
					c0.6,0.9,1.2,1.9,1.8,2.8c0.1,0.1,0.2,0.2,0.3,0.3c0.1-0.2,0.2-0.3,0.2-0.4c0.1-0.1,0.2-0.3,0.2-0.4c0.5-0.9,1-1.8,1.5-2.8
					c0.5-0.9,1-1.8,1.5-2.8c0.2-0.5,0.6-0.7,1-0.7c0.7,0,1.4,0,2.1,0c0.7,0,1.3,0.1,1.9,0.1c0.6,0,1.3,0.1,1.9,0.1
					c0.8,0.1,1.2,0.5,1.2,1.2c0,0.4,0,0.7,0,1.1c0,0.4,0,0.7-0.1,1.1c-0.1,0.7-0.5,1-1.1,1c-0.2,0-0.4,0-0.6,0c-0.2,0-0.4,0-0.7,0
					c0.1,1.5,0.1,3.1,0.1,4.6c0,1.5,0,3.1,0.1,4.6c0,1.5,0.1,3.1,0.1,4.6c0.1,1.5,0.1,3.1,0.3,4.6c0.2,0,0.3,0,0.5,0
					C187.8,87.8,187.9,87.8,188.1,87.8z"/>
			</g>
			<g>
				<path class="st32" d="M221,71.9c0.4,1.1,0.6,2.2,0.8,3.3c0.2,1.2,0.2,2.5,0.2,4c-0.1,1.1-0.2,2.3-0.4,3.7
					c-0.2,1.4-0.6,2.8-1.2,4.2c-0.3,0.7-0.6,1.3-0.9,1.8c-0.7,1.1-1.5,2-2.5,2.5c-1,0.6-2.1,0.9-3.4,1c-3.5,0.3-6.4-1-8.7-3.9
					c-0.7-0.9-1.3-1.9-1.7-3c-0.4-1.1-0.7-2.2-0.9-3.3c-0.4-2.1-0.4-4.1,0-6c0.3-1.9,1-3.9,1.8-5.7c0.2-0.5,0.5-1,0.8-1.4
					c0.3-0.4,0.7-0.9,1-1.3c1.4-1.5,3.1-2.4,5.3-2.6c0.8-0.1,1.5-0.1,2.2,0.1c0.7,0.2,1.4,0.4,2.1,0.7c1.4,0.6,2.5,1.4,3.3,2.4
					S220.5,70.5,221,71.9z M216,86.1c0.5-1,0.9-2,1.1-3c0.2-1,0.3-2.1,0.3-3.1c0-1-0.1-2-0.3-3c-0.2-1-0.5-1.9-0.8-2.9
					c-0.3-0.9-0.8-1.7-1.3-2.6c-0.2-0.3-0.4-0.6-0.7-0.9c-0.3-0.3-0.6-0.5-0.8-0.8c-0.6-0.5-1.2-0.6-1.9-0.3c-0.5,0.2-1,0.5-1.4,0.9
					c-0.5,0.4-0.9,0.9-1.2,1.5c-0.3,0.6-0.5,1.1-0.7,1.7c-0.4,1.3-0.6,2.7-0.7,4.1c-0.1,1.4,0,2.7,0.2,4.1c0.1,0.6,0.2,1.3,0.4,1.8
					c0.2,0.6,0.5,1.2,0.8,1.7c0.5,0.7,1,1.3,1.6,1.6c0.6,0.4,1.4,0.5,2.2,0.5c0.1,0,0.2,0,0.3,0c0.1,0,0.1,0,0.2,0
					c0.6-0.1,1.1-0.2,1.6-0.4C215.3,87,215.7,86.6,216,86.1z"/>
				<path class="st32" d="M247.1,66c0.1,0.5,0.1,1,0,1.5c0,0.5-0.1,1-0.1,1.5c-0.1,0.3-0.2,0.4-0.3,0.6c-0.2,0.1-0.4,0.2-0.7,0.2
					c-0.3,0-0.5,0-0.7,0.1c-0.2,0-0.5,0-0.8,0.1V71c0.1,1.9,0.1,3.7,0.1,5.6c0,1.8,0.1,3.7,0.1,5.5c0,0.7,0.1,1.3,0.1,1.9
					c0,0.6,0,1.3,0,1.9c0,1.7,0,3.4-0.1,5c0,0.7-0.4,1.1-1.1,1.1l-3.7,0.1c-0.6,0-1.1-0.3-1.4-0.8c-0.1-0.1-0.2-0.3-0.3-0.5
					c-1.3-2.7-2.6-5.3-3.8-8s-2.5-5.3-3.8-8c-0.1-0.1-0.1-0.2-0.2-0.4c-0.1-0.1-0.1-0.2-0.2-0.4h-0.1l0,0v0.4c0,2.2,0.1,4.3,0.1,6.4
					c0.1,2.1,0.1,4.2,0.3,6.4c0.1,0,0.2,0,0.3,0.1c0.1,0,0.2,0,0.2,0c0.2,0,0.3,0,0.5,0c0.2,0,0.3,0,0.5,0.1
					c0.5,0.1,0.7,0.3,0.8,0.8c0.1,0.4,0.1,0.9,0.1,1.3c0,0.4,0.1,0.8,0.1,1.3c0,0.4,0,0.7-0.2,0.9c-0.1,0.1-0.4,0.2-0.8,0.3
					c-0.3,0-0.5,0-0.7,0.1c-0.2,0-0.5,0-0.7,0c-1,0-1.9,0-2.9,0c-1,0-1.9,0-2.9-0.1c-0.5,0-0.7-0.1-0.9-0.2
					c-0.1-0.1-0.2-0.4-0.2-0.9c0-0.4-0.1-0.8-0.1-1.2c0-0.4-0.1-0.8-0.1-1.2c0-0.4,0.1-0.7,0.2-0.8c0.1-0.1,0.4-0.2,0.8-0.2h1
					c-0.2-3-0.2-6-0.2-9s-0.1-6-0.3-9c-0.1,0-0.3,0-0.5-0.1c-0.4-0.1-0.7-0.2-0.9-0.4c-0.2-0.2-0.3-0.5-0.3-0.9c0-0.2,0-0.5,0-0.7
					s0-0.5,0-0.7c0-0.2,0-0.4,0-0.6c0-0.2,0-0.4,0-0.6c0.1-0.4,0.3-0.7,0.6-0.8c0.2-0.1,0.5-0.1,0.7-0.2c0.2-0.1,0.5-0.1,0.7-0.1
					c1-0.1,1.9-0.1,2.9,0c1,0.1,1.9,0.1,2.9,0.2c0.6,0.1,1,0.4,1.2,1c0.3,0.8,0.6,1.6,0.9,2.3c0.3,0.8,0.6,1.5,1,2.3
					c0.9,2.1,1.8,4.1,2.8,6.1c0.9,2,1.9,4,2.8,6.1c0.1,0.2,0.2,0.3,0.2,0.4c0-0.1,0-0.5,0-1.1c0-0.6,0-1.4,0-2.4c0-0.9,0-1.9-0.1-3
					c0-1.1-0.1-2.1-0.1-3.1c0-1-0.1-1.8-0.1-2.5c-0.1-0.7-0.1-1.2-0.1-1.4c-0.1,0-0.3-0.1-0.4-0.1c-0.1,0-0.3,0-0.4,0
					c-0.7-0.1-1.1-0.4-1.2-1.1c-0.2-1-0.2-2,0-3c0.1-0.4,0.3-0.6,0.8-0.6c0.5-0.1,1.1-0.1,1.6-0.1c1,0,2,0,3,0c1,0,2,0,3,0
					C246.7,65,247.1,65.3,247.1,66z"/>
				<path class="st32" d="M267.3,86c0,0.1,0,0.2,0,0.4c0,0.8,0,1.6,0,2.4c0,0.8,0,1.6,0,2.4c0,0.5-0.1,0.8-0.3,1
					c-0.2,0.1-0.5,0.2-1,0.2c-0.8,0-1.6,0-2.4,0c-0.8,0-1.6,0-2.4,0c-1.4,0-2.8,0-4.2,0c-1.4,0-2.8,0-4.2,0c-0.6,0-1.1,0-1.7,0
					c-0.5,0-1.1,0-1.6,0c-0.2,0-0.4-0.1-0.6-0.2c-0.2-0.2-0.2-0.3-0.2-0.6c0-0.5,0-1-0.1-1.5c0-0.5,0-1,0.1-1.5
					c0-0.4,0.1-0.6,0.3-0.8c0.2-0.1,0.4-0.2,0.8-0.2h1.7c0-3.1,0-6.2,0.1-9.2c0.1-3,0-6.1-0.1-9.2c-0.3,0-0.6,0-0.9,0
					c-0.3,0-0.6,0-0.8,0c-0.4-0.1-0.6-0.1-0.7-0.2s-0.2-0.3-0.2-0.7c0-0.3,0-0.6,0-0.9c0-0.3,0-0.6,0-1c0-0.6,0.4-1,1-1.1
					c0.1,0,0.3,0,0.6,0c0.8,0,1.5,0.1,2.3,0.1c0.8,0,1.5,0.1,2.3,0.1h2.1c0.2,0,0.4,0,0.6,0c0.2,0,0.3,0,0.5,0.1
					c0.4,0.1,0.6,0.3,0.6,0.7c0,0.4,0,0.8,0,1.2c0,0.4,0,0.8-0.1,1.2c0,0.4-0.3,0.6-0.7,0.6c-0.3,0-0.6,0-0.9,0c-0.3,0-0.6,0-0.9,0
					c0.1,3.1,0.1,6.1,0.2,9.2c0.1,3,0.1,6.1,0.2,9.3h6.4v-1.3c0-0.4,0.1-0.7,0.2-0.8c0.1-0.1,0.4-0.2,0.8-0.2c0.4,0,0.9,0,1.3,0
					c0.4,0,0.8,0,1.2,0.1c0.3,0,0.4,0,0.5,0.1C267.2,85.6,267.3,85.8,267.3,86z"/>
				<path class="st32" d="M283.9,64.9c0.7,0,1.1,0.2,1.3,0.4c0.2,0.2,0.3,0.7,0.2,1.3c0,0.1,0,0.2,0,0.3c0,0.1,0,0.2,0,0.3
					c-0.1,0.5-0.2,0.9-0.5,1.2c-0.3,0.3-0.7,0.4-1.2,0.4c-0.3,0-0.6,0-0.8,0c-0.3,0-0.5,0-0.8,0C282,69,282,69,282,69c0,0,0,0-0.1,0
					c-0.8,1.4-1.5,2.9-2.3,4.3c-0.8,1.4-1.5,2.8-2.3,4.2c-0.1,0.2-0.2,0.5-0.2,0.7c0,0.2-0.1,0.5-0.1,0.7c0.1,1.3,0.1,2.6,0.1,3.9
					c0,1.3,0.1,2.6,0.1,3.9c0,0.3,0,0.5,0,0.8c0,0.3,0,0.5,0.1,0.8c0.2,0,0.4,0,0.6,0c0.2,0,0.4,0,0.6,0c1,0.1,1.5,0.6,1.4,1.6
					c0,0.2,0,0.4,0,0.6c0,0.2,0,0.4-0.1,0.6c-0.1,0.7-0.5,1.1-1.3,1.2c-1,0.1-2,0.1-2.9,0.1c-0.6,0-1.2,0-1.8-0.1
					c-0.6,0-1.2-0.1-1.9-0.1h-0.3c-0.6-0.1-1-0.2-1.2-0.4c-0.2-0.2-0.3-0.6-0.3-1.2c0-0.2,0-0.4,0-0.6c0-0.2,0-0.4,0-0.6
					c0-0.5,0.3-0.9,0.8-1c0.3-0.1,0.5-0.1,0.8-0.1s0.6,0,0.9-0.1c0-0.1,0-0.3,0-0.4c0-0.1,0-0.3,0-0.4c-0.1-1.3-0.1-2.6-0.2-4
					c-0.1-1.3-0.1-2.7-0.2-4c0-0.3-0.1-0.5-0.2-0.7c-0.8-1.6-1.5-3.2-2.3-4.8c-0.8-1.6-1.5-3.2-2.3-4.8c-0.1-0.1-0.1-0.1-0.1-0.2
					c0-0.1-0.1-0.1-0.1-0.2c-0.3-0.1-0.6-0.1-1-0.1c-0.3,0-0.6,0-0.9-0.1c-0.4-0.1-0.7-0.2-0.8-0.3c-0.2-0.2-0.3-0.4-0.3-0.8
					c-0.1-0.3-0.1-0.6-0.1-0.8c0-0.3,0-0.6,0-0.8c0-0.6,0.3-0.9,0.9-0.9c0.7,0,1.4,0,2.1,0c0.7,0,1.4,0,2.1,0c0.5,0,1,0,1.4,0
					c0.5,0,1,0,1.4,0.1c0.5,0,0.8,0.1,1,0.3c0.2,0.2,0.3,0.5,0.3,1c0,0.2,0,0.4,0,0.5c0,0.2,0,0.4-0.1,0.6c-0.1,0.7-0.4,1.1-1.1,1.2
					c-0.1,0-0.2,0-0.3,0.1c0.4,1,0.9,1.9,1.3,2.9c0.4,1,0.9,2,1.4,3c0.5-1,1-2.1,1.4-3c0.4-1,0.9-2,1.4-3c-0.1,0-0.2,0-0.3-0.1
					c-0.1,0-0.2,0-0.3,0c-0.5,0-0.8-0.2-0.8-0.7c0-0.4,0-0.7,0-1.1c0-0.4,0-0.8,0-1.2c0.1-0.3,0.2-0.5,0.6-0.5
					c0.2-0.1,0.4-0.1,0.5-0.1c0.2,0,0.4,0,0.6,0h6c0.1,0,0.1,0,0.2,0C283.7,64.9,283.8,64.9,283.9,64.9z"/>
			</g>
		</g>
		<g>
			<path class="st14" d="M187.2,104.7c-0.2,2.9-0.4,5.8-0.6,8.7c-0.2,2.9-0.4,5.8-0.6,8.7c-0.2,2.6-0.3,5.1-0.3,7.6
				c0,2.5,0.1,5.1,0.3,7.6c0.1,0.5,0.1,1.1,0.1,1.6c0,0.6,0,1.1,0.1,1.7c0,0.4-0.1,0.7-0.2,0.9c-0.2,0.2-0.5,0.2-1,0.2
				c-0.7-0.1-1.5-0.1-2.2-0.2c-0.7-0.1-1.5-0.1-2.2-0.2c-0.8-0.1-1.3-0.5-1.4-1.2c-0.1-0.8-0.2-1.6-0.3-2.4
				c-0.1-0.8-0.2-1.6-0.3-2.3c-0.1-0.4-0.1-0.8-0.1-1.2c0-0.4-0.1-0.8-0.1-1.2H171c0,0.4,0,0.8,0,1.2c0,0.4,0,0.8,0.1,1.2
				c0.1,0.6,0.2,1.3,0.3,1.9c0.1,0.7,0.2,1.3,0.3,1.9c0.1,0.5,0.1,0.8-0.1,1c-0.1,0.2-0.4,0.3-0.8,0.3c-1.2,0.1-2.4,0.2-3.5,0.3
				c-1.2,0.1-2.3,0.2-3.5,0.2c-0.2,0.1-0.4,0.1-0.7,0c-0.7-0.1-1.1-0.2-1.3-0.5c-0.2-0.2-0.3-0.7-0.3-1.4c0-0.6,0.1-1.8,0.2-3.7
				c0.1-1.8,0.2-4,0.3-6.4c0.1-2.4,0.2-5,0.4-7.8c0.1-2.7,0.3-5.3,0.4-7.6c0.1-2.4,0.2-4.4,0.3-6.1c0.1-1.7,0.2-2.7,0.2-3.1
				c0-0.5,0.1-0.9,0.2-1c0.1-0.1,0.5-0.3,1-0.4c0.7-0.2,1.4-0.3,2.1-0.4c0.7-0.1,1.4-0.2,2.1-0.3c0.9-0.1,1.5-0.1,1.7,0.1
				c0.2,0.2,0.3,0.8,0.3,1.7c-0.1,2.2-0.1,4.3-0.2,6.5c-0.1,2.2-0.1,4.3-0.1,6.5c0,1.5,0,3,0.1,4.5c0.1,1.5,0.1,3,0.1,4.6
				c1.2,0.1,2.4,0.2,3.6,0.1c1.1,0,2.3-0.1,3.5-0.3v-1.8c0-2.3,0.1-4.6,0.1-6.9c0-2.3,0.1-4.6,0.1-6.9c0-1,0.1-2,0.2-3
				c0.1-1,0.2-2,0.3-3c0.1-0.6,0.2-1,0.4-1.2c0.2-0.1,0.6-0.2,1.2-0.2c1.1,0.1,2.1,0.1,3.2,0.2c1,0,2.1,0.1,3.2,0.2
				c0.5,0.1,0.9,0.2,1,0.3C187.2,103.8,187.2,104.2,187.2,104.7z"/>
			<path class="st14" d="M213.3,103.7c0.1,1,0.2,2,0.3,3.1c0.1,1,0.1,2.1,0.2,3.1c0,0.2-0.1,0.3-0.3,0.3c-1.2,0-2.4,0-3.6-0.1
				c-1.2,0-2.4-0.1-3.6-0.1c-0.5,0-1,0-1.4,0c-0.4,0-0.9,0-1.5,0c-0.1,0.6-0.2,1.1-0.3,1.6c-0.1,0.4-0.1,0.9-0.1,1.3
				c0,0.4-0.1,0.9-0.1,1.4c0,0.5-0.1,1-0.1,1.6h7.4c0.4,0,0.7,0.2,0.7,0.6c0.1,0.4,0.1,0.7,0.1,0.8c0,0.9-0.1,1.7-0.1,2.5
				c0,0.8-0.1,1.7-0.1,2.5c0,0.5-0.1,0.8-0.3,1c-0.2,0.2-0.5,0.2-1,0.2c-0.6,0-1.1-0.1-1.7-0.1c-0.6-0.1-1.2-0.1-1.7-0.2
				c-0.6-0.1-1.2-0.1-1.8-0.2c-0.6-0.1-1.2-0.1-1.9-0.2c-0.1,1.6-0.2,3.3-0.3,4.8c-0.1,1.6-0.2,3.2-0.3,4.9c1.8,0.2,3.5,0.2,5.1,0
				c1.6-0.2,3.3-0.4,5.1-0.6c0.3-0.1,0.4,0.1,0.4,0.4s0,0.8,0,1.5c0,0.6,0,1.3-0.1,2.1c0,0.7,0,1.4-0.1,2.1c0,0.7,0,1.3,0,1.8
				c0,0.8-0.1,1.4-0.1,1.6c-0.1,0.3-0.3,0.4-0.9,0.4c-0.3,0-1,0.1-2.2,0.1c-1.2,0-2.7,0-4.5-0.1c-1.7-0.1-3.6-0.3-5.7-0.6
				c-2-0.3-4-0.7-5.9-1.3c-0.1,0-0.4-0.1-0.7-0.3c-0.4-0.2-0.7-0.4-0.9-0.6c-0.1-0.2-0.2-0.6-0.1-1c0.1-1.2,0.3-2.5,0.4-3.7
				c0.1-1.2,0.3-2.4,0.4-3.7c0.3-3.5,0.7-6.9,1-10.4c0.3-3.4,0.7-6.9,1-10.4c0.1-0.8,0.1-1.6,0.2-2.4c0.1-0.8,0.1-1.6,0.2-2.4
				c0-0.3,0.2-0.6,0.4-0.9c0.2-0.2,0.5-0.4,0.9-0.4c1.1,0,2.6-0.1,4.3-0.3c1.7-0.1,3.5-0.3,5.1-0.4c1.7-0.1,3.2-0.3,4.5-0.4
				c1.3-0.1,2.1-0.2,2.3-0.3c0.8-0.2,1.3-0.1,1.3,0.2C213.2,102.9,213.2,103.3,213.3,103.7z"/>
			<path class="st14" d="M243.2,132.9c0.3,0.3,0.6,0.6,0.7,0.8c0.1,0.2,0.2,0.4,0.2,0.6s-0.1,0.3-0.3,0.5c-0.2,0.2-0.5,0.4-0.8,0.7
				c-1.1,0.9-2.3,1.7-3.6,2.4s-2.5,1.3-3.8,1.9c-0.5,0.2-0.9,0.3-1.2,0.2c-0.3-0.1-0.6-0.3-0.9-0.9c-0.3-0.5-0.8-1.2-1.4-2.2
				c-0.6-1-1.2-2-1.8-3.1c-0.6-1-1.2-2-1.7-2.8c-0.5-0.8-0.9-1.3-1-1.5c0,0.5,0,1,0,1.4c0,0.5,0,0.9,0,1.4c0,0.6,0.1,1.2,0.1,1.9
				c0,0.7,0,1.4,0.1,2.1c0,0.7,0.1,1.5,0.1,2.2c0,0.7,0,1.3,0.1,1.9c0,0.5,0,0.8-0.1,0.9c-0.1,0.1-0.4,0.2-1,0.2
				c-1.4,0.1-2.8,0.1-4.1,0.2c-1.3,0-2.7,0.1-4,0.2c-0.9,0-1.3-0.4-1.2-1.2c0-1,0.1-2.6,0.2-4.7c0.1-2.1,0.2-4.5,0.3-7
				c0.1-2.6,0.2-5.2,0.3-8c0.1-2.8,0.2-5.3,0.3-7.6c0.1-2.3,0.2-4.3,0.2-6c0.1-1.6,0.1-2.7,0.1-3c0-0.6,0.1-1,0.3-1.2
				c0.1-0.2,0.5-0.3,1.1-0.4c4.3-0.7,8.5-0.3,12.5,1.1c1.8,0.6,3.5,1.6,4.9,3c2.1,2.1,2.9,4.6,2.6,7.6c-0.2,1.3-0.7,2.5-1.6,3.6
				c-1,1.2-2.2,2.2-3.5,3c-0.4,0.2-0.8,0.4-1.4,0.8c0.2,0.3,0.7,0.9,1.5,1.8c0.8,1,1.7,2,2.7,3.2c1,1.2,1.9,2.3,2.9,3.5
				C242,131.5,242.7,132.3,243.2,132.9z M230.8,116c1.4-0.9,1.9-2.2,1.4-3.9c-0.6-2.2-2.3-3.2-4.9-3c-0.2,0.5-0.3,1.2-0.3,2
				c-0.1,0.8-0.1,1.6-0.1,2.4c0,0.8,0.1,1.6,0.2,2.3c0.1,0.7,0.2,1.3,0.4,1.7c0.5-0.2,1.1-0.4,1.7-0.7
				C229.7,116.6,230.3,116.3,230.8,116z"/>
			<path class="st14" d="M270.2,103.7c0.1,1,0.2,2,0.3,3.1c0.1,1,0.1,2.1,0.2,3.1c0,0.2-0.1,0.3-0.3,0.3c-1.2,0-2.4,0-3.6-0.1
				c-1.2,0-2.4-0.1-3.6-0.1c-0.5,0-1,0-1.4,0c-0.4,0-0.9,0-1.5,0c-0.1,0.6-0.2,1.1-0.3,1.6c-0.1,0.4-0.1,0.9-0.1,1.3
				c0,0.4-0.1,0.9-0.1,1.4c0,0.5-0.1,1-0.1,1.6h7.4c0.4,0,0.7,0.2,0.7,0.6c0.1,0.4,0.1,0.7,0.1,0.8c0,0.9-0.1,1.7-0.1,2.5
				c0,0.8-0.1,1.7-0.1,2.5c0,0.5-0.1,0.8-0.3,1c-0.2,0.2-0.5,0.2-1,0.2c-0.6,0-1.1-0.1-1.7-0.1c-0.6-0.1-1.2-0.1-1.7-0.2
				c-0.6-0.1-1.2-0.1-1.8-0.2c-0.6-0.1-1.2-0.1-1.9-0.2c-0.1,1.6-0.2,3.3-0.3,4.8c-0.1,1.6-0.2,3.2-0.3,4.9c1.8,0.2,3.5,0.2,5.1,0
				c1.6-0.2,3.3-0.4,5.1-0.6c0.3-0.1,0.4,0.1,0.4,0.4s0,0.8,0,1.5c0,0.6,0,1.3-0.1,2.1c0,0.7,0,1.4-0.1,2.1c0,0.7,0,1.3,0,1.8
				c0,0.8-0.1,1.4-0.1,1.6c-0.1,0.3-0.3,0.4-0.9,0.4c-0.3,0-1,0.1-2.2,0.1c-1.2,0-2.7,0-4.5-0.1c-1.7-0.1-3.6-0.3-5.7-0.6
				c-2-0.3-4-0.7-5.9-1.3c-0.1,0-0.4-0.1-0.7-0.3c-0.4-0.2-0.7-0.4-0.9-0.6c-0.1-0.2-0.2-0.6-0.1-1c0.1-1.2,0.3-2.5,0.4-3.7
				c0.1-1.2,0.3-2.4,0.4-3.7c0.3-3.5,0.7-6.9,1-10.4c0.3-3.4,0.7-6.9,1-10.4c0.1-0.8,0.1-1.6,0.2-2.4c0.1-0.8,0.1-1.6,0.2-2.4
				c0-0.3,0.2-0.6,0.4-0.9c0.2-0.2,0.5-0.4,0.9-0.4c1.1,0,2.6-0.1,4.3-0.3c1.7-0.1,3.5-0.3,5.1-0.4c1.7-0.1,3.2-0.3,4.5-0.4
				c1.3-0.1,2.1-0.2,2.3-0.3c0.8-0.2,1.3-0.1,1.3,0.2C270.1,102.9,270.2,103.3,270.2,103.7z"/>
		</g>
		<g>
			<g>
				<path class="st32" d="M169,291.3c0,0.4,0,0.8,0,1.2c0,0.4,0,0.8,0,1.2c-0.1,0.4-0.2,0.7-0.3,0.8c-0.2,0.2-0.5,0.3-0.9,0.3
					c-0.4,0-0.8,0-1.1,0.1c-0.4,0-0.8,0-1.1,0h-4.3v6h0.9c0.6,0,1.2,0,1.8,0c0.6,0,1.2,0,1.8,0c0.7,0,1.2,0.1,1.4,0.4
					c0.2,0.3,0.3,0.7,0.3,1.4c0,0.4,0,0.7,0,1.1c0,0.4-0.1,0.7-0.1,1.1c-0.1,0.4-0.1,0.6-0.3,0.8c-0.1,0.2-0.4,0.3-0.7,0.3
					c-0.3,0.1-0.6,0.1-0.8,0.1s-0.5,0-0.8,0c-0.5,0-1.1,0-1.6,0.1c-0.5,0-1,0-1.6,0.1c0,0.1-0.1,0.1-0.1,0.2c0,0.1,0,0.1,0,0.2
					c0,1,0,2,0,3c0,1,0,2,0,3c0,0.4,0,0.6,0.1,0.6c0.1,0.1,0.3,0.1,0.6,0.1c0.2,0,0.3,0,0.5,0c0.2,0,0.3,0,0.5,0
					c0.6,0,0.9,0.3,0.9,0.8c0,0.4,0,0.9,0,1.3s0,0.9,0,1.4c0,0.3-0.1,0.5-0.2,0.6c-0.1,0.1-0.3,0.2-0.6,0.2c-0.4,0-0.7,0-1.1,0
					c-0.4,0-0.7,0-1.1,0c-0.8,0-1.7,0-2.5,0c-0.8,0-1.7,0-2.5,0c-0.4,0-0.7,0-1-0.1c-0.4-0.1-0.6-0.3-0.6-0.7c0-0.4-0.1-0.9-0.1-1.3
					c0-0.4,0-0.9,0-1.3c0-0.3,0.1-0.5,0.2-0.6c0.1-0.1,0.3-0.2,0.6-0.2c0.3-0.1,0.6-0.1,0.9-0.1c0.3,0,0.6-0.1,0.9-0.1
					c-0.1-3-0.1-6-0.1-9c0-3-0.1-6-0.1-9.1c-0.2,0-0.5,0-0.7,0c-0.2,0-0.5,0-0.7-0.1c-0.2,0-0.4,0-0.6,0c-0.2,0-0.4,0-0.6,0
					c-0.4-0.1-0.5-0.2-0.5-0.5v-3.4c0-0.3,0.2-0.4,0.5-0.4c0.2,0,0.3-0.1,0.5-0.1c0.2,0,0.3,0,0.4,0c2.1,0,4.2,0,6.3,0
					c2.1,0,4.2,0,6.2,0c0.2,0,0.4,0,0.6,0s0.4,0,0.6,0.1C168.7,290.5,169,290.8,169,291.3z"/>
				<path class="st32" d="M188.7,297c0.4,1.1,0.6,2.2,0.8,3.3c0.2,1.2,0.2,2.5,0.2,4c-0.1,1.1-0.2,2.3-0.4,3.7
					c-0.2,1.4-0.6,2.8-1.2,4.2c-0.3,0.7-0.6,1.3-0.9,1.8c-0.7,1.1-1.5,2-2.5,2.5c-1,0.6-2.1,0.9-3.4,1c-3.5,0.3-6.4-1-8.7-3.9
					c-0.7-0.9-1.3-1.9-1.7-3c-0.4-1.1-0.7-2.2-0.9-3.3c-0.4-2.1-0.4-4.1,0-6c0.3-1.9,1-3.9,1.8-5.7c0.2-0.5,0.5-1,0.8-1.4
					c0.3-0.4,0.7-0.9,1-1.3c1.4-1.5,3.1-2.4,5.3-2.6c0.8-0.1,1.5-0.1,2.2,0.1c0.7,0.2,1.4,0.4,2.1,0.7c1.4,0.6,2.5,1.4,3.3,2.4
					C187.5,294.4,188.2,295.6,188.7,297z M183.7,311.2c0.5-1,0.9-2,1.1-3c0.2-1,0.3-2.1,0.3-3.1c0-1-0.1-2-0.3-3
					c-0.2-1-0.5-1.9-0.8-2.9c-0.3-0.9-0.8-1.7-1.3-2.6c-0.2-0.3-0.4-0.6-0.7-0.9c-0.3-0.3-0.6-0.5-0.8-0.8c-0.6-0.5-1.2-0.6-1.9-0.3
					c-0.5,0.2-1,0.5-1.4,0.9c-0.5,0.4-0.9,0.9-1.2,1.5c-0.3,0.6-0.5,1.1-0.7,1.7c-0.4,1.3-0.6,2.7-0.7,4.1c-0.1,1.4,0,2.7,0.2,4.1
					c0.1,0.6,0.2,1.3,0.4,1.8c0.2,0.6,0.5,1.2,0.8,1.7c0.5,0.7,1,1.3,1.6,1.6c0.6,0.4,1.4,0.5,2.2,0.5c0.1,0,0.2,0,0.3,0
					c0.1,0,0.1,0,0.2,0c0.6-0.1,1.1-0.2,1.6-0.4C183,312.1,183.4,311.7,183.7,311.2z"/>
				<path class="st32" d="M208.1,314.8c0,0.2,0,0.5,0.1,0.7c0,0.3,0,0.5-0.1,0.7c-0.1,0.8-0.5,1.3-1.3,1.3c-0.3,0-0.6,0-1,0
					c-0.3,0-0.6,0-1,0c-0.6,0-1.1,0-1.7,0c-0.6,0-1.1,0-1.7-0.1c-0.3,0-0.6-0.1-0.8-0.1c-0.2,0-0.3-0.1-0.4-0.2
					c-0.1-0.1-0.2-0.2-0.2-0.4c-0.1-0.2-0.1-0.4-0.1-0.7c-0.1-0.5-0.1-1-0.1-1.5c0-0.4,0.1-0.6,0.2-0.7c0.1-0.1,0.3-0.2,0.6-0.2
					c0.1,0,0.2,0,0.2-0.1c0.1,0,0.2,0,0.3-0.1c-0.7-1.3-1.5-2.7-2.2-4c-0.7-1.3-1.4-2.6-2.1-3.9c0,0-0.1,0-0.2,0c0,1.3,0,2.6,0,3.9
					c0.1,1.3,0.1,2.6,0,3.9c0.2,0,0.4,0,0.6,0c0.2,0,0.3,0,0.5,0.1c0.4,0.1,0.6,0.2,0.7,0.3c0.1,0.2,0.2,0.4,0.3,0.8
					c0,0.2,0,0.5,0,0.7c0,0.2,0,0.4,0,0.6c0,0.9-0.5,1.3-1.3,1.3c-0.8,0-1.6,0-2.3,0c-0.8,0-1.6,0-2.4,0c-0.1,0-0.3,0-0.5-0.1
					c-0.2,0-0.4-0.1-0.6-0.2c-0.2-0.1-0.2-0.3-0.3-0.6c-0.1-0.3-0.1-0.7-0.1-1c0-0.3,0-0.6,0-1c0-0.4,0.1-0.7,0.2-0.8
					c0.1-0.1,0.4-0.2,0.8-0.3l0.2-0.1c0-3.3-0.1-6.5-0.1-9.7c-0.1-3.2-0.2-6.4-0.4-9.7c-0.2-0.1-0.3-0.1-0.4-0.1
					c-0.1,0-0.3-0.1-0.4-0.1c-0.4,0-0.7-0.3-0.7-0.7c0-0.4,0-0.7,0-1.1c0-0.4,0-0.7,0-1.1c0-0.3,0.2-0.6,0.6-0.7
					c0.4-0.2,0.7-0.3,1.1-0.4c0.4-0.1,0.8-0.1,1.2-0.1c1-0.1,1.9-0.1,2.8,0c0.9,0,1.9,0.1,2.8,0.3c1.4,0.2,2.7,0.8,3.8,1.6
					c0.2,0.2,0.4,0.3,0.6,0.5c0.2,0.2,0.4,0.4,0.5,0.6c1,1.5,1.5,3,1.7,4.6c0.2,1.5-0.2,3.1-1.1,4.7c-0.7,1.2-1.7,2.2-3.1,2.9
					c-0.1,0.1-0.2,0.1-0.3,0.1c-0.1,0-0.2,0.1-0.3,0.1c0.1,0.2,0.1,0.3,0.2,0.4c0.3,0.5,0.6,1,0.8,1.5c0.3,0.5,0.6,1,0.8,1.4
					c0.5,0.8,0.9,1.6,1.4,2.3c0.5,0.8,0.9,1.5,1.4,2.3c0.2,0.3,0.4,0.5,0.8,0.5c0.2,0,0.4,0,0.5,0
					C207.7,313.8,208,314.2,208.1,314.8z M196.7,301.7c1.7,0.1,3-0.3,4.2-1.3c0.3-0.3,0.5-0.5,0.7-0.8c0.2-0.3,0.3-0.6,0.5-1
					c0.2-0.7,0.2-1.5,0-2.2c-0.2-0.7-0.7-1.3-1.4-1.8c-0.5-0.4-1.1-0.6-1.7-0.8c-0.6-0.2-1.2-0.3-1.8-0.4c-0.1,0-0.2,0-0.2,0
					c-0.1,0-0.2,0-0.3,0.1c0,1.4,0.1,2.7,0.1,4.1C196.7,299,196.7,300.4,196.7,301.7z"/>
			</g>
			<g>
				<path class="st32" d="M237.7,290c0.4,0,0.7,0.1,0.9,0.3c0.2,0.2,0.2,0.4,0.2,0.9c0,0.6,0,1.3-0.1,1.9c0,0.6-0.1,1.3-0.1,1.9
					c-0.1,0.3-0.1,0.6-0.3,0.7c-0.1,0.1-0.4,0.2-0.7,0.2c-0.3,0-0.6,0-0.9,0c-0.3,0-0.6,0-0.9-0.1c-0.5,0-0.7-0.3-0.7-0.8
					c0-0.2,0-0.3,0-0.5c0-0.2,0-0.3,0-0.6c0-0.3-0.1-0.5-0.2-0.6c-0.1-0.1-0.3-0.1-0.6-0.1c-0.4,0-0.7,0-1,0c-0.3,0-0.7,0-1,0V313
					c0.3,0.1,0.6,0.1,0.8,0.1c0.3,0,0.5,0,0.8,0.1c0.4,0.1,0.6,0.2,0.7,0.3c0.1,0.1,0.2,0.3,0.2,0.7c0.1,0.9,0.1,1.8,0.1,2.6
					c0,0.4-0.2,0.6-0.6,0.7c-0.1,0-0.2,0-0.3,0.1c-0.1,0-0.2,0-0.3,0c-1,0-2.1,0-3.1,0.1c-1,0-2.1,0-3.1,0c-0.7,0-1.2-0.1-1.4-0.3
					c-0.2-0.2-0.3-0.7-0.3-1.4c0-0.5,0-1,0-1.6c0.1-0.4,0.2-0.7,0.4-0.9c0.2-0.2,0.5-0.3,0.9-0.3c0.2,0,0.3,0,0.5,0
					c0.2,0,0.3,0,0.6,0c0-3.3-0.1-6.6-0.1-9.9c0-3.3-0.1-6.6-0.1-9.9h-2.3c-0.3,0-0.4,0.2-0.4,0.5c0,0.2,0,0.4,0,0.5
					c0,0.2,0,0.4,0,0.6c0,0.4-0.1,0.7-0.2,0.8c-0.1,0.2-0.4,0.3-0.8,0.3c-0.3,0.1-0.6,0.1-0.9,0.1c-0.3,0-0.6,0-0.9-0.1
					c-0.5,0-0.8-0.3-0.9-0.9c-0.1-0.6-0.2-1.2-0.2-1.8c-0.1-0.6-0.1-1.3-0.1-1.9c0-0.5,0.1-0.8,0.2-1c0.1-0.2,0.5-0.3,1-0.3
					c1.3-0.1,2.7-0.1,4-0.1s2.7,0,4.1,0c1.3,0,2.7,0,4.1,0c0.5,0,1.1,0,1.6,0C236.6,290,237.1,290,237.7,290z"/>
				<path class="st32" d="M261.7,313.5c0.4,0.1,0.6,0.3,0.6,0.6c0,0.4,0,0.8,0.1,1.2c0,0.4,0,0.8,0,1.2c0,0.4-0.1,0.6-0.2,0.7
					c-0.2,0.1-0.4,0.2-0.8,0.2c-0.7,0-1.4,0-2.1,0c-0.7,0-1.4,0-2,0c-0.5,0-1,0-1.5,0c-0.5,0-1,0-1.5,0c-0.4,0-0.7-0.1-0.8-0.2
					c-0.2-0.1-0.2-0.4-0.3-0.8c0-0.4,0-0.8,0-1.1c0-0.4,0-0.8,0.1-1.1c0-0.3,0.1-0.6,0.2-0.7s0.4-0.2,0.7-0.2h1v-7.1h-7.5
					c-0.1,1.2-0.1,2.4-0.1,3.5c0,1.2,0,2.4,0,3.6c0.2,0,0.4,0.1,0.6,0.1c0.2,0,0.4,0.1,0.6,0.1c0.5,0.1,0.7,0.4,0.8,0.9
					c0,0.4,0,0.7,0.1,1c0,0.3,0,0.7,0,1c0,0.3-0.1,0.5-0.3,0.7c-0.2,0.2-0.4,0.3-0.7,0.3c-1.1,0-2.2,0-3.3,0c-1.1,0-2.2,0-3.3,0
					c-0.5,0-0.9-0.1-1.1-0.3c-0.2-0.2-0.3-0.5-0.4-1c-0.1-0.5-0.1-1.1,0-1.6c0.1-0.3,0.2-0.5,0.3-0.6c0.2-0.1,0.4-0.2,0.7-0.3
					c0.2,0,0.4,0,0.5,0c0.2,0,0.4,0,0.6,0c0.1-3.2,0.1-6.4,0.2-9.6c0.1-3.2,0.1-6.4,0.2-9.6h-0.8c-0.2,0-0.3,0-0.5,0
					c-0.2,0-0.3,0-0.5-0.1c-0.5-0.1-0.7-0.3-0.7-0.7c0-0.4,0-0.8,0-1.2c0-0.4,0-0.8,0.1-1.3c0-0.3,0.1-0.5,0.2-0.6
					c0.1-0.1,0.3-0.2,0.6-0.2c0.1,0,0.2,0,0.3,0l7.2,0.2c0.4,0,0.7,0.1,0.8,0.2c0.1,0.1,0.2,0.4,0.3,0.8c0.1,0.6,0.1,1.2,0,1.8
					c0,0.6-0.3,0.9-1,1c-0.3,0-0.6,0-0.8,0c-0.3,0-0.6,0-0.9,0c-0.1,1.3-0.1,2.6,0,3.8c0.1,1.3,0.1,2.5,0.1,3.8h7.5
					c0.1-1.2,0.1-2.4,0.2-3.7c0-1.2,0-2.5,0-3.7c-0.2,0-0.4,0-0.6-0.1c-0.2,0-0.4,0-0.6-0.1c-0.3-0.1-0.5-0.1-0.6-0.2
					c-0.1-0.1-0.2-0.3-0.2-0.6c-0.1-0.4-0.1-0.8-0.1-1.2c0-0.4,0-0.8,0-1.2c0-0.3,0.1-0.5,0.3-0.6c0.2-0.1,0.4-0.2,0.6-0.2
					c0.3-0.1,0.5-0.1,0.8-0.1c0.3,0,0.5-0.1,0.8-0.1c0.8-0.1,1.6-0.1,2.5-0.1c0.8,0,1.7,0.1,2.5,0.2c0.5,0.1,0.9,0.2,1.1,0.4
					c0.2,0.2,0.3,0.5,0.4,1c0.1,0.4,0.1,0.9,0,1.4c0,0.6-0.4,1-1,1.1c-0.2,0.1-0.4,0.1-0.6,0.1s-0.4,0-0.6,0.1v0.8
					c-0.1,2.5-0.1,4.9-0.1,7.3c0,2.4,0,4.9-0.1,7.3c0,0.4,0,0.9,0,1.3c0,0.4,0,0.9,0,1.3c0,0.3,0,0.5,0.1,0.5
					c0.1,0.1,0.3,0.1,0.5,0.2c0.2,0,0.5,0,0.7,0C261.3,313.4,261.5,313.4,261.7,313.5z"/>
				<path class="st32" d="M278.1,313.3c0.4,0.1,0.6,0.3,0.6,0.7c0,0.4,0,0.8,0,1.2c0,0.4,0,0.8-0.1,1.1c-0.1,0.7-0.5,1.1-1.3,1.1
					c-1.4,0-2.9,0-4.3,0.1c-1.4,0-2.9,0-4.4,0c-0.6,0-1.2,0-1.7,0c-0.6,0-1.1,0-1.7,0c-0.4,0-0.7-0.1-0.9-0.2
					c-0.1-0.1-0.2-0.4-0.3-0.9c-0.1-0.4-0.1-0.9-0.1-1.3c0-0.5,0-0.9,0-1.3c0-0.3,0.2-0.5,0.5-0.5c0.2,0,0.4,0,0.6,0
					c0.2,0,0.4,0,0.6,0c0.3,0,0.5-0.1,0.5-0.1c0.1-0.1,0.1-0.2,0.1-0.5c-0.1-2.9-0.1-5.8-0.1-8.6c0-2.9,0-5.7-0.1-8.6v-0.7
					c-0.2,0-0.4,0-0.6,0s-0.4,0-0.6,0c-0.4,0-0.6-0.1-0.7-0.2c-0.1-0.1-0.2-0.3-0.3-0.7c-0.1-0.7-0.1-1.4-0.1-2.2
					c0-0.4,0.1-0.6,0.2-0.7c0.1-0.1,0.3-0.2,0.7-0.2c0.5,0,1.1,0,1.6,0c0.5,0,1.1,0,1.6,0c0.8,0,1.7,0,2.5,0c0.9,0,1.7,0,2.5,0
					c0.7,0,1.4,0,2.1,0c0.7,0,1.4,0,2.2,0c0.4,0,0.6,0.1,0.8,0.2c0.2,0.2,0.2,0.4,0.3,0.8c0,0.4,0,0.7,0,1.1s0,0.8-0.1,1.1
					c-0.1,0.3-0.1,0.5-0.2,0.6c-0.1,0.1-0.3,0.2-0.7,0.2c-0.5,0-0.9,0-1.4,0.1c-0.5,0-0.9,0-1.4,0.1c-0.3,0-0.6,0-0.9,0
					c-0.3,0-0.6,0-0.9,0c-0.3,0-0.5,0-0.7,0.1c-0.2,0-0.5,0-0.8,0.1v6.4h1.4c0.5,0,1,0,1.4,0c0.5,0,0.9,0,1.4,0
					c0.5,0,0.8,0.1,0.9,0.3c0.2,0.2,0.2,0.5,0.2,0.9c0,0.4,0,0.9,0,1.3c0,0.4,0,0.8-0.1,1.3c0,0.4-0.1,0.7-0.2,0.8
					c-0.1,0.2-0.4,0.3-0.8,0.3c-0.3,0.1-0.6,0.1-0.9,0.1c-0.3,0-0.6,0-0.9,0h-2.5c-0.1,1.2,0,2.3,0,3.5c0.1,1.1,0.1,2.3,0.1,3.5
					c0.4,0,0.7,0,1,0.1c0.3,0,0.6,0,1,0.1h3.2c0.2,0,0.5,0,0.7,0C277.7,313.3,277.9,313.3,278.1,313.3z"/>
			</g>
		</g>
		<g>
			<path class="st14" d="M134.3,334.7c0.1,0.6,0.1,1.1,0,1.3c-0.1,0.2-0.6,0.4-1.2,0.5c-1,0.1-2.1,0.1-3.1,0.2c-1,0-2,0.1-3.1,0.2
				c-0.2,0-0.4,0-0.6,0c-0.2,0-0.4,0-0.7,0.1c0.2,1.4,0.4,2.8,0.5,4.1c0.1,1.3,0.3,2.6,0.5,4c0.2,1.9,0.4,3.7,0.6,5.6
				c0.2,1.8,0.5,3.7,0.8,5.5c0.2,1.5,0.4,3.1,0.7,4.6c0.3,1.5,0.7,3,1.2,4.5c0.2,0.5,0.2,0.8,0.1,1c-0.1,0.2-0.5,0.3-1,0.3
				c-1.5,0.1-2.9,0.2-4.4,0.3c-1.5,0.1-2.9,0.2-4.4,0.3c-0.6,0-1,0-1.2-0.2c-0.2-0.1-0.2-0.5-0.2-1.2c0.1-3.8,0.1-7.5,0.2-11.3
				c0.1-3.7,0.1-7.5,0.2-11.3c0-1,0.1-2,0.1-3.1c0-1,0-2.1,0-3.2c-0.2,0-0.5,0-0.7,0c-0.2,0-0.5,0-0.8,0h-4.4c-0.7,0-1.1-0.3-1.1-1
				c0-1.2,0.1-2.4,0.1-3.6c0-1.2,0-2.4,0.1-3.7c0-0.2,0.1-0.4,0.3-0.6c0.2-0.2,0.4-0.3,0.7-0.3c0.6,0,1.4,0.1,2.4,0.1
				c1,0,2.1,0,3.3,0c1.2,0,2.4,0,3.7,0c1.3,0,2.5,0,3.7,0c1.1,0,2.2,0,3.1-0.1c0.9,0,1.6,0,2-0.1c0.7-0.1,1.2,0,1.3,0.3
				c0.1,0.2,0.2,0.7,0.4,1.3c0.2,1,0.4,2,0.6,2.8C133.9,332.7,134.1,333.6,134.3,334.7z"/>
			<path class="st14" d="M166.6,365.1c0.1,0.5,0.2,0.9,0.1,1s-0.4,0.3-0.9,0.4c-1.4,0.2-2.8,0.4-4.2,0.5s-2.8,0-4.2-0.1
				c-0.4-0.1-0.8-0.1-1.3-0.2c-0.4-0.1-0.9-0.1-1.3-0.2c-0.4-0.1-0.7-0.2-0.9-0.4c-0.1-0.2-0.2-0.5-0.1-0.9c0-0.7,0.1-1.5,0.2-2.5
				c0.1-1,0.1-2,0.2-3c0.1-1,0.1-1.9,0.2-2.6c0-0.7,0.1-1.2,0.1-1.3h-6.7c0,0.2,0,0.7,0.1,1.5c0.1,0.7,0.2,1.6,0.3,2.5
				c0.1,0.9,0.2,1.9,0.4,2.8c0.1,1,0.2,1.7,0.3,2.3c0,0.1,0,0.2,0,0.3c0,0.1,0,0.2,0,0.3c0,0.5,0,0.9-0.1,1
				c-0.1,0.1-0.4,0.2-0.9,0.2c-0.6,0-1.3,0-1.9,0s-1.3,0-1.9-0.1c-1.1,0-2.2-0.1-3.4-0.1c-1.1,0-2.2-0.1-3.4-0.1
				c-0.8,0-1.2-0.1-1.4-0.3c-0.1-0.2-0.1-0.6,0.1-1.4c0.3-1,0.6-2.5,1.1-4.3c0.5-1.8,1-3.8,1.5-6c0.5-2.2,1.1-4.4,1.7-6.7
				c0.6-2.3,1.1-4.5,1.7-6.6c0.5-2.1,1-3.9,1.3-5.5c0.4-1.6,0.7-2.8,0.8-3.5c0.2-0.7,0.5-1.2,0.8-1.5s0.8-0.6,1.4-0.7
				c1.2-0.3,2.4-0.5,3.5-0.8c1.2-0.3,2.3-0.5,3.5-0.8c0.3-0.1,0.7-0.1,1-0.2c0.3-0.1,0.7-0.1,1-0.2c0.6-0.1,1.1,0.1,1.3,0.7
				c0,0.1,0.2,0.7,0.5,2c0.4,1.3,0.8,2.9,1.4,5c0.6,2,1.2,4.4,1.9,6.9c0.7,2.6,1.4,5.2,2.1,7.9c0.7,2.7,1.4,5.3,2.1,7.8
				c0.7,2.5,1.3,4.8,1.8,6.7C166.6,364.9,166.6,365,166.6,365.1z M148.4,348.9c0.7,0,1.5-0.1,2.2-0.1c0.7,0,1.5-0.1,2.3-0.1
				c-0.3-1.6-0.6-3.1-1-4.6c-0.4-1.5-0.9-2.9-1.6-4.4c-0.5,1.6-1,3.1-1.3,4.6C148.7,345.7,148.5,347.3,148.4,348.9z"/>
			<path class="st14" d="M183.8,364c0.1,1.2,0.1,2-0.2,2.4c-0.3,0.4-1,0.6-2.2,0.6c-1.4,0.1-2.9,0.1-4.4,0.1c-1.5,0-2.9,0-4.4,0
				c-0.8,0-1.3-0.2-1.6-0.4c-0.2-0.3-0.4-0.8-0.4-1.7c0-0.3-0.1-0.5-0.1-0.8c0-0.3,0-0.5,0-0.8c0-0.5,0.1-0.9,0.3-1
				c0.2-0.2,0.5-0.3,1-0.3h0.9c0.2-4.8,0.3-9.6,0.5-14.3c0.1-4.7,0.3-9.5,0.4-14.3c-0.1-0.1-0.2-0.1-0.3-0.1c-0.5-0.1-0.8-0.1-1-0.2
				s-0.4-0.1-0.5-0.3c-0.1-0.1-0.2-0.3-0.2-0.6c0-0.2,0-0.6,0.1-1v-0.5c0-0.5,0.1-1,0.2-1.3c0.1-0.3,0.2-0.6,0.4-0.8
				c0.2-0.2,0.4-0.4,0.7-0.5c0.3-0.1,0.7-0.2,1.2-0.3c1.2-0.2,2.5-0.3,3.7-0.3c1.3,0,2.5,0.1,3.8,0.4c0.4,0.1,0.8,0.2,1.1,0.4
				c0.6,0.3,0.9,0.7,0.8,1.2c-0.1,1.3-0.3,2.5-0.5,3.6c0,0.1-0.1,0.2-0.2,0.3c-0.2,0.1-0.3,0.2-0.5,0.2c-0.2,0.1-0.4,0.1-0.6,0.1
				c-0.2,0-0.5,0-0.8,0c-0.1,4.8-0.1,9.5-0.1,14.1c0.1,4.6,0.3,9.3,0.9,14c0.5,0,0.9,0,1.2,0c0.3,0,0.5,0.1,0.6,0.2
				c0.1,0.1,0.2,0.3,0.3,0.6C183.7,363,183.7,363.5,183.8,364z"/>
			<path class="st14" d="M206.1,356.4c0,0.2,0.1,0.3,0.1,0.4c0,0.1,0,0.2,0,0.4c0,1.3,0,2.6,0,3.8c0,1.3,0,2.5-0.1,3.8
				c0,0.4-0.2,0.8-0.5,1.2c-0.3,0.3-0.7,0.5-1.1,0.6c-2.1,0.2-4.2,0.3-6.3,0.3c-2.7,0-5.3-0.1-7.9-0.2c-0.7,0-1.2-0.4-1.3-1.1
				c-0.1-1.1-0.3-2.2-0.4-3.3c-0.1-1.1-0.3-2.2-0.3-3.3c-0.2-2.6-0.3-5.1-0.5-7.7c-0.1-2.5-0.1-5.1,0-7.7c0-1.1,0.1-2.3,0.2-3.6
				c0.1-1.3,0.1-2.5,0.2-3.8c0.1-1.3,0.1-2.6,0.2-3.8c0.1-1.3,0.1-2.5,0.2-3.5c0-0.3,0.2-0.6,0.4-0.9c0.2-0.2,0.5-0.4,0.8-0.4
				c0.9-0.1,1.8-0.1,2.7-0.1c0.9,0,1.8,0,2.7,0c0.4,0,0.9,0.1,1.3,0.1c0.4,0,0.9,0.1,1.3,0.1c0.4,0.1,0.7,0.2,0.9,0.3
				c0.2,0.2,0.2,0.4,0.1,0.8c-0.1,0.7-0.2,1.3-0.3,2c-0.1,0.7-0.2,1.3-0.3,2c-0.2,1-0.4,2-0.5,2.9c-0.2,0.9-0.3,1.8-0.4,2.7
				c-0.1,0.9-0.3,1.8-0.4,2.8c-0.1,0.9-0.3,1.9-0.4,3c-0.2,1.5-0.4,3-0.5,4.5c-0.1,1.4-0.1,2.8-0.2,3.9c0,1.2,0,2.2,0,2.9
				c0,0.8,0.1,1.2,0.1,1.4c1.2,0.3,2.3,0.4,3.4,0.4c1.1-0.1,2.2-0.2,3.3-0.5c0.3-0.1,0.7-0.2,1-0.3c0.3-0.1,0.7-0.2,1-0.3
				c0.1,0,0.3-0.1,0.4-0.1c0.1,0,0.3,0,0.5-0.1C205.8,356,206,356.1,206.1,356.4z"/>
			<path class="st14" d="M236.6,345.9c0.9,3.4,0.9,6.6,0.2,9.6c-0.7,3-2.3,5.8-4.7,8.4c-2.7,2.9-6,3.8-9.9,2.8
				c-3-0.9-5.5-2.5-7.5-4.8c-1.6-1.8-2.8-3.8-3.7-5.9c-0.9-2.1-1.5-4.3-1.8-6.6c-0.3-1.8-0.4-3.5-0.3-5.2c0.1-1.7,0.4-3.5,0.8-5.2
				c0.7-2.6,1.9-4.9,3.7-6.9c3.1-3.5,7-4.9,11.8-4.3c1.2,0.2,2.4,0.5,3.6,0.8c1.2,0.4,2.3,0.8,3.5,1.3c0.3,0.2,0.6,0.3,0.9,0.5
				s0.6,0.3,0.9,0.5c0.6,0.3,0.8,0.8,0.6,1.5c-0.3,1-0.7,2-1,3c-0.3,1-0.6,2-0.9,3c0,0.1-0.1,0.2-0.1,0.3c-0.1,0.1-0.1,0.2-0.2,0.3
				c-0.4,0.7-1,0.8-1.5,0.1c-0.4-0.4-0.7-0.8-1-1.3c-1-1.5-2.2-2.4-3.6-2.9c-1.4-0.5-3-0.6-4.6-0.4c-1.2,0.2-2.2,0.7-3,1.5
				c-0.7,0.8-1.3,1.8-1.7,3c-0.3,1-0.5,2-0.5,2.9c0,1,0,2,0.1,2.9c0.2,2.5,0.9,4.9,2,7.2c0.3,0.6,0.6,1.2,1,1.7s0.8,1,1.2,1.5
				c1,1,2.1,1.5,3.3,1.7c1.2,0.2,2.5-0.1,3.7-0.8c0.6-0.3,1-0.7,1.4-1.1c0.4-0.4,0.7-0.7,0.9-1.1c0.2-0.4,0.4-0.7,0.5-1
				c0.1-0.3,0.2-0.5,0.2-0.6c-0.5,0.1-0.9,0.1-1.2,0.2c-0.4,0-0.7,0.1-1.1,0.1c-0.5,0-1,0-1.5,0c-0.5,0-1,0-1.5,0
				c-0.5-0.1-0.9-0.2-1.1-0.4c-0.2-0.2-0.3-0.6-0.3-1.1c0-1,0.1-1.9,0.1-2.8c0.1-0.9,0.1-1.9,0.3-2.8c0.1-0.5,0.2-0.8,0.4-0.9
				c0.2-0.1,0.5-0.2,1-0.1c0.6,0,1.4,0.1,2.4,0.1c1,0.1,2,0.1,3,0.2s1.9,0.1,2.7,0.2c0.8,0.1,1.3,0.1,1.5,0.1
				C236.1,345,236.5,345.3,236.6,345.9z"/>
			<path class="st14" d="M270.3,365.1c0.1,0.5,0.2,0.9,0.1,1c-0.1,0.2-0.4,0.3-0.9,0.4c-1.4,0.2-2.8,0.4-4.2,0.5s-2.8,0-4.2-0.1
				c-0.4-0.1-0.8-0.1-1.3-0.2s-0.9-0.1-1.3-0.2c-0.4-0.1-0.7-0.2-0.9-0.4c-0.1-0.2-0.2-0.5-0.1-0.9c0-0.7,0.1-1.5,0.2-2.5
				c0.1-1,0.1-2,0.2-3c0.1-1,0.1-1.9,0.2-2.6c0-0.7,0.1-1.2,0.1-1.3h-6.7c0,0.2,0,0.7,0.1,1.5c0.1,0.7,0.2,1.6,0.3,2.5
				c0.1,0.9,0.2,1.9,0.4,2.8c0.1,1,0.2,1.7,0.3,2.3c0,0.1,0,0.2,0,0.3c0,0.1,0,0.2,0,0.3c0,0.5,0,0.9-0.1,1
				c-0.1,0.1-0.4,0.2-0.9,0.2c-0.6,0-1.3,0-1.9,0c-0.6,0-1.3,0-1.9-0.1c-1.1,0-2.2-0.1-3.4-0.1c-1.1,0-2.2-0.1-3.4-0.1
				c-0.8,0-1.2-0.1-1.4-0.3c-0.1-0.2-0.1-0.6,0.1-1.4c0.3-1,0.6-2.5,1.1-4.3c0.5-1.8,1-3.8,1.5-6c0.5-2.2,1.1-4.4,1.7-6.7
				c0.6-2.3,1.1-4.5,1.7-6.6c0.5-2.1,1-3.9,1.3-5.5c0.4-1.6,0.7-2.8,0.8-3.5c0.2-0.7,0.5-1.2,0.8-1.5s0.8-0.6,1.4-0.7
				c1.2-0.3,2.4-0.5,3.5-0.8c1.2-0.3,2.3-0.5,3.5-0.8c0.3-0.1,0.7-0.1,1-0.2c0.3-0.1,0.7-0.1,1-0.2c0.6-0.1,1.1,0.1,1.3,0.7
				c0,0.1,0.2,0.7,0.5,2c0.4,1.3,0.8,2.9,1.4,5c0.6,2,1.2,4.4,1.9,6.9c0.7,2.6,1.4,5.2,2.1,7.9c0.7,2.7,1.4,5.3,2.1,7.8
				c0.7,2.5,1.3,4.8,1.8,6.7C270.3,364.9,270.3,365,270.3,365.1z M252.1,348.9c0.7,0,1.5-0.1,2.2-0.1c0.7,0,1.5-0.1,2.3-0.1
				c-0.3-1.6-0.6-3.1-1-4.6c-0.4-1.5-0.9-2.9-1.6-4.4c-0.5,1.6-1,3.1-1.3,4.6C252.4,345.7,252.2,347.3,252.1,348.9z"/>
			<path class="st14" d="M293.1,334.7c0.1,0.6,0.1,1.1,0,1.3c-0.1,0.2-0.6,0.4-1.2,0.5c-1,0.1-2.1,0.1-3.1,0.2c-1,0-2,0.1-3.1,0.2
				c-0.2,0-0.4,0-0.6,0c-0.2,0-0.4,0-0.7,0.1c0.2,1.4,0.4,2.8,0.5,4.1c0.1,1.3,0.3,2.6,0.5,4c0.2,1.9,0.4,3.7,0.6,5.6
				c0.2,1.8,0.5,3.7,0.8,5.5c0.2,1.5,0.4,3.1,0.7,4.6c0.3,1.5,0.7,3,1.2,4.5c0.2,0.5,0.2,0.8,0.1,1c-0.1,0.2-0.5,0.3-1,0.3
				c-1.5,0.1-2.9,0.2-4.4,0.3c-1.5,0.1-2.9,0.2-4.4,0.3c-0.6,0-1,0-1.2-0.2c-0.2-0.1-0.2-0.5-0.2-1.2c0.1-3.8,0.1-7.5,0.2-11.3
				c0.1-3.7,0.1-7.5,0.2-11.3c0-1,0.1-2,0.1-3.1c0-1,0-2.1,0-3.2c-0.2,0-0.5,0-0.7,0c-0.2,0-0.5,0-0.8,0h-4.4c-0.7,0-1.1-0.3-1.1-1
				c0-1.2,0.1-2.4,0.1-3.6c0-1.2,0-2.4,0.1-3.7c0-0.2,0.1-0.4,0.3-0.6c0.2-0.2,0.4-0.3,0.7-0.3c0.6,0,1.4,0.1,2.4,0.1
				c1,0,2.1,0,3.3,0s2.4,0,3.7,0c1.3,0,2.5,0,3.7,0c1.1,0,2.2,0,3.1-0.1c0.9,0,1.6,0,2-0.1c0.7-0.1,1.2,0,1.3,0.3
				c0.1,0.2,0.2,0.7,0.4,1.3c0.2,1,0.4,2,0.6,2.8C292.7,332.7,292.9,333.6,293.1,334.7z"/>
			<path class="st14" d="M319.3,328.9c0.1,1,0.2,2,0.3,3.1c0.1,1,0.1,2.1,0.2,3.1c0,0.2-0.1,0.3-0.3,0.3c-1.2,0-2.4,0-3.6-0.1
				c-1.2,0-2.4-0.1-3.6-0.1c-0.5,0-1,0-1.4,0c-0.4,0-0.9,0-1.5,0c-0.1,0.6-0.2,1.1-0.3,1.6c-0.1,0.4-0.1,0.9-0.1,1.3
				c0,0.4-0.1,0.9-0.1,1.4c0,0.5-0.1,1-0.1,1.6h7.4c0.4,0,0.7,0.2,0.7,0.6c0.1,0.4,0.1,0.7,0.1,0.8c0,0.9-0.1,1.7-0.1,2.5
				c0,0.8-0.1,1.7-0.1,2.5c0,0.5-0.1,0.8-0.3,1c-0.2,0.2-0.5,0.2-1,0.2c-0.6,0-1.1-0.1-1.7-0.1c-0.6-0.1-1.2-0.1-1.7-0.2
				c-0.6-0.1-1.2-0.1-1.8-0.2c-0.6-0.1-1.2-0.1-1.9-0.2c-0.1,1.6-0.2,3.3-0.3,4.8c-0.1,1.6-0.2,3.2-0.3,4.9c1.8,0.2,3.5,0.2,5.1,0
				c1.6-0.2,3.3-0.4,5.1-0.6c0.3-0.1,0.4,0.1,0.4,0.4s0,0.8,0,1.5c0,0.6,0,1.3-0.1,2.1c0,0.7,0,1.4-0.1,2.1c0,0.7,0,1.3,0,1.8
				c0,0.8-0.1,1.4-0.1,1.6c-0.1,0.3-0.3,0.4-0.9,0.4c-0.3,0-1,0.1-2.2,0.1c-1.2,0-2.7,0-4.5-0.1c-1.7-0.1-3.6-0.3-5.7-0.6
				c-2-0.3-4-0.7-5.9-1.3c-0.1,0-0.4-0.1-0.7-0.3c-0.4-0.2-0.7-0.4-0.9-0.6c-0.1-0.2-0.2-0.6-0.1-1c0.1-1.2,0.3-2.5,0.4-3.7
				c0.1-1.2,0.3-2.4,0.4-3.7c0.3-3.5,0.7-6.9,1-10.4s0.7-6.9,1-10.4c0.1-0.8,0.1-1.6,0.2-2.4c0.1-0.8,0.1-1.6,0.2-2.4
				c0-0.3,0.2-0.6,0.4-0.9c0.2-0.2,0.5-0.4,0.9-0.4c1.1,0,2.6-0.1,4.3-0.3c1.7-0.1,3.5-0.3,5.1-0.4c1.7-0.1,3.2-0.3,4.5-0.4
				c1.3-0.1,2.1-0.2,2.3-0.3c0.8-0.2,1.3-0.1,1.3,0.2C319.2,328.1,319.3,328.5,319.3,328.9z"/>
		</g>
	</g>
	<g>
		<g id="_x35_z51KG_3_">
			<g>
				<g>
					<g>
						<path class="st46" d="M261.5,214.1c-8.5-14.2-17-28.4-25.4-42.7c-0.8-1.4-1.8-1.9-3.3-2c-20.6-0.7-38.4,5.9-52.9,20.8
							c-5.5,5.6-9.8,12.1-13.3,19.7c0.2,0.5,0.4,1.4,0.8,2.1c8.5,14.3,17,28.6,25.5,42.9c0.8,1.4,1.8,1.9,3.3,2
							c28,1.4,53.5-13.7,65.6-39C262.3,216.6,262.3,215.5,261.5,214.1z M228.3,186.9c-2.7,0.5-5.3,1-7.9,1.8c0,0.1,0.1,0.3,0.1,0.4
							c1.1,4-5.2,5.8-6.3,1.7c0,0,0-0.1,0-0.1c-2.5,0.9-5,2-7.3,3.2c0.9,1.5,0.3,3.6-1.2,4.4c-1.6,0.9-3.5,0.3-4.4-1.2
							c0,0,0-0.1-0.1-0.1c-2.1,1.3-4.2,2.7-6.2,4.2c0.9,1,1.2,2.5,0.4,3.8c-0.8,1.4-3,2.2-4.4,1.2c-0.3-0.2-0.7-0.5-1-0.8
							c-2.7,2.4-5.2,5.1-7.6,7.9c-2.7,3.2-7.2-1.4-4.6-4.6c2.2-2.7,4.6-5.2,7.1-7.5c-0.1-0.1-0.3-0.2-0.4-0.4
							c-1.3-1.2-1.2-3.4,0-4.6c1.3-1.3,3.3-1.2,4.6,0c0.3,0.2,0.5,0.5,0.8,0.7c2.5-2,5.1-3.8,7.8-5.5c-0.2-0.3-0.4-0.7-0.7-1
							c-1-1.5-0.3-3.6,1.2-4.4c1.6-0.9,3.5-0.3,4.4,1.2c0.2,0.4,0.5,0.7,0.7,1.1c2.6-1.3,5.3-2.5,8-3.6c-0.6-1.4,0.2-3.2,1.4-4
							c1.6-0.9,3.4-0.2,4.4,1.2c0.2,0.2,0.3,0.4,0.5,0.7c2.9-0.8,5.9-1.5,8.9-2C230.7,180,232.4,186.2,228.3,186.9z"/>
					</g>
				</g>
				<g>
					<g>
						<path class="st46" d="M257.2,174.8c-3.8-2.4-8.1-4-12.6-4.7c7.1,11.9,14.1,23.6,21.1,35.4c0.2,0.1,0.4,0.1,0.6,0.2
							c0.4-4.6,1.4-9.1,1.2-13.7C267,180,267.5,181.1,257.2,174.8z"/>
					</g>
				</g>
				<g>
					<g>
						<path class="st46" d="M161.8,231.8c0.7,11.9,0,10.9,10.2,17.2c3.9,2.4,8.2,4,12.7,4.8c-7-11.8-14.1-23.6-21-35.3
							C162.5,220.9,161.4,226.6,161.8,231.8z"/>
					</g>
				</g>
			</g>
		</g>
		<g>
			<g>
				<g>
					<path class="st12" d="M154.8,185.5c-5.1-1.5-10.1-3-15.2-4.4c-4.9-1.4-7,6.2-2.1,7.7c5.1,1.5,10.1,3,15.2,4.4
						C157.6,194.6,159.7,186.9,154.8,185.5L154.8,185.5z"/>
				</g>
				<g>
					<path class="st12" d="M176,169.9c-1.8-3.6-3.5-7.1-5.3-10.7c-2.3-4.6-9.1-0.6-6.9,4c1.8,3.6,3.5,7.1,5.3,10.7
						C171.4,178.5,178.2,174.5,176,169.9L176,169.9z"/>
				</g>
				<g>
					<path class="st12" d="M198.2,153.3c0,2.8,0,5.6,0,8.3c0,5.1,7.9,5.1,7.9,0c0-2.8,0-5.6,0-8.3
						C206.1,148.2,198.2,148.2,198.2,153.3L198.2,153.3z"/>
				</g>
			</g>
			<g>
				<g>
					<path class="st12" d="M277.2,242.5c5.1,1.3,10.2,2.5,15.4,3.8c5,1.2,6.7-6.5,1.7-7.8c-5.1-1.3-10.2-2.5-15.4-3.8
						C274,233.5,272.3,241.2,277.2,242.5L277.2,242.5z"/>
				</g>
				<g>
					<path class="st12" d="M256.7,258.9c1.9,3.5,3.8,7,5.7,10.4c1,1.9,3.8,2.3,5.5,1.2c1.9-1.2,2.2-3.6,1.2-5.5
						c-1.9-3.5-3.8-7-5.7-10.4c-1-1.9-3.8-2.3-5.5-1.2C255.9,254.6,255.7,257,256.7,258.9L256.7,258.9z"/>
				</g>
				<g>
					<path class="st12" d="M235.1,276.3c-0.1-2.8-0.2-5.6-0.3-8.3c-0.2-5.1-8.1-4.7-7.9,0.4c0.1,2.8,0.2,5.6,0.3,8.3
						C227.4,281.8,235.3,281.4,235.1,276.3L235.1,276.3z"/>
				</g>
			</g>
		</g>
	</g>
</g>
</svg>
