<?xml version="1.0" encoding="utf-8"?>
<!-- Generator: Adobe Illustrator 22.0.1, SVG Export Plug-In . SVG Version: 6.00 Build 0)  -->
<svg version="1.1" id="Calque_1" xmlns="http://www.w3.org/2000/svg" xmlns:xlink="http://www.w3.org/1999/xlink" x="0px" y="0px"
	 viewBox="0 0 432 432" style="enable-background:new 0 0 432 432;" xml:space="preserve">
<style type="text/css">
	.st0{fill:#B78D5C;}
	.st1{fill:#EBCEC6;}
	.st2{fill:#D4B67E;}
	.st3{fill:#EF798A;}
	.st4{fill:#FBD8E3;}
	.st5{fill:#660A1E;}
	.st6{fill:#990033;}
	.st7{fill:#07512C;}
	.st8{fill:#8CC63F;}
	.st9{fill:#006837;}
	.st10{fill:#CCCCCC;}
	.st11{fill:#FFFFFF;}
	.st12{fill:#8A1A31;}
	.st13{fill:#A7A6AA;}
	.st14{fill:#D3A9B2;}
	.st15{fill:#2A2A2B;}
	.st16{fill:#DDC090;}
	.st17{fill:#AF434B;}
	.st18{fill:#62A581;}
	.st19{fill:#94C16C;}
	.st20{fill:#B9011B;}
	.st21{fill:#BABABA;}
	.st22{fill:#754C24;}
	.st23{fill:#A67C52;}
	.st24{fill:#8C6239;}
	.st25{fill:#C69C6D;}
	.st26{fill:#9E1E28;}
	.st27{fill:#D6C188;}
	.st28{fill:#BF364A;}
	.st29{fill:#A1272D;}
	.st30{fill:#BFA76B;}
	.st31{fill:#DCDEDD;}
	.st32{fill:#D89A5D;}
	.st33{fill:#F5EDDB;}
	.st34{fill:#603813;}
	.st35{fill:#4A7575;}
	.st36{fill:#7F3244;}
	.st37{fill:#9E7E5E;}
	.st38{fill:#C1272D;}
	.st39{fill:#561217;}
	.st40{fill:#C49F7A;}
	.st41{fill:#534741;}
	.st42{fill:#999999;}
	.st43{fill:#A80031;}
	.st44{fill:#1A1A1A;}
	.st45{fill:#333333;}
	.st46{fill:#B3B3B3;}
	.st47{fill:#B3A6AD;}
	.st48{fill:#B6B155;}
	.st49{fill:#679CBA;}
	.st50{fill:#0071BC;}
	.st51{fill:#F7931E;}
	.st52{fill:#821119;}
	.st53{fill:#39B54A;}
	.st54{fill:#1B1464;}
	.st55{fill:#FAF3E3;}
	.st56{fill:#DCD2BD;}
	.st57{fill:#F5EDDA;}
	.st58{fill:#815D3C;}
	.st59{fill:#F69331;}
	.st60{fill:#BCA791;}
	.st61{fill:#F9D51D;}
	.st62{fill:#704638;}
	.st63{fill:#A7DBD7;}
	.st64{fill:#DED7CD;}
	.st65{fill:#E89024;}
	.st66{fill:#EACAAC;}
	.st67{fill:#D8B195;}
	.st68{fill:#A50423;}
	.st69{fill:#CC7312;}
	.st70{fill:#9EC5FF;}
	.st71{fill:#6D86B4;}
	.st72{fill:#2E363A;}
	.st73{fill:#FFCC00;}
	.st74{fill:#B58847;}
	.st75{fill:#563315;}
	.st76{fill:#ED0A3A;}
	.st77{fill:#A62714;}
	.st78{fill:#247E5B;}
	.st79{fill:#176041;}
	.st80{fill:#61B756;}
	.st81{fill:#EDDBAE;}
	.st82{fill:#3F3F3F;}
	.st83{fill:#595959;}
	.st84{fill:#484849;}
	.st85{fill:#EFD1B4;}
	.st86{fill:#E0E0E2;}
	.st87{fill:#CCCCCE;}
	.st88{fill:#CEC76B;}
	.st89{fill:#42210B;}
	.st90{fill:#FCACBC;}
	.st91{fill:#D6B994;}
	.st92{fill:#F8C2C2;}
	.st93{fill:#E4D48E;}
	.st94{fill:#A57C53;}
	.st95{fill:#96704B;}
	.st96{fill:#9D6D47;}
	.st97{fill:#591427;}
	.st98{fill:#7CCC71;}
	.st99{fill:#C7B299;}
	.st100{fill:#998675;}
	.st101{fill:#7DC34D;}
	.st102{fill:#80694F;}
	.st103{fill:#FF1C2E;}
	.st104{fill:#A51B29;}
	.st105{fill:#00673B;}
	.st106{fill:#B88464;}
	.st107{fill:#CA986F;}
	.st108{fill:#3F2316;}
	.st109{fill:#F1F1F2;}
	.st110{fill:#00924A;}
	.st111{fill:#C7202F;}
	.st112{fill:#BBBDBF;}
	.st113{fill:#58595B;}
	.st114{fill:#D0D2D3;}
	.st115{fill:#6C6E70;}
	.st116{fill:#663818;}
	.st117{fill:#FF9134;}
	.st118{fill:#AC8D6B;}
	.st119{fill:#CE1F32;}
	.st120{fill:#00B252;}
	.st121{fill:#804D34;}
	.st122{fill:#61A6AF;}
	.st123{fill:#4C838D;}
	.st124{fill:#E6E6E6;}
	.st125{fill:#E6E7E7;}
	.st126{fill:#55396B;}
	.st127{fill:#6F4696;}
	.st128{fill:#9C2D8C;}
	.st129{fill:#915D3F;}
	.st130{fill:none;}
	.st131{fill:#00BCB9;}
	.st132{fill:#00BBB8;}
	.st133{fill:#6C328D;}
	.st134{fill:#5D4A42;}
	.st135{fill:#746559;}
	.st136{fill:#009245;}
	.st137{fill:#808184;}
	.st138{fill:#00A69C;}
	.st139{fill:#0078B8;}
	.st140{fill:#9F847A;}
	.st141{fill:#EECCB3;}
	.st142{fill:#241F20;}
	.st143{fill:#0D5408;}
	.st144{fill:#C9800A;}
	.st145{fill:#083A04;}
	.st146{fill:#BF001A;}
	.st147{fill:#AA0012;}
	.st148{fill:#9E620B;}
	.st149{fill:#A80E28;}
	.st150{fill:#0C3A1F;}
	.st151{fill:#C10A0A;}
	.st152{fill:#0A3D06;}
	.st153{fill:#A30738;}
	.st154{fill:#7F0A2E;}
	.st155{fill:#D8712B;}
	.st156{fill:#C15105;}
	.st157{fill:#F4A00B;}
	.st158{fill:#10440A;}
	.st159{fill:#A00E0E;}
	.st160{fill:#0F230D;}
	.st161{fill:#B20B33;}
	.st162{fill:#E5E5E5;}
	.st163{fill:#11722D;}
	.st164{fill:#0B281A;}
	.st165{fill:#E59D1F;}
	.st166{fill:#C60924;}
	.st167{fill:#960820;}
	.st168{fill:#AD1431;}
	.st169{fill:#E24756;}
	.st170{fill:#CE364C;}
	.st171{fill:#A50707;}
	.st172{fill:#4A9B29;}
	.st173{fill:#468E24;}
	.st174{fill:#AF0E22;}
	.st175{fill:#EDECE6;}
	.st176{fill:#54220E;}
	.st177{fill:#592C1C;}
	.st178{fill:#EFEAC7;}
	.st179{fill:#042111;}
	.st180{fill:#A80C0C;}
</style>
<g>
	<g>
		<path d="M167.5,196.5c-0.7,2.6-1.4,5.3-2.1,7.9c-0.8,2.8-1.8,5.6-2.7,8.4c-0.3,0.9-0.7,1.7-1.3,2.5c-1.6,2.2-4.2,2.4-6,0.5
			c-0.9-0.9-1.6-2.1-2.2-3.2c-0.6-1.1-1.1-2.4-1.6-3.6c-2.4-6.4-4.2-12.9-5-19.7c-0.6-5-1.2-10-1.7-15c-0.4-4.2-0.7-8.4-1.2-12.6
			c-0.3-2.9-0.7-5.8-1.5-8.6c-0.2-0.6-0.4-1.2-0.6-1.8c-0.3-0.8-0.9-1.3-1.7-1.6c-1.1-0.3-2.2-0.6-3.3-0.4c-0.6,2.3-1.3,4.6-1.9,6.9
			c-2.8,10.4-5.5,20.9-7.7,31.5c-0.9,4.3-1.6,8.6-2.4,12.9c-0.1,0.3-0.1,0.6-0.2,0.9c-0.4,1.3-0.9,1.8-2.4,2.1c-1,0.2-2-0.4-2.4-1.6
			c-0.3-1-0.6-2-0.7-3.1c-0.9-6.5-1.8-13-2.6-19.5c-0.8-6.3-1.4-12.6-2-18.8c-0.4-4.5-0.8-9-1.1-13.5c-0.3-5.2-0.7-10.4-0.9-15.6
			c-0.4-8.3-0.8-16.6-0.8-24.9c0-4.5,0.2-9,1-13.5c0.3-1.6,1-2.6,2.4-3.2c1.7-0.7,3.4-1,5.2-0.8c1.3,0.1,2.2,0.7,3,1.7
			c0.8,1.1,1.3,2.4,1.5,3.7c0.3,2.1,0.7,4.2,0.8,6.3c0.4,5.2,0.4,10.3,0.4,15.5c0,5.1,0.1,10.3,0.2,15.4c0.1,5.3,0.2,10.5,0.4,15.8
			c0.1,3.3,0.2,6.5,0.4,9.8c0.1,1.3,0.1,2.7,0.2,4c0,0.3,0.1,0.6,0.3,0.9c0.1-0.3,0.2-0.6,0.3-0.9c2.9-11.1,6.1-22.1,10-32.8
			c3.5-9.7,7.6-19.2,12.3-28.4c1.2-2.4,2.5-4.7,4.1-6.8c0.4-0.5,0.9-1,1.4-1.5c0.5-0.5,1-0.5,1.4-0.2c0.5,0.3,0.5,0.8,0.3,1.3
			c-0.3,0.9-0.7,1.8-1,2.7c-2.9,6.7-5.9,13.4-8.8,20.2c-4.1,9.7-7.5,19.7-10.5,29.8c-0.1,0.2-0.1,0.5-0.2,0.8
			c0.3-0.1,0.5-0.1,0.7-0.2c2-0.8,4.1-1.3,6.3-1.6c1.4-0.2,2.8-0.1,4.2,0.2c2.1,0.5,3.7,1.6,5,3.3c1.4,1.8,2.2,3.9,2.8,6.1
			c0.7,2.4,1.1,4.8,1.2,7.3c0.2,3.1,0.3,6.2,0.4,9.3c0.2,3.8,0.3,7.6,0.6,11.4c0.4,5.5,0.9,10.9,2.3,16.3c0.5,1.9,1.1,3.8,1.8,5.7
			c0.1-0.2,0.2-0.5,0.3-0.7c1.3-4.1,2.5-8.2,3.8-12.3c0.1-0.4,0.1-0.9,0.1-1.4c0-3.4-0.2-6.7-0.1-10.1c0.2-6.4,0.4-12.9,0.8-19.3
			c0.3-4.9,0.8-9.8,1.3-14.8c0.1-1.4,0.4-2.8,0.7-4.2c0.2-0.9,0.7-1.7,1.5-2.3c1.2-0.9,2.5-1.6,4-1.8c2-0.3,3.5,0.5,4.2,2.4
			c0.3,0.8,0.5,1.7,0.6,2.5c0.1,2,0.1,4.1,0.1,6.1c0,1.4-0.1,2.8-0.2,4.1c-0.2,3.3-0.3,6.7-0.5,10c0,0.8-0.1,1.7-0.1,2.5
			c-0.1,4.7-0.2,9.3-0.1,14c0.1,4.1,0.3,8.1,1,12.4c0.2-0.4,0.4-0.6,0.5-0.8c1.4-3.1,2.5-6.3,3.5-9.6c2.8-9.2,5.7-18.4,9-27.4
			c1.1-2.9,2.3-5.7,3.6-8.5c0.4-0.8,0.9-1.6,1.4-2.4c0.3-0.5,0.7-1,1.2-1.4c1.9-1.7,4.3-1.3,5.5,0.9c0.6,1,0.9,2.2,1,3.4
			c0.4,2.7,0.5,5.5,0.4,8.3c-0.2,4.5-0.4,8.9-0.6,13.4c0,0.9-0.1,1.8,0,2.7c0.3-1.5,0.7-3,1-4.6c1.2-5.2,2.5-10.3,4.4-15.2
			c0.9-2.3,2-4.5,3-6.6c0.7-1.4,1.7-2.7,2.8-3.9c0.8-0.8,1.6-1.5,2.7-2c1.7-0.7,3.3-0.5,4.9,0.5c1,0.7,1.8,1.6,2.3,2.6
			c1,1.9,1.5,3.9,1.8,6c0.5,3,0.6,5.9,0.6,8.9c0,5.2-0.1,10.5,0,15.7c0,3.5,0.1,6.9,0.3,10.4c0.1,2.1,0.3,4.2,1,6.3
			c0.2-0.2,0.4-0.3,0.6-0.5c0.8-1.1,1.6-2.1,2.3-3.2c1.6-2.8,3.2-5.7,4.8-8.6c1.6-2.9,3.1-5.8,4.6-8.7c0.2-0.4,0.4-0.9,0.4-1.4
			c0.7-4.9,1.7-9.8,3.8-14.3c2.6-5.6,6.4-10.1,11.8-13.2c3.4-2,7-2.8,10.9-2.3c1.8,0.2,3.5,0.8,5.2,1.5c0.3,0.1,0.5,0.2,0.8,0.4
			c0.1-0.2,0.2-0.4,0.3-0.6c0.6-1.5,1.7-2.3,3.2-2.7c1.4-0.4,2.9-0.3,4.3,0.2c1.3,0.4,2.1,1.4,2.3,2.8c0.2,1.5,0,2.9-0.2,4.3
			c-0.5,4.2-1.6,8.3-2.5,12.4c-2.2,9.8-4.5,19.6-6.7,29.4c-0.1,0.2-0.1,0.5-0.1,0.8c0.3-0.1,0.6-0.2,0.8-0.3
			c4.6-1.5,9.1-3.1,13.7-4.6c2-0.7,4.2-1.1,6.2-1.6c0.3-0.1,0.6-0.1,0.9-0.1c0.9,0,1.6,0.6,1.8,1.4c0.2,0.8-0.1,1.6-0.8,2.1
			c-0.4,0.2-0.8,0.4-1.2,0.5c-4.4,1.4-8.9,2.8-13.3,4.2c-2.7,0.9-5.2,2.1-7.9,3.1c-0.6,0.2-0.8,0.6-0.9,1.2
			c-1.1,3.9-2.2,7.9-3.3,11.7c-1.2,4-2.5,7.9-3.9,11.9c-1,2.8-2.2,5.5-3.7,8.1c-0.8,1.5-1.9,2.8-2.9,4.2c-0.7,1-1.5,1.8-2.3,2.8
			c-2.4,2.9-5.4,5.2-8.9,6.8c-4.5,2-8.8,1.7-12.9-1.1c-3-2.1-4.4-5.2-4.9-8.7c-0.5-4.1,0.5-8,2.2-11.7c2.5-5.2,6.2-9.6,10.4-13.5
			c3.9-3.6,8.4-6.3,13.1-8.7c2-1,4.1-1.9,6.1-2.8c0.5-0.2,0.8-0.5,0.9-1c1.2-5.8,2.4-11.5,3.6-17.3c0-0.1,0-0.2,0-0.6
			c-0.3,0.5-0.4,0.8-0.6,1.1c-1.5,2.9-3.2,5.7-5.3,8.3c-1.8,2.1-3.8,4-6.3,5.3c-1.2,0.6-2.5,1.1-3.9,1.2c-2.1,0.2-3.9-0.5-5.5-1.9
			c-1.5-1.4-2.5-3.1-3.2-5c-0.4-1.2-0.7-2.5-1-3.7c-0.1-0.2-0.1-0.5-0.2-0.9c-0.2,0.4-0.4,0.7-0.5,1c-2.3,4.3-4.6,8.6-7,13
			c-0.4,0.7-0.9,1.4-1.3,2.1c-0.9,1.5-2.2,2.5-3.7,3.2c-1.8,0.8-3.4,0.6-5-0.5c-1.1-0.8-1.8-1.8-2.5-2.9c-1-1.9-1.7-4-2.1-6.1
			c-0.7-3.3-1-6.7-1-10.1c-0.1-5.1-0.1-10.2-0.2-15.3c-0.1-3.2-0.5-6.4-0.7-9.6c0-0.4-0.1-0.8-0.2-1.4c-0.2,0.4-0.4,0.7-0.5,0.9
			c-2.3,4.5-4,9.2-5.5,14c-2.1,6.6-3.5,13.4-4.6,20.2c-0.7,4.8-1.5,9.6-2.3,14.4c-0.3,1.8-0.9,3.6-1.8,5.3c-0.8,1.5-2,2.4-3.8,2.2
			c-1.1-0.1-2.2,0-3.2-0.2c-3.1-0.7-4.8-2.6-4.9-5.8c-0.1-2.2,0-4.4,0.2-6.5c0.4-4.4,0.8-8.9,1.3-13.3c0.3-3.3,0.6-6.6,1-9.9
			c0.3-2.9,0.7-5.8,1.1-8.7c0-0.3,0.1-0.7-0.1-1c-0.1,0.3-0.3,0.7-0.4,1c-2.3,7.1-4.6,14.2-7,21.3c-1.1,3.3-2.2,6.5-3.4,9.7
			c-1,2.5-2.3,4.9-3.9,7.1c-0.8,1.1-1.7,2.1-2.8,2.9c-2.6,1.9-5.6,1.6-7.5-1.1c-0.6-0.8-1-1.8-1.4-2.7c-0.2-0.3-0.3-0.6-0.4-1
			C167.6,196.5,167.6,196.5,167.5,196.5z M262.6,194.2c-0.5,0.2-0.8,0.3-1,0.5c-1.8,1-3.6,2-5.4,3c-4.5,2.7-8.6,5.8-12.1,9.7
			c-2.7,3.1-5.1,6.3-6.6,10.2c-1,2.4-1.5,4.9-1.1,7.5c0.2,1.7,0.8,3.2,2,4.4c1.1,1.1,2.4,1.7,4,1.6c1.6,0,3.1-0.6,4.4-1.4
			c2-1.2,3.7-2.9,5-4.9c1.5-2.2,2.8-4.5,3.8-7C258.8,210.3,260.6,202.3,262.6,194.2z M273.4,141.3c-1.1-0.5-2-0.4-3,0
			c-1.3,0.5-2.4,1.2-3.4,2.1c-2.3,2-4.2,4.3-5.7,6.9c-3.2,5.4-5.2,11.2-6.5,17.3c-0.5,2.3-0.9,4.5-0.8,6.9c0,1,0.2,1.9,0.7,2.8
			c0.5,0.9,1.2,1,1.9,0.3c1.4-1.4,2.7-3,3.7-4.6c1.6-2.4,2.9-5,4-7.6c3.3-7.7,6.2-15.5,9-23.4C273.4,141.7,273.4,141.5,273.4,141.3z
			"/>
		<path d="M170.8,134.1c-2.4,0-4.3-2.3-4-4.8c0.1-0.6,0.2-1.1,0.4-1.7c0.8-2.6,3.8-3.7,6.1-2.3c1.9,1.1,2.7,3.2,2.2,5.2
			C174.8,132.7,173,134.1,170.8,134.1z"/>
	</g>
	<g>
		<path class="st0" d="M100,280.1c0,0.8,0,1.5,0,2.1c0.3,5.8,0.5,11.6,0.8,17.3c0,0.5,0.1,1,0,1.6c0,2.4-1.3,3.5-3.7,3.4
			c-1.2,0-2.4-0.3-3.5-0.3c-11.2-0.8-22.4-0.8-33.6-0.4c-1,0-2.1,0.1-3.1,0c-2.5-0.2-3.4-1.8-2.3-4c0.7-1.4,1.6-2.9,2.7-4
			c3.9-4.3,7.9-8.4,11.9-12.7c1.3-1.4,2.7-2.7,4-4.2c1.4-1.7,1.5-2.6,0.3-4.4c-1.6-2.3-3.3-4.6-5.2-6.7c-3.3-3.8-6.7-7.4-10-11.1
			c-1.1-1.3-2.3-2.5-3.3-3.9c-1.7-2.2-1.2-4.1,1.5-5.1c1.9-0.7,4-1.1,6-1.4c17-2.7,34.1-4.2,51.4-4.7c2.1-0.1,4.2-0.2,6.2-0.2
			c5.4,0.1,8,2.2,9.2,7.5c1.3,6,1.6,12.1,1.4,18.1c-0.1,2.9-1.5,4.9-4.2,5.9c-1.3,0.5-2.7,1-4,1.3c-6.5,1.6-13.1,3.2-19.6,4.8
			C101.8,279.5,100.9,279.8,100,280.1z"/>
		<path class="st0" d="M354.5,311c1.9,2,3.6,3.8,5.3,5.6c2.6,2.6,5.4,5.1,7.9,7.8c1.1,1.2,2.2,2.5,3,3.9c1.9,3.4,0.4,6.1-3.5,6.2
			c-2.4,0-4.7-0.3-7.1-0.5c-13.7-1.3-27.3-2.5-41-3.8c-3.8-0.4-7.5-0.9-11.2-1.3c-0.7-0.1-1.3-0.3-1.9-0.5c-3.1-1.1-4.4-2.7-4.4-5.9
			c0-4.7,0.3-9.5,0.4-14.2c0-0.7,0.2-1.5,0.4-2.2c0.6-2.6,2.1-4.4,4.7-5.1c2.8-0.7,5.6-1.2,8.4-2c2.6-0.7,5.1-1.4,7.7-2.2
			c2.7-0.9,4.1-2.8,4.2-5.7c0.2-3.5,0.5-7,0.7-10.4c0.1-2.5,0.7-3.4,3.3-3.4c4.1,0,8.2,0.1,12.2,0.4c7.2,0.5,14.3,1.1,21.5,1.7
			c3.1,0.2,6.2,0.2,9.3,0.5c3.5,0.2,4.3,1.9,2.3,4.8c-1.1,1.6-2.5,3-3.7,4.4c-5.5,6.5-11.1,12.9-16.6,19.4
			C355.9,309.1,355.4,309.9,354.5,311z"/>
	</g>
	<g>
		<path class="st0" d="M163.6,238.3c-0.2,4.7-0.4,8.4-1.5,11.9c-0.4,1.3-0.9,2.6-1.5,3.9c-0.6,1.4-1.6,2.5-2.8,3.5
			c-1.8,1.5-3.8,1.6-5.8,0.3c-1.2-0.7-2.1-1.7-2.9-2.9c-1.7-2.5-2.6-5.2-3-8.2c-0.6-4.8-0.2-9.5,1.5-14.1c0.7-1.9,1.6-3.7,2.7-5.4
			c1-1.5,2.3-2.6,4.1-2.9c2.7-0.6,5,0.4,6.6,2.6c1.3,1.7,2,3.7,2.2,5.8C163.5,235,163.6,237.2,163.6,238.3z M159.7,237.7
			c0-1.5,0-3.4-0.4-5.3c-0.2-1.1-0.5-2.2-1.2-3.2c-1-1.3-2.7-1.6-4-0.6c-1,0.8-1.8,1.8-2.3,3.1c-1.7,4.7-2.2,9.6-1.5,14.6
			c0.3,2.3,0.9,4.5,2.2,6.4c0.4,0.7,1,1.3,1.6,1.8c0.5,0.5,0.9,0.5,1.4,0c0.5-0.6,1-1.2,1.4-1.8c0.7-1.2,1.2-2.5,1.5-3.9
			C159.4,245.3,159.7,241.7,159.7,237.7z"/>
		<path class="st0" d="M170.5,245.2c1.4-0.1,2.8-0.2,4.2-0.2c0.4,0,0.8-0.1,1.2-0.1c0.1,0,0.3,0,0.4,0c1.1,0.1,2,0.8,2.1,1.7
			c0.1,0.9-0.5,1.7-1.6,2.1c-0.4,0.1-0.7,0.2-1.1,0.2c-1.6,0.1-3.2,0.2-4.7,0.2c-0.1,0-0.3,0-0.5,0c0,0.3,0,0.5,0,0.7
			c0.1,1.5,0.2,3,0.3,4.5c0,0.4,0.1,0.9,0,1.3c-0.1,0.5-0.2,1-0.5,1.4c-0.8,1.2-2.2,1.2-3.2,0.2c-0.4-0.5-0.6-1.1-0.7-1.8
			c-0.1-1.1-0.2-2.1-0.3-3.2c-0.3-4.5-0.6-9-0.8-13.5c-0.1-3.2,0-6.3,0.7-9.4c0.1-0.4,0.2-0.7,0.3-1c0.9-2.7,2.8-4.1,5.6-4.3
			c0.9,0,1.8,0.1,2.7,0.2c0.9,0.2,1.5,0.8,1.5,1.5c0,0.7-0.5,1.3-1.5,1.6c-0.5,0.1-1.1,0.2-1.6,0.3c-0.4,0.1-0.8,0.2-1.1,0.3
			c-0.6,0.2-1.1,0.6-1.2,1.3c-0.1,0.7-0.3,1.4-0.4,2.1c-0.3,3.3-0.2,6.5-0.2,9.8c0,1.2,0.1,2.4,0.1,3.7
			C170.4,244.8,170.4,245,170.5,245.2z"/>
	</g>
	<g>
		<path class="st0" d="M252.3,287.1c-1.2-6.9-8.2-6.7-9.4-0.5c-0.5,2.5-0.3,5,0.6,7.5c2,5.9,5.5,7.1,8,1.3c1-2.4,1.2-5,0.9-7.7
			C252.4,287.5,252.3,287.3,252.3,287.1z"/>
		<path class="st0" d="M206.3,278.6c-0.7-1.4-1.6-2.5-2.8-3.4c-0.7-0.5-0.8-0.5-1.5,0.1c-0.2,0.2-0.4,0.5-0.6,0.7
			c-0.9,1.3-1.5,2.8-1.7,4.5c-0.2,1.6-0.1,3.3,0.2,4.9c0.7,3.7,1.9,7.1,3.6,10.4c1.4,2.7,3,5.2,5,7.5c0.5-0.7,0.6-1.5,0.8-2.3
			c0.7-4,0.6-8,0-12C208.9,285.3,208,281.9,206.3,278.6z"/>
		<path class="st0" d="M246,277.3c2-1.1,2.9-3.1,2.6-5.9c-0.1-1-0.6-2.2-1.1-2.9c-0.8-1.1-1.4-1.1-2.2-0.1c-1.7,2.3-1.8,5.9-0.3,8.5
			C245.3,277.5,245.5,277.6,246,277.3z"/>
		<path class="st0" d="M326.6,248.4c-0.3-3.1-1.6-4.2-4.7-4c-2.7,0.2-5.5,0.3-8.2,0.8c-13.2,2.2-26.3,4.5-39.5,6.8
			c-12.5,2.1-25,4.4-37.5,6.4c-16.9,2.7-33.9,5.1-50.8,7.8c-23.5,3.8-46.9,8.1-70.2,13.3c-2.9,0.6-5.8,1.3-8.7,2
			c-2,0.5-2.4,1.1-2.5,2.9c-0.2,7.9-0.4,15.7-0.6,23.6c0.1,0,0.1,0,0.2,0c0,7.6,0,15.1,0,22.7c0,0.6,0,1.2,0,1.8
			c0.2,1.9,1.2,3,3.2,3.1c1,0.1,2.1,0,3.1-0.1c8.4-1.4,16.9-2.5,25.2-4.2c17.7-3.7,35.4-7.6,53-11.4c12.9-2.8,25.8-5.6,38.7-8.2
			c19.1-3.7,38.2-7.1,57.3-10.8c11.5-2.2,23-4.6,34.5-6.8c3.5-0.7,5.4-2.5,5.8-6c0.4-3,0.8-6,0.9-9.1c0.3-9.1,0.5-18.3,0.7-27.4
			C326.7,250.4,326.7,249.4,326.6,248.4z M188.8,311c-0.3,0.1-0.7,0.3-1,0.3c-1.8,0.4-3.6,0.7-5.3,1.2c-2.8,0.7-5.7,1.4-8.4,2.2
			c-0.7,0.2-1.4,0.4-2.1,0.6c-0.2,0.1-0.4,0.1-0.6,0.1c-0.8,0-1.6-0.2-2.1-1c-0.5-0.9-0.4-1.8,0.1-2.7c0.4-0.7,0.9-1.4,1.3-2.1
			c2.1-3.2,3.9-6.6,5-10.5c1.1-3.7,1.8-7.6,1.7-11.6c0-1.4-0.2-2.7-0.7-4c-1.1-2.5-3-3.2-4.9-2.3c-2.1,1.1-3.8,2.9-5,5.2
			c-0.4,0.8-0.7,1.7-0.5,2.7c0.1,1-0.3,1.6-1.1,1.8c-0.8,0.2-1.5-0.3-1.8-1.2c-0.2-0.7-0.3-1.4-0.2-2.1c0.1-0.9,0.3-1.7,0.6-2.4
			c1.1-2.3,2.4-4.4,4.2-6c1.8-1.6,3.7-2.9,5.9-3.7c1.9-0.8,3.8-1.1,5.9-0.4c2.2,0.7,3.8,2.2,5,4.5c1.2,2.4,1.6,5,1.7,7.7
			c0.1,5.4-1.1,10.4-3.1,15.2c-0.9,2.2-1.8,4.4-2.9,6.4c-0.1,0.1-0.1,0.2-0.1,0.5c2.5-0.6,5-1.2,7.4-1.8c0.9-0.2,1.8,0.3,2.1,1.3
			C190,309.8,189.7,310.6,188.8,311z M212.6,300.7c-0.3,1.9-0.8,3.8-1.8,5.4c-1.3,2.2-3.2,3.5-5.6,3.9c-2,0.3-3.9-0.2-5.6-1.4
			c-1.7-1.1-3.1-2.6-4.3-4.2c-2.7-3.4-4.7-7.1-5.7-11.4c-1.5-6-1-11.7,2-17.1c1.5-2.7,3.7-4.5,6.8-4.7c0.8-0.1,1.5-0.4,2.3-0.4
			c1.5-0.1,2.9,0.4,4.2,1.2c1.9,1.2,3.3,2.9,4.3,4.9c1.5,3,2.7,6.8,3.5,12.1C213,292.3,213.2,296.5,212.6,300.7z M233.3,302.8
			c0,1.6-0.7,2.5-1.8,2.9c-1.3,0.4-2.7,0.8-4.1,0.7c-1.8-0.1-3.1-1.2-3.6-3.4c-0.2-0.8-0.3-1.7-0.5-2.5c-1.1-7.5-2.3-15.1-3.3-22.6
			c-0.1-0.7-0.2-1.5-0.4-2.4c-1.3,1.5-2.6,2.9-3.8,4.4c-0.7,0.9-1.7,1.1-2.5,0.2c-0.8-0.9-0.8-2.3,0.1-3.1c2.2-2.2,4.2-4.7,6.1-7.1
			c0.7-0.8,1.5-1.3,2.5-1.5c1.3-0.2,2.6-0.5,3.9-0.7c1.6-0.2,2.7,0.6,3.2,2.6c0.1,0.5,0.2,1.1,0.3,1.6c0.9,6.3,1.7,12.7,2.6,19.1
			c0.5,3.5,0.9,6.9,1.2,10.4C233.3,301.8,233.3,302.3,233.3,302.8z M253.7,298c-1.6,3-4,4.8-7,5.5c-4.6,1-8.6-1-10.7-5.7
			c-1.8-3.9-2.2-7.9-0.8-11.9c0.7-2.1,2-3.8,3.6-5.2c0.2-0.2,0.4-0.4,0.6-0.6c0,0,0.1-0.1,0.1-0.2c-2.5-2.1-3.2-5-2.9-8.2
			c0.3-3.2,3.2-7.3,7.2-7.5c0.5,0,0.9-0.1,1.4-0.1c2.9,0.2,5,2,5.9,5.3c0.9,3.3,0.7,6.3-1.3,9c-0.1,0.1-0.1,0.2-0.2,0.4
			c0.8,0.4,1.6,0.8,2.3,1.4c1.7,1.6,2.9,3.7,3.3,6.1C256.1,290.4,255.7,294.4,253.7,298z"/>
	</g>
	<g>
		<polygon class="st0" points="276.4,319.9 289,321.8 279.8,330.6 281.8,343.2 270.6,337.2 259.3,343 261.6,330.5 252.5,321.5 
			265.1,319.8 270.9,308.4 		"/>
		<polygon class="st0" points="98,209.4 110.6,211.4 101.4,220.2 103.4,232.7 92.2,226.7 80.9,232.5 83.1,220 74.1,211.1 
			86.7,209.3 92.4,198 		"/>
		<polygon class="st0" points="208.5,229.4 215.6,230.5 210.4,235.4 211.6,242.5 205.3,239.1 199,242.4 200.2,235.3 195.2,230.3 
			202.2,229.4 205.4,223 		"/>
	</g>
</g>
</svg>
