<?xml version="1.0" encoding="utf-8"?>
<!-- Generator: Adobe Illustrator 22.0.1, SVG Export Plug-In . SVG Version: 6.00 Build 0)  -->
<svg version="1.1" id="Calque_1" xmlns="http://www.w3.org/2000/svg" xmlns:xlink="http://www.w3.org/1999/xlink" x="0px" y="0px"
	 viewBox="0 0 432 432" style="enable-background:new 0 0 432 432;" xml:space="preserve">
<style type="text/css">
	.st0{fill:#B78D5C;}
	.st1{fill:#EBCEC6;}
	.st2{fill:#D4B67E;}
	.st3{fill:#EF798A;}
	.st4{fill:#FBD8E3;}
	.st5{fill:#660A1E;}
	.st6{fill:#990033;}
	.st7{fill:#07512C;}
	.st8{fill:#8CC63F;}
	.st9{fill:#006837;}
	.st10{fill:#CCCCCC;}
	.st11{fill:#FFFFFF;}
	.st12{fill:#8A1A31;}
	.st13{fill:#A7A6AA;}
	.st14{fill:#D3A9B2;}
	.st15{fill:#2A2A2B;}
	.st16{fill:#DDC090;}
	.st17{fill:#AF434B;}
	.st18{fill:#62A581;}
	.st19{fill:#94C16C;}
	.st20{fill:#B9011B;}
	.st21{fill:#BABABA;}
	.st22{fill:#754C24;}
	.st23{fill:#A67C52;}
	.st24{fill:#8C6239;}
	.st25{fill:#C69C6D;}
	.st26{fill:#9E1E28;}
	.st27{fill:#D6C188;}
	.st28{fill:#BF364A;}
	.st29{fill:#A1272D;}
	.st30{fill:#BFA76B;}
	.st31{fill:#DCDEDD;}
	.st32{fill:#D89A5D;}
	.st33{fill:#F5EDDB;}
	.st34{fill:#603813;}
	.st35{fill:#4A7575;}
	.st36{fill:#7F3244;}
	.st37{fill:#9E7E5E;}
	.st38{fill:#C1272D;}
	.st39{fill:#561217;}
	.st40{fill:#C49F7A;}
	.st41{fill:#534741;}
	.st42{fill:#999999;}
	.st43{fill:#A80031;}
	.st44{fill:#1A1A1A;}
	.st45{fill:#333333;}
	.st46{fill:#B3B3B3;}
	.st47{fill:#B3A6AD;}
	.st48{fill:#B6B155;}
	.st49{fill:#679CBA;}
	.st50{fill:#0071BC;}
	.st51{fill:#F7931E;}
	.st52{fill:#821119;}
	.st53{fill:#39B54A;}
	.st54{fill:#1B1464;}
	.st55{fill:#FAF3E3;}
	.st56{fill:#DCD2BD;}
	.st57{fill:#F5EDDA;}
	.st58{fill:#815D3C;}
	.st59{fill:#F69331;}
	.st60{fill:#BCA791;}
	.st61{fill:#F9D51D;}
	.st62{fill:#704638;}
	.st63{fill:#A7DBD7;}
	.st64{fill:#DED7CD;}
	.st65{fill:#E89024;}
	.st66{fill:#EACAAC;}
	.st67{fill:#D8B195;}
	.st68{fill:#A50423;}
	.st69{fill:#CC7312;}
	.st70{fill:#9EC5FF;}
	.st71{fill:#6D86B4;}
	.st72{fill:#2E363A;}
	.st73{fill:#FFCC00;}
	.st74{fill:#B58847;}
	.st75{fill:#563315;}
	.st76{fill:#ED0A3A;}
	.st77{fill:#A62714;}
	.st78{fill:#247E5B;}
	.st79{fill:#176041;}
	.st80{fill:#61B756;}
	.st81{fill:#EDDBAE;}
	.st82{fill:#3F3F3F;}
	.st83{fill:#595959;}
	.st84{fill:#484849;}
	.st85{fill:#EFD1B4;}
	.st86{fill:#E0E0E2;}
	.st87{fill:#CCCCCE;}
	.st88{fill:#CEC76B;}
	.st89{fill:#42210B;}
	.st90{fill:#FCACBC;}
	.st91{fill:#D6B994;}
	.st92{fill:#F8C2C2;}
	.st93{fill:#E4D48E;}
	.st94{fill:#A57C53;}
	.st95{fill:#96704B;}
	.st96{fill:#9D6D47;}
	.st97{fill:#591427;}
	.st98{fill:#7CCC71;}
	.st99{fill:#C7B299;}
	.st100{fill:#998675;}
	.st101{fill:#7DC34D;}
	.st102{fill:#80694F;}
	.st103{fill:#FF1C2E;}
	.st104{fill:#A51B29;}
	.st105{fill:#00673B;}
	.st106{fill:#B88464;}
	.st107{fill:#CA986F;}
	.st108{fill:#3F2316;}
	.st109{fill:#F1F1F2;}
	.st110{fill:#00924A;}
	.st111{fill:#C7202F;}
	.st112{fill:#BBBDBF;}
	.st113{fill:#58595B;}
	.st114{fill:#D0D2D3;}
	.st115{fill:#6C6E70;}
	.st116{fill:#663818;}
	.st117{fill:#FF9134;}
	.st118{fill:#AC8D6B;}
	.st119{fill:#CE1F32;}
	.st120{fill:#00B252;}
	.st121{fill:#804D34;}
	.st122{fill:#61A6AF;}
	.st123{fill:#4C838D;}
	.st124{fill:#E6E6E6;}
	.st125{fill:#E6E7E7;}
	.st126{fill:#55396B;}
	.st127{fill:#6F4696;}
	.st128{fill:#9C2D8C;}
	.st129{fill:#915D3F;}
	.st130{fill:none;}
	.st131{fill:#00BCB9;}
	.st132{fill:#00BBB8;}
	.st133{fill:#6C328D;}
	.st134{fill:#5D4A42;}
	.st135{fill:#746559;}
	.st136{fill:#009245;}
	.st137{fill:#808184;}
	.st138{fill:#00A69C;}
	.st139{fill:#0078B8;}
	.st140{fill:#9F847A;}
	.st141{fill:#EECCB3;}
	.st142{fill:#241F20;}
	.st143{fill:#0D5408;}
	.st144{fill:#C9800A;}
	.st145{fill:#083A04;}
	.st146{fill:#BF001A;}
	.st147{fill:#AA0012;}
	.st148{fill:#9E620B;}
	.st149{fill:#A80E28;}
	.st150{fill:#0C3A1F;}
	.st151{fill:#C10A0A;}
	.st152{fill:#0A3D06;}
	.st153{fill:#A30738;}
	.st154{fill:#7F0A2E;}
	.st155{fill:#D8712B;}
	.st156{fill:#C15105;}
	.st157{fill:#F4A00B;}
	.st158{fill:#10440A;}
	.st159{fill:#A00E0E;}
	.st160{fill:#0F230D;}
	.st161{fill:#B20B33;}
	.st162{fill:#E5E5E5;}
	.st163{fill:#11722D;}
	.st164{fill:#0B281A;}
	.st165{fill:#E59D1F;}
	.st166{fill:#C60924;}
	.st167{fill:#960820;}
	.st168{fill:#AD1431;}
	.st169{fill:#E24756;}
	.st170{fill:#CE364C;}
	.st171{fill:#A50707;}
	.st172{fill:#4A9B29;}
	.st173{fill:#468E24;}
	.st174{fill:#AF0E22;}
	.st175{fill:#EDECE6;}
	.st176{fill:#54220E;}
	.st177{fill:#592C1C;}
	.st178{fill:#EFEAC7;}
	.st179{fill:#042111;}
	.st180{fill:#A80C0C;}
</style>
<g>
	<g>
		<g>
			<path class="st15" d="M162.1,108.1v19.3h27.6c0,0,3,112,0,119.1c-3,7.2-15.2,7.6-15.2,7.6v16.3h64.9v-16.5c0,0-16.3-0.2-16.3-7.6
				s0-159.9,0-159.9h-23.7C199.5,86.4,195.3,108.1,162.1,108.1z"/>
			<g>
				<circle class="st0" cx="173.2" cy="116.7" r="5.9"/>
				
					<ellipse transform="matrix(0.9975 -7.088961e-02 7.088961e-02 0.9975 -7.5245 13.8075)" class="st0" cx="190.8" cy="112.9" rx="5.9" ry="5.9"/>
				<circle class="st0" cx="206.7" cy="101.1" r="5.9"/>
				<circle class="st0" cx="206.7" cy="121.9" r="5.9"/>
				<circle class="st0" cx="206.7" cy="141.2" r="5.9"/>
				<circle class="st0" cx="206.7" cy="160.4" r="5.9"/>
				<circle class="st0" cx="206.7" cy="181.2" r="5.9"/>
				<circle class="st0" cx="206.7" cy="200.4" r="5.9"/>
				<circle class="st0" cx="206.7" cy="219.7" r="5.9"/>
				<circle class="st0" cx="206.7" cy="240.5" r="5.9"/>
				<circle class="st0" cx="206.7" cy="260.3" r="5.9"/>
				
					<ellipse transform="matrix(0.9975 -7.088961e-02 7.088961e-02 0.9975 -17.9838 13.9461)" class="st0" cx="187.5" cy="260.3" rx="5.9" ry="5.9"/>
				
					<ellipse transform="matrix(9.853815e-02 -0.9951 0.9951 9.853815e-02 -53.9259 461.1531)" class="st0" cx="227.6" cy="260.3" rx="5.9" ry="5.9"/>
			</g>
		</g>
		<g>
			<path d="M140.5,280.7v3.3h-3.6l1.4,19.6c0.2,2.9,0.5,6.6-1.1,9.8c-1.6,3.3-4.7,4.9-7.4,4.9c-0.8,0-1.6-0.1-2.2-0.4
				c-2.1-0.8-3.7-2.7-4.4-5.1c-0.6-2-0.6-4.1-0.5-5.9l3.3,0.1c0,1.7-0.1,3.4,0.4,4.9c0.4,1.5,1.3,2.6,2.4,3c2,0.8,4.5-0.9,5.4-2.9
				c1.2-2.4,0.9-5.4,0.8-8.1l-1.4-19.8h-3.8v-3.3H140.5z"/>
			<path d="M164,319.3c-0.2-2-0.3-3.8-0.4-5.6c-5.2-0.1-10.4-0.2-15.6-0.1c-0.1,0.5-0.1,0.9-0.2,1.3c-0.3,1.6-0.4,2.8-0.6,3.6
				l-3.3-0.6c0.1-0.8,0.3-2,0.6-3.6c3.8-23.7,6.9-32.7,11.3-33.4c3-0.5,4.8,3,5.4,4.1c4.1,7.9,4.8,17.1,6.1,34L164,319.3z
				 M163.2,310.4c-0.9-11-2-17.9-5-23.7c-1.1-2-1.8-2.4-1.9-2.4c-0.1,0-2.1,0.5-4.9,11.4c-1.2,4.8-2.2,10.2-2.9,14.6
				C153.4,310.2,158.3,310.2,163.2,310.4z"/>
			<path d="M184.8,318l-10.3-25.4l1.2,24l-3.3,0.2l-1.7-34.7l2.9-0.7l11.8,29.2l-0.9-27.5l3.3-0.1l1.1,35L184.8,318z"/>
			<path d="M205.7,317.2c-1.1,0.8-2.3,1.2-3.5,1.2c-0.9,0-1.9-0.3-2.8-0.8c-5.8-3.3-8.2-16.7-6.5-35.7l3.3,0.3
				c-0.9,9.5-0.7,17.7,0.5,23.6c1.3,6.6,3.5,8.4,4.3,8.9c0.5,0.3,1.4,0.6,2.7-0.3c3.6-2.5,7.9-13.7,4.4-32.8l3.3-0.6
				C215.1,300.5,211,313.4,205.7,317.2z"/>
			<path d="M236.3,319.3c-0.2-2-0.3-3.8-0.4-5.6c-5.2-0.1-10.4-0.2-15.6-0.1c-0.1,0.5-0.1,0.9-0.2,1.3c-0.3,1.6-0.5,2.8-0.6,3.6
				l-3.3-0.6c0.1-0.8,0.3-2,0.6-3.6c3.8-23.7,6.9-32.7,11.3-33.4c3-0.5,4.8,3,5.4,4.1c4.1,7.9,4.8,17.1,6.1,34L236.3,319.3z
				 M235.5,310.4c-0.9-11-2-17.9-5-23.7c-1.1-2-1.8-2.4-1.9-2.4c-0.1,0-2.1,0.5-4.9,11.4c-1.2,4.8-2.2,10.2-2.9,14.6
				C225.7,310.2,230.6,310.2,235.5,310.4z"/>
			<path d="M266.5,314.5c-1.4,2-2.8,3-4.4,3c0,0-0.1,0-0.1,0c-2.3,0-4-2.1-5.7-4.1c-1.2-1.4-2.4-3-3.7-3.5l0.2,6.7l-3.3,0.1
				l-0.8-31.1c-1.2,0.5-2.5,1.2-3.8,2l-1.8-2.8c8.9-5.8,14.7-3.2,17.4-1.1c4.7,3.7,6.6,11.1,4.5,17.2c-1.4,3.9-4.2,6.7-8,8
				c0.7,0.7,1.4,1.5,2,2.3c1,1.2,2.3,2.8,3.1,2.8c0,0,0,0,0,0c0.2,0,0.8-0.1,1.8-1.6L266.5,314.5z M251.9,284.8l0.5,21.7
				c6.1-0.4,8.4-4.2,9.2-6.6c1.7-4.7,0.2-10.7-3.4-13.5C256.5,285.1,254.4,284.5,251.9,284.8z"/>
			<path d="M290.8,285.6l-9.7,31.6l-3.2-1l4.3-14.1L269.9,286l2.7-2l10.9,14.2l4.2-13.6L290.8,285.6z"/>
		</g>
	</g>
	<g>
		<path class="st0" d="M330.5,71.7c0-7.2-2-6.9-26.2-6.9H118.1c-9.4,0-17.1,7.7-17.1,17.1v247.4c0,4.5,1.7,8.6,4.5,11.6
			c12.7,19,13.8,26.3,24.6,26.3H323c8.1,0,8-12.1,8-32C331,243.1,330.5,80.4,330.5,71.7z M107.8,81.9c0-5.7,4.6-10.3,10.3-10.3h180
			c5.7,0,10.3,4.6,10.3,10.3v247.4c0,5.7-4.6,10.3-10.3,10.3h-180c-2.6,0-5.1-1-6.9-2.6c-2.1-1.9-3.4-4.6-3.4-7.6V81.9z"/>
	</g>
</g>
</svg>
