<?xml version="1.0" encoding="utf-8"?>
<!-- Generator: Adobe Illustrator 21.1.0, SVG Export Plug-In . SVG Version: 6.00 Build 0)  -->
<svg version="1.1" id="Calque_1" xmlns="http://www.w3.org/2000/svg" xmlns:xlink="http://www.w3.org/1999/xlink" x="0px" y="0px"
	 viewBox="0 0 432 432" style="enable-background:new 0 0 432 432;" xml:space="preserve">
<style type="text/css">
	.st0{fill:#020203;}
	.st1{fill:#E52629;}
	.st2{fill:#676767;}
	.st3{fill:#B4B4B4;}
	.st4{fill:#9A9999;}
	.st5{fill:#343434;}
	.st6{fill:#4E4D4D;}
	.st7{fill:#1B1B1B;}
	.st8{fill:#CDCCCC;}
	.st9{fill:#FFFFFF;}
	.st10{fill:#1B68B2;}
	.st11{fill:#FCC923;}
	.st12{fill:#C1292E;}
	.st13{fill:#754D24;}
	.st14{fill:#603914;}
	.st15{fill:#412413;}
	.st16{fill:#8C633A;}
	.st17{fill:#E7E6E6;}
	.st18{fill:#C29934;}
	.st19{fill:#9F1E29;}
	.st20{fill:#066938;}
	.st21{fill:#C49253;}
	.st22{fill:#1D71B8;}
	.st23{fill:#36A9E1;}
	.st24{fill:#00A19A;}
	.st25{fill:#53B9EA;}
	.st26{fill:#49B8B2;}
	.st27{fill:#75A5BD;}
	.st28{fill:#82171C;}
	.st29{fill:#571419;}
</style>
<g>
	<path class="st0" d="M305.3,194.5c-4.7-32.1-17.8-67.2-73-71.9c-55.2-4.7-81.1,40.2-86.1,64.3c-1.8,8.7,13.1-1,25.5,14.5
		c-2,10.6-4.2,21.2-6.6,31.6c-0.9,0-1.9-0.1-2.8-0.1c-5-0.2-10-0.7-15-1c-5-0.3-10.1-0.7-15.2-0.7c-2.6,0-5.1,0-7.8,0.4
		c-0.7,0.1-1.4,0.3-2.2,0.5c-0.4,0.1-0.8,0.3-1.3,0.6c-0.4,0.3-1,0.7-1.3,1.5c-0.1,0.2-0.2,0.5-0.2,0.5l-0.1,0.3l-0.1,0.5l-0.1,1
		c-0.1,0.6-0.1,1.3-0.2,1.9c-0.4,5-0.4,9.9-0.3,14.8c0.1,4.9,0.3,9.8,0.9,14.8c0.3,2.5,0.6,4.9,1.1,7.4c0.5,2.5,1.1,5,2.3,7.6
		c0.3,0.7,0.7,1.3,1.3,2c0.6,0.7,1.4,1.5,2.8,1.8c0.3,0.1,0.7,0.1,1,0.2l0.6,0l1,0c0.7,0,1.3,0,2-0.1c2.7-0.2,5.4-0.8,8-1.7
		c15.6-5.5,20.8-18,24.4-31.3c3.4-0.1,6.9-0.2,10.3,0.1c-3.3-0.5-6.7-0.8-10.1-0.9c1.9-7.3,3.4-14.1,4.3-19.2
		c2.2-0.2,7.3-0.6,8.6-2.3c-1.5,1.5-6.4,1.4-8.4,1.4c1.8-9.8,3.4-19.7,4.7-29.6c20.4,29.8,2.4,73.1,33.4,77.6
		c13.5,2,38-18.6,48-20.2c10.1-1.6,43.7,12.1,43.5,6.4c-0.1-1.8,0.7-6.8,1.4-14.7C301,249.6,310.1,226.7,305.3,194.5z M128.2,282.5
		c-3.1-1.3-4.5-19.9-4.7-23.2c9.9-2.8,25.8-4.3,36.1-4.9C154.8,269.4,146.4,282.8,128.2,282.5z M159.9,253.1
		c-10.6-0.3-26.3-0.2-36.7,1.7c-0.3-6.7-0.4-15.2,0.1-18.9c3.5-2.3,28.9-0.9,41.6-1.6C164.8,234.7,162.2,245.6,159.9,253.1z
		 M206.2,264.8c-2.8-0.2-4.9-2.6-4.7-5.3c0.2-2.7,2.7-4.7,5.4-4.5c2.8,0.2,4.9,2.6,4.7,5.3C211.4,263,209,265,206.2,264.8z
		 M241.7,242c-0.4,5.7-5.6,9.9-11.4,9.5c-5.9-0.5-10.3-5.4-9.8-11.1c0.4-5.7,5.6-9.9,11.4-9.5C237.8,231.3,242.1,236.3,241.7,242z
		 M288.1,229.2c0.2-38.8-9.1-70-52.2-79.6c-29.2-6.5-50.1,4.4-68.1,18.5c11.3-17.9,49.8-40.3,78.3-29.3
		C280,151.9,303.9,186,288.1,229.2z"/>
	<g>
		<path class="st0" d="M142,101l-0.1-0.6L142,101L142,101c1.7-0.3,3.5-0.5,5-0.2c1.4,0.3,2.7,1.5,2.9,2.8c0.3,1.5-1.2,2.7-2.5,3.5
			c-0.7,0.4-2.6,1.5-5.1-2.9l-0.3-0.5l-4.2,2.4l0.3,0.5c2.6,4.5,5.5,5.7,7.9,5.7c1.8,0,3.2-0.7,3.9-1.1c3.6-2.1,5.4-5.2,4.8-8.4
			c-0.5-3.3-3.4-6.1-6.7-6.8c-2.3-0.5-4.6-0.1-6.7,0.2c-3.8,0.6-4.1,0.3-4.3-0.4c-0.6-1.6,1-3.6,2.9-4.5c0.4-0.2,2.7-1.2,3.6,0.3
			l0.3,0.5l4.2-2.4l-0.3-0.5c-1.9-3.3-5.9-4.2-9.9-2.3c-3.9,1.8-7,6.2-5.3,10.6C134.2,102.2,138.7,101.5,142,101z"/>
		<polygon class="st0" points="150.9,85.5 158.1,101.5 155.5,102.7 157.5,107.1 167.2,102.7 165.2,98.2 162.5,99.5 155.3,83.5 
			157.9,82.3 155.9,77.9 146.2,82.3 148.2,86.8 		"/>
		<polygon class="st0" points="166.3,78.7 173.8,101.2 178.4,99.7 170.8,77 177.7,74.4 176,69.9 157.9,76.6 159.6,81.1 		"/>
		<path class="st0" d="M215.9,84.3c1.9-4.5,1.3-9.4-1.7-13.2c-4.1-5.2-11.8-7.3-21-5.8l-0.6,0.1l0.8,4.8l0.6-0.1
			c0.4-0.1,0.8-0.1,1.2-0.2l2.2,21c-0.5,0.1-1.1,0.1-1.7,0.2l-0.6,0.1l0.4,4.8l0.6-0.1C205.9,95,213.1,90.8,215.9,84.3z M200,69.7
			c6.4,0.3,9.4,3.2,10.4,4.4c1.9,2.4,2.3,5.4,1,8.3c-1.4,3.3-4.7,5.9-9.3,7.4L200,69.7z"/>
		<path class="st0" d="M230.1,92.9c0.4,0,0.9,0.1,1.3,0.1c3.7,0,6.7-1.2,8.9-3.6c2-2.2,3.3-5.4,3.5-8.9c0.5-6.5-2.3-13.8-11.7-14.5
			c-4.3-0.3-7.8,0.9-10.2,3.6c-2,2.2-3.3,5.4-3.5,8.9c-0.3,3.6,0.5,6.9,2.1,9.4C222.6,90.8,225.9,92.6,230.1,92.9z M223.2,78.8
			c0.5-6.6,4.3-8.1,7.7-8.1c0.3,0,0.6,0,0.9,0c1.4,0.1,3.4,0.5,5,1.9c1.8,1.6,2.5,4.1,2.3,7.4c-0.3,3.4-1.4,5.7-3.4,7
			c-1.7,1.1-3.8,1.2-5.2,1.1c-1.4-0.1-3.4-0.5-5-1.9C223.7,84.6,223,82.1,223.2,78.8z"/>
		<polygon class="st0" points="257.4,84.8 258.2,98.1 262.6,99.3 275.6,75.2 271.3,72.9 262.5,89.2 261.8,76.2 257.7,75.1 
			250.8,86.2 251,67.6 246.1,67.6 245.9,95 250.3,96.1 		"/>
		<polygon class="st0" points="272,102.6 279.4,85.8 283.9,108.1 288,110 299.4,85.4 295,83.3 287.3,100.1 282.6,77.6 278.5,75.7 
			267.6,100.6 		"/>
		<path class="st0" d="M142.5,329l-1.4-1.1c6.4-9.4,6.6-13.1,6-15.2c-0.4-1.5-1.5-2.7-3.1-3.2c-3.9-1.3-9.2,0.9-16.3,6.7
			c-0.2,0.2-0.5,0.4-0.7,0.6l-2-1.6l-3,3.8l1.3,1c-2.7,2.5-4.4,4.5-4.5,4.5l-0.4,0.5l3.6,3.3l0.4-0.5c1.4-1.6,3.1-3.2,4.8-4.8
			l7.3,5.8c-1.5,2-3.1,4-4.6,5.9l-0.4,0.5l3.7,3.1l0.4-0.5c0,0,2.2-2.5,4.7-6l1.2,0.9L142.5,329z M137.3,324.9l-6.4-5.1
			c5.2-4.3,9.5-6.4,11.5-5.8C142.7,315.2,141.5,318.7,137.3,324.9z"/>
		<polygon class="st0" points="168,327.4 158.5,343.3 156.3,320.4 152.4,318 138.9,341.6 143.1,344 152.2,328.1 154.3,350.9 
			158.2,353.2 172.2,329.9 		"/>
		<path class="st0" d="M174.9,329.2l-0.6-0.2l-1.2,4.7l0.6,0.2c0.4,0.1,0.8,0.2,1.2,0.3l-6.3,20.1c-0.5-0.1-1.1-0.3-1.6-0.5
			l-0.6-0.2l-1.5,4.6l0.6,0.2c3.5,1.2,6.9,1.7,10,1.7c5.1,0,9.5-1.5,12.7-4.5c3.6-3.4,5-8.1,3.8-12.8
			C190.2,336.4,184,331.4,174.9,329.2z M179.4,335.9c5.8,2.8,7.3,6.6,7.8,8.2c0.8,3-0.1,5.9-2.4,8h0c-2.6,2.4-6.6,3.5-11.4,3.1
			L179.4,335.9z"/>
		<polygon class="st0" points="229.8,339.5 225.4,357.5 221.4,345.1 217.3,345.1 213.3,357.5 208.9,339.5 204.2,340.6 210.7,367.2 
			215.3,367.2 219.3,354.5 223.4,367.2 228,367.2 234.5,340.6 		"/>
		<path class="st0" d="M255.4,355l1.4-0.4l-1.3-4.7l-1.7,0.5c-3.8-10.8-6.7-13-8.8-13.8c-1.5-0.6-3.1-0.4-4.4,0.6
			c-3.4,2.3-4.7,7.9-4.2,17.1c0,0.3,0,0.6,0.1,0.9l-2.4,0.7l1.3,4.7l1.6-0.4c0.5,3.7,1,6.3,1,6.3l0.1,0.6l4.7-1l-0.1-0.6
			c-0.4-2.1-0.8-4.4-1.1-6.7l9-2.5c0.7,2.4,1.4,4.9,2,7.2l0.1,0.6l4.7-1.1l-0.1-0.6C257.5,362.4,256.7,359.1,255.4,355z
			 M243.5,341.2c1.1,0.5,3.2,3.5,5.7,10.6l-7.8,2.2C241,347.2,241.8,342.5,243.5,341.2z"/>
		<polygon class="st0" points="269.5,332.9 267.6,328.4 249.8,335.8 251.7,340.3 258.3,337.5 266.7,359.7 271.2,358 262.7,335.7 		
			"/>
		<path class="st0" d="M295.6,332.9l-4.1,2.6l0.3,0.5c1.8,2.9,0,6.9-2.9,8.7c-1.7,1-5.9,2.8-9.9-3.4c-3.8-5.9-4.4-10.9-1.7-13.7
			c2.2-2.2,5.8-2.4,7.7-1.2l0.5,0.3l2.5-4.1l-0.5-0.3c-4.1-2.5-10.2-1.7-13.7,2c-6.3,6.4-1.3,15.9,1.1,19.7c3.1,4.9,7,6.7,10.5,6.7
			c2.1,0,4.2-0.7,5.8-1.6l0.3-0.2c2.4-1.6,4.4-4,5.3-6.7c1-3,0.7-6.1-0.9-8.7L295.6,332.9z"/>
		<polygon class="st0" points="313.5,320.2 314.5,319.2 311.1,315.8 310.3,316.6 300.4,305.5 296.8,308.8 306.9,320 300.8,326 
			290.5,314.4 286.9,317.7 297.4,329.5 296.4,330.4 299.9,333.8 300.6,333.1 304.9,337.9 308.6,334.7 304.1,329.6 310.1,323.6 
			314.9,329 318.5,325.8 		"/>
	</g>
	<g>
		<path class="st0" d="M300.2,105.1c-0.9,1.9-1.9,3.8-2.9,5.7c31.1,24.2,51.1,62,51.1,104.4c0,34.7-13.4,66.2-35.3,89.9
			c1.8,1.2,3.5,2.3,5.3,3.5c22.5-24.7,36.2-57.4,36.2-93.3C354.6,170.4,333.2,130.5,300.2,105.1z"/>
		<path class="st0" d="M77.4,215.2c0,38,15.4,72.5,40.2,97.6c1.5-1.5,2.9-3,4.3-4.5c-23.7-23.9-38.3-56.8-38.3-93
			c0-41.5,19.2-78.7,49.3-103c-1.7-1.4-3.3-2.7-5-4C97.1,133.7,77.4,172.2,77.4,215.2z"/>
	</g>
</g>
</svg>
