<?xml version="1.0" encoding="utf-8"?>
<!-- Generator: Adobe Illustrator 22.0.1, SVG Export Plug-In . SVG Version: 6.00 Build 0)  -->
<svg version="1.1" id="Calque_1" xmlns="http://www.w3.org/2000/svg" xmlns:xlink="http://www.w3.org/1999/xlink" x="0px" y="0px"
	 viewBox="0 0 432 432" style="enable-background:new 0 0 432 432;" xml:space="preserve">
<style type="text/css">
	.st0{fill:#333333;}
	.st1{fill:#B46233;}
	.st2{fill:#99874F;}
	.st3{fill:#DEBA7C;}
	.st4{fill:#D38D5E;}
	.st5{fill:#AD665C;}
	.st6{fill:#C19D56;}
	.st7{fill:#B57254;}
	.st8{fill:#534741;}
	.st9{fill:#EC904F;}
	.st10{fill:#1A1A1A;}
	.st11{fill:#A29D3E;}
	.st12{fill:#A84B3D;}
	.st13{fill:#E3B550;}
	.st14{fill:#C7B299;}
	.st15{fill:#998675;}
	.st16{fill:#736357;}
	.st17{fill:#96C4CC;}
	.st18{fill:#9595BA;}
	.st19{fill:#BF8AA9;}
	.st20{fill:#B3B3B3;}
	.st21{fill:#B68C57;}
	.st22{fill:#87C3D8;}
	.st23{fill:#A39D58;}
	.st24{fill:#88783D;}
	.st25{fill:#879B88;}
	.st26{fill:#AA4A3A;}
	.st27{fill:#999999;}
	.st28{fill:#AFAA74;}
	.st29{fill:#D3BDA9;}
	.st30{fill:#93B4BC;}
</style>
<g>
	<g>
		<g>
			<path class="st7" d="M127.9,71.4c0.1,2.9,0.3,5.9,0.5,8.9c0.1,3.3,0.3,6.6,0.3,9.9c0.1,4.1,0.1,8.2,0.1,12.3
				c0,2.4-0.1,4.7-0.1,7.1c-0.1,0.8-0.3,1.7-0.5,2.6c-0.1,0.4-0.4,0.9-0.7,1.3c-0.6,0.8-1.1,0.9-2,0.5c-0.2-0.1-0.4-0.2-0.6-0.3
				c-0.6-0.3-1.1-0.3-1.7-0.1c-0.3,0.1-0.6,0.3-0.9,0.4c-1.1,0.4-2,0.1-2.5-0.9c-0.3-0.7-0.6-1.5-0.8-2.3c-0.2-1-0.3-2-0.3-2.9
				c-0.2-3.6-0.3-7-0.4-10.6c-0.1-6.9-0.2-13.9-0.3-20.8c-0.1-2.2-0.3-4.4-0.4-6.6c-0.3-0.5-0.8-0.3-1.3-0.3c-1.3,0-2.6,0-4-0.1
				c-0.4,0-1-0.1-1.4-0.3c-0.6-0.3-0.7-1-0.1-1.5c0.3-0.3,0.6-0.4,1-0.6c0.6-0.1,1.3-0.3,2-0.4c2.2-0.3,4.4-0.5,6.6-0.4
				c3.4,0.1,6.8,0.1,10.2,0.3c1,0,1.9,0,2.8,0.1c0.5,0.1,1,0.1,1.5,0.3c0.9,0.2,1.5,0.8,1.5,1.4c-0.1,0.8-0.6,1.3-1.3,1.5
				c-0.6,0.2-1.3,0.3-2,0.3c-1.3,0.1-2.5,0-3.8,0c-0.3,0-0.7,0.1-1.2,0.1C127.9,70.6,127.9,70.9,127.9,71.4z"/>
			<path class="st7" d="M173.3,67.6c0-0.3,0-0.7,0-1c0.1-1.4,1.3-2.2,2.6-1.7c0.5,0.1,0.8,0.6,1,1c0.1,0.3,0.1,0.6,0.1,1
				c0.3,7.9,0.6,15.8,0.2,23.8c-0.1,3.8-0.5,7.6-1.3,11.3c-0.3,1.9-0.9,3.6-1.7,5.4c-0.8,2-2,3.6-3.6,5.1c-1.3,1.1-2.6,2-4.3,2.3
				c-2.9,0.8-6,0.8-9,0.2c-3.8-0.8-6.7-2.9-8.5-6.4c-1.3-2.5-2.4-5.1-2.9-7.9c-0.6-2.9-1.1-5.9-1.5-8.9c-0.6-4-1-8.1-1.1-12.2
				c-0.1-3.3-0.1-6.7,0.3-10c0.1-0.8,0.3-1.6,0.8-2.3c0.8-0.9,1.6-1,2.6-0.3c0.1,0.1,0.3,0.2,0.4,0.3c0.8,0.6,1.7,0.6,2.6,0
				c0.3-0.2,0.8-0.5,1.1-0.7c0.9-0.4,1.7-0.1,2.1,0.7c0.3,0.5,0.5,1.1,0.6,1.7c0.2,1.7,0.4,3.3,0.6,5c0.3,4.6,0.5,9.2,0.8,13.9
				c0.3,4.3,0.8,8.6,2,12.8c0.6,2,1.3,3.9,2.2,5.7c0.4,0.8,0.9,1.7,1.5,2.4c1,1.3,2.3,2.2,4,2.5c2.2,0.3,4-0.3,5.3-2.2
				c0.6-0.8,1-1.7,1.3-2.6c0.9-2.4,1.3-4.9,1.7-7.4c0.3-3.3,0.3-6.6,0.3-9.9c0-2.4,0-4.9,0-7.3h-0.1
				C173.3,76.9,173.3,72.3,173.3,67.6z"/>
			<path class="st7" d="M196.7,105c0.1,1.5,0.1,3.1,0.2,4.7c0,0.7-0.1,1.4-0.3,2.1c-0.1,0.6-0.5,1.3-0.8,1.7
				c-0.4,0.7-1.1,0.9-1.9,0.8c-0.2-0.1-0.4-0.1-0.6-0.2c-1-0.6-2.1-0.5-3.1,0.1c-1,0.5-1.8,0.1-2.3-0.9c-0.3-0.6-0.4-1.2-0.4-1.7
				c-0.6-6.6-1-13.1-1.5-19.7c-0.3-6-0.1-12-0.2-18c0-1,0.1-2,0.2-2.9c0.1-0.3,0.1-0.6,0.1-0.8c0.4-1.3,1-1.7,2.4-1.3
				c0.2,0.1,0.4,0.1,0.6,0.3c0.9,0.4,1.8,0.3,2.6-0.1c0.3-0.1,0.5-0.3,0.8-0.3c0.8-0.3,1.2-0.2,1.7,0.6c0.6,1.1,0.8,2.4,1,3.6
				c0.1,0.3,0.1,0.7,0.1,1.3c0.3-0.3,0.5-0.4,0.6-0.6c0.5-0.7,0.9-1.4,1.4-2c2.8-3.7,6.5-5.9,11-6.3c3.7-0.3,7,0.8,9.5,3.6
				c2,2.2,3.2,4.8,3.8,7.7c1.2,6,0.5,11.9-2.5,17.2c-2.5,4.5-6.2,7.6-11.2,8.9c-1.7,0.5-3.4,0.6-5.2,0.3c-0.5-0.1-1-0.2-1.7-0.1
				c0.2,0.3,0.3,0.6,0.5,0.8c2.2,2.9,5,5.3,8.2,7.3c1,0.6,2.2,1.2,3.4,1.5c0.9,0.3,1.7,0.6,2.5,1.3c0.6,0.5,0.6,1.3-0.1,1.6
				c-0.5,0.2-0.9,0.3-1.5,0.3c-0.6-0.2-1.2-0.3-1.7-0.5c-2.4-0.9-4.6-2.1-6.7-3.5c-3.1-2-5.6-4.6-7.7-7.7c-0.3-0.3-0.4-0.9-1-1.1
				C196.7,103.6,196.7,104.3,196.7,105z M196.5,91.6c0.1,1.8,0.7,3.5,1.5,5c0.3,0.7,0.9,1.3,1.5,1.8c2.2,2.2,5,2.4,7.8,1.9
				c2.8-0.6,5.1-2.1,7-4.3c1.7-2,2.8-4.2,3.6-6.6c1.1-3.6,1.3-7.4,0.8-11.1c-0.1-1.6-0.6-3.1-1.1-4.7c-0.6-1.5-1.5-2.9-2.7-4.1
				c-1.5-1.5-3.3-2.2-5.4-2.2c-0.9,0-1.9,0.1-2.8,0.3c-2.5,0.6-4.7,1.9-6.3,4c-1.3,1.7-2.2,3.7-2.7,5.8c-0.8,3.3-1.1,6.8-1.3,10.5
				C196.4,88.9,196.5,90.3,196.5,91.6z"/>
			<path class="st7" d="M241.1,108.5c0,0.7,0.1,1.5,0.1,2.2c-0.1,0.6-0.1,1.2-0.3,1.7c-0.4,1.3-1,1.5-2.3,1c-0.1,0-0.2-0.1-0.3-0.1
				c-1.2-0.8-2.2-0.8-3.3,0.3c-0.8,0.7-1.4,0.5-2-0.3c-0.6-1-0.8-2-1-3.1c-0.1-0.8-0.1-1.6-0.2-2.4c-0.8-10-1.3-19.9-1.2-29.9
				c0.1-3.2,0-6.3,0-9.6c0-0.6,0.1-1.3,0.5-1.8c0.4-0.5,0.8-0.6,1.3-0.3c0.2,0.1,0.4,0.2,0.6,0.3c0.8,0.6,1.7,0.6,2.6,0.2
				c0.3-0.1,0.6-0.2,0.9-0.3c1-0.2,1.6,0.1,2,1c0.3,0.8,0.6,1.5,0.8,2.3c0.6,2.7,0.9,5.5,1,8.3c0.1,4.7,0.3,9.3,0.3,13.9
				c0.1,0.3,0.1,0.7,0.1,1c0.4,0.3,0.5,0,0.6-0.3c1.3-2.4,2.6-4.7,3.9-7c3-5.5,6.2-10.9,9.6-16c0.6-0.9,1.3-1.8,1.9-2.6
				c0.3-0.4,0.7-0.8,1.1-1c0.3-0.4,0.8-0.5,1.4-0.4c0.8,0.1,1.2,0.8,0.8,1.7c-0.3,0.6-0.7,1.2-1,1.7c-3.6,5.4-6.8,11-10,16.7
				c-2.4,4.3-4.7,8.6-6.8,13.2c-0.5,1-0.5,2,0,2.9c1.2,2.6,2.9,4.9,4.9,6.7c2.2,1.7,4.3,3.4,6.8,4.5c0.6,0.3,1.2,0.6,1.7,1
				c0.5,0.3,0.8,0.6,0.8,1.3c-0.1,0.6-0.6,1.1-1.3,1.3c-0.8,0.2-1.6,0-2.4-0.3c-1.9-0.8-3.6-1.9-5.2-3.1c-2.4-1.6-4.5-3.4-6.6-5.7
				C241.1,107.6,241.1,108,241.1,108.5z"/>
			<path class="st7" d="M279.5,96.9c2.6,0.1,5.2,0.3,7.8,0.3c0.5,0,1,0,1.5,0.1c0.3,0,0.6,0.1,0.8,0.3c0.5,0.3,0.6,0.9,0.1,1.4
				c-0.4,0.4-1,0.6-1.7,0.6c-2.1,0.1-4.1,0.1-6.2,0.1c-1.1,0-2.2-0.1-3.3-0.1c-0.3,0-0.5,0.1-0.8,0.1c0.2,2.1,0.5,4,1.1,6
				c0.3,1,0.7,1.9,1.2,2.8c0.9,1.6,2.4,2.6,4.3,2.5c1-0.1,2.2-0.2,3.3-0.3c0.6-0.1,1.2-0.2,1.7-0.1c1.1,0.1,1.5,1,0.8,1.8
				c-0.3,0.6-0.8,0.9-1.4,1c-2.5,0.7-5,1.3-7.7,1.4c-1.8,0-3.6-0.2-5.4-0.6c-1.1-0.3-2-0.8-2.9-1.5c-1-1-1.7-2.1-2.2-3.3
				c-0.9-2-1.4-4.2-1.6-6.4c-0.4-3.7-0.7-7.4-1-11.1c-0.3-3.5-0.6-6.9-0.8-10.3c-0.1-2.5-0.1-5.1-0.1-7.6c0-0.6,0.1-1.1,0.1-1.6
				c0.7-3.6,3.1-6.1,6.8-6.9c3.8-0.8,7.5-0.6,11.1,0.6c0.6,0.2,1.3,0.5,1.7,0.8c0.8,0.5,0.7,1.3-0.2,1.7c-0.6,0.3-1.1,0.3-1.7,0.2
				c-0.7-0.1-1.4-0.3-2.1-0.4c-0.7-0.1-1.4-0.3-2.1-0.3c-2.2-0.2-3.6,0.8-4.4,2.7c-0.4,1.2-0.6,2.4-0.6,3.6c0.1,2.4,0.3,4.9,0.4,7.3
				c0.1,2.4,0.3,4.7,0.6,7.1c0.2,2.6,0.4,5.2,0.7,7.9C278.1,96.7,278.8,96.9,279.5,96.9z"/>
			<path class="st7" d="M312,80.3c1.8-4.3,3.8-8.6,6.1-12.7c0.2-0.4,0.5-0.8,0.8-1.3c0.3-0.5,0.6-0.8,1.2-0.8c1-0.1,2,0.4,1.5,1.7
				c-0.3,0.8-0.6,1.7-1,2.5c-1.6,3.4-3.3,6.8-4.9,10.1c-0.3,0.5-0.5,1-0.7,1.5c-0.8,2-1.3,4-1.2,6.3c0.3,7,0.6,13.9,0.8,20.8
				c0.1,1.1,0.1,2.2,0.1,3.4c0,0.6-0.1,1.3-0.3,2c-0.3,0.8-0.8,1.1-1.5,1c-0.3,0-0.6-0.1-0.8-0.1c-0.6-0.1-1.2,0-1.7,0.3
				c-0.3,0.1-0.5,0.3-0.7,0.4c-0.6,0.3-1,0.1-1.5-0.3c-0.6-0.6-0.9-1.4-1-2.3c-0.1-1.5-0.4-3.1-0.5-4.7c-0.3-4-0.5-8.2-0.8-12.3
				c-0.1-1.5-0.2-2.9-0.3-4.4c-0.1-1.1-0.3-2.1-0.9-3.1c-1.5-2.8-2.9-5.6-4.4-8.4c-1.6-2.9-3.1-5.9-4.3-9c-0.2-0.5-0.3-0.9-0.5-1.3
				c-0.2-0.7-0.2-1.5,0.1-2.2c0.5-0.9,1.1-1.2,2.1-0.9c0.3,0.1,0.6,0.2,0.9,0.3c0.6,0.2,1.1,0.1,1.6-0.1c0.2-0.1,0.4-0.2,0.6-0.3
				c1.2-0.4,1.7-0.3,2.4,0.8c0.3,0.5,0.6,1,0.8,1.6c1.7,3.4,3.5,6.9,5.2,10.3c0.3,0.7,0.8,1.3,1.3,2c0.1,0.2,0.3,0.3,0.6,0.5
				C311.7,81.3,311.8,80.8,312,80.3z"/>
		</g>
		<g>
			<path class="st8" d="M99.4,134.5c0,0.7,0,1.5,0,2.2c0,0.7,0,1.5-0.1,2.2c-0.1,0.7-0.3,1.2-0.6,1.5c-0.3,0.3-0.8,0.5-1.6,0.6
				c-0.7,0-1.4,0.1-2.1,0.1c-0.7,0-1.4,0-2.1,0H85v11h1.7c1.1,0,2.1,0,3.2,0c1.1,0,2.1,0,3.2,0c1.3,0,2.2,0.2,2.6,0.7
				c0.4,0.5,0.6,1.3,0.6,2.6c0,0.7,0,1.3-0.1,2c0,0.7-0.1,1.3-0.2,2c-0.1,0.7-0.3,1.1-0.5,1.4c-0.3,0.3-0.7,0.5-1.4,0.6
				c-0.5,0.1-1,0.1-1.5,0.1c-0.5,0-1,0-1.5,0.1c-1,0-1.9,0.1-2.9,0.1c-1,0-1.9,0.1-2.9,0.1c0,0.1-0.1,0.3-0.1,0.3
				c0,0.1-0.1,0.2-0.1,0.3c0,1.8,0.1,3.6,0.1,5.4c0,1.8,0,3.6,0,5.4c0,0.7,0.1,1,0.2,1.1c0.1,0.1,0.5,0.2,1.1,0.2c0.3,0,0.6,0,0.9,0
				c0.3,0,0.6,0,0.9,0c1.1,0,1.6,0.5,1.7,1.4c0,0.8,0,1.6,0,2.4c0,0.8,0,1.7-0.1,2.5c0,0.5-0.2,0.9-0.4,1c-0.2,0.2-0.6,0.3-1.2,0.3
				c-0.7,0-1.3,0-2,0c-0.7,0-1.3,0-2,0c-1.5,0-3.1,0-4.6,0.1c-1.5,0-3.1,0.1-4.6,0.1c-0.7,0-1.3-0.1-1.9-0.2c-0.7-0.1-1-0.6-1.1-1.3
				c0-0.8-0.1-1.6-0.1-2.4c0-0.8-0.1-1.6-0.1-2.4c0-0.6,0.1-0.9,0.3-1.1c0.2-0.2,0.5-0.3,1-0.4c0.6-0.1,1.1-0.2,1.6-0.2
				c0.5-0.1,1.1-0.2,1.7-0.2c-0.1-5.5-0.2-11-0.2-16.5c-0.1-5.5-0.2-11-0.2-16.6c-0.4,0-0.8,0-1.3,0c-0.4,0-0.8-0.1-1.3-0.1
				c-0.4,0-0.8,0-1.2,0c-0.4,0-0.8,0-1.2-0.1c-0.7-0.1-1-0.4-1-1v-6.1c0-0.5,0.3-0.8,0.8-0.8c0.3,0,0.6-0.1,0.8-0.1
				c0.3,0,0.5-0.1,0.8-0.1c3.9,0,7.7,0,11.5,0c3.8,0,7.6,0,11.4,0c0.4,0,0.7,0,1.1,0c0.3,0,0.7,0,1.1,0.1
				C98.9,133,99.4,133.6,99.4,134.5z"/>
			<path class="st8" d="M135.3,145c0.7,2,1.1,4,1.4,6.1c0.3,2.1,0.5,4.6,0.5,7.4c-0.1,2-0.3,4.2-0.7,6.7c-0.4,2.5-1.1,5-2.1,7.6
				c-0.5,1.2-1.1,2.3-1.7,3.3c-1.2,2-2.7,3.6-4.5,4.6c-1.8,1-3.8,1.6-6.2,1.8c-6.5,0.6-11.7-1.8-15.8-7c-1.3-1.7-2.4-3.6-3.1-5.5
				c-0.7-2-1.2-4-1.6-6.1c-0.7-3.8-0.7-7.4,0-11c0.6-3.6,1.8-7.1,3.4-10.5c0.4-0.9,0.9-1.8,1.5-2.6c0.6-0.8,1.2-1.6,1.9-2.4
				c2.5-2.7,5.7-4.3,9.7-4.8c1.4-0.2,2.7-0.1,4,0.2c1.3,0.3,2.5,0.7,3.8,1.3c2.5,1.1,4.5,2.5,6,4.4
				C133.2,140.3,134.4,142.5,135.3,145z M126.2,171c1-1.8,1.7-3.6,2.1-5.4c0.4-1.9,0.6-3.8,0.6-5.7c0-1.9-0.2-3.7-0.5-5.4
				c-0.3-1.8-0.8-3.5-1.4-5.2c-0.6-1.6-1.4-3.2-2.3-4.7c-0.4-0.6-0.8-1.1-1.3-1.6c-0.5-0.5-1-1-1.5-1.5c-1.1-0.9-2.3-1-3.5-0.5
				c-0.9,0.4-1.8,1-2.6,1.7c-0.9,0.8-1.6,1.7-2.1,2.7c-0.5,1-0.9,2.1-1.3,3.1c-0.7,2.5-1.2,4.9-1.3,7.4c-0.1,2.5,0,5,0.3,7.5
				c0.1,1.2,0.4,2.3,0.7,3.4c0.3,1.1,0.8,2.2,1.5,3.2c0.8,1.3,1.8,2.3,3,3c1.1,0.7,2.5,1,4,0.9c0.2,0,0.3,0,0.5,0c0.1,0,0.3,0,0.3,0
				c1.1-0.1,2-0.3,2.9-0.8C125,172.6,125.7,171.9,126.2,171z"/>
			<path class="st8" d="M174.6,145c0.7,2,1.1,4,1.4,6.1c0.3,2.1,0.5,4.6,0.5,7.4c-0.1,2-0.3,4.2-0.7,6.7c-0.4,2.5-1.1,5-2.1,7.6
				c-0.5,1.2-1.1,2.3-1.7,3.3c-1.2,2-2.7,3.6-4.5,4.6c-1.8,1-3.8,1.6-6.2,1.8c-6.5,0.6-11.7-1.8-15.8-7c-1.3-1.7-2.4-3.6-3.1-5.5
				c-0.7-2-1.2-4-1.6-6.1c-0.7-3.8-0.7-7.4,0-11c0.6-3.6,1.8-7.1,3.4-10.5c0.4-0.9,0.9-1.8,1.5-2.6c0.6-0.8,1.2-1.6,1.9-2.4
				c2.5-2.7,5.7-4.3,9.7-4.8c1.4-0.2,2.7-0.1,4,0.2c1.3,0.3,2.5,0.7,3.8,1.3c2.5,1.1,4.5,2.5,6,4.4
				C172.5,140.3,173.7,142.5,174.6,145z M165.4,171c1-1.8,1.7-3.6,2.1-5.4c0.4-1.9,0.6-3.8,0.6-5.7c0-1.9-0.2-3.7-0.5-5.4
				c-0.3-1.8-0.8-3.5-1.4-5.2c-0.6-1.6-1.4-3.2-2.3-4.7c-0.4-0.6-0.8-1.1-1.3-1.6c-0.5-0.5-1-1-1.5-1.5c-1.1-0.9-2.3-1-3.5-0.5
				c-0.9,0.4-1.8,1-2.6,1.7c-0.9,0.8-1.6,1.7-2.1,2.7c-0.5,1-0.9,2.1-1.3,3.1c-0.7,2.5-1.2,4.9-1.3,7.4c-0.1,2.5,0,5,0.3,7.5
				c0.1,1.2,0.4,2.3,0.7,3.4c0.3,1.1,0.8,2.2,1.5,3.2c0.8,1.3,1.8,2.3,3,3c1.1,0.7,2.5,1,4,0.9c0.2,0,0.3,0,0.5,0c0.1,0,0.3,0,0.3,0
				c1.1-0.1,2-0.3,2.9-0.8C164.2,172.6,164.9,171.9,165.4,171z"/>
			<path class="st8" d="M207.3,132.2c0.8,0,1.3,0.2,1.6,0.5c0.3,0.3,0.5,0.8,0.5,1.6c0,1.2,0,2.3-0.1,3.5c-0.1,1.1-0.2,2.3-0.2,3.5
				c-0.1,0.6-0.3,1-0.5,1.2c-0.2,0.2-0.7,0.3-1.3,0.3c-0.6,0-1.1,0.1-1.7,0.1c-0.6,0-1.1,0-1.7-0.1c-0.8,0-1.3-0.5-1.3-1.4
				c0-0.3-0.1-0.6,0-0.9c0-0.3,0-0.6,0-1c0-0.6-0.2-0.9-0.3-1.1c-0.2-0.2-0.6-0.2-1.1-0.2c-0.7,0-1.3,0.1-1.9,0c-0.6,0-1.3,0-1.9,0
				v36.2c0.5,0.1,1,0.2,1.5,0.2c0.5,0,1,0.1,1.5,0.2c0.7,0.1,1.1,0.3,1.3,0.5c0.2,0.2,0.3,0.6,0.3,1.3c0.1,1.6,0.2,3.2,0.2,4.7
				c0,0.7-0.4,1.1-1.2,1.3c-0.2,0-0.4,0.1-0.6,0.1c-0.2,0-0.4,0-0.6,0c-1.9,0-3.8,0.1-5.6,0.1c-1.9,0-3.8,0-5.7,0
				c-1.3,0-2.2-0.1-2.5-0.5c-0.3-0.4-0.5-1.2-0.5-2.6c0-0.9,0-1.9,0-2.9c0.1-0.8,0.3-1.3,0.7-1.7c0.3-0.3,0.9-0.5,1.7-0.5
				c0.3,0,0.6-0.1,0.9,0c0.3,0,0.6,0,1,0c0-6.1-0.1-12.1-0.1-18.1c0-6-0.1-12-0.1-18.1h-4.3c-0.5,0-0.7,0.3-0.7,0.9c0,0.3,0,0.7,0,1
				c0,0.3,0,0.7,0,1c0,0.7-0.2,1.2-0.5,1.5c-0.3,0.3-0.7,0.5-1.4,0.6c-0.5,0.1-1,0.1-1.6,0.1c-0.6,0-1.1-0.1-1.7-0.2
				c-0.9,0-1.4-0.6-1.7-1.7c-0.2-1.1-0.3-2.2-0.4-3.4c-0.1-1.1-0.1-2.3-0.1-3.5c0-0.9,0.1-1.5,0.4-1.8c0.3-0.3,0.8-0.5,1.8-0.6
				c2.4-0.1,4.9-0.2,7.4-0.2s5,0,7.5,0c2.5,0,4.9,0,7.5,0c1,0,2,0.1,3,0C205.3,132.1,206.3,132.1,207.3,132.2z"/>
			<path class="st8" d="M239.6,159.2c3.9,2.3,5.7,5.8,5.6,10.4c0,0.6,0,1.1-0.1,1.6c0,0.5-0.1,1.1-0.2,1.6c-0.4,2.8-1.8,5-4.3,6.6
				c-1.3,0.9-2.7,1.6-4.2,2.1c-1.4,0.5-3,0.7-4.6,0.7c-2,0-3.9,0.1-5.9,0.1c-2,0-3.9,0-5.9,0c-0.8,0-1.6,0-2.3,0.1
				c-0.7,0-1.5,0.1-2.2,0.1h-0.5c-1.1,0-1.8-0.1-2.1-0.3c-0.3-0.3-0.5-0.9-0.5-2c0-0.6-0.1-1.1-0.1-1.7c0-0.6,0-1.2,0-1.7
				c0-1,0.5-1.6,1.5-1.6c0.7-0.1,1.3-0.2,1.9-0.2c0.6,0,1.3-0.1,2-0.1c0-0.2,0.1-0.5,0.1-0.7c0-0.3,0-0.5,0-0.7
				c0-2.9,0.1-5.8,0.1-8.6c0-2.8,0.1-5.7,0.1-8.6c0-2.5,0.1-5,0.1-7.4c0-2.4,0.1-4.9,0.1-7.3V140c-0.7,0-1.2-0.1-1.8-0.1
				c-0.5,0-1.1-0.1-1.6-0.1c-0.5,0-0.8-0.1-1-0.2c-0.2-0.1-0.2-0.4-0.2-0.9c0-0.8-0.1-1.6,0-2.4c0-0.8,0.1-1.6,0.1-2.4
				c0-0.2,0.1-0.4,0.3-0.5c0.1-0.2,0.3-0.3,0.4-0.4c0.2-0.1,0.4-0.2,0.6-0.2c0.2,0,0.4-0.1,0.6-0.1c1.5,0,3-0.1,4.5-0.1
				c1.5,0,3-0.1,4.5-0.1c0.9,0,2,0.1,3.1,0.3c2.7,0.4,5,1.8,6.8,4c1.7,2,2.8,4.1,3.4,6.4c0.6,2.3,0.7,4.7,0.2,7.2
				c-0.2,1.2-0.6,2.3-1.2,3.3s-1.4,1.8-2.5,2.5l-0.1,0.1c0.9,0.5,1.8,0.9,2.6,1.4C238,158.2,238.8,158.7,239.6,159.2z M225.7,140.3
				c0,2-0.1,4.1-0.1,6.1c0,2,0.1,4,0.2,6.1c1,0.1,1.9-0.1,2.7-0.7c0.8-0.5,1.4-1.3,2-2.2c0.4-0.8,0.5-1.7,0.5-2.6
				c0-1-0.2-1.9-0.6-2.8c-0.4-0.9-1-1.7-1.7-2.4c-0.7-0.7-1.6-1.2-2.5-1.5C226.1,140.2,226,140.3,225.7,140.3z M237.9,171.7
				c0.3-1,0.2-2-0.2-3.1c-0.8-1.9-1.9-3.3-3.4-4.2c-1.5-0.9-3.2-1.5-5.1-1.7c-0.5-0.1-1-0.1-1.5-0.1c-0.5,0-1,0-1.6,0
				c0,2.1-0.1,4.1-0.1,6.1c0,2-0.1,4-0.2,6c0.2,0,0.4,0.1,0.6,0.1c0.1,0,0.3,0,0.4,0c1.1,0,2.1,0,3.2,0c1.1,0,2.1-0.1,3.2-0.1
				c0.4,0,0.7-0.1,1.1-0.2c0.4-0.1,0.7-0.2,1.1-0.3c0.7-0.1,1.2-0.4,1.6-0.9C237.4,172.9,237.7,172.4,237.9,171.7z"/>
			<path class="st8" d="M287.2,176.8c0.1,0.7,0.1,1.4,0.1,2.1c0,0.7,0,1.4,0,2.1c0,0.6-0.3,0.9-0.9,1c-0.5,0.1-1,0.2-1.4,0.2
				l-11.9-0.2c-0.8,0-1.3-0.4-1.3-1.2c-0.1-0.7-0.2-1.4-0.2-2.1c0-0.7-0.1-1.4-0.1-2.1c0-0.5,0.1-0.8,0.2-1c0.2-0.2,0.5-0.3,1-0.4h2
				c-0.6-2.4-1.2-4.7-1.7-7c-0.6-2.3-1.2-4.6-1.9-7c-1.3-0.1-2.5-0.1-3.7-0.1c-1.2,0-2.5,0.1-3.8,0.2c-0.5,2.4-0.9,4.7-1.4,6.9
				c-0.4,2.2-0.9,4.5-1.4,6.9c0.4,0,0.7,0,1,0c0.3,0,0.7,0,1,0.1c1,0,1.6,0.5,1.6,1.5c0,0.6,0.1,1.3,0.1,1.9c0,0.6,0,1.3,0,1.9
				c0,0.5-0.2,0.9-0.3,1.1c-0.2,0.2-0.5,0.4-1,0.5c-0.1,0-0.3,0-0.4,0c-0.1,0-0.2,0-0.4,0c-2,0.1-4.1,0.2-6,0.2c-2,0-4,0.1-6,0.1
				c-0.7,0-1.2,0-1.4-0.2c-0.2-0.2-0.3-0.7-0.4-1.5c-0.1-0.6-0.2-1.2-0.2-1.8c0-0.6-0.1-1.2-0.1-1.8c0-0.8,0-1.3,0.2-1.6
				c0.2-0.2,0.7-0.3,1.5-0.2h2.3c0.2-0.9,0.4-1.7,0.6-2.6c0.2-0.8,0.4-1.7,0.6-2.5c0.6-3.2,1.2-6.4,1.7-9.5c0.6-3.1,1.2-6.3,1.8-9.5
				c1.2-5.6,2.4-11.3,3.8-17c0.2-1,0.5-1.6,0.8-1.8c0.3-0.2,1-0.3,2-0.3c0.9,0,1.8-0.1,2.6,0c0.9,0,1.8,0,2.6,0c1.5,0,2.4,0.7,2.9,2
				c0.5,1.7,1.1,3.4,1.6,5.1c0.6,1.7,1.1,3.4,1.5,5.2c1,4.2,2,8.3,3.2,12.4c1.1,4,2.3,8.1,3.5,12.3c0.3,1,0.6,2,0.8,2.9
				c0.3,1,0.6,2,0.8,3l2.5,0.2c0.5,0,0.9,0.1,1.1,0.3C287,176,287.2,176.3,287.2,176.8z M268.5,153.1c-0.4-1.3-0.8-2.7-1.2-3.9
				c-0.4-1.3-0.8-2.6-1.2-3.9c-0.4,1.3-0.7,2.6-1.1,3.9c-0.3,1.3-0.6,2.6-0.7,3.9H268.5z"/>
			<path class="st8" d="M324.3,170.8c0,0.2,0.1,0.4,0.1,0.8c0,1.4,0.1,2.9,0.1,4.3c0,1.4,0,2.9,0,4.3c0,0.9-0.2,1.5-0.5,1.8
				c-0.3,0.3-0.9,0.4-1.8,0.5c-1.4,0-2.9,0.1-4.3,0.1c-1.4,0-2.9,0-4.3,0c-2.6,0-5.2,0-7.7,0c-2.6,0-5.1,0-7.7,0c-1,0-2,0-3,0
				c-1,0-2,0-3-0.1c-0.4,0-0.8-0.1-1.1-0.4c-0.3-0.3-0.5-0.6-0.5-1.1c0-0.9-0.1-1.8-0.1-2.7c0-0.9,0-1.8,0.1-2.7
				c0-0.7,0.2-1.2,0.6-1.4c0.3-0.3,0.8-0.4,1.5-0.3h3.1c0-5.7,0-11.3,0.1-16.8c0.1-5.5,0-11.1-0.2-16.8c-0.6,0-1.1-0.1-1.6-0.1
				c-0.5,0-1,0-1.5-0.1c-0.7-0.1-1.1-0.2-1.2-0.3c-0.2-0.1-0.3-0.6-0.4-1.3c0-0.6-0.1-1.1-0.1-1.7c0-0.6,0-1.2,0-1.8
				c0-1.2,0.7-1.8,1.8-2c0.2,0,0.6-0.1,1-0.1c1.4,0,2.8,0.1,4.2,0.1c1.4,0,2.8,0.1,4.2,0.1h3.9c0.4,0,0.7,0,1,0c0.3,0,0.6,0,0.9,0.1
				c0.7,0.1,1.1,0.5,1.2,1.3c0,0.8,0,1.5,0,2.3c0,0.7,0,1.5-0.1,2.2c0,0.7-0.5,1.1-1.3,1.1c-0.5,0-1,0.1-1.6,0.1c-0.5,0-1.1,0-1.6,0
				c0.1,5.6,0.2,11.2,0.3,16.8c0.1,5.6,0.2,11.2,0.3,17h11.6v-2.4c0-0.8,0.1-1.3,0.3-1.5c0.2-0.2,0.7-0.3,1.5-0.3
				c0.8,0,1.6-0.1,2.3,0c0.7,0,1.5,0.1,2.2,0.1c0.5,0,0.8,0.1,1,0.2C324.1,170.1,324.2,170.4,324.3,170.8z"/>
			<path class="st8" d="M361.4,170.8c0,0.2,0.1,0.4,0.1,0.8c0,1.4,0.1,2.9,0.1,4.3c0,1.4,0,2.9,0,4.3c0,0.9-0.2,1.5-0.5,1.8
				c-0.3,0.3-0.9,0.4-1.8,0.5c-1.4,0-2.9,0.1-4.3,0.1c-1.4,0-2.9,0-4.3,0c-2.6,0-5.2,0-7.7,0c-2.6,0-5.1,0-7.7,0c-1,0-2,0-3,0
				c-1,0-2,0-3-0.1c-0.4,0-0.8-0.1-1.1-0.4c-0.3-0.3-0.5-0.6-0.5-1.1c0-0.9-0.1-1.8-0.1-2.7c0-0.9,0-1.8,0.1-2.7
				c0-0.7,0.2-1.2,0.6-1.4c0.3-0.3,0.8-0.4,1.5-0.3h3.1c0-5.7,0-11.3,0.1-16.8c0.1-5.5,0-11.1-0.2-16.8c-0.6,0-1.1-0.1-1.6-0.1
				c-0.5,0-1,0-1.5-0.1c-0.7-0.1-1.1-0.2-1.2-0.3c-0.2-0.1-0.3-0.6-0.4-1.3c0-0.6-0.1-1.1-0.1-1.7c0-0.6,0-1.2,0-1.8
				c0-1.2,0.7-1.8,1.8-2c0.2,0,0.6-0.1,1-0.1c1.4,0,2.8,0.1,4.2,0.1c1.4,0,2.8,0.1,4.2,0.1h3.9c0.4,0,0.7,0,1,0c0.3,0,0.6,0,0.9,0.1
				c0.7,0.1,1.1,0.5,1.2,1.3c0,0.8,0,1.5,0,2.3c0,0.7,0,1.5-0.1,2.2c0,0.7-0.5,1.1-1.3,1.1c-0.5,0-1,0.1-1.6,0.1c-0.5,0-1.1,0-1.6,0
				c0.1,5.6,0.2,11.2,0.3,16.8c0.1,5.6,0.2,11.2,0.3,17h11.6v-2.4c0-0.8,0.1-1.3,0.3-1.5c0.2-0.2,0.7-0.3,1.5-0.3
				c0.8,0,1.6-0.1,2.3,0c0.7,0,1.5,0.1,2.2,0.1c0.5,0,0.8,0.1,1,0.2C361.2,170.1,361.3,170.4,361.4,170.8z"/>
		</g>
		<g>
			<path class="st9" d="M86.9,210.6c-0.7-1.4-1.8-2.7-3.1-3.8c-1.3-1-2.7-1.7-4.1-1.8c-1.4-0.2-2.7-0.1-4,0.2
				c-1.3,0.3-2.5,0.8-3.7,1.5c-1.1,0.7-2.2,1.3-3,2c-0.9,0.7-1.6,1.2-2.2,1.7c0,0-0.1,0.1-0.1,0.1c0-0.3,0-0.7,0-1.1
				c0-0.5,0-0.9,0-1.4c0-0.2,0-0.3,0-0.4c0.4-0.2,0.8-0.3,1.2-0.6c0.6-0.3,1.3-0.9,1.3-2.2c0-1.3-0.6-1.9-1.1-2.2
				c-0.6-0.3-1.2-0.5-1.6-0.5h-2.9c-0.9,0-1.8,0-2.5,0.1c-0.8,0.1-1.5,0.4-2,0.8c-0.5,0.4-0.8,1.1-0.8,1.9c0,0.6,0.2,1.1,0.5,1.5
				c0.3,0.3,0.6,0.6,1,0.7c0.3,0.2,0.7,0.3,1,0.4c0.1,0,0.2,0.1,0.3,0.1c0,0,0,0,0,0c0,0.2,0,0.4,0,0.7c-0.2,6.7-0.3,12.3-0.3,16.8
				c0,4.4,0,8.1,0.1,10.8c0.1,2.8,0.2,4.9,0.3,6.2c0.1,1.4,0.2,2.3,0.2,2.9c0,0.2,0,0.3,0,0.4c-0.2,0-0.4,0.1-0.6,0.1
				c-0.9,0.2-1.5,0.6-1.8,1.2c-0.3,0.6-0.5,1.1-0.4,1.7c0.1,0.6,0.4,1.1,0.9,1.6c0.5,0.5,1.1,0.7,1.8,0.8c0.7,0,1.3,0.1,2.1,0.1
				l2.1,0.1c0.5,0,0.9,0,1.3,0c0.2,0,0.4,0,0.6,0c0.7,0,1.1-0.1,1.4-0.3c0.6-0.2,1-0.6,1.3-1.1c0.3-0.4,0.4-0.9,0.4-1.4
				c0-0.5-0.2-1-0.5-1.5c-0.3-0.4-0.8-0.7-1.4-0.9c-0.4-0.1-0.7-0.2-1-0.2c-0.2,0-0.4,0-0.5,0c0,0,0-0.1-0.1-0.3c0-0.2,0-0.8-0.1-2
				c-0.1-1.1-0.2-2.4-0.2-3.9c-0.1-1.6-0.1-3.2-0.2-5c-0.1-1.7-0.1-3.3,0-4.8c0.6,0.1,1.3,0.3,2.1,0.4c0.8,0.2,1.7,0.3,2.7,0.4
				c1,0.1,2,0.2,3.1,0.1c1.1,0,2.3-0.2,3.5-0.5c1.9-0.4,3.6-1.2,5-2.2c1.4-1,2.6-2.3,3.4-3.7c0.9-1.4,1.5-2.9,1.9-4.5
				c0.4-1.6,0.4-3.2,0.3-4.8C88.1,213.6,87.6,212,86.9,210.6z M66.4,222.3c0-0.9,0-1.5,0-2c0-0.4,0-0.8,0.1-1.1
				c0.1-0.3,0.2-0.6,0.4-1c0.2-0.4,0.5-0.9,1-1.5c0.8-0.9,1.7-1.9,2.9-3c1.2-1,2.4-1.8,3.6-2.5c1.2-0.6,2.4-1,3.6-1.1
				c1.1-0.1,1.9,0.3,2.7,1.1c1.2,1.2,1.8,2.6,2.1,4.1c0.2,1.6,0,3.1-0.5,4.5c-0.6,1.4-1.5,2.6-2.8,3.6c-1.3,1-2.8,1.6-4.7,1.7
				c-1.4,0.1-2.8,0-4.1-0.2c-1.4-0.2-2.7-0.5-4.1-0.8l-0.1,0.6l0-0.7C66.4,223.8,66.4,223.2,66.4,222.3z"/>
			<path class="st9" d="M119.3,204.4c-0.4-0.4-0.9-0.6-1.4-0.6c-0.2-0.1-0.5-0.1-1.4-0.1c-0.6,0-1.3,0.1-2,0.1c-0.7,0-1.4,0.1-2,0.2
				c-0.6,0.1-0.9,0.1-1.2,0.1c-0.8,0.1-1.4,0.4-1.9,0.8c-0.4,0.3-0.9,1-0.8,2.1c0.2,1.3,0.8,1.8,1.3,2c0.5,0.2,1,0.3,1.4,0.4
				c0.2,0,0.3,0.1,0.4,0.1c0,0.1,0,0.2,0,0.4c0,1.1,0,2.7-0.1,4.6c-0.1,2-0.2,4.3-0.5,6.7c-0.2,2.4-0.5,5-0.8,7.6
				c-0.3,2.6-0.8,5-1.2,7.3c-0.5,2.3-1.1,4.3-1.7,6c-0.6,1.6-1.3,2.7-2.1,3.3c-0.7,0.5-1.3,0.6-2.1,0.2c-0.9-0.5-1.7-1.5-2.4-3.1
				c-0.8-1.7-1.5-3.9-2-6.8c-0.6-2.8-0.9-6.2-1-10.1c0-1.2,0-2.7,0-4.6c0-1.9,0-3.7,0-5.4c0-1.8,0-3.3,0-4.6l0-0.7
				c0-0.7,0-1.1,0-1.3c0.2,0,0.5-0.1,0.8-0.1c1.1-0.1,1.9-0.4,2.4-1c0.5-0.6,0.8-1.3,0.7-2c-0.1-0.7-0.4-1.3-1-1.8
				c-0.6-0.5-1.4-0.7-2.4-0.6c-0.4,0-1,0.1-1.7,0.1c-1.5,0-2.7,0-5.2,0.1c-0.7,0.1-1.3,0.4-1.7,0.9c-0.4,0.5-0.6,1-0.6,1.6
				c0,0.6,0.2,1.1,0.5,1.6c0.4,0.5,0.9,0.8,1.7,1c0.4,0.1,0.7,0.1,1,0.1c0,0.6,0,1.5,0,2.8c0,1.5-0.1,3.2-0.1,5.3c0,2-0.1,4.3,0,6.7
				c0,2.4,0.2,4.9,0.4,7.3c0.2,2.4,0.6,4.8,1,7.1c0.5,2.3,1.1,4.3,2,6c0.9,1.8,1.9,3.3,2.9,4.4c1.1,1.1,2.3,1.8,3.4,2.2
				c0.8,0.3,1.5,0.4,2.3,0.4c0.4,0,0.8,0,1.3-0.1c1.1-0.2,2.2-0.7,3.2-1.5c1.2-1,2.3-2.6,3.2-4.6c0.8-1.9,1.6-4.1,2.2-6.6
				c0.6-2.4,1.1-5,1.5-7.8c0.4-2.7,0.7-5.4,0.9-8c0.2-2.6,0.4-5.1,0.5-7.4c0.1-2.3,0.2-4.2,0.3-5.8c0-0.2,0-0.4,0-0.5
				c0.1,0,0.2-0.1,0.3-0.1c0.2,0,0.5-0.1,0.7-0.1c0.3-0.1,0.5-0.2,0.8-0.4c0.5-0.4,0.8-0.8,1-1.3c0.2-0.5,0.2-1,0.1-1.4
				C119.9,205.2,119.6,204.8,119.3,204.4z"/>
			<path class="st9" d="M160,246L160,246c-0.4-0.1-0.8-0.2-1.1-0.2c-0.3,0-0.4,0-0.4,0c0,0,0-0.1,0-0.4c-0.3-7.8-0.5-14.2-0.7-19.2
				c-0.2-5-0.3-8.9-0.3-11.8c0-2.9,0-5,0-6.2c0.1-1.6,0.3-2,0.4-2.3c0.5,0.2,1.1,0.1,1.7-0.2c0.6-0.2,1-0.6,1.2-1.1
				c0.2-0.5,0.3-1,0.3-1.5c-0.1-0.5-0.3-1-0.6-1.4c-0.3-0.4-0.8-0.7-1.4-0.8c-0.2,0-0.6-0.1-1.7,0c-0.8,0-1.6,0.1-2.6,0.1
				c-0.9,0-1.7,0.1-2.5,0.1c-1.1,0.1-1.4,0.1-1.5,0.1c-0.7,0.1-1.3,0.3-1.8,0.7c-0.5,0.4-0.7,0.9-0.8,1.4c-0.1,0.6,0,1.1,0.4,1.7
				c0.3,0.5,0.8,1,1.4,1.2c0.1,0,0.1,0.1,0.2,0.1c-2.1,3.1-3.6,5.4-4.7,7c-1,1.5-1.7,2.6-2.2,3.1c-0.1,0.1-0.1,0.1-0.1,0.2
				c-0.1-0.2-0.3-0.5-0.6-0.8c-1.6-2.1-2.9-3.9-3.9-5.3c-1-1.4-1.9-2.5-2.5-3.4c-0.5-0.7-0.9-1.2-1.3-1.7c0.2,0,0.3-0.1,0.5-0.2
				c0.6-0.3,1-0.8,1.2-1.3c0.2-0.5,0.3-1.1,0.2-1.6c-0.1-0.5-0.4-0.9-0.8-1.3c-0.4-0.4-1-0.6-1.5-0.7c-0.4-0.1-0.6-0.1-1.9-0.1
				l-2.3,0.1c-1,0-2.4,0.1-4.1,0.2c-0.8,0.1-1.5,0.3-1.9,0.8c-0.4,0.4-0.7,1-0.8,1.5c-0.1,0.6,0,1.2,0.3,1.7
				c0.3,0.5,0.8,0.9,1.5,1.1c0.6,0.1,1,0.2,1.4,0.2c0,0.6,0.1,1.7,0.1,3.2c0,1.6,0.1,3.4,0.1,5.4l0.1,6.4c0,2.3,0,4.3,0,6.2v6.8
				c0,3.1,0,5.5,0.1,7.1c0.1,1.6,0.1,2.8,0.1,3.5c0,0.3,0,0.4,0,0.5c-0.1,0-0.3,0-0.7,0c-0.8,0-1.5,0.3-2,0.9
				c-0.5,0.5-0.7,1.2-0.7,1.8c0,0.7,0.3,1.3,0.8,1.8c0.5,0.6,1.4,0.8,2.5,0.8c1.8,0,3.2,0,4.3,0c2.1,0,3.1,0,3.5-0.1
				c0.2,0,0.5-0.1,0.8-0.2c0.6-0.3,1.1-0.7,1.3-1.2c0.2-0.5,0.3-1.1,0.2-1.6c-0.1-0.6-0.3-1.1-0.8-1.5c-0.4-0.4-1-0.7-1.8-0.8
				c-0.7-0.1-1.3,0-1.7,0.1c0,0,0,0-0.1-0.1c-0.1-0.2-0.2-0.7-0.2-2.2c0-1.2,0-3.1,0-5.7c0-2.6,0-6.1,0-10.4c0-4-0.1-9.2-0.3-15.4
				c0.1,0.1,0.1,0.1,0.2,0.2c0.5,0.7,1.2,1.6,2.1,2.9c0.9,1.3,2.1,2.9,3.5,4.9c0,0,0,0,0,0c-0.1,0-0.1,0.1-0.2,0.1
				c-0.4,0.1-0.7,0.4-1,0.7c-0.4,0.4-0.6,1.1-0.5,1.9c0.1,0.9,0.5,1.4,0.9,1.7c0.4,0.3,1.1,0.5,1.9,0.5c0.7,0.1,1.7,0,2.9-0.1
				c1.1-0.1,2.5-0.2,4.2-0.3c0.7-0.1,1.3-0.2,1.8-0.6c0.5-0.3,0.8-0.7,1-1.2c0.2-0.5,0.2-0.9,0-1.4c-0.1-0.5-0.4-0.9-0.6-1.2
				c-0.1-0.2-0.3-0.3-0.5-0.5c1.5-2.3,2.8-4.1,3.6-5.4c0.1-0.1,0.2-0.3,0.3-0.4c0,2.4,0.1,5.1,0.1,7.9c0.1,2.9,0.2,6.4,0.4,10.4
				c0.2,4,0.4,8.4,0.6,13.2c0.1,0.8-0.1,1,0.1,1c0,0-0.2,0-0.5,0c-0.4,0-0.9,0.1-1.5,0.3c-0.5,0.2-0.9,0.6-1.2,1.1
				c-0.2,0.4-0.4,0.9-0.4,1.4c0,0.5,0.1,1,0.4,1.4c0.3,0.4,0.7,0.7,1.2,0.9c0.2,0.1,0.6,0.2,1.8,0.3l2.6,0.1c0.9,0,1.7,0.1,2.5,0.1
				l1.5,0c0.8-0.1,1.4-0.3,1.8-0.8c0.4-0.5,0.6-1,0.6-1.6c0-0.6-0.1-1.1-0.4-1.7C161.3,246.6,160.7,246.2,160,246z"/>
			<path class="st9" d="M194,210.6c-0.7-1.4-1.8-2.7-3.1-3.8c-1.3-1-2.7-1.7-4.1-1.8c-1.4-0.2-2.7-0.1-4,0.2
				c-1.3,0.3-2.5,0.8-3.7,1.5c-1.1,0.7-2.2,1.3-3,2c-0.9,0.7-1.6,1.2-2.2,1.7c0,0-0.1,0.1-0.1,0.1c0-0.3,0-0.7,0-1.1
				c0-0.5,0-0.9,0-1.4c0-0.2,0-0.3,0-0.4c0.4-0.2,0.8-0.3,1.2-0.6c0.6-0.3,1.3-0.9,1.3-2.2c0-1.3-0.6-1.9-1.1-2.2
				c-0.6-0.3-1.2-0.5-1.6-0.5h-2.9c-0.9,0-1.8,0-2.5,0.1c-0.8,0.1-1.5,0.4-2,0.8c-0.5,0.4-0.8,1.1-0.8,1.9c0,0.6,0.2,1.1,0.5,1.5
				c0.3,0.3,0.6,0.6,1,0.7c0.3,0.2,0.7,0.3,1,0.4c0.1,0,0.2,0.1,0.3,0.1c0,0,0,0,0,0c0,0.2,0,0.4,0,0.7c-0.2,6.7-0.3,12.3-0.3,16.8
				c0,4.4,0,8.1,0.1,10.8c0.1,2.8,0.2,4.9,0.3,6.2c0.1,1.4,0.2,2.3,0.2,2.9c0,0.2,0,0.3,0,0.4c-0.2,0-0.4,0.1-0.6,0.1
				c-0.9,0.2-1.5,0.6-1.8,1.2c-0.3,0.6-0.5,1.1-0.4,1.7c0.1,0.6,0.4,1.1,0.9,1.6c0.5,0.5,1.1,0.7,1.8,0.8c0.7,0,1.3,0.1,2.1,0.1
				l2.1,0.1c0.5,0,0.9,0,1.3,0c0.2,0,0.4,0,0.6,0c0.7,0,1.1-0.1,1.4-0.3c0.6-0.2,1-0.6,1.3-1.1c0.3-0.4,0.4-0.9,0.4-1.4
				c0-0.5-0.2-1-0.5-1.5c-0.3-0.4-0.8-0.7-1.4-0.9c-0.4-0.1-0.7-0.2-1-0.2c-0.2,0-0.4,0-0.5,0c0,0,0-0.1-0.1-0.3c0-0.2,0-0.8-0.1-2
				c-0.1-1.1-0.2-2.4-0.2-3.9c-0.1-1.6-0.1-3.2-0.2-5c-0.1-1.7-0.1-3.3,0-4.8c0.6,0.1,1.3,0.3,2.1,0.4c0.8,0.2,1.7,0.3,2.7,0.4
				c1,0.1,2,0.2,3.1,0.1c1.1,0,2.3-0.2,3.5-0.5c1.9-0.4,3.6-1.2,5-2.2c1.4-1,2.6-2.3,3.4-3.7c0.9-1.4,1.5-2.9,1.9-4.5
				c0.4-1.6,0.4-3.2,0.3-4.8C195.2,213.6,194.8,212,194,210.6z M173.5,222.3c0-0.9,0-1.5,0-2c0-0.4,0-0.8,0.1-1.1
				c0.1-0.3,0.2-0.6,0.4-1c0.2-0.4,0.5-0.9,1-1.5c0.8-0.9,1.7-1.9,2.9-3c1.2-1,2.4-1.8,3.6-2.5c1.2-0.6,2.4-1,3.6-1.1
				c1.1-0.1,1.9,0.3,2.7,1.1c1.2,1.2,1.8,2.6,2.1,4.1c0.2,1.6,0,3.1-0.5,4.5c-0.6,1.4-1.5,2.6-2.8,3.6c-1.3,1-2.8,1.6-4.7,1.7
				c-1.4,0.1-2.8,0-4.1-0.2c-1.4-0.2-2.7-0.5-4.1-0.8l-0.1,0.6l0-0.7C173.5,223.8,173.5,223.2,173.5,222.3z"/>
			<path class="st9" d="M211.9,223.8c1.9-2,3.6-4.1,5.2-6.2c1.6-2.2,3.1-4.5,4.5-6.9c0.4-0.6,0.6-0.9,0.7-1c0.2-0.2,0.3-0.3,0.5-0.3
				c0.3,0.1,0.6,0.1,0.9-0.1c0.7-0.2,1.3-0.6,1.6-1.2c0.3-0.6,0.4-1.1,0.3-1.7c-0.1-0.6-0.3-1.2-0.8-1.6c-0.4-0.5-1.1-0.8-1.9-0.9
				c-1-0.1-2-0.2-2.9-0.2c-0.9,0-1.9-0.1-2.9-0.2c-0.7-0.1-1.3,0.1-1.8,0.5c-0.5,0.4-0.8,0.8-1,1.4c-0.2,0.6-0.2,1.1,0,1.7
				c0.2,0.6,0.7,1.1,1.4,1.5c0.2,0.1,0.4,0.2,0.6,0.2c-0.6,1-1.3,2.1-2.1,3.3c-1,1.4-2.1,2.8-3.2,4.2c-1.1,1.3-2.1,2.6-3.1,3.7
				c-0.7,0.8-1.3,1.4-1.8,1.9c0-0.3-0.1-0.6-0.1-1.2c-0.1-1-0.2-2.7-0.3-4.8c-0.1-2.1-0.2-5-0.4-8.8c0-0.1,0-0.1,0-0.2
				c0.1,0,0.1,0,0.2-0.1c0.5-0.2,1-0.4,1.5-0.7c0.6-0.4,0.9-1.1,0.9-2.1c0-0.8-0.2-1.4-0.7-1.8c-0.4-0.4-1-0.7-1.6-0.9
				c-0.6-0.2-1.3-0.2-2.2-0.3c-0.8,0-1.6-0.1-2.5-0.2c-1-0.1-1.8,0.1-2.4,0.5c-0.6,0.4-1,0.9-1.2,1.5c-0.2,0.6-0.2,1.2,0.1,1.8
				c0.3,0.6,0.7,1.1,1.4,1.3c0.5,0.2,0.8,0.3,1.1,0.4c0,0,0,0.1,0,0.1c0,0.3,0.1,0.9,0.1,2.4c0,1.3,0.1,3.3,0.2,6.1
				c0.1,2.8,0.4,6.6,0.7,11.3c0.4,4.7,0.9,10.8,1.7,18.1l0.1,0.7c0,0.1,0,0.3,0,0.5c-0.3,0-0.6,0.2-0.8,0.3
				c-1.5,0.9-1.6,2.1-1.3,2.9c0.2,0.9,0.6,1.5,1.3,1.8c0.5,0.2,1,0.3,1.6,0.3c0.1,0,0.3,0,0.4,0c0.7,0,1.5-0.2,2.3-0.4
				c0.8-0.2,1.6-0.4,2.5-0.6c0.7-0.2,1.3-0.5,1.7-1c0.4-0.5,0.6-1.1,0.6-1.6c0-0.6-0.2-1.1-0.5-1.6c-0.3-0.5-0.8-0.8-1.4-1
				c-0.3-0.1-0.6-0.2-0.8-0.1c0-0.1-0.1-0.3-0.2-0.7c-0.1-0.5-0.2-1.2-0.3-2.3c-0.1-1.1-0.3-2.5-0.4-4.3c-0.1-1.4-0.3-3.2-0.4-5.2
				c0.1,0.1,0.2,0.2,0.3,0.4l4.7,6.4c1.2,1.7,2.8,3.8,4.6,6.3c0.1,0.1,0.1,0.1,0.1,0.2c-0.1,0.2-0.3,0.4-0.5,0.8
				c-0.3,0.5-0.4,1.1-0.4,1.6c0,0.5,0.2,1,0.5,1.5c0.3,0.4,0.7,0.8,1.3,0.9c0.6,0.2,1.2,0.2,1.8-0.1c0.1,0,0.4-0.1,1-0.5
				c0.4-0.3,0.9-0.5,1.3-0.8c0.5-0.3,1-0.6,1.4-0.8c0.4-0.3,0.7-0.4,0.8-0.5c0.7-0.4,1.2-1,1.5-1.7c0.2-0.7,0.2-1.4-0.1-2
				c-0.3-0.6-0.8-1.1-1.4-1.3c-0.6-0.3-1.4-0.2-2.2,0.1c-0.1-0.1-0.3-0.2-0.7-0.6c-0.5-0.7-1.3-1.7-2.3-3.1c-1-1.4-2.2-3.1-3.7-5.2
				c-1.5-2.1-3.4-4.5-5.6-7.3c0,0-0.1-0.1-0.1-0.1c0.2-0.2,0.4-0.5,0.8-0.8C210.7,225.2,211.2,224.6,211.9,223.8z"/>
			<path class="st9" d="M242.2,245.6c-0.4-0.1-0.7-0.1-1.1,0c-0.3,0-0.6,0-1-0.1l-0.9-25.8c-0.1-1.9-0.2-3.9-0.2-5.7
				c0-1.9-0.1-3.8-0.2-5.7c0-0.3,0-0.6,0-0.9c0,0,0-0.1,0-0.1c0.3,0,0.6,0,0.8-0.1c0.5-0.1,0.9-0.2,1.3-0.3c1.1-0.5,1.6-1.4,1.5-2.5
				c-0.1-1.1-0.7-1.9-1.7-2.3c-0.3-0.1-0.6-0.2-0.9-0.2c-0.2,0-0.4-0.1-0.7-0.1c-1.2,0-2.4,0-3.5,0c-1.1,0.1-2.3,0.2-3.4,0.2
				c-0.2,0-0.5,0.1-0.8,0.2c-2.2,0.6-2.3,2.1-2.2,2.8c0.1,0.9,0.7,2.4,3.1,2.2c0.3,0,0.6,0,0.9-0.1c0.1,0,0.2,0,0.3,0c0,0,0,0,0,0
				c0,0.1,0,0.2,0,0.3c0,2.1,0,4.2,0,6.3c0.1,2.1,0.1,4.1,0.2,6.2c0.1,5.8,0.4,11.8,0.6,17.7l0.4,7.8c0,0.1,0,0.2,0,0.3
				c-0.1,0-0.2,0.1-0.5,0.1c-0.2,0.1-0.4,0.1-0.5,0.2c-0.3,0.1-0.5,0.2-0.7,0.4c-0.8,0.5-1.2,1.2-1.2,2.1c0,0.9,0.4,1.7,1.3,2.2
				c0.5,0.2,1,0.3,1.6,0.3c0,0,0,0,0,0l6.5-0.2c0.7,0,1.4-0.1,1.9-0.3c0.7-0.2,1.2-0.6,1.5-1.1c0.3-0.5,0.4-1.1,0.3-1.8
				C244.6,246.9,243.9,245.8,242.2,245.6z"/>
			<path class="st9" d="M278.4,245.2c-0.3-0.1-0.5-0.2-0.6-0.2c0-0.1-0.1-0.3-0.1-0.6c-0.4-6.1-0.7-11.2-0.9-15.4
				c-0.2-4.2-0.4-7.6-0.6-10.3c-0.2-2.7-0.3-4.8-0.3-6.2c-0.1-1.4-0.1-2.5-0.1-3.2c0-0.7,0.1-0.9,0-0.9c0.9-0.3,1.5-0.7,1.8-1.2
				c0.4-0.5,0.5-1.1,0.3-1.7c-0.2-1.3-1-2-2.2-2.2c-1-0.1-2.6,0-4.7,0.2c-0.6,0.1-1.1,0.3-1.5,0.7c-0.4,0.4-0.6,0.8-0.7,1.3
				c-0.1,0.5,0,1,0.1,1.5c0.2,0.5,0.6,0.9,1.1,1.2c0.1,0.1,0.2,0.1,0.3,0.2c0,0.1,0,0.2,0.1,0.4c0,0.5,0.1,1.2,0.1,2.3l0.2,4.8
				c0.1,2.1,0.2,4.9,0.4,8.3c0.1,2.8,0.3,6.2,0.5,10.2c-2.4-4.9-4.4-9.1-6.1-12.6c-1.8-3.7-3.3-6.9-4.6-9.4
				c-1.2-2.5-2.3-4.4-3.1-5.8c-0.8-1.4-1.5-2.5-2-3.2c-0.6-0.8-1.1-1.2-1.6-1.4c-0.5-0.2-1-0.2-1.6-0.1c-1.1,0.2-1.9,0.3-2.4,0.3
				c-0.7,0-1.4,0.2-2,0.7c-0.4,0.3-0.7,0.7-0.9,1.2c-0.2,0.5-0.2,0.9-0.1,1.3c0.1,0.4,0.3,0.8,0.5,1.1c0.3,0.3,0.7,0.6,1.2,0.8
				c0.4,0.1,0.8,0.2,1,0.1c0.1,0,0.1,0,0.1,0c0,0.1,0,0.3,0,0.5v2.3c0,1.4,0,3.1,0,5.3l0.1,7.2c0,2.7,0.1,5.3,0.1,8
				c0,2.7,0.1,5.3,0.2,7.7c0.1,2.5,0.2,4.7,0.3,6.4c0,0.3,0,0.6-0.1,0.8c-0.1,0.2-0.2,0.4-0.5,0.5c-0.5,0.4-0.8,0.8-0.9,1.3
				c-0.1,0.5-0.1,1,0.1,1.5c0.2,0.5,0.5,0.8,0.9,1.2c0.4,0.3,0.9,0.5,1.5,0.6c0.7,0.1,1.4,0.2,2.2,0.2c0.3,0,0.7,0,1,0
				c0.4,0,0.8,0,1.2-0.1c0.7-0.1,1.3-0.4,1.8-0.8c0.5-0.5,0.7-1.1,0.7-2.1c-0.1-0.8-0.4-1.3-0.8-1.6c-0.3-0.2-0.7-0.4-1-0.5
				c-0.2-0.1-0.4-0.1-0.6-0.2c0,0-0.1-0.1-0.1-0.6c0-0.9-0.1-2.3-0.1-4.3c0-2-0.1-4.2-0.2-6.6c-0.1-2.4-0.1-4.9-0.2-7.5
				c0-2.6-0.1-5-0.1-7.1c0-2.2-0.1-4-0.1-5.4c0-0.2,0-0.4,0-0.5c0.4,0.7,0.8,1.5,1.3,2.5c0.8,1.5,1.7,3.3,2.8,5.4
				c1,2.1,2.1,4.3,3.2,6.6c1.1,2.3,2.2,4.6,3.3,6.9l3,6.2c0.9,1.9,1.7,3.5,2.3,4.8c0.9,1.8,1.2,2.3,1.4,2.5c0.7,1,1.7,1.5,2.9,1.4
				c1.1-0.1,2.4,0,3.4-0.4c0.5-0.2,0.9-0.5,1.2-1c0.3-0.5,0.4-0.9,0.4-1.4c0-0.5-0.2-0.9-0.5-1.4
				C279.6,245.7,279.1,245.3,278.4,245.2z"/>
			<path class="st9" d="M327.3,210.6c-0.7-1.4-1.8-2.7-3.1-3.8c-1.3-1-2.7-1.7-4.1-1.8c-1.4-0.2-2.7-0.1-4,0.2
				c-1.3,0.3-2.5,0.8-3.7,1.5c-1.1,0.7-2.2,1.3-3,2c-0.9,0.7-1.6,1.2-2.2,1.7c0,0-0.1,0.1-0.1,0.1c0-0.3,0-0.7,0-1.1
				c0-0.5,0-0.9,0-1.4c0-0.2,0-0.3,0-0.4c0.4-0.2,0.8-0.3,1.2-0.6c0.6-0.3,1.3-0.9,1.3-2.2c0-1.3-0.6-1.9-1.1-2.2
				c-0.6-0.3-1.2-0.5-1.6-0.5h-2.9c-0.9,0-1.8,0-2.5,0.1c-0.8,0.1-1.5,0.4-2,0.8c-0.5,0.4-0.8,1.1-0.8,1.9c0,0.6,0.2,1.1,0.5,1.5
				c0.3,0.3,0.6,0.6,1,0.7c0.3,0.2,0.7,0.3,1,0.4c0.1,0,0.2,0.1,0.3,0.1c0,0,0,0,0,0c0,0.2,0,0.4,0,0.7c-0.2,6.7-0.3,12.3-0.3,16.8
				c0,4.4,0,8.1,0.1,10.8c0.1,2.8,0.2,4.9,0.3,6.2c0.1,1.4,0.2,2.3,0.2,2.9c0,0.2,0,0.3,0,0.4c-0.2,0-0.4,0.1-0.6,0.1
				c-0.9,0.2-1.5,0.6-1.8,1.2c-0.3,0.6-0.5,1.1-0.4,1.7c0.1,0.6,0.4,1.1,0.9,1.6c0.5,0.5,1.1,0.7,1.8,0.8c0.7,0,1.3,0.1,2.1,0.1
				l2.1,0.1c0.5,0,0.9,0,1.3,0c0.2,0,0.4,0,0.6,0c0.7,0,1.1-0.1,1.4-0.3c0.6-0.2,1-0.6,1.3-1.1c0.3-0.4,0.4-0.9,0.4-1.4
				c0-0.5-0.2-1-0.5-1.5c-0.3-0.4-0.8-0.7-1.4-0.9c-0.4-0.1-0.7-0.2-1-0.2c-0.2,0-0.4,0-0.5,0c0,0,0-0.1-0.1-0.3c0-0.2,0-0.8-0.1-2
				c-0.1-1.1-0.2-2.4-0.2-3.9c-0.1-1.6-0.1-3.2-0.2-5c-0.1-1.7-0.1-3.3,0-4.8c0.6,0.1,1.3,0.3,2.1,0.4c0.8,0.2,1.7,0.3,2.7,0.4
				c1,0.1,2,0.2,3.1,0.1c1.1,0,2.3-0.2,3.5-0.5c1.9-0.4,3.6-1.2,5-2.2c1.4-1,2.6-2.3,3.4-3.7c0.9-1.4,1.5-2.9,1.9-4.5
				c0.4-1.6,0.4-3.2,0.3-4.8C328.5,213.6,328,212,327.3,210.6z M306.8,222.3c0-0.9,0-1.5,0-2c0-0.4,0-0.8,0.1-1.1
				c0.1-0.3,0.2-0.6,0.4-1c0.2-0.4,0.5-0.9,1-1.5c0.8-0.9,1.7-1.9,2.9-3c1.2-1,2.4-1.8,3.6-2.5c1.2-0.6,2.4-1,3.6-1.1
				c1.1-0.1,1.9,0.3,2.7,1.1c1.2,1.2,1.8,2.6,2.1,4.1c0.2,1.6,0,3.1-0.5,4.5c-0.6,1.4-1.5,2.6-2.8,3.6c-1.3,1-2.8,1.6-4.7,1.7
				c-1.4,0.1-2.8,0-4.1-0.2c-1.4-0.2-2.7-0.5-4.1-0.8l-0.1,0.6l0-0.7C306.8,223.8,306.8,223.2,306.8,222.3z"/>
			<path class="st9" d="M343,245.6c-0.4-0.1-0.7-0.1-1.1,0c-0.3,0-0.6,0-1-0.1l-0.9-25.8c-0.1-1.9-0.2-3.9-0.2-5.7
				c0-1.9-0.1-3.8-0.2-5.7c0-0.3,0-0.6,0-0.9c0,0,0-0.1,0-0.1c0.3,0,0.6,0,0.8-0.1c0.5-0.1,0.9-0.2,1.3-0.3c1.1-0.5,1.6-1.4,1.5-2.5
				c-0.1-1.1-0.7-1.9-1.7-2.3c-0.3-0.1-0.6-0.2-0.9-0.2c-0.2,0-0.4-0.1-0.7-0.1c-1.2,0-2.4,0-3.5,0c-1.1,0.1-2.3,0.2-3.4,0.2
				c-0.2,0-0.5,0.1-0.8,0.2c-2.2,0.6-2.3,2.1-2.2,2.8c0.1,0.9,0.6,2.4,3.1,2.2c0.3,0,0.6,0,0.9-0.1c0.1,0,0.2,0,0.3,0c0,0,0,0,0,0
				c0,0.1,0,0.2,0,0.3c0,2.1,0,4.2,0,6.3c0.1,2.1,0.1,4.1,0.2,6.2c0.1,5.8,0.4,11.8,0.6,17.7l0.4,7.8c0,0.1,0,0.2,0,0.3
				c-0.1,0-0.2,0.1-0.5,0.1c-0.2,0.1-0.4,0.1-0.5,0.2c-0.3,0.1-0.5,0.2-0.7,0.4c-0.8,0.5-1.2,1.2-1.2,2.1c0,0.9,0.4,1.7,1.3,2.2
				c0.5,0.2,1,0.3,1.6,0.3c0,0,0,0,0,0l6.5-0.2c0.7,0,1.4-0.1,1.9-0.3c0.7-0.2,1.2-0.6,1.5-1.1c0.3-0.5,0.4-1.1,0.3-1.8
				C345.4,246.9,344.8,245.8,343,245.6z"/>
			<path class="st9" d="M373.7,208.2c-0.1-0.8-0.3-1.6-0.6-2.4c-0.2-0.8-0.6-1.6-1-2.4c-0.7-1.2-1.8-1.8-3.3-1.8l-1.3,0
				c-2,0.1-4.1,0.2-6,0.3c-2,0.1-4,0.2-5.9,0.3c-0.4,0-0.8,0-1.1,0.1c-0.3,0-0.7,0.1-1,0.1c-0.7,0.1-1.3,0.3-1.9,0.9
				c-0.7,0.7-1.1,1.5-1.2,2.5c-0.2,1.2-0.3,2.4-0.4,3.6l-0.3,3.6c-0.1,1.8-0.2,3.5-0.2,5.2c0,1.7-0.1,3.4-0.2,5.2
				c-0.2,2.9-0.3,5.8-0.3,8.6c0,2.9,0.1,5.8,0.5,8.6c0.1,1,0.2,1.9,0.4,2.8c0.2,0.9,0.5,1.8,0.8,2.8c0.9,2.2,2.4,3.6,4.5,4.1
				c0.2,0,0.4,0.1,0.6,0.1c0.2,0,0.4,0.1,0.7,0.2c0.9,0.1,1.8,0.2,2.7,0.3l2.6,0.3c0.6,0,1.2,0.1,1.9,0.1c0.6,0,1.2,0,1.9-0.1
				c0.8-0.1,1.5-0.3,2-0.7c0.6-0.4,1-1.1,1.3-1.9c0.2-0.9,0.4-1.8,0.5-2.7c0.1-0.9,0.1-1.8,0.1-2.8l0-0.7h-0.2
				c-0.2-0.5-0.4-0.8-0.8-1.1c-0.4-0.4-1-0.6-1.6-0.7c-1.3,0-2.1,0.7-2.5,1.8c-0.1,0.3-0.2,0.5-0.2,0.8c0,0.1,0,0.3-0.1,0.5
				c-0.1,0.3-0.1,0.7-0.1,1.2c0,0.5-0.1,0.8-0.1,0.9c-0.1,0-0.4,0-0.7,0c-1-0.1-2-0.2-2.9-0.2c-0.9-0.1-1.9-0.2-3-0.4
				c-0.1,0-0.2,0-0.3,0c-0.1,0-0.2,0-0.4-0.1c-0.4-0.1-0.7-0.3-0.8-0.7c-0.3-0.8-0.5-1.7-0.7-2.7c-0.2-1-0.3-2.1-0.3-3
				c0-1-0.1-2.1-0.2-3.2c-0.1-1.6-0.1-3.2-0.1-4.8c0-1.6,0.1-3.2,0.2-4.8c0-0.7,0.1-1.3,0-1.7c0-0.2,0-0.3,0-0.4c0,0,0.1,0,0.3,0
				l1.8-0.1c0.3,0,0.6,0,0.8,0.1c0,0,0.1,0.1,0.2,0.4c0,0.4,0.2,0.7,0.4,0.8c0.5,0.7,1.3,1,2.1,0.9c0.8-0.1,1.5-0.5,2-1.2
				c0.4-0.6,0.5-1.2,0.4-1.8c-0.1-1.3-0.4-2.7-0.6-3.9c0-0.3-0.1-0.6-0.3-1c-0.5-0.8-1.1-1.2-1.9-1.3c-0.8-0.1-1.6,0.2-2.2,0.9
				c-0.2,0.2-0.3,0.4-0.4,0.6c-0.1,0.2-0.3,0.3-0.6,0.3h-1.7c0,0,0,0-0.1,0c0,0,0-0.1,0-0.1c0-1.6,0-3.3,0.1-5
				c0.1-1.7,0.2-3.4,0.3-5.1c0.1-0.4,0.1-0.5,0.1-0.6c0.1,0,0.2-0.1,0.6-0.1c0.3,0,0.5,0,0.6-0.1c1.6-0.1,3.2-0.2,4.7-0.2
				c1.6,0,3.2-0.1,4.8-0.2c0.5-0.1,0.9-0.1,1.3,0c0.1,0.2,0.2,0.3,0.2,0.5c0.1,0.3,0.2,0.6,0.3,1.1c0.1,0.1,0.1,0.2,0.1,0.4
				c0,0.3,0.1,0.5,0.2,0.7c0.6,1.3,1.8,1.9,3.1,1.6c0.6-0.1,1.2-0.5,1.6-1.1C373.7,209.6,373.8,208.9,373.7,208.2z"/>
		</g>
	</g>
	<g>
		<path class="st9" d="M335.9,288.7c2.9-1.4,5.8-1.2,8.6,0c2.2,0.9,4,2.3,5.7,3.9c2.9,2.8,5.2,6.1,6.9,9.7c2,4.3,3.3,8.8,4,13.4
			c0.6,4.3,0.6,8.5,0.3,12.8c-0.4,4.8-1,9.6-2.1,14.3c-1,4.2-2.3,8.2-4.3,12c-1.3,2.5-3,4.7-4.9,6.7c-0.5,0.5-1,1-1.6,1.4
			c-2.1,1.6-4.3,1.7-6.7,0.7c-0.4-0.2-0.9-0.4-1.3-0.6c-2.9,2.9-6.3,3.1-9.6,0.4c-0.2,0.2-0.3,0.3-0.5,0.5c-0.7,0.6-1.3,1.2-2.1,1.7
			c-1.1,0.8-2.3,1.3-3.7,1.4c-1.2,0.2-2.3-0.1-3.4-0.5c-1.1-0.5-2.1-1.2-2.9-2.1c-0.1-0.1-0.2-0.2-0.4-0.4c-0.2,0.2-0.4,0.4-0.7,0.5
			c-1.5,1.2-3.2,1.8-5.2,1.7c-1.4-0.1-2.6-0.5-3.8-1.1c-1.6-0.8-2.8-2-3.9-3.5c-0.3-0.5-0.7-0.6-1.2-0.4c-1.8,0.4-3.6,0.7-5.5,0.5
			c-2.4-0.3-4.5-1.1-6.4-2.5c-2.3-1.8-4.1-4-5.7-6.4c-2.5-3.8-3.9-8-4.8-12.4c-0.7-3.6-0.9-7.3-0.8-10.9c0.2-5.9,1.2-11.7,3-17.4
			c1-3.1,2.2-6.1,3.6-9c1.9-3.9,4.2-7.6,7.1-10.8c1.3-1.4,2.8-2.7,4.4-3.7c2.2-1.4,4.6-1.9,7.1-1.7c1.4,0.1,2.7,0.6,3.9,1.4
			c0.2,0.1,0.4,0.2,0.6,0.4c0.2-0.1,0.4-0.3,0.5-0.5c1.8-1.7,3.1-3.8,4.1-6.1c1.1-2.4,1.6-5,2-7.6c0.3-1.9,0.5-3.8,0.9-5.6
			c0.5-2.1,1.2-4.1,2.4-6c1.4-2.3,3.2-4,5.7-5c2-0.8,4.1-1.1,6.2-0.6c2.6,0.6,4.3,2.3,4.7,5.1c0.2,1.5,0,2.9-0.4,4.3
			c0,0.1-0.1,0.3-0.2,0.4c-0.3,0.6-0.6,1.1-1.4,1.1c-0.8,0-1.5-0.4-1.9-1.1c-0.2-0.3-0.1-0.6,0-0.9c0.1-0.2,0.3-0.4,0.4-0.7
			c0.2-0.3,0.3-0.6,0.4-0.9c0.3-0.9-0.2-1.7-1-2c-0.7-0.2-1.4-0.2-2.1,0.2c-0.8,0.4-1.5,1-1.9,1.8c-0.6,1.1-1,2.2-1.2,3.5
			c-0.6,4.7,0.1,9.2,2.5,13.4c1.5,2.7,3.5,5.1,6,7C335.7,288.5,335.8,288.6,335.9,288.7z"/>
		<path class="st7" d="M149,349.2c0.3,0.3,0.5,0.5,0.7,0.7c1.1,1.1,2.2,2.2,3.2,3.4c1.2,1.3,2.1,2.8,2.9,4.4
			c0.2,0.5,0.5,1.1,0.6,1.7c0.2,0.9-0.2,1.4-1.1,1.4c-0.3,0-0.6,0-0.9-0.1c-1.7-0.4-3.5-0.3-5.2,0c-2.5,0.4-5,0.8-7.5,1.3
			c-2,0.4-3.9,0.2-5.9-0.3c-1.9-0.5-3.7-0.7-5.6-0.9c-3.8-0.3-7.6-0.7-11.3-1.4c-0.6-0.1-1.1-0.2-1.7-0.3c-0.6-0.1-0.8,0.1-0.7,0.7
			c0.1,1,0.2,2.1,0.5,3.1c0.3,0.7,0.7,1.3,1.3,1.8c0.6,0.4,1,1,1.2,1.7c0.1,0.3,0.1,0.6-0.2,0.9c-0.3,0.2-0.6,0.2-0.9,0
			c-0.4-0.2-0.8-0.5-1.2-0.7c-0.6-0.3-1.1-0.7-1.7-0.9c-1-0.5-2.1-0.5-3.2-0.1c-0.6,0.3-1.3,0.5-1.9,0.8c-1.6,0.7-3.3,1.1-5.2,1
			c-0.3,0-0.7-0.1-1-0.2c-0.8-0.3-0.9-1-0.3-1.6c0.1-0.1,0.2-0.2,0.4-0.4c-0.6-0.3-1.1-0.6-1.6-0.9c-0.5-0.2-1.1-0.3-1.6-0.1
			c-0.6,0.2-1.1,0.4-1.7,0.6c-0.7,0.3-1.4,0.7-2.1,0.9c-0.3,0.1-0.7,0.2-1.1,0.3c-0.4,0.1-0.8-0.1-1-0.5c-0.2-0.4-0.2-0.9,0.1-1.2
			c0.4-0.5,0.9-0.9,1.4-1.2c0.9-0.6,1.8-1,2.7-1.6c0.2-0.1,0.4-0.2,0.6-0.3c0.8-0.4,1.2-1,1.1-1.9c-0.1-1.2-0.2-2.5-0.4-3.7
			c0-0.1,0-0.2-0.1-0.4c-0.1-0.6-0.3-0.8-0.9-0.9c-0.2,0-0.4,0-0.6,0c-1,0.2-1.9,0-2.8-0.4c-1.6-0.9-3.2-1.9-4.6-3
			c-2.1-1.7-3.9-3.7-5.5-5.8c-0.5-0.7-1.1-1.4-1.7-2.2c-0.2,0.4-0.4,0.6-0.5,0.9c-0.6,1.6-1.8,1.4-2.7,0.5c-0.5-0.5-1.1-1.1-1.5-1.7
			c-2.2-3.1-4.4-6.3-6.3-9.7c-0.2-0.3-0.3-0.5-0.7-0.6c-0.7-0.1-1.2-0.6-1.6-1.2c-0.6-1-0.8-2.1-0.9-3.3c-0.1-1.9,0.3-3.7,0.8-5.4
			c0.2-0.9,0.4-1.7,0.7-2.5c0-0.1,0-0.1-0.1-0.1c-0.9-0.6-1.2-1.2-0.8-2.3c0.4-1.1,1-2,1.8-2.8c2-2.2,3.9-4.4,6-6.6
			c1.8-1.9,3.6-3.6,5.4-5.5c0.6-0.6,1.2-1.3,1.8-2c1-1.3,1.7-2.7,1.9-4.3c0.1-0.6,0-1.1-0.3-1.7c-0.3-0.5-0.7-0.5-0.9-0.1
			c-0.3,0.5-0.4,1-0.5,1.5c-0.2,0.8-0.3,1.6-0.4,2.4c-0.1,0.4-0.2,0.9-0.4,1.3c-0.1,0.2-0.1,0.4-0.3,0.5c-0.2,0.3-0.6,0.4-1,0.3
			c-0.3-0.2-0.5-0.5-0.5-0.9c0-0.1,0.1-0.3,0.1-0.4c0.4-0.9,0.4-1.8,0.4-2.8c0-0.8,0-1.5,0-2.3c-0.9,0-1.8,0.1-2.6,0.3
			c-0.3,0.1-0.6,0.1-0.8,0.2c-0.5,0.1-0.9,0-1.1-0.4c-0.3-0.4-0.1-0.8,0.1-1.1c0.4-0.6,1-1.1,1.6-1.4c0.8-0.4,1.5-0.9,2.3-1.3
			c1.2-0.6,2.1-1.5,2.7-2.8c0.1-0.2,0.2-0.3,0.3-0.5c1.7-3.3,4.6-4.6,8-5.1c1.3-0.2,2.7,0,3.9,0.5c2.8,1.1,4.3,3.3,4.9,6.2
			c0.5,2.2,0.4,4.5-0.3,6.6c-0.6,1.9-1.5,3.7-2.5,5.5c-0.6,1-1.1,2.1-1.7,3.2c-0.1,0.3-0.2,0.6-0.4,1c0.5-0.1,0.8-0.2,1.1-0.3
			c2.5-0.8,5-1.5,7.5-2c0.9-0.2,1.7-0.2,2.6-0.4c1.1-0.1,1.3-0.4,1.4-1.5c0.1-1.5,0.1-3.1,0.3-4.6c0.4-2.8,1-5.6,2-8.3
			c0.2-0.6,0.6-1.3,0.9-1.8c0.9-1.3,2-1.7,3.5-1.3c0.7,0.2,1.4,0.5,2.1,0.8c0.4-0.1,0.4-0.5,0.5-0.8c0.4-1,0.8-2.1,1.3-3
			c0.5-1,1-1.9,1.5-2.8c0.3-0.5,0.7-0.9,1.2-1.2c0.8-0.6,1.7-0.6,2.4,0.1c0.4,0.4,0.8,0.9,1.1,1.3c0.4,0.7,0.8,1.5,1.2,2.3
			c0.6,1.2,0.8,1.3,1.7,0.2c0.8-0.9,1.5-1.8,2.2-2.7c1.7-2.2,3.5-4.3,5.4-6.3c1.2-1.2,2.4-2.2,3.9-3.1c1-0.6,2-1,3.2-1.2
			c2.3-0.4,4.3,0.6,5.4,2.8c0.6,1.2,0.8,2.6,0.8,4c0,1.2,0,2.4,0,3.7c0,0.4,0.1,0.7,0.2,1.2c0.4-0.2,0.7-0.3,1-0.4
			c0.9-0.5,1.7-1,2.6-1.5c0.8-0.4,1.6-0.8,2.5-1.1c0.5-0.2,1.1-0.2,1.6-0.3c1.1-0.1,1.9,0.5,2.4,1.5c0.5,0.8,0.6,1.7,0.7,2.7
			c0.2,1.9,0.1,3.9-0.1,5.8c-0.2,2.2-0.5,4.4-0.4,6.6c0,0.3,0.1,0.6,0.1,0.9c0.2,0.7,0.5,0.9,1.2,0.7c0.5-0.1,1.1-0.3,1.6-0.5
			c1.4-0.6,2.8-1.2,4.2-1.7c1.2-0.4,2.4-0.8,3.6-0.8c2.5-0.1,3.8,1.3,3.7,3.9c-0.1,1.4-0.4,2.8-0.9,4.1c-1.4,3.8-3.4,7.3-5.7,10.7
			c-0.7,1-1.5,2-2.2,3.1c-0.3,0.4-0.6,0.9-0.8,1.3c-0.3,0.6-0.2,1,0.4,1.3c0.4,0.3,0.9,0.5,1.3,0.7c0.6,0.3,1.2,0.5,1.8,0.8
			c1.4,0.8,1.8,1.8,1.3,3.4c-0.2,0.6-0.6,1.3-0.9,1.8c-1.1,1.8-2.6,3.4-4.2,4.9c-0.8,0.7-1.6,1.4-2.4,2.1c-0.5,0.5-0.7,1-0.4,1.6
			c0.1,0.2,0.1,0.4,0.2,0.6c0.4,1.2,0.1,2.3-0.8,3.1c-1.2,1.2-2.6,2.1-4.2,2.6c-2.9,1-5.9,1.6-9,1.5c-1.6-0.1-3.2-0.1-4.8,0.4
			c-0.5,0.1-0.9,0.3-1.3,0.5c-0.5,0.3-0.6,0.5-0.3,1c0.2,0.3,0.4,0.6,0.7,0.8c1,1,2.1,1.8,3.4,2.4c0.8,0.4,1.7,0.7,2.5,1.2
			c1,0.5,2,1.1,2.7,2c0.3,0.4,0.7,0.8,0.9,1.3c0.3,0.7,0,1.1-0.7,1.1c-0.8,0-1.5-0.1-2.3-0.2C150.2,349.4,149.7,349.3,149,349.2z
			 M104,356.4c0.1,0.8,0.1,1.4,0.1,2.1c0.1,2.1,1.2,3.5,3,4.3c0.3,0.1,0.5,0.2,0.7,0c1.1-0.5,2.2-1,3.3-1.5c0.1-0.1,0.3-0.1,0.4-0.2
			c0.5-0.3,0.6-0.7,0.4-1.2c-0.2-0.5-0.5-1-1.1-1.3c-0.5-0.3-1.1-0.6-1.6-0.7C107.6,357.4,105.8,357.2,104,356.4z"/>
		<g>
			<path class="st8" d="M187.3,319.6c0.1-0.2,0.2-0.5,0.3-0.7c3.7-7.3,8.3-13.9,14-19.7c5.1-5.1,10.5-9.7,16.7-13.4
				c1.9-1.1,3.9-2.1,5.8-3.1c0.4-0.2,0.8-0.3,1.3-0.1c0.8,0.4,1.7,0.7,2.4,1.1c5.7,2.9,11.1,6.1,16,10.2c3,2.6,5.7,5.5,8.3,8.4
				c1.2,1.4,2.4,2.8,3.6,4.2c3.1,3.8,5.5,7.9,7.3,12.5c0.4,1.1,0.8,2.3,1.3,3.4c0.2,0.5,0.2,1,0,1.5c-1.3,2.3-2.4,4.8-3.9,7
				c-4.9,7.6-10.5,14.5-17,20.7c-3.6,3.4-7.6,6.2-11.9,8.5c-0.5,0.3-0.9,0.3-1.5,0.1c-5.1-1.5-9.8-3.8-14.1-6.7
				c-6.8-4.5-13-9.6-18.4-15.7c-2.1-2.4-3.9-4.9-5.6-7.5c-2-3.1-3.4-6.5-4.4-10.1C187.4,320,187.3,319.8,187.3,319.6z M199.1,327.2
				c-0.3-0.5-0.6-0.9-0.9-1.3c-0.2-0.4-0.6-0.7-1-0.8c-0.6-0.1-1.1,0-1.4,0.5c-0.5,0.6-0.4,1.2-0.1,1.8c1.4,2.5,3.3,4.3,5.8,5.6
				c0.2,0.1,0.4,0.2,0.7,0.2c0.6,0.1,1.3-0.2,1.6-0.7c0.3-0.6,0.2-1.3-0.3-1.7c-0.2-0.2-0.5-0.4-0.8-0.5c-0.5-0.3-0.9-0.6-1.5-0.9
				c0.9-1.3,1.7-2.5,2.6-3.7c0.4,0.4,0.8,0.7,1.2,1c0.3,0.2,0.6,0.5,0.9,0.7c0.6,0.4,1.4,0.3,1.9-0.3c0.5-0.5,0.5-1.3,0-1.9
				c-0.2-0.2-0.4-0.4-0.6-0.6c-0.5-0.5-1-0.9-1.6-1.4c1-1.2,2-2.4,2.9-3.5c0.3,0.2,0.5,0.4,0.7,0.6c0.5,0.4,0.9,0.8,1.4,1.1
				c0.7,0.5,1.6,0.4,2.1-0.2c0.5-0.6,0.4-1.4-0.1-2c-0.2-0.2-0.5-0.4-0.7-0.7c-0.4-0.4-0.8-0.7-1.3-1.1c0.9-1,1.7-1.8,2.6-2.8
				c0.5,0.4,0.8,0.8,1.2,1.1c0.7,0.5,1.4,0.6,2,0.1c0.7-0.5,0.7-1.5,0.1-2.2c-0.4-0.4-0.7-0.8-1-1c0.8-0.8,1.6-1.7,2.4-2.5
				c0.3,0.2,0.5,0.4,0.8,0.6c0.3,0.3,0.7,0.6,1,0.8c0.7,0.4,1.5,0.3,1.9-0.3c0.5-0.5,0.4-1.4-0.1-1.9c-0.2-0.2-0.5-0.4-0.7-0.7
				c-0.2-0.2-0.5-0.4-0.8-0.7c0.8-0.8,1.6-1.5,2.4-2.2c0.3,0.3,0.6,0.6,0.9,0.8c0.3,0.3,0.5,0.6,0.8,0.8c0.7,0.6,1.6,0.6,2.2,0
				c0.5-0.6,0.5-1.4-0.1-2.1c-0.1-0.2-0.3-0.3-0.4-0.4c-0.3-0.4-0.7-0.7-1.1-1.1c1.1-1,2.1-1.9,3.2-2.8c0.3,0.3,0.5,0.6,0.8,0.8
				c0.3,0.3,0.5,0.6,0.8,0.8c0.6,0.6,1.4,0.6,2,0.1c0.6-0.5,0.7-1.3,0.2-2.1c-0.2-0.3-0.5-0.5-0.7-0.8c-0.2-0.3-0.5-0.5-0.8-0.9
				c1.3-0.9,2.5-1.8,3.7-2.7c0.4,0.5,0.7,0.9,1,1.3c0.2,0.3,0.4,0.6,0.6,0.8c0.4,0.4,1,0.6,1.6,0.3c0.5-0.2,0.9-0.7,0.9-1.2
				c0-0.4-0.1-0.8-0.3-1.1c-1.4-2.3-3.3-4.1-5.7-5.3c-0.3-0.1-0.6-0.3-0.9-0.3c-0.7-0.1-1.4,0.2-1.6,0.8c-0.3,0.6-0.1,1.4,0.5,1.8
				c0.2,0.1,0.4,0.2,0.6,0.3c0.3,0.2,0.6,0.3,1,0.6c-1.2,0.9-2.4,1.8-3.5,2.6c-0.7-0.4-1.3-0.9-2-1.2c-0.3-0.2-0.7-0.3-1-0.3
				c-0.6-0.1-1.2,0.3-1.4,0.8c-0.2,0.5-0.1,1.2,0.3,1.6c0.2,0.2,0.5,0.3,0.7,0.5c0.3,0.2,0.6,0.4,1,0.6c-1.1,1-2.1,1.9-3.1,2.8
				c-0.5-0.4-0.9-0.8-1.3-1.2c-0.8-0.8-1.7-0.8-2.4-0.2c-0.6,0.7-0.5,1.5,0.3,2.3c0.3,0.3,0.7,0.6,1.1,1c-0.9,0.8-1.7,1.5-2.5,2.3
				c-0.3-0.2-0.5-0.4-0.7-0.6c-0.4-0.4-0.8-0.8-1.3-1.1c-0.6-0.4-1.5-0.3-1.9,0.2c-0.5,0.6-0.5,1.3,0,1.9c0.2,0.2,0.4,0.4,0.6,0.6
				c0.4,0.3,0.7,0.7,1.1,1.1c-0.4,0.4-0.8,0.8-1.2,1.2c-0.4,0.4-0.8,0.8-1.3,1.2c-0.2-0.1-0.3-0.2-0.4-0.3c-0.5-0.4-0.9-0.9-1.4-1.2
				c-0.6-0.5-1.4-0.4-2,0.1c-0.6,0.5-0.6,1.4-0.1,2c0.2,0.3,0.5,0.5,0.8,0.8c0.3,0.3,0.6,0.5,0.9,0.8c-0.9,0.9-1.7,1.8-2.6,2.8
				c-0.3-0.2-0.5-0.5-0.8-0.7c-0.3-0.2-0.5-0.5-0.8-0.7c-0.6-0.4-1.3-0.3-1.8,0.2c-0.5,0.5-0.6,1.2-0.2,1.8c0.2,0.2,0.4,0.5,0.6,0.7
				c0.3,0.3,0.6,0.6,1,0.9c-0.9,1.1-1.8,2.2-2.8,3.3c-0.4-0.6-0.7-1.2-1.1-1.7c-0.4-0.6-1.2-0.8-1.8-0.5c-0.6,0.3-1,1-0.7,1.7
				c0.2,0.5,0.5,1,0.8,1.5c0.3,0.5,0.7,1,1,1.4C200.8,324.7,200,325.9,199.1,327.2z"/>
			<path class="st8" d="M218.6,365.3c-1.3,0.3-2.5,0.6-3.6,0.8c-3.3,0.6-6.5,1.2-9.9,1.1c-4.5-0.1-9.1-0.3-13.5-1.4
				c-2.1-0.5-4.1-1.1-6.1-2c-1-0.4-1.7-1.1-2.1-2.1c-1.2-2.9-2.2-5.8-2.7-8.9c-0.6-3.6-0.6-7.3-0.3-10.9c0.3-3.2,0.8-6.4,1.7-9.5
				c0.1-0.2,0.1-0.4,0.2-0.7c0.1,0.2,0.3,0.3,0.3,0.4c3.4,6.2,7.8,11.6,12.9,16.4c4.7,4.5,9.7,8.6,15.2,12.2
				c2.3,1.5,4.8,2.8,7.1,4.1C218.1,364.9,218.3,365.1,218.6,365.3z"/>
			<path class="st8" d="M237.1,278.4c1.6-0.2,3.2-0.5,4.8-0.7c3.2-0.4,6.4-0.5,9.7-0.4c4.5,0.1,8.9,1,13.1,2.6c1.5,0.6,2.5,1.5,3,3
				c0.6,2,1.1,4,1.6,6c0.9,4.4,1.2,8.8,0.9,13.3c-0.2,2.7-0.6,5.4-1.5,8.2c0-0.1-0.1-0.3-0.1-0.4c-2.5-4.7-5.7-8.8-9.2-12.8
				c-3-3.4-6.1-6.7-9.5-9.7c-3.5-3.1-7.2-5.6-11.2-7.9c-0.5-0.3-1-0.6-1.5-0.9C237,278.5,237,278.4,237.1,278.4z"/>
		</g>
	</g>
</g>
</svg>
