<?xml version="1.0" encoding="utf-8"?>
<!-- Generator: Adobe Illustrator 22.0.1, SVG Export Plug-In . SVG Version: 6.00 Build 0)  -->
<svg version="1.1" id="Calque_1" xmlns="http://www.w3.org/2000/svg" xmlns:xlink="http://www.w3.org/1999/xlink" x="0px" y="0px"
	 viewBox="0 0 432 432" style="enable-background:new 0 0 432 432;" xml:space="preserve">
<style type="text/css">
	.st0{fill:#B78D5C;}
	.st1{fill:#EBCEC6;}
	.st2{fill:#D4B67E;}
	.st3{fill:#EF798A;}
	.st4{fill:#FBD8E3;}
	.st5{fill:#660A1E;}
	.st6{fill:#990033;}
	.st7{fill:#07512C;}
	.st8{fill:#8CC63F;}
	.st9{fill:#006837;}
	.st10{fill:#CCCCCC;}
	.st11{fill:#FFFFFF;}
	.st12{fill:#8A1A31;}
	.st13{fill:#A7A6AA;}
	.st14{fill:#D3A9B2;}
	.st15{fill:#2A2A2B;}
	.st16{fill:#DDC090;}
	.st17{fill:#AF434B;}
	.st18{fill:#62A581;}
	.st19{fill:#94C16C;}
	.st20{fill:#B9011B;}
	.st21{fill:#BABABA;}
	.st22{fill:#754C24;}
	.st23{fill:#A67C52;}
	.st24{fill:#8C6239;}
	.st25{fill:#C69C6D;}
	.st26{fill:#9E1E28;}
	.st27{fill:#D6C188;}
	.st28{fill:#BF364A;}
	.st29{fill:#A1272D;}
	.st30{fill:#BFA76B;}
	.st31{fill:#DCDEDD;}
	.st32{fill:#D89A5D;}
	.st33{fill:#F5EDDB;}
	.st34{fill:#603813;}
	.st35{fill:#4A7575;}
	.st36{fill:#7F3244;}
	.st37{fill:#9E7E5E;}
	.st38{fill:#C1272D;}
	.st39{fill:#561217;}
	.st40{fill:#C49F7A;}
	.st41{fill:#534741;}
	.st42{fill:#999999;}
	.st43{fill:#A80031;}
	.st44{fill:#1A1A1A;}
	.st45{fill:#333333;}
	.st46{fill:#B3B3B3;}
	.st47{fill:#B3A6AD;}
	.st48{fill:#B6B155;}
	.st49{fill:#679CBA;}
	.st50{fill:#0071BC;}
	.st51{fill:#F7931E;}
	.st52{fill:#821119;}
	.st53{fill:#39B54A;}
	.st54{fill:#1B1464;}
	.st55{fill:#FAF3E3;}
	.st56{fill:#DCD2BD;}
	.st57{fill:#F5EDDA;}
	.st58{fill:#815D3C;}
	.st59{fill:#F69331;}
	.st60{fill:#BCA791;}
	.st61{fill:#F9D51D;}
	.st62{fill:#704638;}
	.st63{fill:#A7DBD7;}
	.st64{fill:#DED7CD;}
	.st65{fill:#E89024;}
	.st66{fill:#EACAAC;}
	.st67{fill:#D8B195;}
	.st68{fill:#A50423;}
	.st69{fill:#CC7312;}
	.st70{fill:#9EC5FF;}
	.st71{fill:#6D86B4;}
	.st72{fill:#2E363A;}
	.st73{fill:#FFCC00;}
	.st74{fill:#B58847;}
	.st75{fill:#563315;}
	.st76{fill:#ED0A3A;}
	.st77{fill:#A62714;}
	.st78{fill:#247E5B;}
	.st79{fill:#176041;}
	.st80{fill:#61B756;}
	.st81{fill:#EDDBAE;}
	.st82{fill:#3F3F3F;}
	.st83{fill:#595959;}
	.st84{fill:#484849;}
	.st85{fill:#EFD1B4;}
	.st86{fill:#E0E0E2;}
	.st87{fill:#CCCCCE;}
	.st88{fill:#CEC76B;}
	.st89{fill:#42210B;}
	.st90{fill:#FCACBC;}
	.st91{fill:#D6B994;}
	.st92{fill:#F8C2C2;}
	.st93{fill:#E4D48E;}
	.st94{fill:#A57C53;}
	.st95{fill:#96704B;}
	.st96{fill:#9D6D47;}
	.st97{fill:#591427;}
	.st98{fill:#7CCC71;}
	.st99{fill:#C7B299;}
	.st100{fill:#998675;}
	.st101{fill:#7DC34D;}
	.st102{fill:#80694F;}
	.st103{fill:#FF1C2E;}
	.st104{fill:#A51B29;}
	.st105{fill:#00673B;}
	.st106{fill:#B88464;}
	.st107{fill:#CA986F;}
	.st108{fill:#3F2316;}
	.st109{fill:#F1F1F2;}
	.st110{fill:#00924A;}
	.st111{fill:#C7202F;}
	.st112{fill:#BBBDBF;}
	.st113{fill:#58595B;}
	.st114{fill:#D0D2D3;}
	.st115{fill:#6C6E70;}
	.st116{fill:#663818;}
	.st117{fill:#FF9134;}
	.st118{fill:#AC8D6B;}
	.st119{fill:#CE1F32;}
	.st120{fill:#00B252;}
	.st121{fill:#804D34;}
	.st122{fill:#61A6AF;}
	.st123{fill:#4C838D;}
	.st124{fill:#E6E6E6;}
	.st125{fill:#E6E7E7;}
	.st126{fill:#55396B;}
	.st127{fill:#6F4696;}
	.st128{fill:#9C2D8C;}
	.st129{fill:#915D3F;}
	.st130{fill:none;}
	.st131{fill:#00BCB9;}
	.st132{fill:#00BBB8;}
	.st133{fill:#6C328D;}
	.st134{fill:#5D4A42;}
	.st135{fill:#746559;}
	.st136{fill:#009245;}
	.st137{fill:#808184;}
	.st138{fill:#00A69C;}
	.st139{fill:#0078B8;}
	.st140{fill:#9F847A;}
	.st141{fill:#EECCB3;}
	.st142{fill:#241F20;}
	.st143{fill:#0D5408;}
	.st144{fill:#C9800A;}
	.st145{fill:#083A04;}
	.st146{fill:#BF001A;}
	.st147{fill:#AA0012;}
	.st148{fill:#9E620B;}
	.st149{fill:#A80E28;}
	.st150{fill:#0C3A1F;}
	.st151{fill:#C10A0A;}
	.st152{fill:#0A3D06;}
	.st153{fill:#A30738;}
	.st154{fill:#7F0A2E;}
	.st155{fill:#D8712B;}
	.st156{fill:#C15105;}
	.st157{fill:#F4A00B;}
	.st158{fill:#10440A;}
	.st159{fill:#A00E0E;}
	.st160{fill:#0F230D;}
	.st161{fill:#B20B33;}
	.st162{fill:#E5E5E5;}
	.st163{fill:#11722D;}
	.st164{fill:#0B281A;}
	.st165{fill:#E59D1F;}
	.st166{fill:#C60924;}
	.st167{fill:#960820;}
	.st168{fill:#AD1431;}
	.st169{fill:#E24756;}
	.st170{fill:#CE364C;}
	.st171{fill:#A50707;}
	.st172{fill:#4A9B29;}
	.st173{fill:#468E24;}
	.st174{fill:#AF0E22;}
	.st175{fill:#EDECE6;}
	.st176{fill:#54220E;}
	.st177{fill:#592C1C;}
	.st178{fill:#EFEAC7;}
	.st179{fill:#042111;}
	.st180{fill:#A80C0C;}
</style>
<g>
	<g>
		<g>
			<path class="st0" d="M86.1,150.6c0,0.8,0,1.4,0,2c0.1,10.2,0.3,20.3,0.3,30.5c0,7.2-0.2,14.3-0.3,21.5c-0.1,4.8,0,9.5,0,14.3
				c0,0.3,0,0.5,0,0.9c1.2,0.1,2.3,0.1,3.5,0.2c1.1,0.1,2.3,0.3,3.4,0.5c0.2,0,0.3,0.1,0.5,0.2c0.8,0.3,1.3,1,1.2,1.8
				c-0.1,0.8-0.7,1.5-1.7,1.6c-1.3,0.1-2.6,0.2-3.9,0.2c-0.9,0-1.9-0.1-2.9-0.1c0,0.4-0.1,0.7-0.1,1c0,1.7,0.1,3.5,0.1,5.2
				c-0.1,3.1-0.2,6.3-0.3,9.4c0,0.4-0.1,0.9-0.2,1.3c-0.4,1.6-1.8,2.8-3.5,2.8c-1.6,0.1-3-0.9-3.6-2.5c-0.2-0.6-0.3-1.2-0.4-1.9
				c-0.6-3.4-0.7-6.8-0.9-10.2c-0.5-10.5-0.4-21-0.5-31.6c0-15,0-30,0.1-45c0-0.3,0-0.7,0-1.1c-0.7,0.2-1.2,0.3-1.7,0.4
				c-4.3,1.1-8.1,3-11.4,5.9c-2,1.8-4.1,3.6-6.2,5.4c-0.3,0.3-0.7,0.6-1.1,0.8c-0.5,0.2-1,0.3-1.5,0.2c-0.9-0.2-1.4-1.2-0.7-2
				c0.7-0.8,1.3-1.6,2.1-2.4c1.9-1.8,3.8-3.7,5.8-5.4c3.7-3.3,8.1-5.3,12.8-6.8c0.6-0.2,1.2-0.3,1.8-0.5c0.1-1,0.1-2,0.2-3
				c0.1-2.1,0.3-4.1,0.5-6.2c0.1-1.2,0.6-2.4,1.4-3.5c1.7-2.2,4.8-2,6.2,0.4c0.2,0.4,0.4,0.8,0.5,1.2c0.2,0.8,0.4,1.7,0.4,2.5
				c0.1,2,0.1,3.9,0.1,5.9c0,0.4,0,0.8,0,1.2c0.3,0,0.4,0.1,0.6,0.1c9.7-0.2,19,1.7,28,4.8c4.2,1.4,8.2,3.1,12.3,4.6
				c2.7,1,5.4,1.9,8.3,2.3c3.9,0.6,7.8,0.2,11.3-1.7c4.6-2.5,7-6.5,7.3-11.7c0.1-1.4-0.2-2.8-0.7-4.1c-0.1-0.4-0.3-0.8-0.4-1.1
				c-0.4-1.3,0.7-2.4,2-2.1c0.8,0.2,1.3,0.7,1.8,1.2c1.4,1.6,2.1,3.5,2.3,5.6c0.7,7.5-2.5,13-8.7,16.9c-4.9,3.1-10.4,3.9-16.1,3.1
				c-4.4-0.7-8.6-2.1-12.7-3.8c-5.7-2.3-11.3-4.6-17.2-6.3c-4.6-1.3-9.2-2.3-13.9-2.7C89,150.7,87.7,150.7,86.1,150.6z"/>
			<path class="st0" d="M209.7,155.7c-0.6,0.2-0.9,0.3-1.3,0.4c-3.6,1.3-7.2,2.6-10.9,3.8c-4.7,1.6-9.5,2.5-14.4,2.7
				c-4.2,0.1-8.2-0.3-12.1-2c-2.7-1.1-5-2.8-6.5-5.3c-1.3-2.2-1.7-4.4-1.1-6.9c0.5-2,1.3-3.8,2.6-5.4c0.6-0.7,1.3-1.4,2.2-1.7
				c0.5-0.2,1-0.3,1.5-0.3c0.6,0,1.1,0.3,1.3,0.9c0.2,0.6-0.1,1.1-0.6,1.4c-1.7,1.2-2.4,2.9-2.8,4.8c-0.3,1.6,0,3,1,4.3
				c1.2,1.6,2.7,2.7,4.5,3.5c4.4,1.8,9,2.7,13.8,2c1.3-0.2,2.7-0.4,3.9-0.9c3.7-1.4,7.3-2.8,11-4c1.9-0.7,3.8-1.6,5.7-2.4
				c2.6-1.1,5.3-1.9,8.1-2.2c0.3,0,0.7-0.1,1-0.1c2.8-0.2,4.3,2.5,3.5,4.7c-0.1,0.4-0.3,0.8-0.5,1.1c-1.6,3.2-3.2,6.3-4.9,9.5
				c-2,3.8-4.1,7.5-6.1,11.2c-0.6,1.1-1.1,2.3-1.6,3.4c-0.9,1.7-1.8,3.4-2.6,5.2c-1.2,2.5-2.4,5-3.5,7.5c-4.7,10.3-9.3,20.7-14,31
				c-2.6,5.7-5.5,11.3-8.2,17c-0.1,0.2-0.1,0.4-0.3,0.7c2.2-0.1,4.4-0.1,6.5-0.2c6.1-0.3,12.2-0.6,18.2-0.9c0.7,0,1.5,0.1,2.2,0.2
				c0.2,0,0.5,0.1,0.7,0.2c0.9,0.3,1.4,1,1.4,1.8c0,0.8-0.5,1.5-1.4,1.8c-0.8,0.2-1.7,0.3-2.5,0.4c-0.7,0.1-1.4,0-2,0.1
				c-3,0.2-6,0.3-9,0.5c-4.1,0.3-8.2,0.6-12.4,0.5c-2.5-0.1-5-0.3-7.4-1.1c-1.8-0.6-2.9-2.3-2.5-4.2c0.1-0.5,0.2-0.9,0.4-1.4
				c2.2-5.5,4.6-10.9,7.2-16.2c2.6-5.6,5.1-11.2,7.7-16.8c4.8-10.5,9.6-21,14.5-31.4c1.3-2.7,2.6-5.4,4.1-8c1.5-2.7,3.3-5.4,4.9-8
				C209.2,156.5,209.4,156.2,209.7,155.7z"/>
			<path class="st0" d="M136.9,238.6c1.4-0.1,2.7-0.1,4-0.2c1.8-0.1,3.5-0.1,5.3-0.2c0.3,0,0.7,0,1,0.1c1,0.2,1.6,0.8,1.7,1.7
				c0.1,0.9-0.4,1.7-1.3,2c-0.6,0.2-1.2,0.4-1.9,0.5c-3.4,0.7-6.8,0.7-10.3,0.7c-3-0.1-5.3-2.4-5.4-5.1c-0.1-2.2-0.3-4.3-0.4-6.5
				c-0.2-6.4-0.4-12.8-0.6-19.2c-0.1-6.4-0.2-12.7-0.3-19.1c-0.1-3.4-0.2-6.8,0-10.1c0.1-0.9,0.2-1.8,0.4-2.7
				c0.1-0.6,0.5-1.1,0.8-1.6c1-1.3,2.9-1.3,4.1-0.2c0.6,0.6,1.1,1.3,1.2,2.2c0.3,1.6,0.6,3.1,0.7,4.7c0.2,1.8,0.2,3.6,0.2,5.4
				c0,3.6,0,7.2,0.1,10.8c0.1,4.7,0.3,9.5,0.4,14.2c0.1,6.2,0.2,12.3,0.3,18.5C136.9,235.8,136.9,237.2,136.9,238.6z"/>
		</g>
		<g>
			<path class="st16" d="M107.1,166.9c0.1,1,0.2,1.7,0.3,2.5c0.2,2.6,0.4,5.3,0.5,7.9c0.2,4.9,0.4,9.8,0.5,14.7
				c0.2,9.4,0.3,18.7,0.4,28.1c0,0.3,0,0.7,0,1.1c0.4,0.1,0.7,0.1,1,0.2c1.5,0.1,3,0.2,4.5,0.4c0.7,0.1,1.4,0.3,2,0.6
				c0.7,0.3,1.1,0.9,1.1,1.7c0,0.8-0.5,1.4-1.3,1.6c-0.6,0.2-1.3,0.3-2,0.3c-1.2,0-2.4-0.2-3.6-0.3c-0.5,0-0.9-0.1-1.5-0.1
				c-0.1,4.8,0.4,9.6,0,14.5c1.1,0,2.2,0,3.2,0c1,0,2,0.1,2.9,0.2c0.2,0,0.4,0.1,0.6,0.1c0.7,0.2,1.1,0.8,1.1,1.4
				c0,0.6-0.4,1.2-1,1.3c-0.7,0.2-1.5,0.4-2.3,0.4c-2.3,0-4.6-0.1-6.9-0.1c-0.3,0-0.6,0-0.9,0c-1.6,0.2-3.3-0.7-3.9-2.9
				c-0.3-0.9-0.4-1.8-0.4-2.7c-0.3-5.5-0.4-11-0.7-16.5c-0.5-8.9-0.6-17.9-0.5-26.8c0.1-4.1,0.3-8.1,0.5-12.2
				c0.2-4.2,0.3-8.4,0.5-12.6c0.1-1.7,0.4-3.3,0.6-4.9c0-0.1,0-0.2,0.1-0.3c0.5-2.2,1.9-3.1,4.2-2.5c2.3,0.5,4.4,1.7,6.5,2.9
				c3.5,2,7.1,3.8,11,5c4.3,1.4,8.7,2.2,13.2,2.4c4,0.2,8-0.3,11.8-1.5c4.2-1.3,7.4-3.9,9.7-7.6c0.4-0.7,0.9-1.3,1.4-2
				c0.4-0.5,1-0.7,1.6-0.6c1,0.2,1.6,1.2,1.2,2.2c-0.2,0.6-0.6,1.1-0.9,1.6c-3.7,5.8-8.9,9.3-15.6,10.5c-6.3,1.2-12.5,0.7-18.7-0.5
				c-6-1.2-11.7-3.3-17.1-6.2C109,167.8,108.2,167.4,107.1,166.9z"/>
			<path class="st16" d="M159,206.9c0.1-4.6,0.1-9.2,0.3-13.8c0.1-4.8,0.3-9.7,0.5-14.5c0.1-2.5,0.3-4.9,0.5-7.4
				c0.1-0.7,0.2-1.3,0.5-2c0.3-0.8,0.9-1.3,1.8-1.3c0.9-0.1,1.6,0.4,2,1.2c0.3,0.7,0.5,1.4,0.6,2.1c0.2,1.5,0.4,3,0.4,4.4
				c0.2,8.3,0.4,16.6,0.4,24.9c0,3.4-0.2,6.8-0.3,10.1c0,0.4-0.1,0.8-0.1,1.2c0,5.9,0,11.8,0,17.7c0,3.1,0.1,6.2,0.1,9.3
				c0,1-0.2,1.9-0.6,2.7c-0.5,0.9-1.3,1.5-2.3,1.5c-1.1,0-1.9-0.6-2.4-1.5c-0.4-0.8-0.6-1.7-0.6-2.5c0-1.1,0-2.3-0.1-3.4
				c-0.2-9.1-0.4-18.1-0.5-27.2c0-0.5,0-1,0-1.5C159.2,206.9,159.1,206.9,159,206.9z"/>
		</g>
		<g>
			<path class="st6" d="M101.2,315.1c0.5-0.4,1-0.9,1.5-1.4c1.8-2,3.6-4,5.3-6c0.6-0.7,1.4-1.4,1.7-2.2c0.3-0.8,0.2-1.8,0.3-2.7
				c0.7-6.2,2.8-12,6.5-17c2.4-3.2,5.2-6.1,8.7-8.1c3.7-2.1,7.7-2.8,11.8-2c1,0.2,1.9,0.6,2.9,0.9c0.1-0.2,0.2-0.5,0.4-0.7
				c0.6-0.7,1.1-1.4,1.8-1.9c1.8-1.4,4-0.9,5.2,1.1c0.7,1.1,0.9,2.3,1,3.6c0.3,2.6,0.1,5.3-0.3,7.9c-0.7,4.9-1.4,9.8-2,14.7
				c-0.3,2.8-0.4,5.6-0.6,8.4c0,0.3,0,0.7,0.2,1.1c0.1-0.2,0.3-0.5,0.4-0.7c1.3-3.2,2.2-6.6,2.8-10c0.8-4.5,1.5-9.1,2.2-13.6
				c0.6-3.3,1.2-6.7,1.8-10c0.3-1.4,0.5-2.8,0.8-4.2c0.1-0.5,0.3-1,0.4-1.5c1-2.4,3.5-3.4,5.9-2.4c1.3,0.6,2.2,1.5,3,2.7
				c1.5,2.3,2.6,4.8,3.3,7.4c1,3.6,1.7,7.3,2,11c0.6,6.1,1.1,12.2,1.7,18.3c0.1,1,0.2,2,0.3,3.3c0.4-0.4,0.6-0.7,0.8-1
				c2.7-3.5,4.8-7.3,6.9-11.1c3.1-5.8,5.8-11.7,8.5-17.7c1.6-3.7,3.1-7.4,4.6-11.1c0.2-0.6,0.5-1.1,0.8-1.6c0.6-1,1.4-1.5,2.5-1.4
				c1.1,0.1,1.9,0.8,2.2,1.8c0.3,0.8,0.4,1.7,0.5,2.6c0.1,1,0.5,1.8,1.5,2.3c0.2-0.9,0.4-1.7,0.7-2.5c0.5-1.3,0.9-2.7,1.5-4
				c0.5-1.3,1.4-2.4,2.5-3.3c2.5-2,5.9-1.3,7.4,1.5c0.7,1.4,1,2.9,1,4.5c0.1,3.3-0.4,6.6-0.9,9.9c-0.9,6-2.6,11.8-3.9,17.6
				c-1,4.3-1.9,8.6-2.8,12.9c0,0.2-0.1,0.5-0.1,0.8c0.5-0.2,1-0.3,1.4-0.5c2.1-0.9,4.2-2,6-3.4c2-1.6,4-3.2,6-4.8
				c-0.5-1.8-0.6-3.6-0.6-5.4c0.1-3.4,0.8-6.6,1.8-9.8c1.6-5,3.7-9.8,6.7-14.1c1.4-2.1,3.1-4,5.1-5.5c3-2.3,6.3-3.2,10-2.3
				c0.6,0.2,1.3,0.4,2,0.7c0.1-0.6,0.2-1.2,0.3-1.8c0.8-4.8,1.6-9.6,2.5-14.4c1.7-9.8,3.7-19.5,6-29.1c1.7-7.2,3.6-14.4,6.3-21.4
				c1-2.7,2.2-5.4,3.7-7.9c0.9-1.5,1.9-2.8,3.2-3.9c2.2-1.8,4.6-2.7,7.4-2.1c1.9,0.4,3.3,1.5,4.3,3.1c1.1,1.7,1.7,3.6,2.1,5.6
				c1.4,6.6,1.1,13.2-0.3,19.7c-1.5,7-3.9,13.6-6.7,20.2c-2.2,5.2-4.7,10.3-7.6,15.1c-1.7,2.7-3.5,5.3-5.6,7.7
				c-0.4,0.4-0.5,0.8-0.6,1.4c-0.6,3.7-1.2,7.5-1.7,11.2c-0.7,6.2-1.4,12.5-2,18.8c-0.5,5.6-0.7,11.2-1,16.8c-0.1,2.1,0,4.3,0.5,6.4
				c0.1,0.3,0.1,0.6,0.3,1c0.6-0.5,1-0.8,1.5-1.3c1.7-1.8,3.2-3.8,4.5-5.9c1-1.6,1.9-3.2,2.8-4.8c0.2-0.3,0.3-0.8,0.3-1.1
				c-0.2-9.8,3.2-18.3,8.8-26.1c1.6-2.2,3.4-4.1,5.5-5.8c3.5-2.7,7.4-3.9,11.8-3.8c1.5,0.1,3,0.5,4.4,1.1c0.3,0.1,0.6,0.3,1,0.4
				c0.2-0.3,0.3-0.6,0.5-0.9c0.4-0.6,0.8-1.3,1.4-1.9c2.1-2.2,5.2-1.9,7,0.6c1,1.4,1.4,3.1,1.6,4.8c0.4,3.1,0.1,6.2-0.3,9.2
				c-0.8,5.6-1.7,11.2-2.4,16.8c-0.5,3.9-0.9,7.7-0.8,11.6c0,1,0.1,2,0.2,3c0,0.2,0.1,0.4,0.2,0.7c0.8-0.6,1.5-1,2-1.6
				c1.6-1.8,3.2-3.6,4.8-5.4c0.2-0.2,0.3-0.7,0.3-1c0-2.1-0.1-4.2,0-6.3c0.3-5.9,1.5-11.5,4-16.9c1.7-3.6,3.9-6.8,7-9.3
				c5.1-4.1,10.6-4.9,16.7-2.6c0.2,0.1,0.3,0.1,0.5,0.2c0,0,0.1,0,0.2,0c0.1-0.7,0.2-1.4,0.4-2.1c1-5.7,1.9-11.5,2.9-17.2
				c1.1-6,2.2-12,3.4-18c1.4-7.2,3.5-14.2,5.5-21.2c1.3-4.5,2.7-8.9,4.6-13.1c0.9-2,1.9-4,3.3-5.7c0.9-1,1.9-2,3.1-2.6
				c2.2-1.2,4.3-0.9,6.1,0.8c1.2,1,1.9,2.3,2.5,3.8c0.8,2,1.2,4.1,1.4,6.3c0.6,5.5,0,10.9-0.9,16.3c-1.1,6.3-3,12.5-5.1,18.6
				c-2.7,7.9-5.6,15.8-8.8,23.6c-1.1,2.7-2.3,5.3-3.8,7.8c-0.2,0.4-0.4,0.9-0.5,1.4c-1.2,7-2,14-2.6,21c-0.5,5.6-0.9,11.3-0.7,16.9
				c0.1,2.6,0.3,5.3,1,7.8c0.1,0.5,0.4,1,0.5,1.5c0.2,0.6,0.6,0.8,1.2,0.9c1.2,0.1,2.4-0.1,3.4-0.8c2.2-1.3,4.1-3,5.8-4.9
				c2.4-2.7,4.7-5.4,7.1-8.1c2.6-3,5.1-6,7.6-9c0.4-0.4,0.8-0.8,1.3-1.1c0.7-0.4,1.5-0.3,2,0.3c0.5,0.6,0.5,1.3,0,2
				c-0.1,0.1-0.2,0.2-0.3,0.3c-2,1.9-3.5,4.1-5.2,6.3c-1.2,1.6-2.4,3.1-3.6,4.6c-1.2,1.6-2.5,3.2-3.7,4.9c-2.6,3.6-5.8,6.6-9.3,9.3
				c-1.7,1.3-3.6,2.3-5.8,2.9c-3.6,1-6.7-0.1-9.1-2.8c-2.3-2.6-3.6-5.7-4.4-9c-0.7-2.7-1-5.4-1.2-8.1c0-0.2,0-0.5-0.1-0.9
				c-0.2,0.3-0.3,0.5-0.4,0.6c-1.2,2.3-2.4,4.6-3.6,6.8c-1.2,2.2-2.7,4.3-4.4,6.2c-0.9,1-2,2-3.2,2.7c-3.3,1.9-7.1,1.5-9.8-1.2
				c-1.5-1.4-2.5-3.2-3.3-5.1c-0.1-0.3-0.3-0.7-0.5-1.2c-0.3,0.4-0.5,0.7-0.7,1c-1.3,1.8-2.7,3.6-4.1,5.3c-0.4,0.5-0.9,0.9-1.4,1.3
				c-3.3,2.9-8.3,2.1-10.6-1.4c-1.2-1.8-1.9-3.9-2.4-6c-0.6-2.5-0.8-5.1-0.8-7.8c0-1.4,0-2.8-0.2-4.3c-0.1,0.3-0.3,0.6-0.4,0.9
				c-1.6,3.8-3.5,7.4-6.1,10.6c-1.3,1.7-2.9,3.2-4.6,4.4c-3.6,2.4-7.5,2.2-10.7-0.6c-1.6-1.3-2.7-3-3.5-4.8
				c-0.1-0.3-0.3-0.7-0.5-1.1c-0.2,0.3-0.4,0.6-0.5,0.8c-0.6,1.2-1.3,2.4-1.8,3.6c-1.1,2.4-2.5,4.6-4,6.8c-0.4,0.6-0.9,1.2-1.4,1.7
				c-2.5,2.5-6,2.7-8.8,0.5c-1.5-1.2-2.6-2.8-3.4-4.6c-0.9-2.1-1.4-4.3-1.8-6.5c-0.7-3.6-0.9-7.3-1.1-11c0-0.2,0-0.4,0-0.7
				c-0.4,0.2-0.5,0.6-0.7,0.9c-2,3.4-4.3,6.6-7,9.4c-0.7,0.8-1.5,1.5-2.3,2.1c-0.6,0.5-1.2,0.9-1.9,1.2c-2.9,1.6-5.8,1.1-8.2-1.2
				c-0.6-0.6-1-1.3-1.5-1.9c-0.2-0.2-0.3-0.4-0.5-0.7c-0.3,0.2-0.5,0.4-0.7,0.5c-1.5,1.4-2.9,2.8-4.4,4.1c-2.4,2-4.8,4-7.3,6
				c-1.3,1-2.8,1.7-4.5,2.1c-2.5,0.6-4.6-0.2-6.2-2.1c-1.3-1.5-1.9-3.4-2.2-5.4c-0.5-3.5-0.4-7.1,0.1-10.6c1-7.2,2.5-14.3,4-21.3
				c0-0.2,0.1-0.5,0.1-0.6c-1.5-1-2.9-1.9-4.4-2.9c-0.1,0.3-0.3,0.6-0.4,1c-1.3,3.4-2.5,6.8-3.9,10.2c-3.3,8.2-7,16.3-11.3,24
				c-1.5,2.6-3,5.1-4.6,7.7c-0.6,1-1.3,1.9-2.1,2.7c-2.4,2.4-5.7,2.5-8.4,0.4c-1.1-0.9-2-2-2.6-3.3c-1.3-2.4-2-5.1-2.6-7.8
				c-0.8-4-1.2-8-1.5-12.1c-0.3-5.1-0.6-10.2-0.9-15.5c-0.1,0.3-0.2,0.5-0.3,0.8c-0.5,2.9-1,5.9-1.4,8.8c-0.8,5.8-1.5,11.6-3,17.3
				c-0.8,3-1.8,6-3.3,8.7c-1.2,2.3-3.6,3.1-6.1,2.3c-1-0.3-1.8-0.9-2.5-1.6c-0.9-0.9-1.5-2-1.9-3.2c-0.8-2.3-1.1-4.7-1.1-7.2
				c-0.1-1.9,0-3.8,0-5.8c-0.2,0.3-0.3,0.5-0.4,0.8c-1.7,3.6-3.5,7.1-5.7,10.4c-1.2,1.8-2.5,3.6-4.2,5.1c-1.1,1-2.4,1.7-3.9,2
				c-2,0.3-3.8-0.2-5.4-1.3c-1.8-1.3-3.1-3.1-3.9-5.2c-0.5-1.1-0.8-2.2-1.2-3.4c-0.2,0.3-0.4,0.5-0.6,0.7c-1.8,2.3-3.6,4.6-5.5,6.8
				c-0.7,0.8-1.5,1.6-2.3,2.2c-2.8,2.1-6.1,1.6-8.2-1.2c-0.9-1.2-1.5-2.6-1.9-4c-0.7-2.6-1.1-5.2-1.4-7.9
				c-0.8-6.1-0.6-12.2-0.3-18.3c0.2-3.8,0.7-7.7,1.1-11.5c0.4-4.3,1-8.7,1.4-13c0-0.2,0-0.5,0-0.9c-0.4,0.4-0.8,0.7-1.1,1
				c-1.4,1.4-2.5,2.9-3.6,4.6c-2.9,4.4-5.2,9-7.3,13.8c-3.3,7.7-6.6,15.4-10.3,22.8c-0.6,1.2-1.1,2.4-1.8,3.5
				c-0.9,1.7-2.4,2.6-4.4,2.4c-1.6-0.1-2.7-0.9-3.6-2.2c-0.8-1.1-1.1-2.4-1.3-3.7c-0.3-2.3-0.2-4.6,0.1-6.9c1-6.3,2.1-12.6,3.1-18.9
				c1-6.3,2-12.6,2.8-19c0.3-2,0.3-4,0.5-6.1c0-0.6-0.1-1.1-0.1-1.7c-1,0.2-1.7,0.4-2.3,1.1c-0.5,0.6-1.2,0.7-1.8,0.3
				c-0.6-0.4-0.8-1.1-0.4-1.9c0.2-0.4,0.5-0.9,0.9-1.2c1.1-0.9,2.1-1.9,3.3-2.6c2-1.2,4.1-0.9,6,0.4c1.5,1.1,2.4,2.6,3,4.4
				c0.6,2,1,4.1,0.9,6.2c-0.1,2.8-0.3,5.6-0.5,8.4c-0.3,3.2-0.7,6.5-1.1,9.7c-0.4,3.5-0.9,6.9-1.4,10.4c0,0.2,0,0.4,0.1,0.7
				c0.2-0.4,0.4-0.9,0.6-1.3c2.6-5.7,5.4-11.4,8.6-16.8c2.1-3.5,4.3-6.9,6.9-10c1.1-1.3,2.3-2.6,3.6-3.7c1.7-1.6,3.7-2.2,6-1.6
				c1.1,0.3,2,0.9,2.8,1.7c1.2,1.2,2,2.7,2.6,4.3c0.9,2.5,1.3,5.1,1.3,7.8c-0.1,3-0.3,6.1-0.5,9.1c-0.3,3.5-0.6,6.9-0.9,10.4
				c-0.3,2.9-0.6,5.7-0.9,8.6c-0.4,5-1.3,9.9-1.4,14.9c0,0.7,0,1.4,0,2.1C101,314.9,101.1,314.9,101.2,315.1z M335.6,275.6
				c-3.2-1.9-6.7-1.3-9.1,1.5c-1.5,1.7-2.6,3.7-3.4,5.7c-2.8,6.9-4,14.1-4.1,21.5c0,1.6,0.2,3.2,0.7,4.7c0.4,1.2,0.9,1.5,2.1,1
				c0.8-0.3,1.5-0.8,2.2-1.3c1.6-1.3,3-2.8,4.2-4.5c2.5-3.4,4.4-7.1,6.3-10.8c0.3-0.5,0.4-1.1,0.4-1.6c0.1-3.4,0.2-6.8,0.4-10.2
				C335.3,279.6,335.4,277.6,335.6,275.6z M259.1,247.4c0.2-0.1,0.2-0.1,0.3-0.2c0.1-0.2,0.2-0.4,0.4-0.6
				c5.5-10.2,10.1-20.7,13.5-31.8c1.7-5.5,2.6-11.1,1.9-16.9c-0.2-2.1-0.6-4.2-1.7-6c-0.3-0.5-0.6-0.9-1-1.3
				c-0.6-0.5-1.2-0.5-1.7,0.1c-0.5,0.6-0.9,1.2-1.2,1.9c-0.5,1.3-0.9,2.5-1.2,3.9c-1.4,6.8-2.8,13.6-4.1,20.4
				c-1.1,5.7-2,11.4-3,17.2C260.6,238.4,259.9,242.8,259.1,247.4z M138.4,281.7c-0.3,0-0.4,0-0.6,0c-2.9,0.6-5.6,1.6-7.9,3.6
				c-1.7,1.5-3.1,3.3-4.3,5.3c-1.4,2.3-2.4,4.8-3.3,7.3c-1.6,4-2.5,8.2-2.6,12.5c0,1.4,0,2.8,0.5,4.2c0.4,1.2,1.1,1.6,2.2,0.9
				c0.7-0.4,1.4-1,2-1.7c2.1-2.2,3.9-4.7,5.4-7.3c1.8-3,3.2-6.2,4.5-9.4c1-2.5,2.2-4.9,2.5-7.7C137.3,286.9,137.9,284.3,138.4,281.7
				z M275.4,305.4c0.4-0.1,0.9-0.2,1.2-0.4c1.2-0.5,2.2-1.3,3-2.3c1-1.3,2-2.6,2.9-4c3-4.7,5.5-9.7,7.7-14.8c0.1-0.3,0.2-0.6,0.2-1
				c0.5-3.1,0.9-6.2,1.4-9.3c0.1-0.5,0.2-1,0.3-1.5c-0.2,0-0.4,0-0.5,0c-2.9,0.5-5.6,1.5-7.6,3.9c-0.7,0.9-1.4,1.7-2,2.7
				c-2.8,4.4-4.8,9.1-6.1,14.1c-0.8,3.1-1.2,6.2-1.2,9.3C274.9,303.1,275,304.2,275.4,305.4z M363.8,190.7c-0.2,0.4-0.4,0.7-0.6,1
				c-0.4,0.9-0.8,1.9-1,2.9c-1,3.6-1.5,7.2-2,10.9c-0.7,4.5-1.4,9.1-2.1,13.6c-0.6,3.8-1.5,7.5-2.1,11.3c-1.1,6.8-2,13.7-3,20.5
				c0,0.1,0,0.2,0,0.3c0.2-0.1,0.2-0.2,0.3-0.3c2.6-7.1,5.2-14.1,7.7-21.2c2.6-7.5,4.8-15.2,5.6-23.1c0.3-3.1,0.4-6.2,0-9.3
				c-0.2-1.4-0.5-2.7-0.9-4C365.4,192.2,364.9,191.4,363.8,190.7z M227.1,303.7c0.8-0.4,1.5-0.7,2.1-1.1c1.1-0.8,2.3-1.7,3.3-2.7
				c3.2-3,5.6-6.6,7.9-10.4c0.1-0.2,0.2-0.6,0.2-0.9c0.1-1.4,0.1-2.8,0.2-4.2c0.2-3.6,0.5-7.3,0.7-10.9c0.1-0.8,0.2-1.6,0.3-2.4
				c-0.9-0.5-1.8-0.5-2.6-0.1c-0.7,0.4-1.3,0.8-1.8,1.4c-0.9,1.1-1.7,2.3-2.4,3.5c-1.9,3.3-3.2,6.9-4.4,10.5
				c-1.5,4.4-2.9,8.8-3.5,13.4C226.9,301.2,226.9,302.4,227.1,303.7z"/>
			<path class="st6" d="M202.4,255c0-1.7,0.5-2.8,1.4-3.6c1.4-1.2,3.1-1.6,4.9-1.4c2.4,0.3,3.8,2.5,3,4.9c-0.7,1.9-1.9,3.4-3.9,3.9
				C205,259.6,202.3,257.5,202.4,255z"/>
		</g>
	</g>
	<g>
		<polygon class="st0" points="248.8,109.4 263.5,126.4 285.9,124 274.2,143.2 283.4,163.8 261.5,158.6 244.8,173.7 243,151.3 
			223.4,140.1 244.2,131.4 		"/>
		<polygon class="st0" points="306.6,164.3 309.5,173 318.4,175.5 311,181 311.4,190.2 303.9,184.9 295.3,188.1 298,179.3 
			292.3,172.1 301.5,172 		"/>
		<polygon class="st0" points="306.4,209.8 310.8,214 316.7,212.8 314,218.2 317,223.4 311.1,222.6 307,227.1 305.9,221.1 
			300.5,218.7 305.8,215.8 		"/>
	</g>
</g>
</svg>
