<?xml version="1.0" encoding="utf-8"?>
<!-- Generator: Adobe Illustrator 22.0.1, SVG Export Plug-In . SVG Version: 6.00 Build 0)  -->
<svg version="1.1" id="Calque_1" xmlns="http://www.w3.org/2000/svg" xmlns:xlink="http://www.w3.org/1999/xlink" x="0px" y="0px"
	 viewBox="0 0 432 432" style="enable-background:new 0 0 432 432;" xml:space="preserve">
<style type="text/css">
	.st0{fill:#B78D5C;}
	.st1{fill:#EBCEC6;}
	.st2{fill:#D4B67E;}
	.st3{fill:#EF798A;}
	.st4{fill:#FBD8E3;}
	.st5{fill:#660A1E;}
	.st6{fill:#990033;}
	.st7{fill:#07512C;}
	.st8{fill:#8CC63F;}
	.st9{fill:#006837;}
	.st10{fill:#CCCCCC;}
	.st11{fill:#FFFFFF;}
	.st12{fill:#8A1A31;}
	.st13{fill:#A7A6AA;}
	.st14{fill:#D3A9B2;}
	.st15{fill:#2A2A2B;}
	.st16{fill:#DDC090;}
	.st17{fill:#AF434B;}
	.st18{fill:#62A581;}
	.st19{fill:#94C16C;}
	.st20{fill:#B9011B;}
	.st21{fill:#BABABA;}
	.st22{fill:#754C24;}
	.st23{fill:#A67C52;}
	.st24{fill:#8C6239;}
	.st25{fill:#C69C6D;}
	.st26{fill:#9E1E28;}
	.st27{fill:#D6C188;}
	.st28{fill:#BF364A;}
	.st29{fill:#A1272D;}
	.st30{fill:#BFA76B;}
	.st31{fill:#DCDEDD;}
	.st32{fill:#D89A5D;}
	.st33{fill:#F5EDDB;}
	.st34{fill:#603813;}
	.st35{fill:#4A7575;}
	.st36{fill:#7F3244;}
	.st37{fill:#9E7E5E;}
	.st38{fill:#C1272D;}
	.st39{fill:#561217;}
	.st40{fill:#C49F7A;}
	.st41{fill:#534741;}
	.st42{fill:#999999;}
	.st43{fill:#A80031;}
	.st44{fill:#1A1A1A;}
	.st45{fill:#333333;}
	.st46{fill:#B3B3B3;}
	.st47{fill:#B3A6AD;}
	.st48{fill:#B6B155;}
	.st49{fill:#679CBA;}
	.st50{fill:#0071BC;}
	.st51{fill:#F7931E;}
	.st52{fill:#821119;}
	.st53{fill:#39B54A;}
	.st54{fill:#1B1464;}
	.st55{fill:#FAF3E3;}
	.st56{fill:#DCD2BD;}
	.st57{fill:#F5EDDA;}
	.st58{fill:#815D3C;}
	.st59{fill:#F69331;}
	.st60{fill:#BCA791;}
	.st61{fill:#F9D51D;}
	.st62{fill:#704638;}
	.st63{fill:#A7DBD7;}
	.st64{fill:#DED7CD;}
	.st65{fill:#E89024;}
	.st66{fill:#EACAAC;}
	.st67{fill:#D8B195;}
	.st68{fill:#A50423;}
	.st69{fill:#CC7312;}
	.st70{fill:#9EC5FF;}
	.st71{fill:#6D86B4;}
	.st72{fill:#2E363A;}
	.st73{fill:#FFCC00;}
	.st74{fill:#B58847;}
	.st75{fill:#563315;}
	.st76{fill:#ED0A3A;}
	.st77{fill:#A62714;}
	.st78{fill:#247E5B;}
	.st79{fill:#176041;}
	.st80{fill:#61B756;}
	.st81{fill:#EDDBAE;}
	.st82{fill:#3F3F3F;}
	.st83{fill:#595959;}
	.st84{fill:#484849;}
	.st85{fill:#EFD1B4;}
	.st86{fill:#E0E0E2;}
	.st87{fill:#CCCCCE;}
	.st88{fill:#CEC76B;}
	.st89{fill:#42210B;}
	.st90{fill:#FCACBC;}
	.st91{fill:#D6B994;}
	.st92{fill:#F8C2C2;}
	.st93{fill:#E4D48E;}
	.st94{fill:#A57C53;}
	.st95{fill:#96704B;}
	.st96{fill:#9D6D47;}
	.st97{fill:#591427;}
	.st98{fill:#7CCC71;}
	.st99{fill:#C7B299;}
	.st100{fill:#998675;}
	.st101{fill:#7DC34D;}
	.st102{fill:#80694F;}
	.st103{fill:#FF1C2E;}
	.st104{fill:#A51B29;}
	.st105{fill:#00673B;}
	.st106{fill:#B88464;}
	.st107{fill:#CA986F;}
	.st108{fill:#3F2316;}
	.st109{fill:#F1F1F2;}
	.st110{fill:#00924A;}
	.st111{fill:#C7202F;}
	.st112{fill:#BBBDBF;}
	.st113{fill:#58595B;}
	.st114{fill:#D0D2D3;}
	.st115{fill:#6C6E70;}
	.st116{fill:#663818;}
	.st117{fill:#FF9134;}
	.st118{fill:#AC8D6B;}
	.st119{fill:#CE1F32;}
	.st120{fill:#00B252;}
	.st121{fill:#804D34;}
	.st122{fill:#61A6AF;}
	.st123{fill:#4C838D;}
	.st124{fill:#E6E6E6;}
	.st125{fill:#E6E7E7;}
	.st126{fill:#55396B;}
	.st127{fill:#6F4696;}
	.st128{fill:#9C2D8C;}
	.st129{fill:#915D3F;}
	.st130{fill:none;}
	.st131{fill:#00BCB9;}
	.st132{fill:#00BBB8;}
	.st133{fill:#6C328D;}
	.st134{fill:#5D4A42;}
	.st135{fill:#746559;}
	.st136{fill:#009245;}
	.st137{fill:#808184;}
	.st138{fill:#00A69C;}
	.st139{fill:#0078B8;}
	.st140{fill:#9F847A;}
	.st141{fill:#EECCB3;}
	.st142{fill:#241F20;}
	.st143{fill:#0D5408;}
	.st144{fill:#C9800A;}
	.st145{fill:#083A04;}
	.st146{fill:#BF001A;}
	.st147{fill:#AA0012;}
	.st148{fill:#9E620B;}
	.st149{fill:#A80E28;}
	.st150{fill:#0C3A1F;}
	.st151{fill:#C10A0A;}
	.st152{fill:#0A3D06;}
	.st153{fill:#A30738;}
	.st154{fill:#7F0A2E;}
	.st155{fill:#D8712B;}
	.st156{fill:#C15105;}
	.st157{fill:#F4A00B;}
	.st158{fill:#10440A;}
	.st159{fill:#A00E0E;}
	.st160{fill:#0F230D;}
	.st161{fill:#B20B33;}
	.st162{fill:#E5E5E5;}
	.st163{fill:#11722D;}
	.st164{fill:#0B281A;}
	.st165{fill:#E59D1F;}
	.st166{fill:#C60924;}
	.st167{fill:#960820;}
	.st168{fill:#AD1431;}
	.st169{fill:#E24756;}
	.st170{fill:#CE364C;}
	.st171{fill:#A50707;}
	.st172{fill:#4A9B29;}
	.st173{fill:#468E24;}
	.st174{fill:#AF0E22;}
	.st175{fill:#EDECE6;}
	.st176{fill:#54220E;}
	.st177{fill:#592C1C;}
	.st178{fill:#EFEAC7;}
	.st179{fill:#042111;}
	.st180{fill:#A80C0C;}
</style>
<g>
	<g>
		<rect x="104.1" y="236.5" class="st0" width="3.3" height="96.1"/>
	</g>
	<polygon class="st1" points="105.7,319.4 113.8,307.6 113.4,321.9 127,317.1 118.2,328.5 132,332.5 118.2,336.6 127,348 
		113.4,343.2 113.8,357.5 105.7,345.7 97.6,357.5 98,343.2 84.4,348 93.2,336.6 79.4,332.5 93.2,328.5 84.4,317.1 98,321.9 
		97.6,307.6 	"/>
	<g>
		<rect x="90.7" y="114" class="st2" width="30" height="132"/>
		<g>
			<rect x="90.7" y="120.5" class="st3" width="30" height="3.3"/>
			<rect x="90.7" y="131" class="st3" width="30" height="3.3"/>
			<rect x="90.7" y="141.5" class="st3" width="30" height="3.3"/>
			<rect x="90.7" y="152.1" class="st3" width="30" height="3.3"/>
			<rect x="90.7" y="162.6" class="st3" width="30" height="3.3"/>
			<rect x="90.7" y="173.1" class="st3" width="30" height="3.3"/>
			<rect x="90.7" y="183.7" class="st3" width="30" height="3.3"/>
			<rect x="90.7" y="194.2" class="st3" width="30" height="3.3"/>
			<rect x="90.7" y="204.7" class="st3" width="30" height="3.3"/>
			<rect x="90.7" y="215.3" class="st3" width="30" height="3.3"/>
			<rect x="90.7" y="225.8" class="st3" width="30" height="3.3"/>
			<rect x="90.7" y="236.4" class="st3" width="30" height="3.3"/>
		</g>
	</g>
	<polygon class="st0" points="105.7,120.9 79.7,120.9 92.7,98.4 105.7,75.9 118.7,98.4 131.7,120.9 	"/>
</g>
<g>
	<g>
		<rect x="170.3" y="100.9" class="st0" width="3.3" height="96.1"/>
	</g>
	<polygon class="st1" points="171.9,114 163.8,125.8 164.2,111.5 150.7,116.3 159.4,104.9 145.7,100.9 159.4,96.8 150.7,85.4 
		164.2,90.2 163.8,75.9 171.9,87.7 180,75.9 179.6,90.2 193.2,85.4 184.4,96.8 198.2,100.9 184.4,104.9 193.2,116.3 179.6,111.5 
		180,125.8 	"/>
	<g>
		<rect x="156.9" y="187.5" class="st2" width="30" height="132"/>
		<g>
			<path class="st3" d="M166.2,203.1c0,4-3.3,7.3-7.3,7.3c-0.7,0-1.3-0.1-2-0.3v-14c0.6-0.2,1.3-0.3,2-0.3
				C162.9,195.9,166.2,199.1,166.2,203.1z"/>
			<circle class="st3" cx="173.6" cy="218.4" r="7.3"/>
			<path class="st3" d="M186.9,187.5V198c-1.3,1.2-3,1.9-4.9,1.9c-4,0-7.3-3.3-7.3-7.3c0-2,0.8-3.8,2.1-5.1H186.9z"/>
			<circle class="st3" cx="166.2" cy="241.9" r="7.3"/>
			<path class="st3" d="M186.9,228.5V241c-2.2-1.3-3.6-3.6-3.6-6.3S184.8,229.7,186.9,228.5z"/>
			<path class="st3" d="M186.9,251.5v13.9c-0.7,0.2-1.4,0.3-2.2,0.3c-4,0-7.3-3.3-7.3-7.3c0-4,3.3-7.3,7.3-7.3
				C185.5,251.2,186.2,251.3,186.9,251.5z"/>
			<circle class="st3" cx="166.2" cy="265.8" r="7.3"/>
			<circle class="st3" cx="176.2" cy="287.7" r="7.3"/>
			<path class="st3" d="M158.9,282c0,1.9-0.7,3.7-2,5V277C158.1,278.3,158.9,280.1,158.9,282z"/>
			<path class="st3" d="M168,303.8c0,4-3.3,7.3-7.3,7.3c-1.4,0-2.7-0.4-3.8-1.1v-12.4c1.1-0.7,2.4-1.1,3.8-1.1
				C164.8,296.5,168,299.8,168,303.8z"/>
			<path class="st3" d="M186.9,307.8v11.6h-8.5c-1.3-1.3-2.2-3.2-2.2-5.2c0-4,3.3-7.3,7.3-7.3C184.7,307,185.9,307.3,186.9,307.8z"
				/>
		</g>
	</g>
	<polygon class="st0" points="171.9,312.5 197.9,312.5 184.9,335 171.9,357.5 158.9,335 145.9,312.5 	"/>
</g>
<polygon class="st4" points="305.1,200.9 326.5,180.3 317.3,208.5 346.1,201.3 324.1,221.2 352.6,229.4 323.6,235.6 344.2,256.9 
	316,247.8 323.1,276.5 303.3,254.5 295.1,283 288.9,254 267.6,274.6 276.7,246.4 248,253.6 270,233.7 241.5,225.5 270.4,219.3 
	249.9,198 278.1,207.1 270.9,178.4 290.8,200.4 298.9,171.9 "/>
<polygon class="st3" points="266,103.2 278.6,64.8 270.2,104.3 300.3,77.3 273.3,107.4 312.8,99.1 274.4,111.6 312.8,124.1 
	273.3,115.8 300.3,145.9 270.2,118.9 278.6,158.4 266,120 253.5,158.4 261.8,118.9 231.8,145.9 258.7,115.8 219.2,124.1 
	257.6,111.6 219.2,99.1 258.7,107.4 231.8,77.3 261.8,104.3 253.5,64.8 "/>
<polygon class="st3" points="256.8,315 269.2,290.7 265,317.6 289.3,305.3 270.1,324.6 297,328.9 270.1,333.3 289.3,352.6 
	265,340.2 269.2,367.2 256.8,342.9 244.4,367.2 248.6,340.2 224.3,352.6 243.5,333.3 216.6,328.9 243.5,324.6 224.3,305.3 
	248.6,317.6 244.4,290.7 "/>
</svg>
