<?xml version="1.0" encoding="utf-8"?>
<!-- Generator: Adobe Illustrator 21.1.0, SVG Export Plug-In . SVG Version: 6.00 Build 0)  -->
<svg version="1.1" id="Calque_1" xmlns="http://www.w3.org/2000/svg" xmlns:xlink="http://www.w3.org/1999/xlink" x="0px" y="0px"
	 viewBox="0 0 432 432" style="enable-background:new 0 0 432 432;" xml:space="preserve">
<style type="text/css">
	.st0{fill:#BE1622;}
	.st1{fill:#C69C6C;}
	.st2{fill:#F39200;}
	.st3{fill:#F9B03D;}
	.st4{fill:#5BA7AD;}
	.st5{fill:#3F7579;}
	.st6{fill:#1B1B1B;}
	.st7{fill:#FFFFFF;}
	.st8{fill:#D8B6C4;}
	.st9{fill:#765844;}
	.st10{fill:#E9B2C5;}
	.st11{fill:#C7B29A;}
	.st12{fill:#EDBD7D;}
	.st13{fill:#1D71B8;}
	.st14{fill:#95C11F;}
	.st15{fill:#E94E1B;}
	.st16{fill:#575756;}
	.st17{fill:#844C16;}
	.st18{fill:#E50071;}
	.st19{fill:#AF175D;}
	.st20{fill:#E4051E;}
	.st21{fill:#13110C;}
	.st22{fill:#891A2C;}
	.st23{fill:#28295F;}
	.st24{fill:#CECFBC;}
	.st25{fill:#981F24;}
	.st26{fill:#020203;}
	.st27{fill:#BC2333;}
	.st28{fill:#AD1917;}
	.st29{fill:#04683B;}
	.st30{fill:#049348;}
	.st31{fill:#2D3D8D;}
	.st32{fill:#F39233;}
	.st33{fill:#EB5C35;}
	.st34{fill:#AA1917;}
	.st35{fill:#55514F;}
	.st36{fill:#20376D;}
	.st37{fill:#B3BBC5;}
	.st38{fill:#BAC6BC;}
	.st39{fill:#B4BA8C;}
	.st40{fill:#746458;}
	.st41{fill:#343434;}
	.st42{fill:#CEC3BC;}
	.st43{fill:#FBBA0E;}
	.st44{fill:#FED98D;}
	.st45{fill:#676767;}
	.st46{fill:#8DBE22;}
	.st47{fill:#D0E1A4;}
	.st48{fill:#EFE8E4;}
	.st49{fill:#754695;}
	.st50{fill:#A78BC0;}
	.st51{fill:#8EC045;}
	.st52{fill:#0D71B9;}
	.st53{fill:#EAC686;}
	.st54{fill:#D24063;}
	.st55{fill:#E2A11A;}
	.st56{fill:#E9BD71;}
	.st57{fill:#E8423E;}
	.st58{fill:#F8AE4C;}
	.st59{fill:#00A19A;}
	.st60{fill:#2578B9;}
	.st61{fill:#A29F9D;}
	.st62{fill:#D2B89A;}
	.st63{fill:#E6C2A9;}
	.st64{fill:#6E3B11;}
	.st65{fill:#9B6228;}
	.st66{fill:#C9A1CB;}
	.st67{fill:#F8AB00;}
	.st68{fill:#BEBBBB;}
	.st69{fill:#066938;}
	.st70{fill:#36A36A;}
	.st71{fill:#4F702A;}
	.st72{fill:#A4191E;}
	.st73{fill:#3AAA35;}
	.st74{fill:#D01419;}
	.st75{fill:#CA1527;}
	.st76{fill:#684A40;}
	.st77{fill:#9A7B65;}
	.st78{fill:#FBB700;}
	.st79{fill:#82BB26;}
	.st80{fill:#00A8E4;}
	.st81{fill:#CEA57B;}
	.st82{fill:#57B031;}
	.st83{fill:#E5251F;}
	.st84{fill:#EFDD37;}
	.st85{fill:#59C4E9;}
	.st86{fill:#F08017;}
	.st87{fill:#974393;}
	.st88{fill:#F9EA31;}
	.st89{fill:#C1292E;}
	.st90{fill:#F2D77E;}
	.st91{fill:#E6332A;}
	.st92{fill:#29235C;}
	.st93{fill:#3C3C3B;}
	.st94{fill:#2FAC66;}
	.st95{fill:#2D2E83;}
	.st96{fill:#645B51;}
	.st97{fill:#36A9E1;}
	.st98{fill:#312783;}
	.st99{fill:#2E4959;}
	.st100{fill:#5F8699;}
	.st101{fill:#172B35;}
	.st102{fill:#C3D5E4;}
	.st103{fill:#7B9135;}
	.st104{fill:#E59546;}
	.st105{fill:#B2C65F;}
	.st106{fill:#85BBB7;}
	.st107{fill:#F39323;}
	.st108{fill:#FFFFFE;}
	.st109{fill:#EFD2AC;}
	.st110{fill:#C0E0EF;}
	.st111{fill:#EFDAEC;}
	.st112{fill:#63B8A4;}
	.st113{fill:#BDCCD4;}
	.st114{fill:#8C633A;}
	.st115{fill:#CA9E67;}
	.st116{fill:#7D4E24;}
	.st117{fill:#B8B569;}
	.st118{fill:#E8C515;}
	.st119{fill:#A5A258;}
	.st120{fill:#AA884D;}
	.st121{fill:#9E994B;}
	.st122{fill:#D1A479;}
	.st123{fill:#936037;}
	.st124{fill:#FAFAFA;}
	.st125{fill:#98CDC5;}
	.st126{fill:#E1EBE8;}
	.st127{fill:#DDCE9E;}
	.st128{fill:#A67D52;}
	.st129{fill:#437156;}
	.st130{fill:#4F8366;}
	.st131{fill:#8F6947;}
	.st132{fill:#856143;}
	.st133{fill:#171512;}
	.st134{fill:#AA191B;}
	.st135{fill:#1C1A38;}
	.st136{fill:#8E8C38;}
	.st137{fill:#CAC955;}
	.st138{fill:#6C6A29;}
	.st139{fill:#D8D564;}
	.st140{fill:#5CABD5;}
	.st141{fill:#70B4D9;}
	.st142{fill:#9A9999;}
	.st143{fill:#B4B4B4;}
	.st144{fill:#ABAA3D;}
	.st145{fill:#D7DB2F;}
	.st146{fill:#B8CED8;}
	.st147{fill:#05AB9E;}
	.st148{fill:#DAB828;}
	.st149{fill:#EB7533;}
	.st150{fill:#EDE4CA;}
	.st151{fill:#575452;}
	.st152{fill:#F9F6F4;}
	.st153{fill:#94B2AA;}
	.st154{fill:#D8D7C4;}
	.st155{fill:#BAD68E;}
	.st156{fill:#F0E6E1;}
	.st157{fill:#BFD786;}
	.st158{fill:#E9E499;}
	.st159{fill:#A2D3C2;}
	.st160{fill:#EB7976;}
	.st161{fill:#EEF4E7;}
	.st162{fill:#EADA7F;}
	.st163{fill:#B2D9C2;}
	.st164{fill:#43B284;}
	.st165{fill:#9AC028;}
	.st166{fill:#D8AD80;}
	.st167{fill:#F2F2F2;}
	.st168{fill:#767574;}
	.st169{fill:#CDC8C6;}
	.st170{fill:#634E42;}
	.st171{fill:#E4E0DF;}
	.st172{fill:#D98F53;}
	.st173{fill:#E2CAB5;}
	.st174{fill:#B61824;}
	.st175{fill:#E2BAA0;}
	.st176{fill:#CF455A;}
	.st177{fill:#648546;}
	.st178{fill:#4F6834;}
	.st179{fill:#91BB64;}
	.st180{fill:#D1CE4D;}
	.st181{fill:#CFCE67;}
	.st182{fill:#E5E4BD;}
	.st183{fill:#A69F28;}
	.st184{fill:#E3BF32;}
	.st185{fill:#E68024;}
	.st186{fill:#D27444;}
	.st187{fill:#D1B05A;}
	.st188{fill:#F4E3BD;}
	.st189{fill:#668852;}
	.st190{fill:#A3C18F;}
	.st191{fill:#D8B41E;}
	.st192{fill:#E2DBBA;}
	.st193{fill:#603914;}
	.st194{fill:#CF1042;}
	.st195{fill:#2F8A7F;}
	.st196{fill:#D19A69;}
	.st197{fill:#E9C3A4;}
	.st198{fill:#F2BF21;}
	.st199{fill:#CFD3D1;}
	.st200{fill:#E9F2ED;}
	.st201{fill:#4E4D4D;}
	.st202{fill:#C4E2D0;}
	.st203{fill:#F3F3F3;}
	.st204{fill:#F8FAF9;}
	.st205{fill:#C6B5A8;}
	.st206{fill:#F2F1E7;}
	.st207{fill:#CEC87B;}
	.st208{fill:#C7E4E5;}
	.st209{fill:#D4894A;}
	.st210{fill:#FBFDFA;}
	.st211{fill:#B4CD5F;}
	.st212{fill:#1F1B15;}
	.st213{fill:#161210;}
	.st214{fill:#A8D1D2;}
	.st215{fill:#8E6640;}
	.st216{fill:#B22518;}
	.st217{fill:#683F1D;}
	.st218{fill:#F0F7F7;}
	.st219{fill:#CD924B;}
	.st220{fill:#CDCCCC;}
	.st221{fill:#F2D7C0;}
	.st222{fill:#B21924;}
	.st223{fill:#EDCEB1;}
	.st224{fill:#7D552C;}
	.st225{fill:#A0BC6F;}
	.st226{fill:#94AD65;}
	.st227{fill:#E7E6E6;}
	.st228{fill:#9FD6DB;}
	.st229{fill:#EACD7F;}
	.st230{fill:#E28C52;}
	.st231{fill:#141414;}
	.st232{fill:#E97E28;}
	.st233{fill:#D0C657;}
	.st234{fill:#F3BC95;}
	.st235{fill:#FBFDFC;}
	.st236{fill:#CA252F;}
	.st237{fill:#B8B6B7;}
	.st238{fill:#808181;}
	.st239{fill:#F7F5DB;}
	.st240{fill:#CA1618;}
	.st241{fill:#FDC30B;}
	.st242{fill:#5F3917;}
	.st243{fill:#FFDA36;}
	.st244{fill:#AB7049;}
	.st245{fill:#619DCF;}
	.st246{fill:#45779A;}
	.st247{fill:#68AFA1;}
	.st248{fill:#108E77;}
	.st249{fill:#A5779F;}
	.st250{fill:#008D36;}
	.st251{fill:#E83E49;}
	.st252{fill:#A12D38;}
	.st253{fill-rule:evenodd;clip-rule:evenodd;fill:#677124;}
</style>
<g>
	<g>
		<path class="st2" d="M212.3,95.2l-1.6,0.1c-0.1,0-0.2,0-0.2-0.1l-0.9-1.3c-0.1-0.2-0.4-0.1-0.5,0.1l-0.5,1.6
			c0,0.1-0.1,0.2-0.2,0.2l-1.5,0.6c-0.2,0.1-0.3,0.4-0.1,0.5l1.3,0.8c0.1,0,0.1,0.1,0.1,0.2l0,1.6c0,0.2,0.2,0.3,0.4,0.2l1.3-1.1
			c0.1-0.1,0.2-0.1,0.2-0.1l1.5,0.4c0.2,0.1,0.4-0.2,0.3-0.4l-0.5-1.5c0-0.1,0-0.2,0-0.2l1-1.4C212.6,95.5,212.5,95.2,212.3,95.2z"
			/>
		<path class="st2" d="M207.9,81.3c0.1,0,0.1,0.1,0.1,0.2l0,1.6c0,0.2,0.2,0.3,0.4,0.2l1.3-1.1c0.1-0.1,0.2-0.1,0.2-0.1l1.5,0.4
			c0.2,0.1,0.4-0.2,0.3-0.4l-0.5-1.5c0-0.1,0-0.2,0-0.2l1-1.4c0.1-0.2,0-0.4-0.2-0.4l-1.6,0.1c-0.1,0-0.2,0-0.2-0.1l-0.9-1.3
			c-0.1-0.2-0.4-0.1-0.5,0.1l-0.5,1.6c0,0.1-0.1,0.2-0.2,0.2l-1.5,0.6c-0.2,0.1-0.3,0.4-0.1,0.5L207.9,81.3z"/>
		<path class="st2" d="M213.4,87.3l-2-0.3c-0.1,0-0.2-0.1-0.2-0.2l-0.8-1.8c-0.1-0.3-0.5-0.3-0.6,0l-1,1.8c-0.1,0.1-0.2,0.2-0.3,0.2
			l-2,0.2c-0.3,0-0.4,0.4-0.2,0.6l1.3,1.4c0.1,0.1,0.1,0.2,0.1,0.3l-0.5,2c-0.1,0.3,0.2,0.5,0.5,0.4l1.9-0.9c0.1,0,0.2,0,0.3,0
			l1.7,1c0.2,0.1,0.5-0.1,0.5-0.3l-0.2-2c0-0.1,0-0.2,0.1-0.3l1.6-1.4C213.8,87.7,213.7,87.3,213.4,87.3z"/>
		<path class="st2" d="M251.1,75.4l-18.8,0.3c0.7-6.3,0.9-11,0.9-11c-0.1,0-48.2,0-48.3,0c0,0,0.2,4.7,0.9,11l-18.8-0.3
			c0,0-4.2,14.3,8.9,21.6c7.7,4.3,13.9,7.1,17.7,8.6c0.7,1-1.9-1.8,12.3,13.5c0,0,1.4,11.2-3.5,19.9c-7,12.4-18.3,8.1-14.7,13.1
			c2.1,2.9,41.2,2.4,42.8,0c3.5-5-7.8-0.7-14.7-13.1c-4.9-8.7-3.5-19.9-3.5-19.9c14.3-15.4,11.7-12.5,12.3-13.5
			c3.7-1.6,9.9-4.4,17.7-8.6C255.3,89.8,251.1,75.4,251.1,75.4z M176.2,79.8l10.2,0.5c0.7,5.4,1.8,11.3,3.3,16.4
			C170.1,93.4,175.9,82.1,176.2,79.8z M216.7,104.3c-0.1,0.7-0.5,1-1.2,1.1c-0.5,0.1-1,0.1-1.5,0.1c-1.4,0-2.7,0-4.1,0
			c-0.1,0-0.3,0-0.4,0c-0.1,0-0.2,0-0.3,0c-1.4,0-2.8,0-4.2-0.1c-0.7,0-1.3-0.1-2-0.1c-0.5,0-1-0.5-1-0.9c0-0.4,0-0.8,0-1.2
			c0-0.1,0-0.3,0.1-0.4c0.1-0.7,0.5-0.9,1.3-0.8c0.6,0.1,1.3,0.1,1.9,0.2c0-0.1,0-0.2,0-0.3c-0.1-0.8-0.1-1.5-0.1-2.3
			c0-6.8,0.1-13.6,0.2-20.4c0-0.7,0-1.3,0-2.2c-1.4,1.2-2.7,2.2-3.9,3.3c-0.8,0.7-1.7,0.7-2.2-0.2c-0.6-0.9-0.4-2.1,0.5-2.7
			c2.2-1.6,4.3-3.5,6.4-5.4c0.7-0.6,1.5-1,2.4-0.9c1.2,0,2.4,0,3.6,0c1.5,0,2.3,0.9,2.5,2.8c0.1,0.5,0.1,1,0,1.4
			c-0.1,5.7-0.2,11.5-0.3,17.2c-0.1,3.1-0.1,6.2-0.4,9.4c0,0.2,0,0.3-0.1,0.5c0.5,0,1,0,1.5-0.1c0.2,0,0.5,0,0.7,0
			c0.5,0,0.8,0.3,0.8,0.8C216.7,103.3,216.7,103.8,216.7,104.3z M228.5,96.7c1.5-5.1,2.6-11,3.3-16.4l10.2-0.5
			C243.3,82.9,248.1,93.4,228.5,96.7z"/>
	</g>
	<g>
		<path class="st28" d="M147.6,129.4l-5.1,0.6c-0.3,0-0.7-0.1-0.9-0.3l-3.3-3.8c-0.5-0.6-1.6-0.4-1.7,0.5l-1,5
			c-0.1,0.3-0.3,0.6-0.6,0.7l-4.7,2c-0.8,0.3-0.8,1.4-0.1,1.8l4.4,2.5c0.3,0.2,0.5,0.5,0.5,0.8l0.4,5.1c0.1,0.8,1.1,1.2,1.7,0.7
			l3.8-3.4c0.2-0.2,0.6-0.3,0.9-0.2l4.9,1.2c0.8,0.2,1.5-0.6,1.1-1.4l-2.1-4.6c-0.1-0.3-0.1-0.7,0.1-0.9l2.6-4.3
			C149,130.2,148.4,129.3,147.6,129.4z"/>
		<path class="st28" d="M184.8,121.9l-6.4-2.4c-0.4-0.2-0.7-0.5-0.8-0.9l-1.7-6.7c-0.3-1.1-1.7-1.4-2.4-0.5l-4.3,5.4
			c-0.3,0.4-0.7,0.5-1.2,0.5l-6.9-0.5c-1.1-0.1-1.8,1.2-1.2,2.1l3.8,5.7c0.2,0.4,0.3,0.8,0.1,1.3l-2.6,6.4c-0.4,1,0.5,2.1,1.6,1.8
			l6.6-1.8c0.4-0.1,0.9,0,1.2,0.3l5.3,4.4c0.9,0.7,2.2,0.1,2.2-1l0.3-6.9c0-0.4,0.3-0.9,0.6-1.1l5.8-3.6
			C186,123.7,185.9,122.3,184.8,121.9z"/>
		<path class="st28" d="M275.6,129.4l5.1,0.6c0.3,0,0.7-0.1,0.9-0.3l3.3-3.8c0.5-0.6,1.6-0.4,1.7,0.5l1,5c0.1,0.3,0.3,0.6,0.6,0.7
			l4.7,2c0.8,0.3,0.8,1.4,0.1,1.8l-4.4,2.5c-0.3,0.2-0.5,0.5-0.5,0.8l-0.4,5.1c-0.1,0.8-1.1,1.2-1.7,0.7l-3.8-3.4
			c-0.2-0.2-0.6-0.3-0.9-0.2l-4.9,1.2c-0.8,0.2-1.5-0.6-1.1-1.4l2.1-4.6c0.1-0.3,0.1-0.7-0.1-0.9l-2.6-4.3
			C274.2,130.2,274.7,129.3,275.6,129.4z"/>
		<path class="st28" d="M238.3,121.9l6.4-2.4c0.4-0.2,0.7-0.5,0.8-0.9l1.7-6.7c0.3-1.1,1.7-1.4,2.4-0.5l4.3,5.4
			c0.3,0.4,0.7,0.5,1.2,0.5l6.9-0.5c1.1-0.1,1.8,1.2,1.2,2.1l-3.8,5.7c-0.2,0.4-0.3,0.8-0.1,1.3l2.6,6.4c0.4,1-0.5,2.1-1.6,1.8
			l-6.6-1.8c-0.4-0.1-0.9,0-1.2,0.3l-5.3,4.4c-0.9,0.7-2.2,0.1-2.2-1l-0.3-6.9c0-0.4-0.3-0.9-0.6-1.1l-5.8-3.6
			C237.1,123.7,237.2,122.3,238.3,121.9z"/>
	</g>
	<g>
		<path class="st23" d="M142.8,287.6c-19.7-6.6-35.4,21.8-33.3,48.4c1.4,22.1,22.9,38,40.7,28.1c1.2-0.7,2.3-1.4,3.5-2.2
			c0.3,0.4,0.6,0.7,0.9,1c0.6,0.7,1.2,1.4,1.8,2.1c1.1,0.9,2.8,1,4.5,0.3c1.1-0.6,1.4-1.4,0.6-2.5c-0.3-0.7-0.8-1.2-1.4-1.8
			c-0.8-1-1.7-1.9-2.6-2.9c2-2.3,3.2-4.5,4.3-7C173.2,323.1,159.5,293.4,142.8,287.6z M158,344.3c-0.6,2.9-1.7,5.6-3.1,8.4
			c-0.3,0.4-0.6,0.8-0.9,1.4c-0.6-0.7-1.1-1.1-1.5-1.7c-0.8-0.6-1.5-1.2-2.3-1.8c-1.2-0.8-2.6-0.9-3.7-0.3c-1.4,0.8-1.8,2.1-1.2,3.1
			c0.5,0.7,1.1,1.2,1.7,1.9c1.1,1,2.2,2,3.2,3.1c-1.2,1.1-2.6,2-4.1,2.8c-0.3,0.2-0.9,0.2-1.5,0.2c-11.8,0-15.8-23.9-15.2-38.3
			C131.3,262.1,164.4,300.2,158,344.3z"/>
		<path class="st23" d="M216.4,290.8c-0.2-0.9-0.2-2.4-0.6-3.2c-0.3-1-1.2-1.3-2.6-1.2c-1.4,0.1-2.2,0.6-2.5,1.4
			c-0.2,0.8-0.5,2.3-0.5,3.2c0.5,23.1,3.7,59.5-5.5,67.4c-14.6,12.8-14.2-9.1-15.1-57.3c0-2.7,0.2-5.2,0-7.9c0-1.4-0.3-3-0.6-4.5
			c-0.3-1.2-1.2-2.1-3.1-2.2c-2.5-0.1-4.8-0.2-7.2-0.2c-2.8,0-3.7,0.8-4,2.8c-0.2,1.3-0.3,2.7-0.3,4c-0.2,7.2,0.3,14.4,0.9,21.6
			c1.2,14.2,0.5,55.9,22.3,52.4C223.7,362.9,218.8,320.1,216.4,290.8z"/>
		<path class="st23" d="M243,286.5c-0.5-0.1-0.8-0.1-1.2-0.1c-2.8,0-5.5-0.1-8.4,0c-1.5,0-3.2,0.1-4.8,0.4c-1.2,0.2-1.4,0.4-1.5,1.7
			c0,0.9,0.5,1.4,1.5,1.7c0.6,0.1,1.1,0.2,1.7,0.3c0.9,32.3-0.1-0.5-1.7,69.9c0,0.8,0,1.6,0,2.3c-0.6,0.2-1.2,0.3-1.8,0.4
			c-0.5,0.2-0.9,0.4-1.1,0.7c-0.5,1.4-0.3,2.4,2,2.8c0.8,0.1,1.5,0.2,2.3,0.2c3.7,0,7.5-0.1,11.4-0.2c1.8,0,2.5-0.6,2.6-1.8
			c0.2-0.4,0-1,0-1.4c-0.2-0.7-0.6-0.9-1.4-1c-1.1,0-2-0.1-3.2-0.1c1.1-24,2.2-47.8,2.2-71.7c3.4-0.2,3.5-0.3,3.4-2.3
			C244.8,286.9,244.6,286.7,243,286.5z"/>
		<path class="st23" d="M294.3,286.3c-0.6,0-1.2,0-1.7,0c-15.3,0.5-23.9-0.2-36.7,0.4c-1.5,0.1-2.2,0.4-2.5,1.6
			c-0.2,1,0.3,1.5,1.7,2c0.6,0.1,1.1,0.2,1.7,0.2c3.1,0,7.3,0,10.9,0c0,0.4,0,71.8,0,71.4c0,0.9,0,1.7,0,2.5c0.2,1.3,1.1,2,2.9,2.1
			c2.5,0.1,4.9,0.1,7.4,0.1c1.8-0.1,2.8-0.8,3.1-2.1c0-0.3,0-0.8,0-1.1c1.5-42.5-0.3-63.9-0.3-73.3c4.9,0,5.5,0,10.8,0.2
			c1.1,0,2-0.1,3.1-0.2c1.2-0.2,2.2-1.1,2-2.1C296.6,287.2,295.7,286.5,294.3,286.3z"/>
	</g>
	<g>
		<path class="st28" d="M252.4,255.7c-0.4-1.1-2-2.2-4.8-3.1c-0.1,0-0.3-0.1-0.4-0.1c0.1,1.1,0.2,2.3,0.3,3.4
			c0.1,1.2,0.1,2.5,0.1,3.7c0.8-0.1,1.5-0.3,2.1-0.6C253,257.5,252.6,256.2,252.4,255.7z"/>
		<path class="st28" d="M276.3,243.9H129.6v0.2l9.2,14.7l-9.2,17.7h146.3l-9.4-17.7L276.3,243.9z M168.1,271.2
			c0,2.3-2.2,2.4-3.2,2.4c-0.6,0-1.1,0-1.7,0c-0.6,0-1.1,0-1.7,0h0c-1.3,0-1.9-0.6-2.2-1.1c-0.4-0.7-0.9-1.4-1.2-2.2
			c-0.7-1.6-1.5-3.2-2.2-4.8c-0.7-1.5-1.4-3.1-2.1-4.6c0,1.2,0,2.3,0,3.5l-0.2,6.3c0,0.4-0.1,0.9-0.1,1.4c-0.1,1.4-1.3,1.5-1.8,1.5
			c-0.3,0-0.7,0.1-1.1,0c-1.4,0-1.7-0.9-1.8-1.4c-0.1-0.3,0-0.6,0-0.8c0,0,0-0.1,0-0.1c-0.1-4.6-0.1-9.2-0.1-13.8
			c0-2.6,0.1-5.2,0.3-7.8l0-0.2c0,0,0-0.1,0-0.2c0-0.2,0-0.3,0-0.5c-0.1-0.5,0.1-0.9,0.2-1.1c0.4-0.6,1-0.7,1.6-0.8
			c1.6-0.3,2.9,0,3.8,0.8c0.7,0.7,1.2,1.3,1.5,2l0.4,0.7c1.3,2.3,2.6,4.7,3.8,7.2c0.7,1.4,1.4,2.9,2.1,4.3c0-0.3,0-0.7,0-1
			c-0.1-1.3-0.1-2.7-0.1-4c0-1.3-0.1-2.6-0.1-3.9c0-0.7-0.1-1.3-0.1-1.9c0-0.3-0.1-0.6-0.1-1c-0.1-0.4,0-0.8,0-1.2
			c0-0.1,0-0.3,0-0.4v-0.2l0.1-0.2c0.3-1,1.3-1.1,1.6-1.2c1.1-0.2,2.6,0,3.2,1.1c0.3,0.6,0.4,1.2,0.4,1.9c0,0.6,0.1,1.3,0.1,1.9
			c0.1,1.3,0.1,2.5,0.3,3.8c0.3,3.5,0.4,7.1,0.5,10.6l0,1.2c0.1,1,0.1,2.1,0.1,3.2l0.1,0V271.2z M188.7,272.6c-0.5,0.8-1.4,1-2.7,1
			c-2.4,0-4.7,0-7.1,0h-5.2c-0.5,0-1,0-1.5-0.1c-1.6-0.2-1.9-1.1-1.9-1.8V258c0-1.8,0.1-3.7,0.1-5.5c0-0.7,0-1.5,0.1-2.2
			c-0.3-0.1-0.6-0.3-0.7-0.7c-0.3-0.7-0.2-1.4-0.1-1.7l0.1-0.3c0.3-0.7,1-0.8,1.4-0.8l0.1,0l6.6-0.2c2.3,0,4.6-0.1,6.8-0.1
			c0.7,0,1.4,0,2,0.1c0.6,0.1,1.3,0.2,1.7,0.8c0.2,0.3,0.4,0.7,0.3,1.3c-0.2,1-0.9,1.6-2.1,1.7c-0.6,0-1.1,0-1.6,0h-6.1
			c0.1,1.8,0,3.5,0,5.2c-0.1,1.3-0.1,2.6-0.1,3.9h1.7c1.6,0,3.3,0,4.9,0.1c0,0,0,0,0,0c1.7,0,2.6,0.6,2.7,1.9c0.1,0.3,0,0.6,0,0.7
			v0.3l-0.1,0.3c-0.2,0.6-0.8,1-1.5,1l-0.4,0c-0.4,0-0.8,0.1-1.2,0.1c-1.6,0-3.3,0-5,0h-1.1v4.9c0,0.1,0,0.2,0,0.3h1.9
			c1.6-0.1,3.7-0.1,5.9,0l0,0c0.8,0.1,1.8,0.3,2.3,1.2l0.1,0.2C189.1,271.5,189,272.1,188.7,272.6z M216.3,249.1
			c-0.2,0.4-0.4,0.8-0.6,1.2c-0.4,0.9-0.8,1.8-1.4,2.7c-1.4,2-2.5,4.1-3.3,5.7c-0.7,1.5-1.5,2.9-2.2,4.4c-0.7,1.5-1.5,2.9-2.2,4.4
			c-0.5,0.9-1,1.8-1.5,2.7c-0.3,0.4-0.5,0.9-0.8,1.3c-0.2,0.3-0.4,0.7-0.6,0.9c-0.3,0.3-0.6,0.6-0.9,0.8c-0.4,0.2-1,0.4-1.5,0.4
			c-0.7,0-1.3-0.2-1.8-0.6l-0.1-0.1c-0.3-0.3-0.5-0.5-0.6-0.8c-0.2-0.5-0.4-0.9-0.7-1.4c-0.5-0.9-0.9-1.9-1.4-2.8
			c-1.2-2.9-2.2-5.8-3.1-8.6c-0.3-0.8-0.5-1.6-0.8-2.3c-0.5-1.4-1-2.8-1.5-4.2c-0.3-0.7-0.5-1.4-0.8-2.1c-0.1-0.4-0.2-0.7-0.3-1
			c-0.1-0.3-0.2-0.6-0.3-0.9l0-0.1c-0.1-0.4-0.1-0.8,0.1-1.2c0.3-0.6,1-0.8,1.2-0.9c1.3-0.3,2.2-0.2,3.3-0.1c0.3,0,0.6,0,0.9,0
			c0,0,0,0,0,0c1.1,0,1.7,0.5,1.9,1l0.1,0.2c0.4,0.6,0.9,1.3,1.2,2c0.5,1.1,0.9,2.2,1.3,3.3c0.4,1,0.8,2.1,1.3,3.1
			c0.5,1.4,1.1,2.7,1.7,4.1c0.3,0.8,0.6,1.6,1,2.3c0.8-1.6,1.6-3.3,2.5-4.9c1.6-3.1,3.3-6.3,4.9-9.2c0.3-0.5,0.6-0.9,0.9-1.2
			c0.5-0.5,1.2-0.7,2.1-0.7l0,0c0.8,0.1,1.6,0.2,2,1C216.5,248.1,216.5,248.6,216.3,249.1z M237.1,272.6c-0.5,0.8-1.4,1-2.7,1
			c-2.4,0-4.7,0-7.1,0h-5.2c-0.5,0-1,0-1.5-0.1c-1.6-0.2-1.9-1.1-1.9-1.8V258c0-1.8,0.1-3.7,0.1-5.5c0-0.7,0-1.5,0.1-2.2
			c-0.3-0.1-0.6-0.3-0.7-0.7c-0.3-0.7-0.2-1.4-0.1-1.7l0.1-0.3c0.3-0.7,1-0.8,1.4-0.8l0.1,0l6.6-0.2c2.3,0,4.6-0.1,6.8-0.1
			c0.7,0,1.4,0,2,0.1c0.6,0.1,1.3,0.2,1.7,0.8c0.2,0.3,0.4,0.7,0.3,1.3c-0.2,1-0.9,1.6-2.1,1.7c-0.6,0-1.1,0-1.6,0h-6.1
			c0.1,1.8,0,3.5,0,5.2c-0.1,1.3-0.1,2.6-0.1,3.9h1.7c1.6,0,3.3,0,4.9,0.1c0,0,0,0,0,0c1.7,0,2.6,0.6,2.7,1.9c0.1,0.3,0,0.6,0,0.7
			v0.3l-0.1,0.3c-0.2,0.6-0.8,1-1.5,1.1l-0.4,0c-0.4,0-0.8,0.1-1.2,0.1c-1.6,0-3.3,0-5,0H227v4.9c0,0.1,0,0.2,0,0.3h1.9
			c1.6-0.1,3.7-0.1,5.9,0l0,0c0.8,0.1,1.8,0.3,2.3,1.2l0.1,0.2C237.4,271.5,237.4,272.1,237.1,272.6z M259.3,272.5
			c-0.4,0.9-1.4,1-1.7,1.1c-1.1,0.1-2,0.1-2.9-0.7c-1-0.8-1.9-1.6-2.9-2.5c-0.9-0.8-1.8-1.6-2.8-2.4c-0.6-0.5-1.1-0.9-1.6-1.4
			c-0.1-0.1-0.1-0.1-0.2-0.2c0,1.6-0.1,3.2-0.1,4.9l0,0.1c-0.2,2.2-2.5,2.2-3.3,2.2c-0.7,0-1.5,0-2.1,0c0,0,0,0-0.1,0
			c-1,0-2.6,0-2.6-2c0-0.9,0-1.7,0-2.6c0-0.9,0-1.7,0-2.6c0-2,0-4,0-6c0-2,0-4,0-6v-4.9c0-0.4,0.1-0.8,0.2-1.1
			c0.3-1.3,1.6-1.6,2.1-1.7c0.8-0.2,1.8-0.2,2.9-0.2c3.2,0.2,5.9,0.8,8.5,2.1c2.9,1.5,4.6,3.3,5.1,5.6c0.4,1.5,0.2,3-0.5,4.3
			c-1.3,2.1-3.7,3.7-7.2,4.7c0.6,0.5,1.3,1.1,1.9,1.6c2.1,1.7,4.1,3.4,6.2,5.2c0.1,0.1,0.2,0.2,0.3,0.3c0.1,0.1,0.1,0.1,0.2,0.2
			l0.2,0.2C259.6,271.6,259.4,272.3,259.3,272.5z"/>
	</g>
	<g>
		<path class="st23" d="M185.9,214.3c-0.1,0.2-0.3,0.2-0.3,0.3c-2.3,3.2-4.6,6.5-6.8,9.8c-1,1.5-1.8,3.2-2.7,4.8c-0.6,1-1.1,2-1.8,3
			c-1.6,2.2-4.1,2.6-6.5,1.6c-1.7-0.7-2.8-2.4-2.6-4.3c0.1-1.4,0.4-2.7,0.7-4.1c0.8-3.6,1.6-7.1,2.3-10.7c0.1-0.4,0.2-0.9,0.3-1.5
			c-0.3,0.2-0.4,0.4-0.6,0.5c-1.7,2.2-3.5,4.3-5.1,6.5c-1.7,2.3-3.4,4.7-5.1,7c-1.1,1.5-2.4,2.9-3.9,4c-1.1,0.8-2.3,1.5-3.6,1.7
			c-1.9,0.3-3.4-0.3-4.5-1.9c-0.9-1.3-1.2-2.7-1.4-4.2c-0.2-2.2,0.2-4.4,0.6-6.6c0.6-3,1.4-5.9,2.6-8.7c0.2-0.5,0.3-1.1,0.6-1.6
			c0.8-2,2.4-3.3,4.5-3.6c3-0.5,5.2,1.3,5.7,4.2c0.2,1.4,0.1,2.8-0.4,4.2c-0.5,1.5-1.2,3-1.8,4.5c-0.8,1.8-1.5,3.7-2.3,5.5
			c-0.1,0.3-0.2,0.6-0.2,1.1c0.3-0.3,0.7-0.7,1-1c2.4-3.2,4.9-6.4,7.3-9.6c1.9-2.5,3.8-5,5.9-7.3c1.3-1.4,2.7-2.6,4.3-3.6
			c0.8-0.5,1.7-0.9,2.6-1.1c2.8-0.7,5.2,0.9,5.8,3.7c0.3,1.4,0.2,2.8,0,4.1c-0.2,1.1-0.4,2.2-0.6,3.3c0.4,0,0.5-0.3,0.6-0.5
			c1.8-2.7,3.9-5.2,6.2-7.5c0.9-0.9,1.8-1.7,2.8-2.6c0.9-0.7,1.8-1.2,2.9-1.5c3-0.9,5.5,0.8,5.6,4c0.1,1.6-0.2,3.1-0.6,4.6
			c-1,3.7-2,7.3-3,10.9c-0.3,1-0.5,2-0.8,3c0,0.2-0.1,0.4-0.1,0.8c0.4-0.3,0.6-0.5,0.8-0.8c1.7-2,3.3-3.9,4.9-5.9
			c2.6-3.2,5.1-6.5,7.6-9.8c1.3-1.7,2.6-3.4,4.3-4.8c1-0.8,2-1.5,3.1-2.2c0.4-0.3,0.8-0.4,1.3-0.5c1.5-0.4,3.1,0.2,3.9,1.6
			c0.3,0.5,0.5,1.1,0.6,1.6c0.3,2,0.2,3.9-0.1,5.9c0,0.2-0.1,0.4-0.1,0.6c0,0.1,0,0.1,0.1,0.3c0.3-0.4,0.6-0.7,0.8-1
			c1.9-2.4,4-4.7,6.2-6.8c1.5-1.4,3.2-2.6,5.1-3.5c1.1-0.5,2.3-0.8,3.6-1c3.4-0.3,6,1.7,6.5,5c0.4,2.5,0.2,4.9-0.5,7.3
			c-0.9,3.4-1.9,6.8-2.8,10.2c-0.2,0.5-0.3,1.1-0.3,1.7c0.2-0.3,0.5-0.5,0.6-0.8c2.3-3.5,4.7-7,7.4-10.3c1.7-2.2,3.4-4.5,5-6.9
			c1.6-2.3,3.4-4.4,5.7-6c1.5-1,3.1-1.6,5-1.5c2.7,0.2,4.4,2,4.5,4.7c0,1.5-0.5,2.9-1.3,4.1c-1.6,2.4-3.7,4.3-6.3,5.6
			c-0.7,0.4-1.1,0.9-1.2,1.6c-0.3,1.5-0.6,3.1-0.8,4.6c-0.1,0.9-0.2,1.8-0.3,2.8c0,0.4,0,0.9,0,1.3c0.1,1,0.7,1.5,1.7,1.5
			c0.9,0,1.8-0.1,2.7-0.5c1.6-0.8,3.1-1.7,4.4-2.8c3.7-3,6.8-6.6,9.3-10.6c1.2-1.9,2.3-3.9,3.4-5.9c0.2-0.3,0.3-0.6,0.4-1
			c-0.5,0-0.9,0-1.3,0c-2.7-0.3-4.4-3-3.4-5.5c0.6-1.4,1.6-2.4,3.1-3c1.6-0.6,3.2-0.1,4.1,1.4c0.4,0.7,0.6,1.4,0.8,2.2
			c0.1,0.2,0.1,0.4,0.2,0.8c0.3-0.1,0.6-0.2,0.9-0.3c2.2-0.8,4.4-1.7,6.7-2.4c1.1-0.4,2.4-0.6,3.5-0.8c0.9-0.2,1.8,0,2.7,0.2
			c2.4,0.7,4,2.9,3.7,5.4c-0.1,1-0.4,2.1-0.8,3.1c-1,2.8-2.4,5.4-3.7,8c-1.6,3.1-2.7,6.4-3.5,9.9c-0.1,0.3-0.1,0.5-0.1,0.8
			c0,0.2,0,0.3,0,0.5c0.6,0.2,1.2,0.1,1.7-0.2c3.7-2.1,7.1-4.6,10.4-7.3c2.7-2.3,5.4-4.6,7.9-7.2c0.2-0.2,0.4-0.5,0.7-0.7
			c-0.1-0.3-0.3-0.6-0.4-0.9c-0.9-1.9-1.6-3.8-2-5.9c-0.4-2.4-0.1-4.8,1.2-6.9c1.3-2.1,3.1-3.5,5.6-3.8c2-0.2,3.8,0.8,4.7,2.6
			c0.6,1.3,0.8,2.7,0.6,4.1c-0.2,2-0.9,3.8-1.8,5.6c-0.2,0.3-0.3,0.6-0.5,0.9c3.2,3.3,6.8,6.2,9.4,10c0.7-0.2,1.4-0.4,2.2-0.6
			c2.5-0.7,5.1-1.4,7.6-2c3.7-1,7-2.6,10.3-4.6c0.4-0.3,0.9-0.5,1.4-0.7c0.9-0.3,1.7-0.1,2.1,0.6c0.4,0.7,0.2,1.5-0.4,2.1
			c-0.1,0.1-0.3,0.2-0.4,0.3c-4.3,3.2-9.1,5.6-14.4,6.8c-2,0.4-4,0.9-6,1.4c-0.2,0-0.4,0.1-0.6,0.2c0.1,0.3,0.1,0.6,0.2,0.9
			c1.2,4.7-0.6,10.1-5.4,12.7c-1.5,0.8-3,1.8-4.7,2.4c-1.3,0.4-2.6,0.8-4,0.9c-0.5,0-0.9,0-1.4-0.1c-1-0.3-1.9-0.6-2.8-1.1
			c-1.9-0.9-3.1-3.3-2.9-5.6c0.1-1.3,0.7-2.5,1.4-3.6c1.5-2.1,3.4-3.9,5.6-5.3c0.3-0.2,0.6-0.4,1-0.6c-0.9-2.3-2.3-4.4-3.6-6.7
			c-0.3,0.3-0.5,0.5-0.7,0.7c-5.2,5.4-10.9,10.3-17.2,14.4c-1.5,1-3.1,1.9-4.7,2.6c-2.1,1-4.3,1.3-6.6,0.8c-0.6-0.2-1.3-0.4-1.9-0.7
			c-2.3-1.1-3.3-2.9-3.4-5.4c0-1.4,0.3-2.8,0.7-4.2c1.1-3.3,2.7-6.4,4.4-9.4c1.3-2.3,2.8-4.5,4.1-6.8c0.4-0.6,0.7-1.3,1.2-2
			c-0.3,0-0.5,0-0.6,0c-2.3,0.5-4.6,1-6.9,1.5c-0.5,0.1-0.7,0.3-0.9,0.8c-0.3,1-0.7,2.1-1.2,3.1c-1.6,3.3-3.1,6.6-5.1,9.6
			c-2.8,4.3-6.1,8.2-10.1,11.3c-1.8,1.4-3.6,2.6-5.9,3.1c-4.4,1-8.6,0.5-12.2-2.6c-1.4-1.2-2.3-2.6-2.7-4.3c0-0.1-0.1-0.3-0.1-0.4
			c0,0,0,0-0.2-0.3c-0.1,0.2-0.2,0.4-0.3,0.5c-1.8,2.7-4.3,4.7-6.6,7c-0.9,0.9-2,1.5-3.3,1.9c-1.4,0.4-2.6,0.2-3.8-0.6
			c-1.1-0.8-1.8-1.8-2.3-3.1c-0.5-1.5-0.6-2.9-0.4-4.5c0.4-4.4,1.2-8.8,2.4-13.1c0.4-1.6,0.8-3.2,1.1-4.9c-0.2,0.2-0.5,0.4-0.7,0.6
			c-1.3,1.5-2.6,2.8-3.8,4.4c-3.2,4.3-6.2,8.8-8.7,13.6c-0.9,1.7-2,3.4-3,5.1c-0.3,0.6-0.7,1.1-1.2,1.6c-1.1,1.3-2.6,1.7-4.2,1.2
			c-1.6-0.5-2.8-1.5-3.2-3.2c-0.3-1-0.2-2.1,0-3.1c0.4-2.7,1.1-5.4,1.9-8c0.9-2.8,1.8-5.6,2.7-8.3c0-0.1,0-0.2,0-0.4
			c-0.4,0.4-0.8,0.7-1.1,1.1c-2.2,2.3-4.1,4.8-5.9,7.4c-1.4,2-2.6,4.1-4,6.1c-1.2,1.7-2.6,3.4-4,5c-0.6,0.8-1.5,1.4-2.3,2
			c-1,0.7-2.2,1.1-3.5,0.9c-1.4-0.2-2.6-0.8-3.4-2c-0.8-1.2-1.3-2.5-1.4-3.9c-0.1-1.8-0.1-3.6,0-5.5c0.1-2.2,0.4-4.4,0.7-6.6
			C186,214.5,186,214.4,185.9,214.3z M318.7,222.3c-1.9,1.3-3.3,2.7-4.4,4.4c-0.2,0.3-0.3,0.6-0.3,1c-0.1,1,0.7,1.5,1.6,1.1
			c0.3-0.1,0.5-0.3,0.7-0.5C318.2,226.8,318.7,224.7,318.7,222.3z M317.6,201.2c0.9-1.6,1.5-3.3,1.4-5.2c0-0.3-0.1-0.6-0.2-0.8
			c-0.3-0.9-1-1-1.6-0.3c-0.1,0.2-0.2,0.3-0.4,0.5C315.8,196.9,316,199.1,317.6,201.2z M260,209c1.4-0.9,2.5-2.1,3.3-3.5
			c0.3-0.6,0.5-1.2,0.4-1.8c0-0.2-0.2-0.4-0.3-0.7C261.8,204.9,260.9,206.9,260,209z M279.4,200.1c0.2-0.6,0-1.2-0.2-1.8
			c-0.2-0.6-1-0.9-1.4-0.5c-0.4,0.4-0.7,0.9-0.9,1.4c-0.2,0.3,0,0.6,0.4,0.7C277.9,200.1,278.6,200.3,279.4,200.1z"/>
		<path class="st23" d="M197.3,168.3c-1.6-0.6-3.2-1.2-4.9-1.8c-4.3-1.6-8.8-2.9-13.3-3.6c-2.3-0.4-4.6-0.5-6.9-0.8
			c-2.1-0.2-4.2-0.4-6.4-0.7c-0.3,0-0.6-0.1-0.9-0.3c-0.6-0.3-0.8-0.8-0.8-1.4c0-0.6,0.5-1.2,1.1-1.3c0.6-0.1,1.1-0.1,1.7-0.2
			c8.7-0.4,17.2,1.2,25.4,4.1c3.6,1.3,7.3,2.7,10.9,4c0.6,0.2,1.1,0.3,1.8,0.1c8-2,16-3.7,24.1-5c6-1,12-1.7,18-2
			c4.6-0.2,9.1-0.4,13.7-0.1c5.1,0.3,10.1,0.9,14.9,2.6c2.2,0.8,4.2,1.7,6,3.2c0.8,0.6,1.5,1.3,2.1,2c2.2,2.6,2.4,6,0.5,8.9
			c-1,1.5-2.3,2.7-3.8,3.6c-2.4,1.4-5,2.3-7.7,2.7c-4.3,0.8-8.7,0.9-13.1,0.9c-4.7,0-9.3-0.2-13.9-0.8c-3.8-0.4-7.5-1.2-11.2-2
			c-9.8-2-19.3-5.3-28.7-8.8c-0.6-0.2-1.1-0.2-1.7-0.1c-5.8,1.4-11.5,2.7-17.3,4.1c-7.9,2-15.8,4-23.6,6.1c-5.3,1.4-10.6,2.4-16,3.2
			c-0.4,0.1-0.8,0.1-1.2,0.2c-0.2,1.1-0.3,2.2-0.5,3.3c-1.4,7.6-3.5,14.9-6.1,22.2c-1.6,4.5-3.3,8.9-5.5,13.1
			c-1.1,2.2-2.3,4.2-3.9,6.1c-0.9,1.1-1.9,2.2-3.1,3c-1.8,1.2-3.7,1.6-5.8,1.1c-1.3-0.3-2.4-1.1-3.4-2c-1.3-1.3-2.1-2.9-2.7-4.7
			c-1.2-3.7-1.5-7.6-1.3-11.5c0.3-4.4,1-8.8,1.9-13.1c0-0.1,0-0.1,0-0.4c-0.3,0.4-0.4,0.7-0.6,1c-2.4,4.2-4.7,8.5-7.1,12.7
			c-2.1,3.7-4.3,7.3-6.9,10.7c-1.8,2.4-3.9,4.5-6.3,6.2c-1.5,1.1-3,1.9-4.8,2.3c-2,0.4-3.9,0-5.6-1.2c-1.1-0.8-2-1.9-2.7-3.1
			c-1.3-2.3-2-4.8-2.3-7.5c-0.5-4.1,0-8.1,0.8-12.1c1.4-7.3,3.7-14.2,6.4-21.1c1.3-3.3,2.8-6.5,4.2-9.8c0.3-0.7,0.5-1.4,0.8-2
			c1.4-3.7,5.4-6,9.3-5.3c2.3,0.4,3.9,2.1,4.3,4.5c0.3,1.6,0.1,3.2-0.5,4.8c-0.6,1.8-1.3,3.6-2.1,5.3c-2.2,4.8-4.4,9.5-6.6,14.3
			c-2.5,5.7-4.7,11.6-6.2,17.6c-0.6,2.3-1,4.6-1.2,7c-0.1,0.8-0.1,1.6,0,2.4c0,0.7,1,1.7,1.6,1.7c0.2,0,0.5-0.1,0.7-0.2
			c1.4-0.7,2.6-1.6,3.7-2.7c2.1-1.9,3.9-4,5.5-6.2c3.8-5.5,7.4-11.3,10.7-17.1c1.4-2.4,2.8-4.7,4.1-7.1c0.5-0.9,0.9-1.7,1.3-2.6
			c1.2-2.8,3.4-4.4,6.3-5.1c1-0.2,2.1-0.3,3.1-0.1c2.6,0.4,4.3,2.3,4.7,5c0.3,1.9,0,3.7-0.5,5.5c-0.8,2.8-1.7,5.6-2.6,8.4
			c-1.2,3.8-2.5,7.7-3.3,11.7c-0.3,1.7-0.6,3.4-0.7,5.1c-0.1,1,0.1,2,0.2,2.9c0.1,0.7,0.4,1.2,1.1,1.7c0.4-0.3,0.9-0.6,1.3-1
			c1.2-1.1,2.1-2.3,2.9-3.6c1.8-2.8,3.2-5.9,4.5-9c3-7.4,5.3-15,7.1-22.8c0.5-2.2,0.9-4.4,1.3-6.6c0.1-0.4,0.1-0.7,0.2-1.2
			c-0.3,0-0.6,0-0.9,0c-3,0.1-5.9-0.1-8.7-1c-0.7-0.2-1.5-0.5-2.2-0.9c-3.7-1.8-5.2-5.1-4.4-9c0.4-2,1.3-3.9,2.8-5.4
			c2.8-3,6.2-3.9,10.1-2.9c2,0.5,3.5,1.8,4.7,3.5c1.4,1.9,2.2,4.1,2.6,6.4c0.2,1.4,0.3,2.9,0.4,4.3c0,0.3,0,0.5,0,0.9
			c0.6-0.1,1.1-0.1,1.6-0.2c5.7-0.8,11.3-2.1,16.9-3.7c10.6-3,21.3-6,31.9-8.9c0.2,0,0.3-0.1,0.5-0.2
			C197.3,168.4,197.3,168.4,197.3,168.3z M212.1,169.7c0.4,0.2,0.6,0.3,0.8,0.4c3.1,1.1,6.2,2.2,9.3,3.2c5.8,1.9,11.8,3.2,17.7,4.3
			c4.1,0.8,8.2,1.3,12.4,1.2c3-0.1,5.9-0.5,8.7-1.3c2.4-0.7,4.4-1.9,6-3.8c0.6-0.7,0.7-1.4,0.4-2.2c-0.2-0.4-0.5-0.9-0.8-1.2
			c-0.8-1-1.9-1.8-3-2.4c-1.6-0.9-3.4-1.5-5.2-1.9c-4-0.9-8.1-1.2-12.1-1.1c-7,0.1-13.9,0.8-20.7,2.1c-3.9,0.7-7.8,1.7-11.7,2.6
			C213.2,169.4,212.7,169.5,212.1,169.7z M142.3,181.7c0.1-2.2-0.1-4.3-0.6-6.3c-0.2-0.9-0.7-1.5-1.5-1.8c-1.1-0.5-1.9-0.4-2.8,0.5
			c-0.9,1-1.4,2.2-1.5,3.5c-0.1,1.4,0.5,2.3,1.7,2.9C139,181.2,140.6,181.4,142.3,181.7z"/>
		<path class="st23" d="M153.6,202c-2.7,0-5-2-5.2-5.3c-0.1-2.9,2.6-5.4,5.6-5.4c3.5,0,5.6,2.5,5.6,5.2
			C159.7,200.1,156.2,202,153.6,202z"/>
	</g>
</g>
</svg>
